<?xml version="1.0" encoding="UTF-8"?>
<svg version="1.1" xmlns="http://www.w3.org/2000/svg" width="320" height="320">
<path d="M0 0 C105.6 0 211.2 0 320 0 C320 105.6 320 211.2 320 320 C214.4 320 108.8 320 0 320 C0 214.4 0 108.8 0 0 Z " fill="#54587A" transform="translate(0,0)"/>
<path d="M0 0 C105.6 0 211.2 0 320 0 C320 66 320 132 320 200 C316.7 200 313.4 200 310 200 C310 206.6 310 213.2 310 220 C303.4 220 296.8 220 290 220 C290 223.3 290 226.6 290 230 C283.4 230 276.8 230 270 230 C270 233.3 270 236.6 270 240 C260.1 240 250.2 240 240 240 C240 220.2 240 200.4 240 180 C236.7 180 233.4 180 230 180 C230 176.7 230 173.4 230 170 C233.3 170 236.6 170 240 170 C240 160.1 240 150.2 240 140 C243.3 140 246.6 140 250 140 C250 136.7 250 133.4 250 130 C246.7 130 243.4 130 240 130 C240 126.7 240 123.4 240 120 C233.4 120 226.8 120 220 120 C220 93.6 220 67.2 220 40 C216.7 40 213.4 40 210 40 C210 36.7 210 33.4 210 30 C180.3 30 150.6 30 120 30 C120 33.3 120 36.6 120 40 C116.7 40 113.4 40 110 40 C110 66.4 110 92.8 110 120 C103.4 120 96.8 120 90 120 C90 123.3 90 126.6 90 130 C86.7 130 83.4 130 80 130 C80 133.3 80 136.6 80 140 C83.3 140 86.6 140 90 140 C90 146.6 90 153.2 90 160 C93.3 160 96.6 160 100 160 C100 163.3 100 166.6 100 170 C96.7 170 93.4 170 90 170 C90 189.8 90 209.6 90 230 C86.7 230 83.4 230 80 230 C80 233.3 80 236.6 80 240 C70.1 240 60.2 240 50 240 C50 236.7 50 233.4 50 230 C43.4 230 36.8 230 30 230 C30 226.7 30 223.4 30 220 C23.4 220 16.8 220 10 220 C10 213.4 10 206.8 10 200 C6.7 200 3.4 200 0 200 C0 134 0 68 0 0 Z " fill="#FAFEFE" transform="translate(0,0)"/>
<path d="M0 0 C29.7 0 59.4 0 90 0 C90 3.3 90 6.6 90 10 C93.3 10 96.6 10 100 10 C100 36.4 100 62.8 100 90 C106.6 90 113.2 90 120 90 C120 93.3 120 96.6 120 100 C123.3 100 126.6 100 130 100 C130 103.3 130 106.6 130 110 C126.7 110 123.4 110 120 110 C120 119.9 120 129.8 120 140 C116.7 140 113.4 140 110 140 C110 143.3 110 146.6 110 150 C106.7 150 103.4 150 100 150 C100 153.3 100 156.6 100 160 C90.1 160 80.2 160 70 160 C70 156.7 70 153.4 70 150 C66.7 150 63.4 150 60 150 C60 146.7 60 143.4 60 140 C53.4 140 46.8 140 40 140 C40 143.3 40 146.6 40 150 C36.7 150 33.4 150 30 150 C30 153.3 30 156.6 30 160 C20.1 160 10.2 160 0 160 C0 156.7 0 153.4 0 150 C-3.3 150 -6.6 150 -10 150 C-10 146.7 -10 143.4 -10 140 C-13.3 140 -16.6 140 -20 140 C-20 136.7 -20 133.4 -20 130 C-23.3 130 -26.6 130 -30 130 C-30 123.4 -30 116.8 -30 110 C-33.3 110 -36.6 110 -40 110 C-40 106.7 -40 103.4 -40 100 C-36.7 100 -33.4 100 -30 100 C-30 96.7 -30 93.4 -30 90 C-23.4 90 -16.8 90 -10 90 C-10 63.6 -10 37.2 -10 10 C-6.7 10 -3.4 10 0 10 C0 6.7 0 3.4 0 0 Z " fill="#12440A" transform="translate(120,30)"/>
<path d="M0 0 C105.6 0 211.2 0 320 0 C320 66 320 132 320 200 C316.7 200 313.4 200 310 200 C310 206.6 310 213.2 310 220 C303.4 220 296.8 220 290 220 C290 223.3 290 226.6 290 230 C283.4 230 276.8 230 270 230 C270 233.3 270 236.6 270 240 C260.1 240 250.2 240 240 240 C240 223.5 240 207 240 190 C243.3 190 246.6 190 250 190 C250 186.7 250 183.4 250 180 C256.6 180 263.2 180 270 180 C270 183.3 270 186.6 270 190 C276.6 190 283.2 190 290 190 C290 186.7 290 183.4 290 180 C293.3 180 296.6 180 300 180 C300 183.3 300 186.6 300 190 C303.3 190 306.6 190 310 190 C310 130.6 310 71.2 310 10 C211 10 112 10 10 10 C10 69.4 10 128.8 10 190 C13.3 190 16.6 190 20 190 C20 186.7 20 183.4 20 180 C23.3 180 26.6 180 30 180 C30 183.3 30 186.6 30 190 C36.6 190 43.2 190 50 190 C50 186.7 50 183.4 50 180 C56.6 180 63.2 180 70 180 C70 183.3 70 186.6 70 190 C76.6 190 83.2 190 90 190 C90 203.2 90 216.4 90 230 C86.7 230 83.4 230 80 230 C80 233.3 80 236.6 80 240 C70.1 240 60.2 240 50 240 C50 236.7 50 233.4 50 230 C43.4 230 36.8 230 30 230 C30 226.7 30 223.4 30 220 C23.4 220 16.8 220 10 220 C10 213.4 10 206.8 10 200 C6.7 200 3.4 200 0 200 C0 134 0 68 0 0 Z " fill="#EEE4EA" transform="translate(0,0)"/>
<path d="M0 0 C6.6 0 13.2 0 20 0 C20 3.3 20 6.6 20 10 C23.3 10 26.6 10 30 10 C30 13.3 30 16.6 30 20 C39.9 20 49.8 20 60 20 C60 16.7 60 13.4 60 10 C66.6 10 73.2 10 80 10 C80 33.1 80 56.2 80 80 C73.4 80 66.8 80 60 80 C60 83.3 60 86.6 60 90 C56.7 90 53.4 90 50 90 C50 93.3 50 96.6 50 100 C43.4 100 36.8 100 30 100 C30 103.3 30 106.6 30 110 C10.2 110 -9.6 110 -30 110 C-30 106.7 -30 103.4 -30 100 C-33.3 100 -36.6 100 -40 100 C-40 96.7 -40 93.4 -40 90 C-43.3 90 -46.6 90 -50 90 C-50 63.6 -50 37.2 -50 10 C-46.7 10 -43.4 10 -40 10 C-40 13.3 -40 16.6 -40 20 C-30.1 20 -20.2 20 -10 20 C-10 16.7 -10 13.4 -10 10 C-6.7 10 -3.4 10 0 10 C0 6.7 0 3.4 0 0 Z " fill="#D8A066" transform="translate(160,170)"/>
<path d="M0 0 C29.7 0 59.4 0 90 0 C90 16.5 90 33 90 50 C73.5 50 57 50 40 50 C40 56.6 40 63.2 40 70 C56.5 70 73 70 90 70 C90 76.6 90 83.2 90 90 C60.3 90 30.6 90 0 90 C0 83.4 0 76.8 0 70 C9.9 70 19.8 70 30 70 C30 63.4 30 56.8 30 50 C20.1 50 10.2 50 0 50 C0 33.5 0 17 0 0 Z " fill="#2CB31A" transform="translate(120,30)"/>
<path d="M0 0 C3.3 0 6.6 0 10 0 C10 23.1 10 46.2 10 70 C109 70 208 70 310 70 C310 46.9 310 23.8 310 0 C313.3 0 316.6 0 320 0 C320 26.4 320 52.8 320 80 C214.4 80 108.8 80 0 80 C0 53.6 0 27.2 0 0 Z " fill="#464A66" transform="translate(0,240)"/>
<path d="M0 0 C49.5 0 99 0 150 0 C150 6.6 150 13.2 150 20 C146.7 20 143.4 20 140 20 C140 23.3 140 26.6 140 30 C136.7 30 133.4 30 130 30 C130 33.3 130 36.6 130 40 C120.1 40 110.2 40 100 40 C100 36.7 100 33.4 100 30 C96.7 30 93.4 30 90 30 C90 26.7 90 23.4 90 20 C83.4 20 76.8 20 70 20 C70 23.3 70 26.6 70 30 C66.7 30 63.4 30 60 30 C60 33.3 60 36.6 60 40 C50.1 40 40.2 40 30 40 C30 36.7 30 33.4 30 30 C26.7 30 23.4 30 20 30 C20 26.7 20 23.4 20 20 C16.7 20 13.4 20 10 20 C10 16.7 10 13.4 10 10 C6.7 10 3.4 10 0 10 C0 6.7 0 3.4 0 0 Z " fill="#002E49" transform="translate(90,150)"/>
<path d="M0 0 C56.1 0 112.2 0 170 0 C170 3.3 170 6.6 170 10 C166.7 10 163.4 10 160 10 C160 13.3 160 16.6 160 20 C110.5 20 61 20 10 20 C10 16.7 10 13.4 10 10 C6.7 10 3.4 10 0 10 C0 6.7 0 3.4 0 0 Z " fill="#2CB21A" transform="translate(80,130)"/>
<path d="M0 0 C3.3 0 6.6 0 10 0 C10 6.6 10 13.2 10 20 C16.6 20 23.2 20 30 20 C30 23.3 30 26.6 30 30 C36.6 30 43.2 30 50 30 C50 33.3 50 36.6 50 40 C59.9 40 69.8 40 80 40 C80 36.7 80 33.4 80 30 C83.3 30 86.6 30 90 30 C90 33.3 90 36.6 90 40 C93.3 40 96.6 40 100 40 C100 46.6 100 53.2 100 60 C93.4 60 86.8 60 80 60 C80 63.3 80 66.6 80 70 C70.1 70 60.2 70 50 70 C50 66.7 50 63.4 50 60 C43.4 60 36.8 60 30 60 C30 56.7 30 53.4 30 50 C23.4 50 16.8 50 10 50 C10 46.7 10 43.4 10 40 C6.7 40 3.4 40 0 40 C0 26.8 0 13.6 0 0 Z " fill="#62AAD4" transform="translate(0,200)"/>
<path d="M0 0 C3.3 0 6.6 0 10 0 C10 13.2 10 26.4 10 40 C6.7 40 3.4 40 0 40 C0 43.3 0 46.6 0 50 C-6.6 50 -13.2 50 -20 50 C-20 53.3 -20 56.6 -20 60 C-26.6 60 -33.2 60 -40 60 C-40 63.3 -40 66.6 -40 70 C-49.9 70 -59.8 70 -70 70 C-70 66.7 -70 63.4 -70 60 C-73.3 60 -76.6 60 -80 60 C-80 56.7 -80 53.4 -80 50 C-76.7 50 -73.4 50 -70 50 C-70 46.7 -70 43.4 -70 40 C-60.1 40 -50.2 40 -40 40 C-40 36.7 -40 33.4 -40 30 C-33.4 30 -26.8 30 -20 30 C-20 26.7 -20 23.4 -20 20 C-13.4 20 -6.8 20 0 20 C0 13.4 0 6.8 0 0 Z " fill="#62AAD4" transform="translate(310,200)"/>
<path d="M0 0 C13.2 0 26.4 0 40 0 C40 3.3 40 6.6 40 10 C30.1 10 20.2 10 10 10 C10 16.6 10 23.2 10 30 C26.5 30 43 30 60 30 C60 36.6 60 43.2 60 50 C30.3 50 0.6 50 -30 50 C-30 43.4 -30 36.8 -30 30 C-20.1 30 -10.2 30 0 30 C0 20.1 0 10.2 0 0 Z " fill="#2CB31B" transform="translate(150,70)"/>
<path d="M0 0 C6.6 0 13.2 0 20 0 C20 3.3 20 6.6 20 10 C26.6 10 33.2 10 40 10 C40 6.7 40 3.4 40 0 C49.9 0 59.8 0 70 0 C70 3.3 70 6.6 70 10 C73.3 10 76.6 10 80 10 C80 16.6 80 23.2 80 30 C76.7 30 73.4 30 70 30 C70 33.3 70 36.6 70 40 C60.1 40 50.2 40 40 40 C40 36.7 40 33.4 40 30 C33.4 30 26.8 30 20 30 C20 26.7 20 23.4 20 20 C13.4 20 6.8 20 0 20 C0 13.4 0 6.8 0 0 Z " fill="#9AF0FC" transform="translate(10,200)"/>
<path d="M0 0 C9.9 0 19.8 0 30 0 C30 3.3 30 6.6 30 10 C36.6 10 43.2 10 50 10 C50 6.7 50 3.4 50 0 C56.6 0 63.2 0 70 0 C70 6.6 70 13.2 70 20 C63.4 20 56.8 20 50 20 C50 23.3 50 26.6 50 30 C43.4 30 36.8 30 30 30 C30 33.3 30 36.6 30 40 C20.1 40 10.2 40 0 40 C0 26.8 0 13.6 0 0 Z " fill="#9AF0FC" transform="translate(240,200)"/>
<path d="M0 0 C3.3 0 6.6 0 10 0 C10 19.8 10 39.6 10 60 C-9.8 60 -29.6 60 -50 60 C-50 53.4 -50 46.8 -50 40 C-33.5 40 -17 40 0 40 C0 26.8 0 13.6 0 0 Z " fill="#000000" transform="translate(210,40)"/>
<path d="M0 0 C49.5 0 99 0 150 0 C150 3.3 150 6.6 150 10 C100.5 10 51 10 0 10 C0 6.7 0 3.4 0 0 Z " fill="#12440A" transform="translate(90,140)"/>
<path d="M0 0 C6.6 0 13.2 0 20 0 C20 23.1 20 46.2 20 70 C13.4 70 6.8 70 0 70 C0 46.9 0 23.8 0 0 Z " fill="#BB8854" transform="translate(90,170)"/>
<path d="M0 0 C16.5 0 33 0 50 0 C50 6.6 50 13.2 50 20 C46.7 20 43.4 20 40 20 C40 23.3 40 26.6 40 30 C30.1 30 20.2 30 10 30 C10 26.7 10 23.4 10 20 C6.7 20 3.4 20 0 20 C0 13.4 0 6.8 0 0 Z " fill="#007AC1" transform="translate(180,160)"/>
<path d="M0 0 C16.5 0 33 0 50 0 C50 6.6 50 13.2 50 20 C46.7 20 43.4 20 40 20 C40 23.3 40 26.6 40 30 C30.1 30 20.2 30 10 30 C10 26.7 10 23.4 10 20 C6.7 20 3.4 20 0 20 C0 13.4 0 6.8 0 0 Z " fill="#007AC1" transform="translate(110,160)"/>
<path d="M0 0 C3.3 0 6.6 0 10 0 C10 13.2 10 26.4 10 40 C19.9 40 29.8 40 40 40 C40 46.6 40 53.2 40 60 C26.8 60 13.6 60 0 60 C0 40.2 0 20.4 0 0 Z " fill="#000000" transform="translate(110,40)"/>
<path d="M0 0 C6.6 0 13.2 0 20 0 C20 3.3 20 6.6 20 10 C23.3 10 26.6 10 30 10 C30 13.3 30 16.6 30 20 C33.3 20 36.6 20 40 20 C40 23.3 40 26.6 40 30 C33.4 30 26.8 30 20 30 C20 33.3 20 36.6 20 40 C13.4 40 6.8 40 0 40 C0 33.4 0 26.8 0 20 C3.3 20 6.6 20 10 20 C10 16.7 10 13.4 10 10 C6.7 10 3.4 10 0 10 C0 6.7 0 3.4 0 0 Z " fill="#F3F4F8" transform="translate(240,120)"/>
<path d="M0 0 C13.2 0 26.4 0 40 0 C40 3.3 40 6.6 40 10 C30.1 10 20.2 10 10 10 C10 16.6 10 23.2 10 30 C19.9 30 29.8 30 40 30 C40 33.3 40 36.6 40 40 C26.8 40 13.6 40 0 40 C0 26.8 0 13.6 0 0 Z " fill="#AF9200" transform="translate(150,70)"/>
<path d="M0 0 C13.2 0 26.4 0 40 0 C40 3.3 40 6.6 40 10 C43.3 10 46.6 10 50 10 C50 16.6 50 23.2 50 30 C46.7 30 43.4 30 40 30 C40 33.3 40 36.6 40 40 C33.4 40 26.8 40 20 40 C20 36.7 20 33.4 20 30 C23.3 30 26.6 30 30 30 C30 23.4 30 16.8 30 10 C20.1 10 10.2 10 0 10 C0 6.7 0 3.4 0 0 Z " fill="#F2F4F8" transform="translate(60,50)"/>
<path d="M0 0 C9.9 0 19.8 0 30 0 C30 3.3 30 6.6 30 10 C33.3 10 36.6 10 40 10 C40 13.3 40 16.6 40 20 C43.3 20 46.6 20 50 20 C50 23.3 50 26.6 50 30 C43.4 30 36.8 30 30 30 C30 33.3 30 36.6 30 40 C23.4 40 16.8 40 10 40 C10 36.7 10 33.4 10 30 C13.3 30 16.6 30 20 30 C20 23.4 20 16.8 20 10 C13.4 10 6.8 10 0 10 C0 6.7 0 3.4 0 0 Z " fill="#F2F4F8" transform="translate(220,40)"/>
<path d="M0 0 C29.7 0 59.4 0 90 0 C90 3.3 90 6.6 90 10 C60.3 10 30.6 10 0 10 C0 6.7 0 3.4 0 0 Z " fill="#12440B" transform="translate(120,30)"/>
<path d="M0 0 C6.6 0 13.2 0 20 0 C20 3.3 20 6.6 20 10 C36.5 10 53 10 70 10 C70 13.3 70 16.6 70 20 C50.2 20 30.4 20 10 20 C10 16.7 10 13.4 10 10 C6.7 10 3.4 10 0 10 C0 6.7 0 3.4 0 0 Z " fill="#BB8855" transform="translate(120,260)"/>
<path d="M0 0 C6.6 0 13.2 0 20 0 C20 13.2 20 26.4 20 40 C13.4 40 6.8 40 0 40 C0 26.8 0 13.6 0 0 Z " fill="#2A981A" transform="translate(120,40)"/>
<path d="M0 0 C3.3 0 6.6 0 10 0 C10 23.1 10 46.2 10 70 C6.7 70 3.4 70 0 70 C0 46.9 0 23.8 0 0 Z " fill="#564028" transform="translate(230,180)"/>
<path d="M0 0 C3.3 0 6.6 0 10 0 C10 23.1 10 46.2 10 70 C6.7 70 3.4 70 0 70 C0 46.9 0 23.8 0 0 Z " fill="#564029" transform="translate(90,170)"/>
<path d="M0 0 C19.8 0 39.6 0 60 0 C60 3.3 60 6.6 60 10 C40.2 10 20.4 10 0 10 C0 6.7 0 3.4 0 0 Z " fill="#564028" transform="translate(130,280)"/>
<path d="M0 0 C9.9 0 19.8 0 30 0 C30 3.3 30 6.6 30 10 C23.4 10 16.8 10 10 10 C10 16.6 10 23.2 10 30 C6.7 30 3.4 30 0 30 C0 26.7 0 23.4 0 20 C-3.3 20 -6.6 20 -10 20 C-10 16.7 -10 13.4 -10 10 C-6.7 10 -3.4 10 0 10 C0 6.7 0 3.4 0 0 Z " fill="#F3F4F8" transform="translate(40,150)"/>
<path d="M0 0 C13.2 0 26.4 0 40 0 C40 3.3 40 6.6 40 10 C26.8 10 13.6 10 0 10 C0 6.7 0 3.4 0 0 Z " fill="#1E1E1E" transform="translate(150,210)"/>
<path d="M0 0 C6.6 0 13.2 0 20 0 C20 6.6 20 13.2 20 20 C13.4 20 6.8 20 0 20 C0 13.4 0 6.8 0 0 Z " fill="#2A991A" transform="translate(120,100)"/>
<path d="M0 0 C13.2 0 26.4 0 40 0 C40 3.3 40 6.6 40 10 C26.8 10 13.6 10 0 10 C0 6.7 0 3.4 0 0 Z " fill="#D4D9EA" transform="translate(60,50)"/>
<path d="M0 0 C3.3 0 6.6 0 10 0 C10 13.2 10 26.4 10 40 C6.7 40 3.4 40 0 40 C0 26.8 0 13.6 0 0 Z " fill="#13440A" transform="translate(210,40)"/>
<path d="M0 0 C3.3 0 6.6 0 10 0 C10 13.2 10 26.4 10 40 C6.7 40 3.4 40 0 40 C0 26.8 0 13.6 0 0 Z " fill="#12440B" transform="translate(110,40)"/>
<path d="M0 0 C3.3 0 6.6 0 10 0 C10 3.3 10 6.6 10 10 C13.3 10 16.6 10 20 10 C20 13.3 20 16.6 20 20 C13.4 20 6.8 20 0 20 C0 13.4 0 6.8 0 0 Z " fill="#BB8855" transform="translate(190,250)"/>
<path d="M0 0 C6.6 0 13.2 0 20 0 C20 3.3 20 6.6 20 10 C16.7 10 13.4 10 10 10 C10 13.3 10 16.6 10 20 C6.7 20 3.4 20 0 20 C0 13.4 0 6.8 0 0 Z " fill="#BB8855" transform="translate(110,240)"/>
<path d="M0 0 C3.3 0 6.6 0 10 0 C10 9.9 10 19.8 10 30 C6.7 30 3.4 30 0 30 C0 20.1 0 10.2 0 0 Z " fill="#84CED8" transform="translate(310,200)"/>
<path d="M0 0 C3.3 0 6.6 0 10 0 C10 9.9 10 19.8 10 30 C6.7 30 3.4 30 0 30 C0 20.1 0 10.2 0 0 Z " fill="#84CED8" transform="translate(0,200)"/>
<path d="M0 0 C9.9 0 19.8 0 30 0 C30 3.3 30 6.6 30 10 C20.1 10 10.2 10 0 10 C0 6.7 0 3.4 0 0 Z " fill="#002E49" transform="translate(190,180)"/>
<path d="M0 0 C9.9 0 19.8 0 30 0 C30 3.3 30 6.6 30 10 C20.1 10 10.2 10 0 10 C0 6.7 0 3.4 0 0 Z " fill="#002E49" transform="translate(120,180)"/>
<path d="M0 0 C9.9 0 19.8 0 30 0 C30 3.3 30 6.6 30 10 C20.1 10 10.2 10 0 10 C0 6.7 0 3.4 0 0 Z " fill="#D4D9EA" transform="translate(40,150)"/>
<path d="M0 0 C9.9 0 19.8 0 30 0 C30 3.3 30 6.6 30 10 C20.1 10 10.2 10 0 10 C0 6.7 0 3.4 0 0 Z " fill="#2A991A" transform="translate(80,130)"/>
<path d="M0 0 C9.9 0 19.8 0 30 0 C30 3.3 30 6.6 30 10 C20.1 10 10.2 10 0 10 C0 6.7 0 3.4 0 0 Z " fill="#FFD800" transform="translate(160,70)"/>
<path d="M0 0 C9.9 0 19.8 0 30 0 C30 3.3 30 6.6 30 10 C20.1 10 10.2 10 0 10 C0 6.7 0 3.4 0 0 Z " fill="#D4D8EA" transform="translate(220,40)"/>
<path d="M0 0 C6.6 0 13.2 0 20 0 C20 3.3 20 6.6 20 10 C13.4 10 6.8 10 0 10 C0 6.7 0 3.4 0 0 Z " fill="#564029" transform="translate(190,270)"/>
<path d="M0 0 C6.6 0 13.2 0 20 0 C20 3.3 20 6.6 20 10 C13.4 10 6.8 10 0 10 C0 6.7 0 3.4 0 0 Z " fill="#9E7952" transform="translate(120,260)"/>
<path d="M0 0 C3.3 0 6.6 0 10 0 C10 6.6 10 13.2 10 20 C6.7 20 3.4 20 0 20 C0 13.4 0 6.8 0 0 Z " fill="#564029" transform="translate(100,240)"/>
<path d="M0 0 C6.6 0 13.2 0 20 0 C20 3.3 20 6.6 20 10 C13.4 10 6.8 10 0 10 C0 6.7 0 3.4 0 0 Z " fill="#D4D9EA" transform="translate(240,120)"/>
<path d="M0 0 C6.6 0 13.2 0 20 0 C20 3.3 20 6.6 20 10 C13.4 10 6.8 10 0 10 C0 6.7 0 3.4 0 0 Z " fill="#FFD800" transform="translate(170,100)"/>
<path d="M0 0 C3.3 0 6.6 0 10 0 C10 3.3 10 6.6 10 10 C6.7 10 3.4 10 0 10 C0 6.7 0 3.4 0 0 Z " fill="#62ABD4" transform="translate(280,300)"/>
<path d="M0 0 C3.3 0 6.6 0 10 0 C10 3.3 10 6.6 10 10 C6.7 10 3.4 10 0 10 C0 6.7 0 3.4 0 0 Z " fill="#62ABD4" transform="translate(140,300)"/>
<path d="M0 0 C3.3 0 6.6 0 10 0 C10 3.3 10 6.6 10 10 C6.7 10 3.4 10 0 10 C0 6.7 0 3.4 0 0 Z " fill="#62ABD4" transform="translate(230,290)"/>
<path d="M0 0 C3.3 0 6.6 0 10 0 C10 3.3 10 6.6 10 10 C6.7 10 3.4 10 0 10 C0 6.7 0 3.4 0 0 Z " fill="#62AAD4" transform="translate(20,290)"/>
<path d="M0 0 C3.3 0 6.6 0 10 0 C10 3.3 10 6.6 10 10 C6.7 10 3.4 10 0 10 C0 6.7 0 3.4 0 0 Z " fill="#62ABD4" transform="translate(70,280)"/>
<path d="M0 0 C3.3 0 6.6 0 10 0 C10 3.3 10 6.6 10 10 C6.7 10 3.4 10 0 10 C0 6.7 0 3.4 0 0 Z " fill="#62ABD4" transform="translate(290,270)"/>
<path d="M0 0 C3.3 0 6.6 0 10 0 C10 3.3 10 6.6 10 10 C6.7 10 3.4 10 0 10 C0 6.7 0 3.4 0 0 Z " fill="#564029" transform="translate(120,270)"/>
<path d="M0 0 C3.3 0 6.6 0 10 0 C10 3.3 10 6.6 10 10 C6.7 10 3.4 10 0 10 C0 6.7 0 3.4 0 0 Z " fill="#564029" transform="translate(210,260)"/>
<path d="M0 0 C3.3 0 6.6 0 10 0 C10 3.3 10 6.6 10 10 C6.7 10 3.4 10 0 10 C0 6.7 0 3.4 0 0 Z " fill="#BB8855" transform="translate(120,260)"/>
<path d="M0 0 C3.3 0 6.6 0 10 0 C10 3.3 10 6.6 10 10 C6.7 10 3.4 10 0 10 C0 6.7 0 3.4 0 0 Z " fill="#564029" transform="translate(110,260)"/>
<path d="M0 0 C3.3 0 6.6 0 10 0 C10 3.3 10 6.6 10 10 C6.7 10 3.4 10 0 10 C0 6.7 0 3.4 0 0 Z " fill="#62ABD4" transform="translate(100,260)"/>
<path d="M0 0 C3.3 0 6.6 0 10 0 C10 3.3 10 6.6 10 10 C6.7 10 3.4 10 0 10 C0 6.7 0 3.4 0 0 Z " fill="#564029" transform="translate(220,250)"/>
<path d="M0 0 C3.3 0 6.6 0 10 0 C10 3.3 10 6.6 10 10 C6.7 10 3.4 10 0 10 C0 6.7 0 3.4 0 0 Z " fill="#BB8854" transform="translate(210,250)"/>
<path d="M0 0 C3.3 0 6.6 0 10 0 C10 3.3 10 6.6 10 10 C6.7 10 3.4 10 0 10 C0 6.7 0 3.4 0 0 Z " fill="#9E7953" transform="translate(190,250)"/>
<path d="M0 0 C3.3 0 6.6 0 10 0 C10 3.3 10 6.6 10 10 C6.7 10 3.4 10 0 10 C0 6.7 0 3.4 0 0 Z " fill="#BB8855" transform="translate(220,240)"/>
<path d="M0 0 C3.3 0 6.6 0 10 0 C10 3.3 10 6.6 10 10 C6.7 10 3.4 10 0 10 C0 6.7 0 3.4 0 0 Z " fill="#9E7952" transform="translate(120,240)"/>
<path d="M0 0 C3.3 0 6.6 0 10 0 C10 3.3 10 6.6 10 10 C6.7 10 3.4 10 0 10 C0 6.7 0 3.4 0 0 Z " fill="#5695B7" transform="translate(310,230)"/>
<path d="M0 0 C3.3 0 6.6 0 10 0 C10 3.3 10 6.6 10 10 C6.7 10 3.4 10 0 10 C0 6.7 0 3.4 0 0 Z " fill="#5695B7" transform="translate(0,230)"/>
<path d="M0 0 C3.3 0 6.6 0 10 0 C10 3.3 10 6.6 10 10 C6.7 10 3.4 10 0 10 C0 6.7 0 3.4 0 0 Z " fill="#9E7953" transform="translate(140,220)"/>
<path d="M0 0 C3.3 0 6.6 0 10 0 C10 3.3 10 6.6 10 10 C6.7 10 3.4 10 0 10 C0 6.7 0 3.4 0 0 Z " fill="#1E1E1E" transform="translate(190,200)"/>
<path d="M0 0 C3.3 0 6.6 0 10 0 C10 3.3 10 6.6 10 10 C6.7 10 3.4 10 0 10 C0 6.7 0 3.4 0 0 Z " fill="#1E1E1E" transform="translate(140,200)"/>
<path d="M0 0 C3.3 0 6.6 0 10 0 C10 3.3 10 6.6 10 10 C6.7 10 3.4 10 0 10 C0 6.7 0 3.4 0 0 Z " fill="#002E49" transform="translate(220,170)"/>
<path d="M0 0 C3.3 0 6.6 0 10 0 C10 3.3 10 6.6 10 10 C6.7 10 3.4 10 0 10 C0 6.7 0 3.4 0 0 Z " fill="#00A1FF" transform="translate(210,170)"/>
<path d="M0 0 C3.3 0 6.6 0 10 0 C10 3.3 10 6.6 10 10 C6.7 10 3.4 10 0 10 C0 6.7 0 3.4 0 0 Z " fill="#002E49" transform="translate(180,170)"/>
<path d="M0 0 C3.3 0 6.6 0 10 0 C10 3.3 10 6.6 10 10 C6.7 10 3.4 10 0 10 C0 6.7 0 3.4 0 0 Z " fill="#002E49" transform="translate(150,170)"/>
<path d="M0 0 C3.3 0 6.6 0 10 0 C10 3.3 10 6.6 10 10 C6.7 10 3.4 10 0 10 C0 6.7 0 3.4 0 0 Z " fill="#00A0FF" transform="translate(140,170)"/>
<path d="M0 0 C3.3 0 6.6 0 10 0 C10 3.3 10 6.6 10 10 C6.7 10 3.4 10 0 10 C0 6.7 0 3.4 0 0 Z " fill="#002E49" transform="translate(110,170)"/>
<path d="M0 0 C3.3 0 6.6 0 10 0 C10 3.3 10 6.6 10 10 C6.7 10 3.4 10 0 10 C0 6.7 0 3.4 0 0 Z " fill="#00A1FF" transform="translate(220,160)"/>
<path d="M0 0 C3.3 0 6.6 0 10 0 C10 3.3 10 6.6 10 10 C6.7 10 3.4 10 0 10 C0 6.7 0 3.4 0 0 Z " fill="#00A1FF" transform="translate(150,160)"/>
<path d="M0 0 C3.3 0 6.6 0 10 0 C10 3.3 10 6.6 10 10 C6.7 10 3.4 10 0 10 C0 6.7 0 3.4 0 0 Z " fill="#002E49" transform="translate(80,160)"/>
<path d="M0 0 C3.3 0 6.6 0 10 0 C10 3.3 10 6.6 10 10 C6.7 10 3.4 10 0 10 C0 6.7 0 3.4 0 0 Z " fill="#D4D9EA" transform="translate(70,160)"/>
<path d="M0 0 C3.3 0 6.6 0 10 0 C10 3.3 10 6.6 10 10 C6.7 10 3.4 10 0 10 C0 6.7 0 3.4 0 0 Z " fill="#D4D9EA" transform="translate(30,160)"/>
<path d="M0 0 C3.3 0 6.6 0 10 0 C10 3.3 10 6.6 10 10 C6.7 10 3.4 10 0 10 C0 6.7 0 3.4 0 0 Z " fill="#D4D9EA" transform="translate(270,140)"/>
<path d="M0 0 C3.3 0 6.6 0 10 0 C10 3.3 10 6.6 10 10 C6.7 10 3.4 10 0 10 C0 6.7 0 3.4 0 0 Z " fill="#FAFFFF" transform="translate(240,140)"/>
<path d="M0 0 C3.3 0 6.6 0 10 0 C10 3.3 10 6.6 10 10 C6.7 10 3.4 10 0 10 C0 6.7 0 3.4 0 0 Z " fill="#D4D9EA" transform="translate(260,130)"/>
<path d="M0 0 C3.3 0 6.6 0 10 0 C10 3.3 10 6.6 10 10 C6.7 10 3.4 10 0 10 C0 6.7 0 3.4 0 0 Z " fill="#13440B" transform="translate(240,130)"/>
<path d="M0 0 C3.3 0 6.6 0 10 0 C10 3.3 10 6.6 10 10 C6.7 10 3.4 10 0 10 C0 6.7 0 3.4 0 0 Z " fill="#13440B" transform="translate(80,130)"/>
<path d="M0 0 C3.3 0 6.6 0 10 0 C10 3.3 10 6.6 10 10 C6.7 10 3.4 10 0 10 C0 6.7 0 3.4 0 0 Z " fill="#D4D8EA" transform="translate(40,70)"/>
<path d="M0 0 C3.3 0 6.6 0 10 0 C10 3.3 10 6.6 10 10 C6.7 10 3.4 10 0 10 C0 6.7 0 3.4 0 0 Z " fill="#D4D9EA" transform="translate(260,60)"/>
<path d="M0 0 C3.3 0 6.6 0 10 0 C10 3.3 10 6.6 10 10 C6.7 10 3.4 10 0 10 C0 6.7 0 3.4 0 0 Z " fill="#D4D9EA" transform="translate(100,60)"/>
<path d="M0 0 C3.3 0 6.6 0 10 0 C10 3.3 10 6.6 10 10 C6.7 10 3.4 10 0 10 C0 6.7 0 3.4 0 0 Z " fill="#D4D9EA" transform="translate(50,60)"/>
<path d="M0 0 C3.3 0 6.6 0 10 0 C10 3.3 10 6.6 10 10 C6.7 10 3.4 10 0 10 C0 6.7 0 3.4 0 0 Z " fill="#D4D9EA" transform="translate(250,50)"/>
</svg>
