<?xml version="1.0" encoding="UTF-8"?>
<svg version="1.1" xmlns="http://www.w3.org/2000/svg" width="1280" height="1280">
<path d="M0 0 C422.4 0 844.8 0 1280 0 C1280 422.4 1280 844.8 1280 1280 C857.6 1280 435.2 1280 0 1280 C0 857.6 0 435.2 0 0 Z " fill="#A44557" transform="translate(0,0)"/>
<path d="M0 0 C52.8 0 105.6 0 160 0 C160 13.2 160 26.4 160 40 C173.2 40 186.4 40 200 40 C200 53.2 200 66.4 200 80 C226.4 80 252.8 80 280 80 C280 93.2 280 106.4 280 120 C306.4 120 332.8 120 360 120 C360 133.2 360 146.4 360 160 C373.2 160 386.4 160 400 160 C400 173.2 400 186.4 400 200 C413.2 200 426.4 200 440 200 C440 213.2 440 226.4 440 240 C453.2 240 466.4 240 480 240 C480 253.2 480 266.4 480 280 C493.2 280 506.4 280 520 280 C520 293.2 520 306.4 520 320 C559.6 320 599.2 320 640 320 C640 346.4 640 372.8 640 400 C666.4 400 692.8 400 720 400 C720 373.6 720 347.2 720 320 C733.2 320 746.4 320 760 320 C760 306.8 760 293.6 760 280 C786.4 280 812.8 280 840 280 C840 425.2 840 570.4 840 720 C826.8 720 813.6 720 800 720 C800 706.8 800 693.6 800 680 C786.8 680 773.6 680 760 680 C760 693.2 760 706.4 760 720 C733.6 720 707.2 720 680 720 C680 706.8 680 693.6 680 680 C653.6 680 627.2 680 600 680 C600 693.2 600 706.4 600 720 C586.8 720 573.6 720 560 720 C560 733.2 560 746.4 560 760 C599.6 760 639.2 760 680 760 C680 773.2 680 786.4 680 800 C706.4 800 732.8 800 760 800 C760 786.8 760 773.6 760 760 C799.6 760 839.2 760 880 760 C880 799.6 880 839.2 880 880 C866.8 880 853.6 880 840 880 C840 866.8 840 853.6 840 840 C813.6 840 787.2 840 760 840 C760 853.2 760 866.4 760 880 C733.6 880 707.2 880 680 880 C680 893.2 680 906.4 680 920 C640.4 920 600.8 920 560 920 C560 933.2 560 946.4 560 960 C546.8 960 533.6 960 520 960 C520 867.6 520 775.2 520 680 C506.8 680 493.6 680 480 680 C480 653.6 480 627.2 480 600 C453.6 600 427.2 600 400 600 C400 613.2 400 626.4 400 640 C413.2 640 426.4 640 440 640 C440 653.2 440 666.4 440 680 C413.6 680 387.2 680 360 680 C360 653.6 360 627.2 360 600 C333.6 600 307.2 600 280 600 C280 626.4 280 652.8 280 680 C266.8 680 253.6 680 240 680 C240 693.2 240 706.4 240 720 C279.6 720 319.2 720 360 720 C360 733.2 360 746.4 360 760 C373.2 760 386.4 760 400 760 C400 773.2 400 786.4 400 800 C413.2 800 426.4 800 440 800 C440 813.2 440 826.4 440 840 C400.4 840 360.8 840 320 840 C320 826.8 320 813.6 320 800 C293.6 800 267.2 800 240 800 C240 813.2 240 826.4 240 840 C200.4 840 160.8 840 120 840 C120 826.8 120 813.6 120 800 C133.2 800 146.4 800 160 800 C160 786.8 160 773.6 160 760 C146.8 760 133.6 760 120 760 C120 746.8 120 733.6 120 720 C146.4 720 172.8 720 200 720 C200 680.4 200 640.8 200 600 C160.4 600 120.8 600 80 600 C80 626.4 80 652.8 80 680 C66.8 680 53.6 680 40 680 C40 666.8 40 653.6 40 640 C26.8 640 13.6 640 0 640 C0 626.8 0 613.6 0 600 C-66 600 -132 600 -200 600 C-200 573.6 -200 547.2 -200 520 C-186.8 520 -173.6 520 -160 520 C-160 506.8 -160 493.6 -160 480 C-133.6 480 -107.2 480 -80 480 C-80 466.8 -80 453.6 -80 440 C-66.8 440 -53.6 440 -40 440 C-40 413.6 -40 387.2 -40 360 C-26.8 360 -13.6 360 0 360 C0 346.8 0 333.6 0 320 C13.2 320 26.4 320 40 320 C40 306.8 40 293.6 40 280 C53.2 280 66.4 280 80 280 C80 253.6 80 227.2 80 200 C66.8 200 53.6 200 40 200 C40 186.8 40 173.6 40 160 C26.8 160 13.6 160 0 160 C0 173.2 0 186.4 0 200 C-26.4 200 -52.8 200 -80 200 C-80 160.4 -80 120.8 -80 80 C-66.8 80 -53.6 80 -40 80 C-40 66.8 -40 53.6 -40 40 C-26.8 40 -13.6 40 0 40 C0 26.8 0 13.6 0 0 Z " fill="#A44658" transform="translate(400,40)"/>
<path d="M0 0 C26.4 0 52.8 0 80 0 C80 13.2 80 26.4 80 40 C106.4 40 132.8 40 160 40 C160 53.2 160 66.4 160 80 C199.6 80 239.2 80 280 80 C280 66.8 280 53.6 280 40 C293.2 40 306.4 40 320 40 C320 53.2 320 66.4 320 80 C346.4 80 372.8 80 400 80 C400 106.4 400 132.8 400 160 C413.2 160 426.4 160 440 160 C440 173.2 440 186.4 440 200 C453.2 200 466.4 200 480 200 C480 213.2 480 226.4 480 240 C559.2 240 638.4 240 720 240 C720 226.8 720 213.6 720 200 C746.4 200 772.8 200 800 200 C800 186.8 800 173.6 800 160 C813.2 160 826.4 160 840 160 C840 146.8 840 133.6 840 120 C866.4 120 892.8 120 920 120 C920 106.8 920 93.6 920 80 C959.6 80 999.2 80 1040 80 C1040 66.8 1040 53.6 1040 40 C1066.4 40 1092.8 40 1120 40 C1120 26.8 1120 13.6 1120 0 C1146.4 0 1172.8 0 1200 0 C1200 13.2 1200 26.4 1200 40 C1213.2 40 1226.4 40 1240 40 C1240 158.8 1240 277.6 1240 400 C817.6 400 395.2 400 -40 400 C-40 281.2 -40 162.4 -40 40 C-26.8 40 -13.6 40 0 40 C0 26.8 0 13.6 0 0 Z " fill="#48288E" transform="translate(40,880)"/>
<path d="M0 0 C39.6 0 79.2 0 120 0 C120 39.6 120 79.2 120 120 C93.6 120 67.2 120 40 120 C40 133.2 40 146.4 40 160 C53.2 160 66.4 160 80 160 C80 173.2 80 186.4 80 200 C66.8 200 53.6 200 40 200 C40 213.2 40 226.4 40 240 C79.6 240 119.2 240 160 240 C160 226.8 160 213.6 160 200 C186.4 200 212.8 200 240 200 C240 213.2 240 226.4 240 240 C279.6 240 319.2 240 360 240 C360 226.8 360 213.6 360 200 C346.8 200 333.6 200 320 200 C320 186.8 320 173.6 320 160 C306.8 160 293.6 160 280 160 C280 146.8 280 133.6 280 120 C240.4 120 200.8 120 160 120 C160 106.8 160 93.6 160 80 C173.2 80 186.4 80 200 80 C200 53.6 200 27.2 200 0 C226.4 0 252.8 0 280 0 C280 26.4 280 52.8 280 80 C306.4 80 332.8 80 360 80 C360 66.8 360 53.6 360 40 C346.8 40 333.6 40 320 40 C320 26.8 320 13.6 320 0 C346.4 0 372.8 0 400 0 C400 26.4 400 52.8 400 80 C413.2 80 426.4 80 440 80 C440 172.4 440 264.8 440 360 C426.8 360 413.6 360 400 360 C400 373.2 400 386.4 400 400 C386.8 400 373.6 400 360 400 C360 413.2 360 426.4 360 440 C333.6 440 307.2 440 280 440 C280 453.2 280 466.4 280 480 C200.8 480 121.6 480 40 480 C40 466.8 40 453.6 40 440 C26.8 440 13.6 440 0 440 C0 426.8 0 413.6 0 400 C-13.2 400 -26.4 400 -40 400 C-40 373.6 -40 347.2 -40 320 C-66.4 320 -92.8 320 -120 320 C-120 306.8 -120 293.6 -120 280 C-133.2 280 -146.4 280 -160 280 C-160 293.2 -160 306.4 -160 320 C-199.6 320 -239.2 320 -280 320 C-280 306.8 -280 293.6 -280 280 C-306.4 280 -332.8 280 -360 280 C-360 266.8 -360 253.6 -360 240 C-386.4 240 -412.8 240 -440 240 C-440 253.2 -440 266.4 -440 280 C-453.2 280 -466.4 280 -480 280 C-480 240.4 -480 200.8 -480 160 C-440.4 160 -400.8 160 -360 160 C-360 173.2 -360 186.4 -360 200 C-333.6 200 -307.2 200 -280 200 C-280 186.8 -280 173.6 -280 160 C-240.4 160 -200.8 160 -160 160 C-160 173.2 -160 186.4 -160 200 C-146.8 200 -133.6 200 -120 200 C-120 186.8 -120 173.6 -120 160 C-80.4 160 -40.8 160 0 160 C0 146.8 0 133.6 0 120 C-26.4 120 -52.8 120 -80 120 C-80 93.6 -80 67.2 -80 40 C-66.8 40 -53.6 40 -40 40 C-40 53.2 -40 66.4 -40 80 C-26.8 80 -13.6 80 0 80 C0 53.6 0 27.2 0 0 Z " fill="#AE6C46" transform="translate(480,640)"/>
<path d="M0 0 C13.2 0 26.4 0 40 0 C40 13.2 40 26.4 40 40 C238 40 436 40 640 40 C640 26.8 640 13.6 640 0 C653.2 0 666.4 0 680 0 C680 13.2 680 26.4 680 40 C706.4 40 732.8 40 760 40 C760 53.2 760 66.4 760 80 C773.2 80 786.4 80 800 80 C800 93.2 800 106.4 800 120 C786.8 120 773.6 120 760 120 C760 133.2 760 146.4 760 160 C707.2 160 654.4 160 600 160 C600 186.4 600 212.8 600 240 C586.8 240 573.6 240 560 240 C560 213.6 560 187.2 560 160 C533.6 160 507.2 160 480 160 C480 173.2 480 186.4 480 200 C493.2 200 506.4 200 520 200 C520 213.2 520 226.4 520 240 C493.6 240 467.2 240 440 240 C440 213.6 440 187.2 440 160 C413.6 160 387.2 160 360 160 C360 186.4 360 212.8 360 240 C346.8 240 333.6 240 320 240 C320 253.2 320 266.4 320 280 C359.6 280 399.2 280 440 280 C440 293.2 440 306.4 440 320 C453.2 320 466.4 320 480 320 C480 333.2 480 346.4 480 360 C493.2 360 506.4 360 520 360 C520 373.2 520 386.4 520 400 C480.4 400 440.8 400 400 400 C400 386.8 400 373.6 400 360 C373.6 360 347.2 360 320 360 C320 373.2 320 386.4 320 400 C280.4 400 240.8 400 200 400 C200 386.8 200 373.6 200 360 C213.2 360 226.4 360 240 360 C240 346.8 240 333.6 240 320 C226.8 320 213.6 320 200 320 C200 306.8 200 293.6 200 280 C226.4 280 252.8 280 280 280 C280 240.4 280 200.8 280 160 C240.4 160 200.8 160 160 160 C160 186.4 160 212.8 160 240 C146.8 240 133.6 240 120 240 C120 226.8 120 213.6 120 200 C106.8 200 93.6 200 80 200 C80 186.8 80 173.6 80 160 C14 160 -52 160 -120 160 C-120 133.6 -120 107.2 -120 80 C-106.8 80 -93.6 80 -80 80 C-80 66.8 -80 53.6 -80 40 C-53.6 40 -27.2 40 0 40 C0 26.8 0 13.6 0 0 Z " fill="#460C00" transform="translate(320,480)"/>
<path d="M0 0 C224.4 0 448.8 0 680 0 C680 92.4 680 184.8 680 280 C653.6 280 627.2 280 600 280 C600 293.2 600 306.4 600 320 C586.8 320 573.6 320 560 320 C560 346.4 560 372.8 560 400 C533.6 400 507.2 400 480 400 C480 373.6 480 347.2 480 320 C440.4 320 400.8 320 360 320 C360 306.8 360 293.6 360 280 C346.8 280 333.6 280 320 280 C320 266.8 320 253.6 320 240 C306.8 240 293.6 240 280 240 C280 226.8 280 213.6 280 200 C266.8 200 253.6 200 240 200 C240 186.8 240 173.6 240 160 C226.8 160 213.6 160 200 160 C200 146.8 200 133.6 200 120 C173.6 120 147.2 120 120 120 C120 106.8 120 93.6 120 80 C93.6 80 67.2 80 40 80 C40 66.8 40 53.6 40 40 C26.8 40 13.6 40 0 40 C0 26.8 0 13.6 0 0 Z " fill="#A44658" transform="translate(560,40)"/>
<path d="M0 0 C422.4 0 844.8 0 1280 0 C1280 264 1280 528 1280 800 C1240.4 800 1200.8 800 1160 800 C1160 813.2 1160 826.4 1160 840 C1133.6 840 1107.2 840 1080 840 C1080 826.8 1080 813.6 1080 800 C1040.4 800 1000.8 800 960 800 C960 786.8 960 773.6 960 760 C973.2 760 986.4 760 1000 760 C1000 746.8 1000 733.6 1000 720 C1026.4 720 1052.8 720 1080 720 C1080 733.2 1080 746.4 1080 760 C1106.4 760 1132.8 760 1160 760 C1160 746.8 1160 733.6 1160 720 C1173.2 720 1186.4 720 1200 720 C1200 733.2 1200 746.4 1200 760 C1213.2 760 1226.4 760 1240 760 C1240 522.4 1240 284.8 1240 40 C844 40 448 40 40 40 C40 277.6 40 515.2 40 760 C53.2 760 66.4 760 80 760 C80 746.8 80 733.6 80 720 C93.2 720 106.4 720 120 720 C120 733.2 120 746.4 120 760 C146.4 760 172.8 760 200 760 C200 746.8 200 733.6 200 720 C226.4 720 252.8 720 280 720 C280 733.2 280 746.4 280 760 C306.4 760 332.8 760 360 760 C360 786.4 360 812.8 360 840 C346.8 840 333.6 840 320 840 C320 826.8 320 813.6 320 800 C280.4 800 240.8 800 200 800 C200 813.2 200 826.4 200 840 C173.6 840 147.2 840 120 840 C120 826.8 120 813.6 120 800 C80.4 800 40.8 800 0 800 C0 536 0 272 0 0 Z " fill="#C83EA2" transform="translate(0,0)"/>
<path d="M0 0 C52.8 0 105.6 0 160 0 C160 13.2 160 26.4 160 40 C173.2 40 186.4 40 200 40 C200 53.2 200 66.4 200 80 C226.4 80 252.8 80 280 80 C280 93.2 280 106.4 280 120 C306.4 120 332.8 120 360 120 C360 133.2 360 146.4 360 160 C373.2 160 386.4 160 400 160 C400 173.2 400 186.4 400 200 C413.2 200 426.4 200 440 200 C440 213.2 440 226.4 440 240 C453.2 240 466.4 240 480 240 C480 253.2 480 266.4 480 280 C493.2 280 506.4 280 520 280 C520 306.4 520 332.8 520 360 C493.6 360 467.2 360 440 360 C440 346.8 440 333.6 440 320 C426.8 320 413.6 320 400 320 C400 306.8 400 293.6 400 280 C386.8 280 373.6 280 360 280 C360 266.8 360 253.6 360 240 C346.8 240 333.6 240 320 240 C320 226.8 320 213.6 320 200 C306.8 200 293.6 200 280 200 C280 186.8 280 173.6 280 160 C253.6 160 227.2 160 200 160 C200 146.8 200 133.6 200 120 C173.6 120 147.2 120 120 120 C120 133.2 120 146.4 120 160 C133.2 160 146.4 160 160 160 C160 173.2 160 186.4 160 200 C173.2 200 186.4 200 200 200 C200 213.2 200 226.4 200 240 C213.2 240 226.4 240 240 240 C240 266.4 240 292.8 240 320 C226.8 320 213.6 320 200 320 C200 333.2 200 346.4 200 360 C186.8 360 173.6 360 160 360 C160 386.4 160 412.8 160 440 C94 440 28 440 -40 440 C-40 413.6 -40 387.2 -40 360 C-26.8 360 -13.6 360 0 360 C0 346.8 0 333.6 0 320 C13.2 320 26.4 320 40 320 C40 306.8 40 293.6 40 280 C53.2 280 66.4 280 80 280 C80 253.6 80 227.2 80 200 C66.8 200 53.6 200 40 200 C40 186.8 40 173.6 40 160 C26.8 160 13.6 160 0 160 C0 173.2 0 186.4 0 200 C-26.4 200 -52.8 200 -80 200 C-80 160.4 -80 120.8 -80 80 C-66.8 80 -53.6 80 -40 80 C-40 66.8 -40 53.6 -40 40 C-26.8 40 -13.6 40 0 40 C0 26.8 0 13.6 0 0 Z " fill="#A01E00" transform="translate(400,40)"/>
<path d="M0 0 C26.4 0 52.8 0 80 0 C80 13.2 80 26.4 80 40 C106.4 40 132.8 40 160 40 C160 53.2 160 66.4 160 80 C173.2 80 186.4 80 200 80 C200 93.2 200 106.4 200 120 C213.2 120 226.4 120 240 120 C240 133.2 240 146.4 240 160 C253.2 160 266.4 160 280 160 C280 173.2 280 186.4 280 200 C293.2 200 306.4 200 320 200 C320 213.2 320 226.4 320 240 C359.6 240 399.2 240 440 240 C440 279.6 440 319.2 440 360 C242 360 44 360 -160 360 C-160 346.8 -160 333.6 -160 320 C-94 320 -28 320 40 320 C40 293.6 40 267.2 40 240 C53.2 240 66.4 240 80 240 C80 226.8 80 213.6 80 200 C93.2 200 106.4 200 120 200 C120 173.6 120 147.2 120 120 C106.8 120 93.6 120 80 120 C80 106.8 80 93.6 80 80 C66.8 80 53.6 80 40 80 C40 66.8 40 53.6 40 40 C26.8 40 13.6 40 0 40 C0 26.8 0 13.6 0 0 Z " fill="#DA2B00" transform="translate(520,160)"/>
<path d="M0 0 C13.2 0 26.4 0 40 0 C40 105.6 40 211.2 40 320 C436 320 832 320 1240 320 C1240 214.4 1240 108.8 1240 0 C1253.2 0 1266.4 0 1280 0 C1280 118.8 1280 237.6 1280 360 C857.6 360 435.2 360 0 360 C0 241.2 0 122.4 0 0 Z " fill="#421E84" transform="translate(0,920)"/>
<path d="M0 0 C52.8 0 105.6 0 160 0 C160 13.2 160 26.4 160 40 C173.2 40 186.4 40 200 40 C200 66.4 200 92.8 200 120 C186.8 120 173.6 120 160 120 C160 146.4 160 172.8 160 200 C146.8 200 133.6 200 120 200 C120 226.4 120 252.8 120 280 C93.6 280 67.2 280 40 280 C40 253.6 40 227.2 40 200 C0.4 200 -39.2 200 -80 200 C-80 147.2 -80 94.4 -80 40 C-53.6 40 -27.2 40 0 40 C0 26.8 0 13.6 0 0 Z " fill="#6DDAFE" transform="translate(1000,160)"/>
<path d="M0 0 C13.2 0 26.4 0 40 0 C40 26.4 40 52.8 40 80 C79.6 80 119.2 80 160 80 C160 93.2 160 106.4 160 120 C186.4 120 212.8 120 240 120 C240 106.8 240 93.6 240 80 C279.6 80 319.2 80 360 80 C360 119.6 360 159.2 360 200 C346.8 200 333.6 200 320 200 C320 186.8 320 173.6 320 160 C293.6 160 267.2 160 240 160 C240 173.2 240 186.4 240 200 C213.6 200 187.2 200 160 200 C160 213.2 160 226.4 160 240 C120.4 240 80.8 240 40 240 C40 253.2 40 266.4 40 280 C26.8 280 13.6 280 0 280 C0 187.6 0 95.2 0 0 Z " fill="#7E3834" transform="translate(920,720)"/>
<path d="M0 0 C39.6 0 79.2 0 120 0 C120 13.2 120 26.4 120 40 C146.4 40 172.8 40 200 40 C200 26.8 200 13.6 200 0 C239.6 0 279.2 0 320 0 C320 13.2 320 26.4 320 40 C372.8 40 425.6 40 480 40 C480 53.2 480 66.4 480 80 C453.6 80 427.2 80 400 80 C400 106.4 400 132.8 400 160 C386.8 160 373.6 160 360 160 C360 146.8 360 133.6 360 120 C346.8 120 333.6 120 320 120 C320 133.2 320 146.4 320 160 C280.4 160 240.8 160 200 160 C200 146.8 200 133.6 200 120 C173.6 120 147.2 120 120 120 C120 106.8 120 93.6 120 80 C93.6 80 67.2 80 40 80 C40 93.2 40 106.4 40 120 C26.8 120 13.6 120 0 120 C0 80.4 0 40.8 0 0 Z " fill="#7E3834" transform="translate(0,800)"/>
<path d="M0 0 C26.4 0 52.8 0 80 0 C80 13.2 80 26.4 80 40 C106.4 40 132.8 40 160 40 C160 53.2 160 66.4 160 80 C199.6 80 239.2 80 280 80 C280 66.8 280 53.6 280 40 C293.2 40 306.4 40 320 40 C320 53.2 320 66.4 320 80 C333.2 80 346.4 80 360 80 C360 106.4 360 132.8 360 160 C333.6 160 307.2 160 280 160 C280 173.2 280 186.4 280 200 C240.4 200 200.8 200 160 200 C160 186.8 160 173.6 160 160 C133.6 160 107.2 160 80 160 C80 146.8 80 133.6 80 120 C53.6 120 27.2 120 0 120 C0 80.4 0 40.8 0 0 Z " fill="#543298" transform="translate(40,880)"/>
<path d="M0 0 C26.4 0 52.8 0 80 0 C80 39.6 80 79.2 80 120 C53.6 120 27.2 120 0 120 C0 133.2 0 146.4 0 160 C-26.4 160 -52.8 160 -80 160 C-80 173.2 -80 186.4 -80 200 C-106.4 200 -132.8 200 -160 200 C-160 213.2 -160 226.4 -160 240 C-173.2 240 -186.4 240 -200 240 C-200 213.6 -200 187.2 -200 160 C-213.2 160 -226.4 160 -240 160 C-240 146.8 -240 133.6 -240 120 C-226.8 120 -213.6 120 -200 120 C-200 106.8 -200 93.6 -200 80 C-160.4 80 -120.8 80 -80 80 C-80 66.8 -80 53.6 -80 40 C-53.6 40 -27.2 40 0 40 C0 26.8 0 13.6 0 0 Z " fill="#543298" transform="translate(1160,880)"/>
<path d="M0 0 C13.2 0 26.4 0 40 0 C40 13.2 40 26.4 40 40 C238 40 436 40 640 40 C640 26.8 640 13.6 640 0 C653.2 0 666.4 0 680 0 C680 13.2 680 26.4 680 40 C706.4 40 732.8 40 760 40 C760 53.2 760 66.4 760 80 C482.8 80 205.6 80 -80 80 C-80 66.8 -80 53.6 -80 40 C-53.6 40 -27.2 40 0 40 C0 26.8 0 13.6 0 0 Z " fill="#460C00" transform="translate(320,480)"/>
<path d="M0 0 C52.8 0 105.6 0 160 0 C160 13.2 160 26.4 160 40 C173.2 40 186.4 40 200 40 C200 66.4 200 92.8 200 120 C186.8 120 173.6 120 160 120 C160 133.2 160 146.4 160 160 C133.6 160 107.2 160 80 160 C80 173.2 80 186.4 80 200 C40.4 200 0.8 200 -40 200 C-40 173.6 -40 147.2 -40 120 C-26.8 120 -13.6 120 0 120 C0 106.8 0 93.6 0 80 C-13.2 80 -26.4 80 -40 80 C-40 66.8 -40 53.6 -40 40 C-26.8 40 -13.6 40 0 40 C0 26.8 0 13.6 0 0 Z " fill="#9C5A6E" transform="translate(160,360)"/>
<path d="M0 0 C13.2 0 26.4 0 40 0 C40 39.6 40 79.2 40 120 C79.6 120 119.2 120 160 120 C160 133.2 160 146.4 160 160 C173.2 160 186.4 160 200 160 C200 173.2 200 186.4 200 200 C213.2 200 226.4 200 240 200 C240 213.2 240 226.4 240 240 C200.4 240 160.8 240 120 240 C120 226.8 120 213.6 120 200 C93.6 200 67.2 200 40 200 C40 213.2 40 226.4 40 240 C0.4 240 -39.2 240 -80 240 C-80 226.8 -80 213.6 -80 200 C-66.8 200 -53.6 200 -40 200 C-40 186.8 -40 173.6 -40 160 C-53.2 160 -66.4 160 -80 160 C-80 146.8 -80 133.6 -80 120 C-53.6 120 -27.2 120 0 120 C0 80.4 0 40.8 0 0 Z " fill="#702C00" transform="translate(600,640)"/>
<path d="M0 0 C79.2 0 158.4 0 240 0 C240 13.2 240 26.4 240 40 C253.2 40 266.4 40 280 40 C280 106 280 172 280 240 C253.6 240 227.2 240 200 240 C200 226.8 200 213.6 200 200 C213.2 200 226.4 200 240 200 C240 173.6 240 147.2 240 120 C226.8 120 213.6 120 200 120 C200 106.8 200 93.6 200 80 C147.2 80 94.4 80 40 80 C40 93.2 40 106.4 40 120 C26.8 120 13.6 120 0 120 C0 80.4 0 40.8 0 0 Z " fill="#9C5D72" transform="translate(960,80)"/>
<path d="M0 0 C39.6 0 79.2 0 120 0 C120 39.6 120 79.2 120 120 C93.6 120 67.2 120 40 120 C40 133.2 40 146.4 40 160 C53.2 160 66.4 160 80 160 C80 173.2 80 186.4 80 200 C14 200 -52 200 -120 200 C-120 186.8 -120 173.6 -120 160 C-80.4 160 -40.8 160 0 160 C0 146.8 0 133.6 0 120 C-26.4 120 -52.8 120 -80 120 C-80 93.6 -80 67.2 -80 40 C-66.8 40 -53.6 40 -40 40 C-40 53.2 -40 66.4 -40 80 C-26.8 80 -13.6 80 0 80 C0 53.6 0 27.2 0 0 Z " fill="#975A3A" transform="translate(480,640)"/>
<path d="M0 0 C198 0 396 0 600 0 C600 13.2 600 26.4 600 40 C402 40 204 40 0 40 C0 26.8 0 13.6 0 0 Z " fill="#FEC242" transform="translate(360,480)"/>
<path d="M0 0 C13.2 0 26.4 0 40 0 C40 26.4 40 52.8 40 80 C53.2 80 66.4 80 80 80 C80 93.2 80 106.4 80 120 C132.8 120 185.6 120 240 120 C240 133.2 240 146.4 240 160 C226.8 160 213.6 160 200 160 C200 186.4 200 212.8 200 240 C173.6 240 147.2 240 120 240 C120 213.6 120 187.2 120 160 C80.4 160 40.8 160 0 160 C0 107.2 0 54.4 0 0 Z " fill="#956275" transform="translate(920,200)"/>
<path d="M0 0 C171.6 0 343.2 0 520 0 C520 13.2 520 26.4 520 40 C348.4 40 176.8 40 0 40 C0 26.8 0 13.6 0 0 Z " fill="#DA2B00" transform="translate(480,560)"/>
<path d="M0 0 C39.6 0 79.2 0 120 0 C120 26.4 120 52.8 120 80 C146.4 80 172.8 80 200 80 C200 93.2 200 106.4 200 120 C173.6 120 147.2 120 120 120 C120 133.2 120 146.4 120 160 C106.8 160 93.6 160 80 160 C80 146.8 80 133.6 80 120 C66.8 120 53.6 120 40 120 C40 93.6 40 67.2 40 40 C26.8 40 13.6 40 0 40 C0 26.8 0 13.6 0 0 Z " fill="#A44658" transform="translate(920,360)"/>
<path d="M0 0 C26.4 0 52.8 0 80 0 C80 26.4 80 52.8 80 80 C66.8 80 53.6 80 40 80 C40 93.2 40 106.4 40 120 C0.4 120 -39.2 120 -80 120 C-80 93.6 -80 67.2 -80 40 C-53.6 40 -27.2 40 0 40 C0 26.8 0 13.6 0 0 Z " fill="#65C2E8" transform="translate(200,440)"/>
<path d="M0 0 C26.4 0 52.8 0 80 0 C80 13.2 80 26.4 80 40 C146 40 212 40 280 40 C280 53.2 280 66.4 280 80 C200.8 80 121.6 80 40 80 C40 66.8 40 53.6 40 40 C26.8 40 13.6 40 0 40 C0 26.8 0 13.6 0 0 Z " fill="#93593A" transform="translate(480,1040)"/>
<path d="M0 0 C92.4 0 184.8 0 280 0 C280 13.2 280 26.4 280 40 C200.8 40 121.6 40 40 40 C40 53.2 40 66.4 40 80 C26.8 80 13.6 80 0 80 C0 53.6 0 27.2 0 0 Z " fill="#A01E00" transform="translate(200,560)"/>
<path d="M0 0 C13.2 0 26.4 0 40 0 C40 92.4 40 184.8 40 280 C26.8 280 13.6 280 0 280 C0 187.6 0 95.2 0 0 Z " fill="#3F2618" transform="translate(920,720)"/>
<path d="M0 0 C79.2 0 158.4 0 240 0 C240 13.2 240 26.4 240 40 C160.8 40 81.6 40 0 40 C0 26.8 0 13.6 0 0 Z " fill="#3F2618" transform="translate(520,1120)"/>
<path d="M0 0 C26.4 0 52.8 0 80 0 C80 52.8 80 105.6 80 160 C53.6 160 27.2 160 0 160 C0 146.8 0 133.6 0 120 C13.2 120 26.4 120 40 120 C40 93.6 40 67.2 40 40 C26.8 40 13.6 40 0 40 C0 26.8 0 13.6 0 0 Z " fill="#4673AE" transform="translate(1160,160)"/>
<path d="M0 0 C52.8 0 105.6 0 160 0 C160 13.2 160 26.4 160 40 C146.8 40 133.6 40 120 40 C120 53.2 120 66.4 120 80 C93.6 80 67.2 80 40 80 C40 66.8 40 53.6 40 40 C26.8 40 13.6 40 0 40 C0 26.8 0 13.6 0 0 Z " fill="#90E4FE" transform="translate(1000,160)"/>
<path d="M0 0 C39.6 0 79.2 0 120 0 C120 13.2 120 26.4 120 40 C93.6 40 67.2 40 40 40 C40 66.4 40 92.8 40 120 C26.8 120 13.6 120 0 120 C0 80.4 0 40.8 0 0 Z " fill="#542E1A" transform="translate(360,840)"/>
<path d="M0 0 C13.2 0 26.4 0 40 0 C40 26.4 40 52.8 40 80 C66.4 80 92.8 80 120 80 C120 93.2 120 106.4 120 120 C80.4 120 40.8 120 0 120 C0 80.4 0 40.8 0 0 Z " fill="#542E1A" transform="translate(360,680)"/>
<path d="M0 0 C52.8 0 105.6 0 160 0 C160 13.2 160 26.4 160 40 C133.6 40 107.2 40 80 40 C80 53.2 80 66.4 80 80 C66.8 80 53.6 80 40 80 C40 66.8 40 53.6 40 40 C26.8 40 13.6 40 0 40 C0 26.8 0 13.6 0 0 Z " fill="#98677C" transform="translate(120,400)"/>
<path d="M0 0 C13.2 0 26.4 0 40 0 C40 13.2 40 26.4 40 40 C53.2 40 66.4 40 80 40 C80 53.2 80 66.4 80 80 C66.8 80 53.6 80 40 80 C40 93.2 40 106.4 40 120 C13.6 120 -12.8 120 -40 120 C-40 106.8 -40 93.6 -40 80 C-26.8 80 -13.6 80 0 80 C0 53.6 0 27.2 0 0 Z " fill="#470C00" transform="translate(480,240)"/>
<path d="M0 0 C26.4 0 52.8 0 80 0 C80 13.2 80 26.4 80 40 C66.8 40 53.6 40 40 40 C40 79.6 40 119.2 40 160 C26.8 160 13.6 160 0 160 C0 107.2 0 54.4 0 0 Z " fill="#9C5D72" transform="translate(880,160)"/>
<path d="M0 0 C26.4 0 52.8 0 80 0 C80 26.4 80 52.8 80 80 C53.6 80 27.2 80 0 80 C0 53.6 0 27.2 0 0 Z " fill="#4F9E9E" transform="translate(520,640)"/>
<path d="M0 0 C13.2 0 26.4 0 40 0 C40 13.2 40 26.4 40 40 C66.4 40 92.8 40 120 40 C120 53.2 120 66.4 120 80 C80.4 80 40.8 80 0 80 C0 53.6 0 27.2 0 0 Z " fill="#4672AE" transform="translate(120,480)"/>
<path d="M0 0 C26.4 0 52.8 0 80 0 C80 13.2 80 26.4 80 40 C66.8 40 53.6 40 40 40 C40 66.4 40 92.8 40 120 C26.8 120 13.6 120 0 120 C0 80.4 0 40.8 0 0 Z " fill="#9C5A6F" transform="translate(80,440)"/>
<path d="M0 0 C26.4 0 52.8 0 80 0 C80 26.4 80 52.8 80 80 C53.6 80 27.2 80 0 80 C0 53.6 0 27.2 0 0 Z " fill="#F9FEFF" transform="translate(1040,360)"/>
<path d="M0 0 C52.8 0 105.6 0 160 0 C160 13.2 160 26.4 160 40 C107.2 40 54.4 40 0 40 C0 26.8 0 13.6 0 0 Z " fill="#4673AE" transform="translate(1000,320)"/>
<path d="M0 0 C52.8 0 105.6 0 160 0 C160 13.2 160 26.4 160 40 C107.2 40 54.4 40 0 40 C0 26.8 0 13.6 0 0 Z " fill="#65C2E8" transform="translate(1000,280)"/>
<path d="M0 0 C13.2 0 26.4 0 40 0 C40 52.8 40 105.6 40 160 C26.8 160 13.6 160 0 160 C0 107.2 0 54.4 0 0 Z " fill="#BB52AE" transform="translate(1240,160)"/>
<path d="M0 0 C52.8 0 105.6 0 160 0 C160 13.2 160 26.4 160 40 C107.2 40 54.4 40 0 40 C0 26.8 0 13.6 0 0 Z " fill="#4672AE" transform="translate(1000,120)"/>
<path d="M0 0 C13.2 0 26.4 0 40 0 C40 26.4 40 52.8 40 80 C53.2 80 66.4 80 80 80 C80 93.2 80 106.4 80 120 C53.6 120 27.2 120 0 120 C0 80.4 0 40.8 0 0 Z " fill="#460D00" transform="translate(320,120)"/>
<path d="M0 0 C26.4 0 52.8 0 80 0 C80 13.2 80 26.4 80 40 C66.8 40 53.6 40 40 40 C40 66.4 40 92.8 40 120 C26.8 120 13.6 120 0 120 C0 80.4 0 40.8 0 0 Z " fill="#925C6C" transform="translate(960,80)"/>
<path d="M0 0 C52.8 0 105.6 0 160 0 C160 13.2 160 26.4 160 40 C107.2 40 54.4 40 0 40 C0 26.8 0 13.6 0 0 Z " fill="#460C00" transform="translate(400,40)"/>
<path d="M0 0 C13.2 0 26.4 0 40 0 C40 13.2 40 26.4 40 40 C53.2 40 66.4 40 80 40 C80 53.2 80 66.4 80 80 C53.6 80 27.2 80 0 80 C0 53.6 0 27.2 0 0 Z " fill="#975A3A" transform="translate(760,1000)"/>
<path d="M0 0 C26.4 0 52.8 0 80 0 C80 13.2 80 26.4 80 40 C66.8 40 53.6 40 40 40 C40 53.2 40 66.4 40 80 C26.8 80 13.6 80 0 80 C0 53.6 0 27.2 0 0 Z " fill="#975A3A" transform="translate(440,960)"/>
<path d="M0 0 C13.2 0 26.4 0 40 0 C40 39.6 40 79.2 40 120 C26.8 120 13.6 120 0 120 C0 80.4 0 40.8 0 0 Z " fill="#74302F" transform="translate(1240,800)"/>
<path d="M0 0 C39.6 0 79.2 0 120 0 C120 13.2 120 26.4 120 40 C80.4 40 40.8 40 0 40 C0 26.8 0 13.6 0 0 Z " fill="#9E5730" transform="translate(360,800)"/>
<path d="M0 0 C13.2 0 26.4 0 40 0 C40 39.6 40 79.2 40 120 C26.8 120 13.6 120 0 120 C0 80.4 0 40.8 0 0 Z " fill="#74312E" transform="translate(0,800)"/>
<path d="M0 0 C13.2 0 26.4 0 40 0 C40 13.2 40 26.4 40 40 C53.2 40 66.4 40 80 40 C80 53.2 80 66.4 80 80 C53.6 80 27.2 80 0 80 C0 53.6 0 27.2 0 0 Z " fill="#000000" transform="translate(760,640)"/>
<path d="M0 0 C26.4 0 52.8 0 80 0 C80 26.4 80 52.8 80 80 C66.8 80 53.6 80 40 80 C40 66.8 40 53.6 40 40 C26.8 40 13.6 40 0 40 C0 26.8 0 13.6 0 0 Z " fill="#542E1A" transform="translate(400,640)"/>
<path d="M0 0 C39.6 0 79.2 0 120 0 C120 13.2 120 26.4 120 40 C80.4 40 40.8 40 0 40 C0 26.8 0 13.6 0 0 Z " fill="#9C1D00" transform="translate(1000,560)"/>
<path d="M0 0 C26.4 0 52.8 0 80 0 C80 13.2 80 26.4 80 40 C66.8 40 53.6 40 40 40 C40 53.2 40 66.4 40 80 C26.8 80 13.6 80 0 80 C0 53.6 0 27.2 0 0 Z " fill="#9E566A" transform="translate(1160,320)"/>
<path d="M0 0 C26.4 0 52.8 0 80 0 C80 13.2 80 26.4 80 40 C53.6 40 27.2 40 0 40 C0 26.8 0 13.6 0 0 Z " fill="#808080" transform="translate(1080,1160)"/>
<path d="M0 0 C26.4 0 52.8 0 80 0 C80 13.2 80 26.4 80 40 C53.6 40 27.2 40 0 40 C0 26.8 0 13.6 0 0 Z " fill="#808080" transform="translate(400,1120)"/>
<path d="M0 0 C26.4 0 52.8 0 80 0 C80 13.2 80 26.4 80 40 C53.6 40 27.2 40 0 40 C0 26.8 0 13.6 0 0 Z " fill="#3E2618" transform="translate(760,1080)"/>
<path d="M0 0 C26.4 0 52.8 0 80 0 C80 13.2 80 26.4 80 40 C53.6 40 27.2 40 0 40 C0 26.8 0 13.6 0 0 Z " fill="#808080" transform="translate(160,1000)"/>
<path d="M0 0 C13.2 0 26.4 0 40 0 C40 26.4 40 52.8 40 80 C26.8 80 13.6 80 0 80 C0 53.6 0 27.2 0 0 Z " fill="#3E2618" transform="translate(400,960)"/>
<path d="M0 0 C13.2 0 26.4 0 40 0 C40 26.4 40 52.8 40 80 C26.8 80 13.6 80 0 80 C0 53.6 0 27.2 0 0 Z " fill="#965A3A" transform="translate(400,880)"/>
<path d="M0 0 C13.2 0 26.4 0 40 0 C40 26.4 40 52.8 40 80 C26.8 80 13.6 80 0 80 C0 53.6 0 27.2 0 0 Z " fill="#3F2618" transform="translate(360,880)"/>
<path d="M0 0 C26.4 0 52.8 0 80 0 C80 13.2 80 26.4 80 40 C53.6 40 27.2 40 0 40 C0 26.8 0 13.6 0 0 Z " fill="#542E1A" transform="translate(520,760)"/>
<path d="M0 0 C26.4 0 52.8 0 80 0 C80 13.2 80 26.4 80 40 C53.6 40 27.2 40 0 40 C0 26.8 0 13.6 0 0 Z " fill="#D07340" transform="translate(520,720)"/>
<path d="M0 0 C13.2 0 26.4 0 40 0 C40 26.4 40 52.8 40 80 C26.8 80 13.6 80 0 80 C0 53.6 0 27.2 0 0 Z " fill="#D07340" transform="translate(600,640)"/>
<path d="M0 0 C13.2 0 26.4 0 40 0 C40 26.4 40 52.8 40 80 C26.8 80 13.6 80 0 80 C0 53.6 0 27.2 0 0 Z " fill="#D07240" transform="translate(480,640)"/>
<path d="M0 0 C13.2 0 26.4 0 40 0 C40 26.4 40 52.8 40 80 C26.8 80 13.6 80 0 80 C0 53.6 0 27.2 0 0 Z " fill="#3F2618" transform="translate(360,680)"/>
<path d="M0 0 C13.2 0 26.4 0 40 0 C40 26.4 40 52.8 40 80 C26.8 80 13.6 80 0 80 C0 53.6 0 27.2 0 0 Z " fill="#3E2618" transform="translate(880,640)"/>
<path d="M0 0 C26.4 0 52.8 0 80 0 C80 13.2 80 26.4 80 40 C53.6 40 27.2 40 0 40 C0 26.8 0 13.6 0 0 Z " fill="#AF6C47" transform="translate(800,640)"/>
<path d="M0 0 C13.2 0 26.4 0 40 0 C40 26.4 40 52.8 40 80 C26.8 80 13.6 80 0 80 C0 53.6 0 27.2 0 0 Z " fill="#542E1A" transform="translate(640,640)"/>
<path d="M0 0 C26.4 0 52.8 0 80 0 C80 13.2 80 26.4 80 40 C53.6 40 27.2 40 0 40 C0 26.8 0 13.6 0 0 Z " fill="#C840A2" transform="translate(320,640)"/>
<path d="M0 0 C26.4 0 52.8 0 80 0 C80 13.2 80 26.4 80 40 C53.6 40 27.2 40 0 40 C0 26.8 0 13.6 0 0 Z " fill="#984151" transform="translate(1080,600)"/>
<path d="M0 0 C13.2 0 26.4 0 40 0 C40 26.4 40 52.8 40 80 C26.8 80 13.6 80 0 80 C0 53.6 0 27.2 0 0 Z " fill="#917991" transform="translate(120,480)"/>
<path d="M0 0 C26.4 0 52.8 0 80 0 C80 13.2 80 26.4 80 40 C53.6 40 27.2 40 0 40 C0 26.8 0 13.6 0 0 Z " fill="#79223D" transform="translate(1040,440)"/>
<path d="M0 0 C13.2 0 26.4 0 40 0 C40 26.4 40 52.8 40 80 C26.8 80 13.6 80 0 80 C0 53.6 0 27.2 0 0 Z " fill="#4672AE" transform="translate(280,440)"/>
<path d="M0 0 C26.4 0 52.8 0 80 0 C80 13.2 80 26.4 80 40 C53.6 40 27.2 40 0 40 C0 26.8 0 13.6 0 0 Z " fill="#6DDBFF" transform="translate(200,440)"/>
<path d="M0 0 C13.2 0 26.4 0 40 0 C40 26.4 40 52.8 40 80 C26.8 80 13.6 80 0 80 C0 53.6 0 27.2 0 0 Z " fill="#79233D" transform="translate(1120,360)"/>
<path d="M0 0 C13.2 0 26.4 0 40 0 C40 26.4 40 52.8 40 80 C26.8 80 13.6 80 0 80 C0 53.6 0 27.2 0 0 Z " fill="#79233D" transform="translate(1000,360)"/>
<path d="M0 0 C13.2 0 26.4 0 40 0 C40 26.4 40 52.8 40 80 C26.8 80 13.6 80 0 80 C0 53.6 0 27.2 0 0 Z " fill="#460D00" transform="translate(920,400)"/>
<path d="M0 0 C13.2 0 26.4 0 40 0 C40 26.4 40 52.8 40 80 C26.8 80 13.6 80 0 80 C0 53.6 0 27.2 0 0 Z " fill="#470C00" transform="translate(360,400)"/>
<path d="M0 0 C26.4 0 52.8 0 80 0 C80 13.2 80 26.4 80 40 C53.6 40 27.2 40 0 40 C0 26.8 0 13.6 0 0 Z " fill="#4572AD" transform="translate(200,400)"/>
<path d="M0 0 C26.4 0 52.8 0 80 0 C80 13.2 80 26.4 80 40 C53.6 40 27.2 40 0 40 C0 26.8 0 13.6 0 0 Z " fill="#D0E4EA" transform="translate(1040,360)"/>
<path d="M0 0 C26.4 0 52.8 0 80 0 C80 13.2 80 26.4 80 40 C53.6 40 27.2 40 0 40 C0 26.8 0 13.6 0 0 Z " fill="#9E566A" transform="translate(920,360)"/>
<path d="M0 0 C13.2 0 26.4 0 40 0 C40 26.4 40 52.8 40 80 C26.8 80 13.6 80 0 80 C0 53.6 0 27.2 0 0 Z " fill="#470C00" transform="translate(880,320)"/>
<path d="M0 0 C26.4 0 52.8 0 80 0 C80 13.2 80 26.4 80 40 C53.6 40 27.2 40 0 40 C0 26.8 0 13.6 0 0 Z " fill="#98677C" transform="translate(1160,280)"/>
<path d="M0 0 C13.2 0 26.4 0 40 0 C40 26.4 40 52.8 40 80 C26.8 80 13.6 80 0 80 C0 53.6 0 27.2 0 0 Z " fill="#4673AE" transform="translate(920,200)"/>
<path d="M0 0 C26.4 0 52.8 0 80 0 C80 13.2 80 26.4 80 40 C53.6 40 27.2 40 0 40 C0 26.8 0 13.6 0 0 Z " fill="#98677D" transform="translate(1160,160)"/>
<path d="M0 0 C26.4 0 52.8 0 80 0 C80 13.2 80 26.4 80 40 C53.6 40 27.2 40 0 40 C0 26.8 0 13.6 0 0 Z " fill="#470C00" transform="translate(680,160)"/>
<path d="M0 0 C26.4 0 52.8 0 80 0 C80 13.2 80 26.4 80 40 C53.6 40 27.2 40 0 40 C0 26.8 0 13.6 0 0 Z " fill="#470D00" transform="translate(600,120)"/>
<path d="M0 0 C13.2 0 26.4 0 40 0 C40 13.2 40 26.4 40 40 C26.8 40 13.6 40 0 40 C0 26.8 0 13.6 0 0 Z " fill="#808080" transform="translate(800,1160)"/>
<path d="M0 0 C13.2 0 26.4 0 40 0 C40 13.2 40 26.4 40 40 C26.8 40 13.6 40 0 40 C0 26.8 0 13.6 0 0 Z " fill="#808080" transform="translate(120,1160)"/>
<path d="M0 0 C13.2 0 26.4 0 40 0 C40 13.2 40 26.4 40 40 C26.8 40 13.6 40 0 40 C0 26.8 0 13.6 0 0 Z " fill="#808080" transform="translate(960,1080)"/>
<path d="M0 0 C13.2 0 26.4 0 40 0 C40 13.2 40 26.4 40 40 C26.8 40 13.6 40 0 40 C0 26.8 0 13.6 0 0 Z " fill="#3E2618" transform="translate(480,1080)"/>
<path d="M0 0 C13.2 0 26.4 0 40 0 C40 13.2 40 26.4 40 40 C26.8 40 13.6 40 0 40 C0 26.8 0 13.6 0 0 Z " fill="#3F2618" transform="translate(840,1040)"/>
<path d="M0 0 C13.2 0 26.4 0 40 0 C40 13.2 40 26.4 40 40 C26.8 40 13.6 40 0 40 C0 26.8 0 13.6 0 0 Z " fill="#975B3A" transform="translate(480,1040)"/>
<path d="M0 0 C13.2 0 26.4 0 40 0 C40 13.2 40 26.4 40 40 C26.8 40 13.6 40 0 40 C0 26.8 0 13.6 0 0 Z " fill="#3F2618" transform="translate(440,1040)"/>
<path d="M0 0 C13.2 0 26.4 0 40 0 C40 13.2 40 26.4 40 40 C26.8 40 13.6 40 0 40 C0 26.8 0 13.6 0 0 Z " fill="#553399" transform="translate(400,1040)"/>
<path d="M0 0 C13.2 0 26.4 0 40 0 C40 13.2 40 26.4 40 40 C26.8 40 13.6 40 0 40 C0 26.8 0 13.6 0 0 Z " fill="#3F2618" transform="translate(880,1000)"/>
<path d="M0 0 C13.2 0 26.4 0 40 0 C40 13.2 40 26.4 40 40 C26.8 40 13.6 40 0 40 C0 26.8 0 13.6 0 0 Z " fill="#975B3A" transform="translate(840,1000)"/>
<path d="M0 0 C13.2 0 26.4 0 40 0 C40 13.2 40 26.4 40 40 C26.8 40 13.6 40 0 40 C0 26.8 0 13.6 0 0 Z " fill="#7E523B" transform="translate(760,1000)"/>
<path d="M0 0 C13.2 0 26.4 0 40 0 C40 13.2 40 26.4 40 40 C26.8 40 13.6 40 0 40 C0 26.8 0 13.6 0 0 Z " fill="#808080" transform="translate(1160,960)"/>
<path d="M0 0 C13.2 0 26.4 0 40 0 C40 13.2 40 26.4 40 40 C26.8 40 13.6 40 0 40 C0 26.8 0 13.6 0 0 Z " fill="#975A3A" transform="translate(880,960)"/>
<path d="M0 0 C13.2 0 26.4 0 40 0 C40 13.2 40 26.4 40 40 C26.8 40 13.6 40 0 40 C0 26.8 0 13.6 0 0 Z " fill="#7E533B" transform="translate(480,960)"/>
<path d="M0 0 C13.2 0 26.4 0 40 0 C40 13.2 40 26.4 40 40 C26.8 40 13.6 40 0 40 C0 26.8 0 13.6 0 0 Z " fill="#48298F" transform="translate(1240,920)"/>
<path d="M0 0 C13.2 0 26.4 0 40 0 C40 13.2 40 26.4 40 40 C26.8 40 13.6 40 0 40 C0 26.8 0 13.6 0 0 Z " fill="#48288F" transform="translate(0,920)"/>
<path d="M0 0 C13.2 0 26.4 0 40 0 C40 13.2 40 26.4 40 40 C26.8 40 13.6 40 0 40 C0 26.8 0 13.6 0 0 Z " fill="#7F533B" transform="translate(560,880)"/>
<path d="M0 0 C13.2 0 26.4 0 40 0 C40 13.2 40 26.4 40 40 C26.8 40 13.6 40 0 40 C0 26.8 0 13.6 0 0 Z " fill="#AF6C46" transform="translate(520,800)"/>
<path d="M0 0 C13.2 0 26.4 0 40 0 C40 13.2 40 26.4 40 40 C26.8 40 13.6 40 0 40 C0 26.8 0 13.6 0 0 Z " fill="#542E1A" transform="translate(480,800)"/>
<path d="M0 0 C13.2 0 26.4 0 40 0 C40 13.2 40 26.4 40 40 C26.8 40 13.6 40 0 40 C0 26.8 0 13.6 0 0 Z " fill="#D07240" transform="translate(440,800)"/>
<path d="M0 0 C13.2 0 26.4 0 40 0 C40 13.2 40 26.4 40 40 C26.8 40 13.6 40 0 40 C0 26.8 0 13.6 0 0 Z " fill="#7A4325" transform="translate(360,800)"/>
<path d="M0 0 C13.2 0 26.4 0 40 0 C40 13.2 40 26.4 40 40 C26.8 40 13.6 40 0 40 C0 26.8 0 13.6 0 0 Z " fill="#D07340" transform="translate(480,760)"/>
<path d="M0 0 C13.2 0 26.4 0 40 0 C40 13.2 40 26.4 40 40 C26.8 40 13.6 40 0 40 C0 26.8 0 13.6 0 0 Z " fill="#542E1A" transform="translate(600,720)"/>
<path d="M0 0 C13.2 0 26.4 0 40 0 C40 13.2 40 26.4 40 40 C26.8 40 13.6 40 0 40 C0 26.8 0 13.6 0 0 Z " fill="#542E1A" transform="translate(480,720)"/>
<path d="M0 0 C13.2 0 26.4 0 40 0 C40 13.2 40 26.4 40 40 C26.8 40 13.6 40 0 40 C0 26.8 0 13.6 0 0 Z " fill="#AF6C47" transform="translate(440,720)"/>
<path d="M0 0 C13.2 0 26.4 0 40 0 C40 13.2 40 26.4 40 40 C26.8 40 13.6 40 0 40 C0 26.8 0 13.6 0 0 Z " fill="#845C44" transform="translate(840,680)"/>
<path d="M0 0 C13.2 0 26.4 0 40 0 C40 13.2 40 26.4 40 40 C26.8 40 13.6 40 0 40 C0 26.8 0 13.6 0 0 Z " fill="#7FFFFE" transform="translate(560,680)"/>
<path d="M0 0 C13.2 0 26.4 0 40 0 C40 13.2 40 26.4 40 40 C26.8 40 13.6 40 0 40 C0 26.8 0 13.6 0 0 Z " fill="#4F9E9E" transform="translate(520,680)"/>
<path d="M0 0 C13.2 0 26.4 0 40 0 C40 13.2 40 26.4 40 40 C26.8 40 13.6 40 0 40 C0 26.8 0 13.6 0 0 Z " fill="#C840A2" transform="translate(1040,640)"/>
<path d="M0 0 C13.2 0 26.4 0 40 0 C40 13.2 40 26.4 40 40 C26.8 40 13.6 40 0 40 C0 26.8 0 13.6 0 0 Z " fill="#C840A2" transform="translate(960,640)"/>
<path d="M0 0 C13.2 0 26.4 0 40 0 C40 13.2 40 26.4 40 40 C26.8 40 13.6 40 0 40 C0 26.8 0 13.6 0 0 Z " fill="#FFFFFF" transform="translate(800,640)"/>
<path d="M0 0 C13.2 0 26.4 0 40 0 C40 13.2 40 26.4 40 40 C26.8 40 13.6 40 0 40 C0 26.8 0 13.6 0 0 Z " fill="#EA8E47" transform="translate(600,640)"/>
<path d="M0 0 C13.2 0 26.4 0 40 0 C40 13.2 40 26.4 40 40 C26.8 40 13.6 40 0 40 C0 26.8 0 13.6 0 0 Z " fill="#7FFFFF" transform="translate(520,640)"/>
<path d="M0 0 C13.2 0 26.4 0 40 0 C40 13.2 40 26.4 40 40 C26.8 40 13.6 40 0 40 C0 26.8 0 13.6 0 0 Z " fill="#EA8E47" transform="translate(480,640)"/>
<path d="M0 0 C13.2 0 26.4 0 40 0 C40 13.2 40 26.4 40 40 C26.8 40 13.6 40 0 40 C0 26.8 0 13.6 0 0 Z " fill="#3E2618" transform="translate(400,640)"/>
<path d="M0 0 C13.2 0 26.4 0 40 0 C40 13.2 40 26.4 40 40 C26.8 40 13.6 40 0 40 C0 26.8 0 13.6 0 0 Z " fill="#79233D" transform="translate(200,600)"/>
<path d="M0 0 C13.2 0 26.4 0 40 0 C40 13.2 40 26.4 40 40 C26.8 40 13.6 40 0 40 C0 26.8 0 13.6 0 0 Z " fill="#4C0C00" transform="translate(1080,560)"/>
<path d="M0 0 C13.2 0 26.4 0 40 0 C40 13.2 40 26.4 40 40 C26.8 40 13.6 40 0 40 C0 26.8 0 13.6 0 0 Z " fill="#5D1002" transform="translate(200,560)"/>
<path d="M0 0 C13.2 0 26.4 0 40 0 C40 13.2 40 26.4 40 40 C26.8 40 13.6 40 0 40 C0 26.8 0 13.6 0 0 Z " fill="#6D3A52" transform="translate(160,560)"/>
<path d="M0 0 C13.2 0 26.4 0 40 0 C40 13.2 40 26.4 40 40 C26.8 40 13.6 40 0 40 C0 26.8 0 13.6 0 0 Z " fill="#9C5C72" transform="translate(120,560)"/>
<path d="M0 0 C13.2 0 26.4 0 40 0 C40 13.2 40 26.4 40 40 C26.8 40 13.6 40 0 40 C0 26.8 0 13.6 0 0 Z " fill="#983E51" transform="translate(1080,520)"/>
<path d="M0 0 C13.2 0 26.4 0 40 0 C40 13.2 40 26.4 40 40 C26.8 40 13.6 40 0 40 C0 26.8 0 13.6 0 0 Z " fill="#8F3A4D" transform="translate(1000,480)"/>
<path d="M0 0 C13.2 0 26.4 0 40 0 C40 13.2 40 26.4 40 40 C26.8 40 13.6 40 0 40 C0 26.8 0 13.6 0 0 Z " fill="#4673AE" transform="translate(120,480)"/>
<path d="M0 0 C13.2 0 26.4 0 40 0 C40 13.2 40 26.4 40 40 C26.8 40 13.6 40 0 40 C0 26.8 0 13.6 0 0 Z " fill="#A01E00" transform="translate(880,440)"/>
<path d="M0 0 C13.2 0 26.4 0 40 0 C40 13.2 40 26.4 40 40 C26.8 40 13.6 40 0 40 C0 26.8 0 13.6 0 0 Z " fill="#4673AE" transform="translate(160,440)"/>
<path d="M0 0 C13.2 0 26.4 0 40 0 C40 13.2 40 26.4 40 40 C26.8 40 13.6 40 0 40 C0 26.8 0 13.6 0 0 Z " fill="#B858B0" transform="translate(120,440)"/>
<path d="M0 0 C13.2 0 26.4 0 40 0 C40 13.2 40 26.4 40 40 C26.8 40 13.6 40 0 40 C0 26.8 0 13.6 0 0 Z " fill="#C840A2" transform="translate(1160,400)"/>
<path d="M0 0 C13.2 0 26.4 0 40 0 C40 13.2 40 26.4 40 40 C26.8 40 13.6 40 0 40 C0 26.8 0 13.6 0 0 Z " fill="#FFC242" transform="translate(880,400)"/>
<path d="M0 0 C13.2 0 26.4 0 40 0 C40 13.2 40 26.4 40 40 C26.8 40 13.6 40 0 40 C0 26.8 0 13.6 0 0 Z " fill="#FFC342" transform="translate(480,400)"/>
<path d="M0 0 C13.2 0 26.4 0 40 0 C40 13.2 40 26.4 40 40 C26.8 40 13.6 40 0 40 C0 26.8 0 13.6 0 0 Z " fill="#98677D" transform="translate(280,400)"/>
<path d="M0 0 C13.2 0 26.4 0 40 0 C40 13.2 40 26.4 40 40 C26.8 40 13.6 40 0 40 C0 26.8 0 13.6 0 0 Z " fill="#9C5D72" transform="translate(120,400)"/>
<path d="M0 0 C13.2 0 26.4 0 40 0 C40 13.2 40 26.4 40 40 C26.8 40 13.6 40 0 40 C0 26.8 0 13.6 0 0 Z " fill="#9E566A" transform="translate(1160,360)"/>
<path d="M0 0 C13.2 0 26.4 0 40 0 C40 13.2 40 26.4 40 40 C26.8 40 13.6 40 0 40 C0 26.8 0 13.6 0 0 Z " fill="#773F5B" transform="translate(1120,360)"/>
<path d="M0 0 C13.2 0 26.4 0 40 0 C40 13.2 40 26.4 40 40 C26.8 40 13.6 40 0 40 C0 26.8 0 13.6 0 0 Z " fill="#773F5B" transform="translate(1000,360)"/>
<path d="M0 0 C13.2 0 26.4 0 40 0 C40 13.2 40 26.4 40 40 C26.8 40 13.6 40 0 40 C0 26.8 0 13.6 0 0 Z " fill="#A54658" transform="translate(920,360)"/>
<path d="M0 0 C13.2 0 26.4 0 40 0 C40 13.2 40 26.4 40 40 C26.8 40 13.6 40 0 40 C0 26.8 0 13.6 0 0 Z " fill="#FEC342" transform="translate(760,360)"/>
<path d="M0 0 C13.2 0 26.4 0 40 0 C40 13.2 40 26.4 40 40 C26.8 40 13.6 40 0 40 C0 26.8 0 13.6 0 0 Z " fill="#460C00" transform="translate(400,360)"/>
<path d="M0 0 C13.2 0 26.4 0 40 0 C40 13.2 40 26.4 40 40 C26.8 40 13.6 40 0 40 C0 26.8 0 13.6 0 0 Z " fill="#9E566A" transform="translate(160,360)"/>
<path d="M0 0 C13.2 0 26.4 0 40 0 C40 13.2 40 26.4 40 40 C26.8 40 13.6 40 0 40 C0 26.8 0 13.6 0 0 Z " fill="#98677C" transform="translate(1160,320)"/>
<path d="M0 0 C13.2 0 26.4 0 40 0 C40 13.2 40 26.4 40 40 C26.8 40 13.6 40 0 40 C0 26.8 0 13.6 0 0 Z " fill="#984552" transform="translate(280,320)"/>
<path d="M0 0 C13.2 0 26.4 0 40 0 C40 13.2 40 26.4 40 40 C26.8 40 13.6 40 0 40 C0 26.8 0 13.6 0 0 Z " fill="#4673AE" transform="translate(1160,280)"/>
<path d="M0 0 C13.2 0 26.4 0 40 0 C40 13.2 40 26.4 40 40 C26.8 40 13.6 40 0 40 C0 26.8 0 13.6 0 0 Z " fill="#4673AE" transform="translate(960,280)"/>
<path d="M0 0 C13.2 0 26.4 0 40 0 C40 13.2 40 26.4 40 40 C26.8 40 13.6 40 0 40 C0 26.8 0 13.6 0 0 Z " fill="#98677D" transform="translate(920,280)"/>
<path d="M0 0 C13.2 0 26.4 0 40 0 C40 13.2 40 26.4 40 40 C26.8 40 13.6 40 0 40 C0 26.8 0 13.6 0 0 Z " fill="#9E566A" transform="translate(880,280)"/>
<path d="M0 0 C13.2 0 26.4 0 40 0 C40 13.2 40 26.4 40 40 C26.8 40 13.6 40 0 40 C0 26.8 0 13.6 0 0 Z " fill="#470D00" transform="translate(840,280)"/>
<path d="M0 0 C13.2 0 26.4 0 40 0 C40 13.2 40 26.4 40 40 C26.8 40 13.6 40 0 40 C0 26.8 0 13.6 0 0 Z " fill="#FFC342" transform="translate(640,280)"/>
<path d="M0 0 C13.2 0 26.4 0 40 0 C40 13.2 40 26.4 40 40 C26.8 40 13.6 40 0 40 C0 26.8 0 13.6 0 0 Z " fill="#C840A2" transform="translate(80,280)"/>
<path d="M0 0 C13.2 0 26.4 0 40 0 C40 13.2 40 26.4 40 40 C26.8 40 13.6 40 0 40 C0 26.8 0 13.6 0 0 Z " fill="#460D00" transform="translate(800,240)"/>
<path d="M0 0 C13.2 0 26.4 0 40 0 C40 13.2 40 26.4 40 40 C26.8 40 13.6 40 0 40 C0 26.8 0 13.6 0 0 Z " fill="#90E4FF" transform="translate(1160,200)"/>
<path d="M0 0 C13.2 0 26.4 0 40 0 C40 13.2 40 26.4 40 40 C26.8 40 13.6 40 0 40 C0 26.8 0 13.6 0 0 Z " fill="#90E4FE" transform="translate(960,200)"/>
<path d="M0 0 C13.2 0 26.4 0 40 0 C40 13.2 40 26.4 40 40 C26.8 40 13.6 40 0 40 C0 26.8 0 13.6 0 0 Z " fill="#470D00" transform="translate(760,200)"/>
<path d="M0 0 C13.2 0 26.4 0 40 0 C40 13.2 40 26.4 40 40 C26.8 40 13.6 40 0 40 C0 26.8 0 13.6 0 0 Z " fill="#470D00" transform="translate(440,200)"/>
<path d="M0 0 C13.2 0 26.4 0 40 0 C40 13.2 40 26.4 40 40 C26.8 40 13.6 40 0 40 C0 26.8 0 13.6 0 0 Z " fill="#4673AE" transform="translate(1160,160)"/>
<path d="M0 0 C13.2 0 26.4 0 40 0 C40 13.2 40 26.4 40 40 C26.8 40 13.6 40 0 40 C0 26.8 0 13.6 0 0 Z " fill="#4673AE" transform="translate(960,160)"/>
<path d="M0 0 C13.2 0 26.4 0 40 0 C40 13.2 40 26.4 40 40 C26.8 40 13.6 40 0 40 C0 26.8 0 13.6 0 0 Z " fill="#98667D" transform="translate(920,160)"/>
<path d="M0 0 C13.2 0 26.4 0 40 0 C40 13.2 40 26.4 40 40 C26.8 40 13.6 40 0 40 C0 26.8 0 13.6 0 0 Z " fill="#9E566A" transform="translate(880,160)"/>
<path d="M0 0 C13.2 0 26.4 0 40 0 C40 13.2 40 26.4 40 40 C26.8 40 13.6 40 0 40 C0 26.8 0 13.6 0 0 Z " fill="#FFC342" transform="translate(520,160)"/>
<path d="M0 0 C13.2 0 26.4 0 40 0 C40 13.2 40 26.4 40 40 C26.8 40 13.6 40 0 40 C0 26.8 0 13.6 0 0 Z " fill="#470D00" transform="translate(400,160)"/>
<path d="M0 0 C13.2 0 26.4 0 40 0 C40 13.2 40 26.4 40 40 C26.8 40 13.6 40 0 40 C0 26.8 0 13.6 0 0 Z " fill="#C840A2" transform="translate(280,160)"/>
<path d="M0 0 C13.2 0 26.4 0 40 0 C40 13.2 40 26.4 40 40 C26.8 40 13.6 40 0 40 C0 26.8 0 13.6 0 0 Z " fill="#9E566A" transform="translate(1200,120)"/>
<path d="M0 0 C13.2 0 26.4 0 40 0 C40 13.2 40 26.4 40 40 C26.8 40 13.6 40 0 40 C0 26.8 0 13.6 0 0 Z " fill="#98667D" transform="translate(1160,120)"/>
<path d="M0 0 C13.2 0 26.4 0 40 0 C40 13.2 40 26.4 40 40 C26.8 40 13.6 40 0 40 C0 26.8 0 13.6 0 0 Z " fill="#98667D" transform="translate(960,120)"/>
<path d="M0 0 C13.2 0 26.4 0 40 0 C40 13.2 40 26.4 40 40 C26.8 40 13.6 40 0 40 C0 26.8 0 13.6 0 0 Z " fill="#9E566A" transform="translate(920,120)"/>
<path d="M0 0 C13.2 0 26.4 0 40 0 C40 13.2 40 26.4 40 40 C26.8 40 13.6 40 0 40 C0 26.8 0 13.6 0 0 Z " fill="#C840A2" transform="translate(680,120)"/>
<path d="M0 0 C13.2 0 26.4 0 40 0 C40 13.2 40 26.4 40 40 C26.8 40 13.6 40 0 40 C0 26.8 0 13.6 0 0 Z " fill="#DB2A00" transform="translate(480,120)"/>
<path d="M0 0 C13.2 0 26.4 0 40 0 C40 13.2 40 26.4 40 40 C26.8 40 13.6 40 0 40 C0 26.8 0 13.6 0 0 Z " fill="#C840A2" transform="translate(240,120)"/>
<path d="M0 0 C13.2 0 26.4 0 40 0 C40 13.2 40 26.4 40 40 C26.8 40 13.6 40 0 40 C0 26.8 0 13.6 0 0 Z " fill="#9E566A" transform="translate(1160,80)"/>
<path d="M0 0 C13.2 0 26.4 0 40 0 C40 13.2 40 26.4 40 40 C26.8 40 13.6 40 0 40 C0 26.8 0 13.6 0 0 Z " fill="#9E566A" transform="translate(960,80)"/>
<path d="M0 0 C13.2 0 26.4 0 40 0 C40 13.2 40 26.4 40 40 C26.8 40 13.6 40 0 40 C0 26.8 0 13.6 0 0 Z " fill="#994552" transform="translate(840,80)"/>
<path d="M0 0 C13.2 0 26.4 0 40 0 C40 13.2 40 26.4 40 40 C26.8 40 13.6 40 0 40 C0 26.8 0 13.6 0 0 Z " fill="#C840A2" transform="translate(640,80)"/>
<path d="M0 0 C13.2 0 26.4 0 40 0 C40 13.2 40 26.4 40 40 C26.8 40 13.6 40 0 40 C0 26.8 0 13.6 0 0 Z " fill="#470D00" transform="translate(560,80)"/>
<path d="M0 0 C13.2 0 26.4 0 40 0 C40 13.2 40 26.4 40 40 C26.8 40 13.6 40 0 40 C0 26.8 0 13.6 0 0 Z " fill="#470D00" transform="translate(360,80)"/>
</svg>
