<?xml version="1.0" encoding="UTF-8"?>
<svg version="1.1" xmlns="http://www.w3.org/2000/svg" width="1280" height="1280">
<path d="M0 0 C422.4 0 844.8 0 1280 0 C1280 422.4 1280 844.8 1280 1280 C857.6 1280 435.2 1280 0 1280 C0 857.6 0 435.2 0 0 Z " fill="#FAFEFE" transform="translate(0,0)"/>
<path d="M0 0 C13.2 0 26.4 0 40 0 C40 13.2 40 26.4 40 40 C79.6 40 119.2 40 160 40 C160 53.2 160 66.4 160 80 C173.2 80 186.4 80 200 80 C200 93.2 200 106.4 200 120 C213.2 120 226.4 120 240 120 C240 133.2 240 146.4 240 160 C253.2 160 266.4 160 280 160 C280 186.4 280 212.8 280 240 C293.2 240 306.4 240 320 240 C320 253.2 320 266.4 320 280 C333.2 280 346.4 280 360 280 C360 293.2 360 306.4 360 320 C373.2 320 386.4 320 400 320 C400 346.4 400 372.8 400 400 C386.8 400 373.6 400 360 400 C360 439.6 360 479.2 360 520 C373.2 520 386.4 520 400 520 C400 559.6 400 599.2 400 640 C386.8 640 373.6 640 360 640 C360 653.2 360 666.4 360 680 C346.8 680 333.6 680 320 680 C320 693.2 320 706.4 320 720 C333.2 720 346.4 720 360 720 C360 733.2 360 746.4 360 760 C399.6 760 439.2 760 480 760 C480 746.8 480 733.6 480 720 C506.4 720 532.8 720 560 720 C560 706.8 560 693.6 560 680 C586.4 680 612.8 680 640 680 C640 666.8 640 653.6 640 640 C653.2 640 666.4 640 680 640 C680 745.6 680 851.2 680 960 C257.6 960 -164.8 960 -600 960 C-600 854.4 -600 748.8 -600 640 C-586.8 640 -573.6 640 -560 640 C-560 653.2 -560 666.4 -560 680 C-533.6 680 -507.2 680 -480 680 C-480 693.2 -480 706.4 -480 720 C-453.6 720 -427.2 720 -400 720 C-400 733.2 -400 746.4 -400 760 C-360.4 760 -320.8 760 -280 760 C-280 746.8 -280 733.6 -280 720 C-253.6 720 -227.2 720 -200 720 C-200 693.6 -200 667.2 -200 640 C-213.2 640 -226.4 640 -240 640 C-240 547.6 -240 455.2 -240 360 C-226.8 360 -213.6 360 -200 360 C-200 320.4 -200 280.8 -200 240 C-186.8 240 -173.6 240 -160 240 C-160 213.6 -160 187.2 -160 160 C-146.8 160 -133.6 160 -120 160 C-120 146.8 -120 133.6 -120 120 C-106.8 120 -93.6 120 -80 120 C-80 106.8 -80 93.6 -80 80 C-66.8 80 -53.6 80 -40 80 C-40 66.8 -40 53.6 -40 40 C-26.8 40 -13.6 40 0 40 C0 26.8 0 13.6 0 0 Z " fill="#54587A" transform="translate(600,320)"/>
<path d="M0 0 C13.2 0 26.4 0 40 0 C40 13.2 40 26.4 40 40 C79.6 40 119.2 40 160 40 C160 53.2 160 66.4 160 80 C173.2 80 186.4 80 200 80 C200 93.2 200 106.4 200 120 C213.2 120 226.4 120 240 120 C240 133.2 240 146.4 240 160 C253.2 160 266.4 160 280 160 C280 186.4 280 212.8 280 240 C293.2 240 306.4 240 320 240 C320 253.2 320 266.4 320 280 C333.2 280 346.4 280 360 280 C360 293.2 360 306.4 360 320 C373.2 320 386.4 320 400 320 C400 346.4 400 372.8 400 400 C386.8 400 373.6 400 360 400 C360 426.4 360 452.8 360 480 C346.8 480 333.6 480 320 480 C320 493.2 320 506.4 320 520 C306.8 520 293.6 520 280 520 C280 533.2 280 546.4 280 560 C266.8 560 253.6 560 240 560 C240 546.8 240 533.6 240 520 C226.8 520 213.6 520 200 520 C200 506.8 200 493.6 200 480 C173.6 480 147.2 480 120 480 C120 506.4 120 532.8 120 560 C133.2 560 146.4 560 160 560 C160 573.2 160 586.4 160 600 C173.2 600 186.4 600 200 600 C200 613.2 200 626.4 200 640 C213.2 640 226.4 640 240 640 C240 653.2 240 666.4 240 680 C253.2 680 266.4 680 280 680 C280 693.2 280 706.4 280 720 C253.6 720 227.2 720 200 720 C200 706.8 200 693.6 200 680 C186.8 680 173.6 680 160 680 C160 706.4 160 732.8 160 760 C94 760 28 760 -40 760 C-40 746.8 -40 733.6 -40 720 C-66.4 720 -92.8 720 -120 720 C-120 706.8 -120 693.6 -120 680 C-106.8 680 -93.6 680 -80 680 C-80 666.8 -80 653.6 -80 640 C-132.8 640 -185.6 640 -240 640 C-240 547.6 -240 455.2 -240 360 C-226.8 360 -213.6 360 -200 360 C-200 320.4 -200 280.8 -200 240 C-186.8 240 -173.6 240 -160 240 C-160 213.6 -160 187.2 -160 160 C-146.8 160 -133.6 160 -120 160 C-120 146.8 -120 133.6 -120 120 C-106.8 120 -93.6 120 -80 120 C-80 106.8 -80 93.6 -80 80 C-66.8 80 -53.6 80 -40 80 C-40 66.8 -40 53.6 -40 40 C-26.8 40 -13.6 40 0 40 C0 26.8 0 13.6 0 0 Z " fill="#AE6C46" transform="translate(600,320)"/>
<path d="M0 0 C422.4 0 844.8 0 1280 0 C1280 316.8 1280 633.6 1280 960 C1266.8 960 1253.6 960 1240 960 C1240 973.2 1240 986.4 1240 1000 C1213.6 1000 1187.2 1000 1160 1000 C1160 1013.2 1160 1026.4 1160 1040 C1133.6 1040 1107.2 1040 1080 1040 C1080 1053.2 1080 1066.4 1080 1080 C1040.4 1080 1000.8 1080 960 1080 C960 1066.8 960 1053.6 960 1040 C946.8 1040 933.6 1040 920 1040 C920 1026.8 920 1013.6 920 1000 C933.2 1000 946.4 1000 960 1000 C960 986.8 960 973.6 960 960 C973.2 960 986.4 960 1000 960 C1000 920.4 1000 880.8 1000 840 C986.8 840 973.6 840 960 840 C960 800.4 960 760.8 960 720 C999.6 720 1039.2 720 1080 720 C1080 733.2 1080 746.4 1080 760 C1106.4 760 1132.8 760 1160 760 C1160 746.8 1160 733.6 1160 720 C1173.2 720 1186.4 720 1200 720 C1200 733.2 1200 746.4 1200 760 C1213.2 760 1226.4 760 1240 760 C1240 522.4 1240 284.8 1240 40 C844 40 448 40 40 40 C40 277.6 40 515.2 40 760 C53.2 760 66.4 760 80 760 C80 746.8 80 733.6 80 720 C93.2 720 106.4 720 120 720 C120 733.2 120 746.4 120 760 C146.4 760 172.8 760 200 760 C200 746.8 200 733.6 200 720 C226.4 720 252.8 720 280 720 C280 733.2 280 746.4 280 760 C306.4 760 332.8 760 360 760 C360 826 360 892 360 960 C373.2 960 386.4 960 400 960 C400 986.4 400 1012.8 400 1040 C373.6 1040 347.2 1040 320 1040 C320 1053.2 320 1066.4 320 1080 C280.4 1080 240.8 1080 200 1080 C200 1066.8 200 1053.6 200 1040 C173.6 1040 147.2 1040 120 1040 C120 1026.8 120 1013.6 120 1000 C93.6 1000 67.2 1000 40 1000 C40 986.8 40 973.6 40 960 C26.8 960 13.6 960 0 960 C0 643.2 0 326.4 0 0 Z " fill="#EEE4EA" transform="translate(0,0)"/>
<path d="M0 0 C13.2 0 26.4 0 40 0 C40 13.2 40 26.4 40 40 C79.6 40 119.2 40 160 40 C160 53.2 160 66.4 160 80 C146.8 80 133.6 80 120 80 C120 93.2 120 106.4 120 120 C106.8 120 93.6 120 80 120 C80 146.4 80 172.8 80 200 C93.2 200 106.4 200 120 200 C120 186.8 120 173.6 120 160 C146.4 160 172.8 160 200 160 C200 173.2 200 186.4 200 200 C186.8 200 173.6 200 160 200 C160 213.2 160 226.4 160 240 C133.6 240 107.2 240 80 240 C80 253.2 80 266.4 80 280 C66.8 280 53.6 280 40 280 C40 319.6 40 359.2 40 400 C26.8 400 13.6 400 0 400 C0 413.2 0 426.4 0 440 C-39.6 440 -79.2 440 -120 440 C-120 453.2 -120 466.4 -120 480 C-146.4 480 -172.8 480 -200 480 C-200 532.8 -200 585.6 -200 640 C-213.2 640 -226.4 640 -240 640 C-240 547.6 -240 455.2 -240 360 C-226.8 360 -213.6 360 -200 360 C-200 320.4 -200 280.8 -200 240 C-186.8 240 -173.6 240 -160 240 C-160 213.6 -160 187.2 -160 160 C-146.8 160 -133.6 160 -120 160 C-120 146.8 -120 133.6 -120 120 C-106.8 120 -93.6 120 -80 120 C-80 106.8 -80 93.6 -80 80 C-66.8 80 -53.6 80 -40 80 C-40 66.8 -40 53.6 -40 40 C-26.8 40 -13.6 40 0 40 C0 26.8 0 13.6 0 0 Z " fill="#AC6A45" transform="translate(600,320)"/>
<path d="M0 0 C13.2 0 26.4 0 40 0 C40 92.4 40 184.8 40 280 C436 280 832 280 1240 280 C1240 187.6 1240 95.2 1240 0 C1253.2 0 1266.4 0 1280 0 C1280 105.6 1280 211.2 1280 320 C857.6 320 435.2 320 0 320 C0 214.4 0 108.8 0 0 Z " fill="#464A66" transform="translate(0,960)"/>
<path d="M0 0 C13.2 0 26.4 0 40 0 C40 26.4 40 52.8 40 80 C66.4 80 92.8 80 120 80 C120 93.2 120 106.4 120 120 C146.4 120 172.8 120 200 120 C200 133.2 200 146.4 200 160 C239.6 160 279.2 160 320 160 C320 146.8 320 133.6 320 120 C333.2 120 346.4 120 360 120 C360 133.2 360 146.4 360 160 C373.2 160 386.4 160 400 160 C400 186.4 400 212.8 400 240 C373.6 240 347.2 240 320 240 C320 253.2 320 266.4 320 280 C280.4 280 240.8 280 200 280 C200 266.8 200 253.6 200 240 C173.6 240 147.2 240 120 240 C120 226.8 120 213.6 120 200 C93.6 200 67.2 200 40 200 C40 186.8 40 173.6 40 160 C26.8 160 13.6 160 0 160 C0 107.2 0 54.4 0 0 Z " fill="#62AAD4" transform="translate(0,800)"/>
<path d="M0 0 C39.6 0 79.2 0 120 0 C120 13.2 120 26.4 120 40 C106.8 40 93.6 40 80 40 C80 53.2 80 66.4 80 80 C106.4 80 132.8 80 160 80 C160 93.2 160 106.4 160 120 C226 120 292 120 360 120 C360 93.6 360 67.2 360 40 C373.2 40 386.4 40 400 40 C400 53.2 400 66.4 400 80 C426.4 80 452.8 80 480 80 C480 93.2 480 106.4 480 120 C466.8 120 453.6 120 440 120 C440 133.2 440 146.4 440 160 C413.6 160 387.2 160 360 160 C360 173.2 360 186.4 360 200 C280.8 200 201.6 200 120 200 C120 186.8 120 173.6 120 160 C106.8 160 93.6 160 80 160 C80 146.8 80 133.6 80 120 C66.8 120 53.6 120 40 120 C40 106.8 40 93.6 40 80 C26.8 80 13.6 80 0 80 C0 53.6 0 27.2 0 0 Z " fill="#965A3A" transform="translate(400,960)"/>
<path d="M0 0 C13.2 0 26.4 0 40 0 C40 52.8 40 105.6 40 160 C26.8 160 13.6 160 0 160 C0 173.2 0 186.4 0 200 C-26.4 200 -52.8 200 -80 200 C-80 213.2 -80 226.4 -80 240 C-106.4 240 -132.8 240 -160 240 C-160 253.2 -160 266.4 -160 280 C-199.6 280 -239.2 280 -280 280 C-280 266.8 -280 253.6 -280 240 C-293.2 240 -306.4 240 -320 240 C-320 226.8 -320 213.6 -320 200 C-306.8 200 -293.6 200 -280 200 C-280 186.8 -280 173.6 -280 160 C-240.4 160 -200.8 160 -160 160 C-160 146.8 -160 133.6 -160 120 C-133.6 120 -107.2 120 -80 120 C-80 106.8 -80 93.6 -80 80 C-53.6 80 -27.2 80 0 80 C0 53.6 0 27.2 0 0 Z " fill="#62AAD4" transform="translate(1240,800)"/>
<path d="M0 0 C26.4 0 52.8 0 80 0 C80 13.2 80 26.4 80 40 C93.2 40 106.4 40 120 40 C120 53.2 120 66.4 120 80 C133.2 80 146.4 80 160 80 C160 66.8 160 53.6 160 40 C173.2 40 186.4 40 200 40 C200 26.8 200 13.6 200 0 C213.2 0 226.4 0 240 0 C240 13.2 240 26.4 240 40 C253.2 40 266.4 40 280 40 C280 79.6 280 119.2 280 160 C266.8 160 253.6 160 240 160 C240 173.2 240 186.4 240 200 C226.8 200 213.6 200 200 200 C200 213.2 200 226.4 200 240 C186.8 240 173.6 240 160 240 C160 226.8 160 213.6 160 200 C146.8 200 133.6 200 120 200 C120 186.8 120 173.6 120 160 C106.8 160 93.6 160 80 160 C80 146.8 80 133.6 80 120 C66.8 120 53.6 120 40 120 C40 106.8 40 93.6 40 80 C26.8 80 13.6 80 0 80 C0 53.6 0 27.2 0 0 Z " fill="#702D00" transform="translate(720,800)"/>
<path d="M0 0 C26.4 0 52.8 0 80 0 C80 13.2 80 26.4 80 40 C106.4 40 132.8 40 160 40 C160 26.8 160 13.6 160 0 C199.6 0 239.2 0 280 0 C280 13.2 280 26.4 280 40 C293.2 40 306.4 40 320 40 C320 66.4 320 92.8 320 120 C306.8 120 293.6 120 280 120 C280 133.2 280 146.4 280 160 C240.4 160 200.8 160 160 160 C160 146.8 160 133.6 160 120 C133.6 120 107.2 120 80 120 C80 106.8 80 93.6 80 80 C53.6 80 27.2 80 0 80 C0 53.6 0 27.2 0 0 Z " fill="#9AF0FC" transform="translate(40,800)"/>
<path d="M0 0 C13.2 0 26.4 0 40 0 C40 13.2 40 26.4 40 40 C79.6 40 119.2 40 160 40 C160 53.2 160 66.4 160 80 C146.8 80 133.6 80 120 80 C120 93.2 120 106.4 120 120 C106.8 120 93.6 120 80 120 C80 146.4 80 172.8 80 200 C93.2 200 106.4 200 120 200 C120 186.8 120 173.6 120 160 C146.4 160 172.8 160 200 160 C200 173.2 200 186.4 200 200 C186.8 200 173.6 200 160 200 C160 213.2 160 226.4 160 240 C133.6 240 107.2 240 80 240 C80 253.2 80 266.4 80 280 C66.8 280 53.6 280 40 280 C40 253.6 40 227.2 40 200 C13.6 200 -12.8 200 -40 200 C-40 173.6 -40 147.2 -40 120 C-26.8 120 -13.6 120 0 120 C0 133.2 0 146.4 0 160 C13.2 160 26.4 160 40 160 C40 133.6 40 107.2 40 80 C13.6 80 -12.8 80 -40 80 C-40 66.8 -40 53.6 -40 40 C-26.8 40 -13.6 40 0 40 C0 26.8 0 13.6 0 0 Z " fill="#4CFE00" transform="translate(600,320)"/>
<path d="M0 0 C39.6 0 79.2 0 120 0 C120 13.2 120 26.4 120 40 C146.4 40 172.8 40 200 40 C200 26.8 200 13.6 200 0 C226.4 0 252.8 0 280 0 C280 26.4 280 52.8 280 80 C253.6 80 227.2 80 200 80 C200 93.2 200 106.4 200 120 C173.6 120 147.2 120 120 120 C120 133.2 120 146.4 120 160 C93.6 160 67.2 160 40 160 C40 120.4 40 80.8 40 40 C26.8 40 13.6 40 0 40 C0 26.8 0 13.6 0 0 Z " fill="#9AF0FC" transform="translate(960,800)"/>
<path d="M0 0 C39.6 0 79.2 0 120 0 C120 39.6 120 79.2 120 120 C106.8 120 93.6 120 80 120 C80 133.2 80 146.4 80 160 C40.4 160 0.8 160 -40 160 C-40 120.4 -40 80.8 -40 40 C-26.8 40 -13.6 40 0 40 C0 26.8 0 13.6 0 0 Z " fill="#000000" transform="translate(520,600)"/>
<path d="M0 0 C52.8 0 105.6 0 160 0 C160 13.2 160 26.4 160 40 C173.2 40 186.4 40 200 40 C200 53.2 200 66.4 200 80 C213.2 80 226.4 80 240 80 C240 93.2 240 106.4 240 120 C213.6 120 187.2 120 160 120 C160 133.2 160 146.4 160 160 C133.6 160 107.2 160 80 160 C80 146.8 80 133.6 80 120 C93.2 120 106.4 120 120 120 C120 93.6 120 67.2 120 40 C80.4 40 40.8 40 0 40 C0 26.8 0 13.6 0 0 Z " fill="#F2F4F8" transform="translate(240,200)"/>
<path d="M0 0 C39.6 0 79.2 0 120 0 C120 13.2 120 26.4 120 40 C133.2 40 146.4 40 160 40 C160 53.2 160 66.4 160 80 C173.2 80 186.4 80 200 80 C200 93.2 200 106.4 200 120 C173.6 120 147.2 120 120 120 C120 133.2 120 146.4 120 160 C93.6 160 67.2 160 40 160 C40 146.8 40 133.6 40 120 C53.2 120 66.4 120 80 120 C80 93.6 80 67.2 80 40 C53.6 40 27.2 40 0 40 C0 26.8 0 13.6 0 0 Z " fill="#F2F4F8" transform="translate(920,480)"/>
<path d="M0 0 C13.2 0 26.4 0 40 0 C40 26.4 40 52.8 40 80 C66.4 80 92.8 80 120 80 C120 93.2 120 106.4 120 120 C93.6 120 67.2 120 40 120 C40 172.8 40 225.6 40 280 C26.8 280 13.6 280 0 280 C0 187.6 0 95.2 0 0 Z " fill="#3E2618" transform="translate(360,680)"/>
<path d="M0 0 C26.4 0 52.8 0 80 0 C80 13.2 80 26.4 80 40 C93.2 40 106.4 40 120 40 C120 53.2 120 66.4 120 80 C80.4 80 40.8 80 0 80 C0 93.2 0 106.4 0 120 C-13.2 120 -26.4 120 -40 120 C-40 93.6 -40 67.2 -40 40 C-26.8 40 -13.6 40 0 40 C0 26.8 0 13.6 0 0 Z " fill="#B87956" transform="translate(720,400)"/>
<path d="M0 0 C79.2 0 158.4 0 240 0 C240 13.2 240 26.4 240 40 C160.8 40 81.6 40 0 40 C0 26.8 0 13.6 0 0 Z " fill="#3E2618" transform="translate(520,1120)"/>
<path d="M0 0 C13.2 0 26.4 0 40 0 C40 13.2 40 26.4 40 40 C66.4 40 92.8 40 120 40 C120 53.2 120 66.4 120 80 C106.8 80 93.6 80 80 80 C80 93.2 80 106.4 80 120 C53.6 120 27.2 120 0 120 C0 80.4 0 40.8 0 0 Z " fill="#975B3A" transform="translate(760,1000)"/>
<path d="M0 0 C13.2 0 26.4 0 40 0 C40 13.2 40 26.4 40 40 C53.2 40 66.4 40 80 40 C80 79.6 80 119.2 80 160 C66.8 160 53.6 160 40 160 C40 133.6 40 107.2 40 80 C13.6 80 -12.8 80 -40 80 C-40 66.8 -40 53.6 -40 40 C-26.8 40 -13.6 40 0 40 C0 26.8 0 13.6 0 0 Z " fill="#281000" transform="translate(920,800)"/>
<path d="M0 0 C39.6 0 79.2 0 120 0 C120 13.2 120 26.4 120 40 C93.6 40 67.2 40 40 40 C40 66.4 40 92.8 40 120 C26.8 120 13.6 120 0 120 C0 106.8 0 93.6 0 80 C-13.2 80 -26.4 80 -40 80 C-40 66.8 -40 53.6 -40 40 C-26.8 40 -13.6 40 0 40 C0 26.8 0 13.6 0 0 Z " fill="#F2F4F8" transform="translate(160,600)"/>
<path d="M0 0 C26.4 0 52.8 0 80 0 C80 13.2 80 26.4 80 40 C66.8 40 53.6 40 40 40 C40 53.2 40 66.4 40 80 C13.6 80 -12.8 80 -40 80 C-40 93.2 -40 106.4 -40 120 C-53.2 120 -66.4 120 -80 120 C-80 93.6 -80 67.2 -80 40 C-53.6 40 -27.2 40 0 40 C0 26.8 0 13.6 0 0 Z " fill="#00FF20" transform="translate(720,480)"/>
<path d="M0 0 C39.6 0 79.2 0 120 0 C120 13.2 120 26.4 120 40 C106.8 40 93.6 40 80 40 C80 53.2 80 66.4 80 80 C66.8 80 53.6 80 40 80 C40 66.8 40 53.6 40 40 C26.8 40 13.6 40 0 40 C0 26.8 0 13.6 0 0 Z " fill="#281000" transform="translate(840,960)"/>
<path d="M0 0 C13.2 0 26.4 0 40 0 C40 52.8 40 105.6 40 160 C26.8 160 13.6 160 0 160 C0 107.2 0 54.4 0 0 Z " fill="#965B3A" transform="translate(400,800)"/>
<path d="M0 0 C26.4 0 52.8 0 80 0 C80 26.4 80 52.8 80 80 C53.6 80 27.2 80 0 80 C0 53.6 0 27.2 0 0 Z " fill="#808080" transform="translate(920,640)"/>
<path d="M0 0 C26.4 0 52.8 0 80 0 C80 13.2 80 26.4 80 40 C66.8 40 53.6 40 40 40 C40 66.4 40 92.8 40 120 C26.8 120 13.6 120 0 120 C0 80.4 0 40.8 0 0 Z " fill="#3E2618" transform="translate(880,600)"/>
<path d="M0 0 C26.4 0 52.8 0 80 0 C80 26.4 80 52.8 80 80 C53.6 80 27.2 80 0 80 C0 53.6 0 27.2 0 0 Z " fill="#FAFFFF" transform="translate(920,520)"/>
<path d="M0 0 C13.2 0 26.4 0 40 0 C40 13.2 40 26.4 40 40 C53.2 40 66.4 40 80 40 C80 53.2 80 66.4 80 80 C40.4 80 0.8 80 -40 80 C-40 66.8 -40 53.6 -40 40 C-26.8 40 -13.6 40 0 40 C0 26.8 0 13.6 0 0 Z " fill="#00C016" transform="translate(600,320)"/>
<path d="M0 0 C26.4 0 52.8 0 80 0 C80 26.4 80 52.8 80 80 C53.6 80 27.2 80 0 80 C0 53.6 0 27.2 0 0 Z " fill="#FED800" transform="translate(920,240)"/>
<path d="M0 0 C52.8 0 105.6 0 160 0 C160 13.2 160 26.4 160 40 C107.2 40 54.4 40 0 40 C0 26.8 0 13.6 0 0 Z " fill="#D4D8EA" transform="translate(240,200)"/>
<path d="M0 0 C52.8 0 105.6 0 160 0 C160 13.2 160 26.4 160 40 C107.2 40 54.4 40 0 40 C0 26.8 0 13.6 0 0 Z " fill="#4CFE00" transform="translate(640,120)"/>
<path d="M0 0 C26.4 0 52.8 0 80 0 C80 13.2 80 26.4 80 40 C66.8 40 53.6 40 40 40 C40 53.2 40 66.4 40 80 C26.8 80 13.6 80 0 80 C0 53.6 0 27.2 0 0 Z " fill="#7F533B" transform="translate(480,1040)"/>
<path d="M0 0 C13.2 0 26.4 0 40 0 C40 39.6 40 79.2 40 120 C26.8 120 13.6 120 0 120 C0 80.4 0 40.8 0 0 Z " fill="#3F2618" transform="translate(360,840)"/>
<path d="M0 0 C13.2 0 26.4 0 40 0 C40 39.6 40 79.2 40 120 C26.8 120 13.6 120 0 120 C0 80.4 0 40.8 0 0 Z " fill="#84CED8" transform="translate(1240,800)"/>
<path d="M0 0 C13.2 0 26.4 0 40 0 C40 39.6 40 79.2 40 120 C26.8 120 13.6 120 0 120 C0 80.4 0 40.8 0 0 Z " fill="#84CED8" transform="translate(0,800)"/>
<path d="M0 0 C13.2 0 26.4 0 40 0 C40 13.2 40 26.4 40 40 C53.2 40 66.4 40 80 40 C80 53.2 80 66.4 80 80 C53.6 80 27.2 80 0 80 C0 53.6 0 27.2 0 0 Z " fill="#000000" transform="translate(760,640)"/>
<path d="M0 0 C26.4 0 52.8 0 80 0 C80 26.4 80 52.8 80 80 C66.8 80 53.6 80 40 80 C40 66.8 40 53.6 40 40 C26.8 40 13.6 40 0 40 C0 26.8 0 13.6 0 0 Z " fill="#262626" transform="translate(560,600)"/>
<path d="M0 0 C39.6 0 79.2 0 120 0 C120 13.2 120 26.4 120 40 C80.4 40 40.8 40 0 40 C0 26.8 0 13.6 0 0 Z " fill="#D4D9EA" transform="translate(160,600)"/>
<path d="M0 0 C13.2 0 26.4 0 40 0 C40 39.6 40 79.2 40 120 C26.8 120 13.6 120 0 120 C0 80.4 0 40.8 0 0 Z " fill="#3E2618" transform="translate(400,560)"/>
<path d="M0 0 C39.6 0 79.2 0 120 0 C120 13.2 120 26.4 120 40 C80.4 40 40.8 40 0 40 C0 26.8 0 13.6 0 0 Z " fill="#D4D9EA" transform="translate(920,480)"/>
<path d="M0 0 C26.4 0 52.8 0 80 0 C80 13.2 80 26.4 80 40 C66.8 40 53.6 40 40 40 C40 53.2 40 66.4 40 80 C26.8 80 13.6 80 0 80 C0 53.6 0 27.2 0 0 Z " fill="#262626" transform="translate(720,480)"/>
<path d="M0 0 C13.2 0 26.4 0 40 0 C40 13.2 40 26.4 40 40 C53.2 40 66.4 40 80 40 C80 53.2 80 66.4 80 80 C53.6 80 27.2 80 0 80 C0 53.6 0 27.2 0 0 Z " fill="#7F533B" transform="translate(560,440)"/>
<path d="M0 0 C26.4 0 52.8 0 80 0 C80 26.4 80 52.8 80 80 C66.8 80 53.6 80 40 80 C40 66.8 40 53.6 40 40 C26.8 40 13.6 40 0 40 C0 26.8 0 13.6 0 0 Z " fill="#AF6C46" transform="translate(560,400)"/>
<path d="M0 0 C26.4 0 52.8 0 80 0 C80 13.2 80 26.4 80 40 C66.8 40 53.6 40 40 40 C40 53.2 40 66.4 40 80 C26.8 80 13.6 80 0 80 C0 53.6 0 27.2 0 0 Z " fill="#00FF20" transform="translate(680,360)"/>
<path d="M0 0 C13.2 0 26.4 0 40 0 C40 39.6 40 79.2 40 120 C26.8 120 13.6 120 0 120 C0 80.4 0 40.8 0 0 Z " fill="#00DB19" transform="translate(560,200)"/>
<path d="M0 0 C26.4 0 52.8 0 80 0 C80 13.2 80 26.4 80 40 C53.6 40 27.2 40 0 40 C0 26.8 0 13.6 0 0 Z " fill="#3E2618" transform="translate(760,1080)"/>
<path d="M0 0 C13.2 0 26.4 0 40 0 C40 26.4 40 52.8 40 80 C26.8 80 13.6 80 0 80 C0 53.6 0 27.2 0 0 Z " fill="#3E2618" transform="translate(400,960)"/>
<path d="M0 0 C26.4 0 52.8 0 80 0 C80 13.2 80 26.4 80 40 C53.6 40 27.2 40 0 40 C0 26.8 0 13.6 0 0 Z " fill="#000000" transform="translate(400,760)"/>
<path d="M0 0 C13.2 0 26.4 0 40 0 C40 26.4 40 52.8 40 80 C26.8 80 13.6 80 0 80 C0 53.6 0 27.2 0 0 Z " fill="#3F2618" transform="translate(840,480)"/>
<path d="M0 0 C13.2 0 26.4 0 40 0 C40 26.4 40 52.8 40 80 C26.8 80 13.6 80 0 80 C0 53.6 0 27.2 0 0 Z " fill="#3E2618" transform="translate(440,480)"/>
<path d="M0 0 C13.2 0 26.4 0 40 0 C40 26.4 40 52.8 40 80 C26.8 80 13.6 80 0 80 C0 53.6 0 27.2 0 0 Z " fill="#AF6C46" transform="translate(680,440)"/>
<path d="M0 0 C26.4 0 52.8 0 80 0 C80 13.2 80 26.4 80 40 C53.6 40 27.2 40 0 40 C0 26.8 0 13.6 0 0 Z " fill="#3F2618" transform="translate(720,400)"/>
<path d="M0 0 C26.4 0 52.8 0 80 0 C80 13.2 80 26.4 80 40 C53.6 40 27.2 40 0 40 C0 26.8 0 13.6 0 0 Z " fill="#1EFF38" transform="translate(800,160)"/>
<path d="M0 0 C13.2 0 26.4 0 40 0 C40 13.2 40 26.4 40 40 C26.8 40 13.6 40 0 40 C0 26.8 0 13.6 0 0 Z " fill="#62ABD4" transform="translate(1120,1200)"/>
<path d="M0 0 C13.2 0 26.4 0 40 0 C40 13.2 40 26.4 40 40 C26.8 40 13.6 40 0 40 C0 26.8 0 13.6 0 0 Z " fill="#62ABD4" transform="translate(560,1200)"/>
<path d="M0 0 C13.2 0 26.4 0 40 0 C40 13.2 40 26.4 40 40 C26.8 40 13.6 40 0 40 C0 26.8 0 13.6 0 0 Z " fill="#62ABD4" transform="translate(920,1160)"/>
<path d="M0 0 C13.2 0 26.4 0 40 0 C40 13.2 40 26.4 40 40 C26.8 40 13.6 40 0 40 C0 26.8 0 13.6 0 0 Z " fill="#62AAD4" transform="translate(80,1160)"/>
<path d="M0 0 C13.2 0 26.4 0 40 0 C40 13.2 40 26.4 40 40 C26.8 40 13.6 40 0 40 C0 26.8 0 13.6 0 0 Z " fill="#62ABD4" transform="translate(280,1120)"/>
<path d="M0 0 C13.2 0 26.4 0 40 0 C40 13.2 40 26.4 40 40 C26.8 40 13.6 40 0 40 C0 26.8 0 13.6 0 0 Z " fill="#62ABD4" transform="translate(1160,1080)"/>
<path d="M0 0 C13.2 0 26.4 0 40 0 C40 13.2 40 26.4 40 40 C26.8 40 13.6 40 0 40 C0 26.8 0 13.6 0 0 Z " fill="#3E2618" transform="translate(480,1080)"/>
<path d="M0 0 C13.2 0 26.4 0 40 0 C40 13.2 40 26.4 40 40 C26.8 40 13.6 40 0 40 C0 26.8 0 13.6 0 0 Z " fill="#3F2618" transform="translate(840,1040)"/>
<path d="M0 0 C13.2 0 26.4 0 40 0 C40 13.2 40 26.4 40 40 C26.8 40 13.6 40 0 40 C0 26.8 0 13.6 0 0 Z " fill="#975B3A" transform="translate(480,1040)"/>
<path d="M0 0 C13.2 0 26.4 0 40 0 C40 13.2 40 26.4 40 40 C26.8 40 13.6 40 0 40 C0 26.8 0 13.6 0 0 Z " fill="#3F2618" transform="translate(440,1040)"/>
<path d="M0 0 C13.2 0 26.4 0 40 0 C40 13.2 40 26.4 40 40 C26.8 40 13.6 40 0 40 C0 26.8 0 13.6 0 0 Z " fill="#62ABD4" transform="translate(400,1040)"/>
<path d="M0 0 C13.2 0 26.4 0 40 0 C40 13.2 40 26.4 40 40 C26.8 40 13.6 40 0 40 C0 26.8 0 13.6 0 0 Z " fill="#3F2618" transform="translate(880,1000)"/>
<path d="M0 0 C13.2 0 26.4 0 40 0 C40 13.2 40 26.4 40 40 C26.8 40 13.6 40 0 40 C0 26.8 0 13.6 0 0 Z " fill="#975B3A" transform="translate(840,1000)"/>
<path d="M0 0 C13.2 0 26.4 0 40 0 C40 13.2 40 26.4 40 40 C26.8 40 13.6 40 0 40 C0 26.8 0 13.6 0 0 Z " fill="#7F533B" transform="translate(760,1000)"/>
<path d="M0 0 C13.2 0 26.4 0 40 0 C40 13.2 40 26.4 40 40 C26.8 40 13.6 40 0 40 C0 26.8 0 13.6 0 0 Z " fill="#7E533B" transform="translate(480,960)"/>
<path d="M0 0 C13.2 0 26.4 0 40 0 C40 13.2 40 26.4 40 40 C26.8 40 13.6 40 0 40 C0 26.8 0 13.6 0 0 Z " fill="#5695B7" transform="translate(1240,920)"/>
<path d="M0 0 C13.2 0 26.4 0 40 0 C40 13.2 40 26.4 40 40 C26.8 40 13.6 40 0 40 C0 26.8 0 13.6 0 0 Z " fill="#281000" transform="translate(800,920)"/>
<path d="M0 0 C13.2 0 26.4 0 40 0 C40 13.2 40 26.4 40 40 C26.8 40 13.6 40 0 40 C0 26.8 0 13.6 0 0 Z " fill="#5695B6" transform="translate(0,920)"/>
<path d="M0 0 C13.2 0 26.4 0 40 0 C40 13.2 40 26.4 40 40 C26.8 40 13.6 40 0 40 C0 26.8 0 13.6 0 0 Z " fill="#281000" transform="translate(840,880)"/>
<path d="M0 0 C13.2 0 26.4 0 40 0 C40 13.2 40 26.4 40 40 C26.8 40 13.6 40 0 40 C0 26.8 0 13.6 0 0 Z " fill="#7F3200" transform="translate(800,880)"/>
<path d="M0 0 C13.2 0 26.4 0 40 0 C40 13.2 40 26.4 40 40 C26.8 40 13.6 40 0 40 C0 26.8 0 13.6 0 0 Z " fill="#281000" transform="translate(760,880)"/>
<path d="M0 0 C13.2 0 26.4 0 40 0 C40 13.2 40 26.4 40 40 C26.8 40 13.6 40 0 40 C0 26.8 0 13.6 0 0 Z " fill="#7F533B" transform="translate(560,880)"/>
<path d="M0 0 C13.2 0 26.4 0 40 0 C40 13.2 40 26.4 40 40 C26.8 40 13.6 40 0 40 C0 26.8 0 13.6 0 0 Z " fill="#281000" transform="translate(800,840)"/>
<path d="M0 0 C13.2 0 26.4 0 40 0 C40 13.2 40 26.4 40 40 C26.8 40 13.6 40 0 40 C0 26.8 0 13.6 0 0 Z " fill="#7F3300" transform="translate(760,840)"/>
<path d="M0 0 C13.2 0 26.4 0 40 0 C40 13.2 40 26.4 40 40 C26.8 40 13.6 40 0 40 C0 26.8 0 13.6 0 0 Z " fill="#281000" transform="translate(720,840)"/>
<path d="M0 0 C13.2 0 26.4 0 40 0 C40 13.2 40 26.4 40 40 C26.8 40 13.6 40 0 40 C0 26.8 0 13.6 0 0 Z " fill="#3E2618" transform="translate(920,800)"/>
<path d="M0 0 C13.2 0 26.4 0 40 0 C40 13.2 40 26.4 40 40 C26.8 40 13.6 40 0 40 C0 26.8 0 13.6 0 0 Z " fill="#7F3300" transform="translate(720,800)"/>
<path d="M0 0 C13.2 0 26.4 0 40 0 C40 13.2 40 26.4 40 40 C26.8 40 13.6 40 0 40 C0 26.8 0 13.6 0 0 Z " fill="#000000" transform="translate(360,800)"/>
<path d="M0 0 C13.2 0 26.4 0 40 0 C40 13.2 40 26.4 40 40 C26.8 40 13.6 40 0 40 C0 26.8 0 13.6 0 0 Z " fill="#808080" transform="translate(920,760)"/>
<path d="M0 0 C13.2 0 26.4 0 40 0 C40 13.2 40 26.4 40 40 C26.8 40 13.6 40 0 40 C0 26.8 0 13.6 0 0 Z " fill="#FAFFFE" transform="translate(960,720)"/>
<path d="M0 0 C13.2 0 26.4 0 40 0 C40 13.2 40 26.4 40 40 C26.8 40 13.6 40 0 40 C0 26.8 0 13.6 0 0 Z " fill="#3F2618" transform="translate(920,720)"/>
<path d="M0 0 C13.2 0 26.4 0 40 0 C40 13.2 40 26.4 40 40 C26.8 40 13.6 40 0 40 C0 26.8 0 13.6 0 0 Z " fill="#845C45" transform="translate(840,680)"/>
<path d="M0 0 C13.2 0 26.4 0 40 0 C40 13.2 40 26.4 40 40 C26.8 40 13.6 40 0 40 C0 26.8 0 13.6 0 0 Z " fill="#FAFFFF" transform="translate(920,640)"/>
<path d="M0 0 C13.2 0 26.4 0 40 0 C40 13.2 40 26.4 40 40 C26.8 40 13.6 40 0 40 C0 26.8 0 13.6 0 0 Z " fill="#FEFFFE" transform="translate(800,640)"/>
<path d="M0 0 C13.2 0 26.4 0 40 0 C40 13.2 40 26.4 40 40 C26.8 40 13.6 40 0 40 C0 26.8 0 13.6 0 0 Z " fill="#D4D9EA" transform="translate(280,640)"/>
<path d="M0 0 C13.2 0 26.4 0 40 0 C40 13.2 40 26.4 40 40 C26.8 40 13.6 40 0 40 C0 26.8 0 13.6 0 0 Z " fill="#D4D9EA" transform="translate(120,640)"/>
<path d="M0 0 C13.2 0 26.4 0 40 0 C40 13.2 40 26.4 40 40 C26.8 40 13.6 40 0 40 C0 26.8 0 13.6 0 0 Z " fill="#808080" transform="translate(920,600)"/>
<path d="M0 0 C13.2 0 26.4 0 40 0 C40 13.2 40 26.4 40 40 C26.8 40 13.6 40 0 40 C0 26.8 0 13.6 0 0 Z " fill="#D4D9EA" transform="translate(1080,560)"/>
<path d="M0 0 C13.2 0 26.4 0 40 0 C40 13.2 40 26.4 40 40 C26.8 40 13.6 40 0 40 C0 26.8 0 13.6 0 0 Z " fill="#808080" transform="translate(880,560)"/>
<path d="M0 0 C13.2 0 26.4 0 40 0 C40 13.2 40 26.4 40 40 C26.8 40 13.6 40 0 40 C0 26.8 0 13.6 0 0 Z " fill="#000000" transform="translate(640,560)"/>
<path d="M0 0 C13.2 0 26.4 0 40 0 C40 13.2 40 26.4 40 40 C26.8 40 13.6 40 0 40 C0 26.8 0 13.6 0 0 Z " fill="#975B3A" transform="translate(440,560)"/>
<path d="M0 0 C13.2 0 26.4 0 40 0 C40 13.2 40 26.4 40 40 C26.8 40 13.6 40 0 40 C0 26.8 0 13.6 0 0 Z " fill="#D4D9EA" transform="translate(1040,520)"/>
<path d="M0 0 C13.2 0 26.4 0 40 0 C40 13.2 40 26.4 40 40 C26.8 40 13.6 40 0 40 C0 26.8 0 13.6 0 0 Z " fill="#D4D8EA" transform="translate(880,520)"/>
<path d="M0 0 C13.2 0 26.4 0 40 0 C40 13.2 40 26.4 40 40 C26.8 40 13.6 40 0 40 C0 26.8 0 13.6 0 0 Z " fill="#262626" transform="translate(720,520)"/>
<path d="M0 0 C13.2 0 26.4 0 40 0 C40 13.2 40 26.4 40 40 C26.8 40 13.6 40 0 40 C0 26.8 0 13.6 0 0 Z " fill="#00C016" transform="translate(640,520)"/>
<path d="M0 0 C13.2 0 26.4 0 40 0 C40 13.2 40 26.4 40 40 C26.8 40 13.6 40 0 40 C0 26.8 0 13.6 0 0 Z " fill="#B97956" transform="translate(800,480)"/>
<path d="M0 0 C13.2 0 26.4 0 40 0 C40 13.2 40 26.4 40 40 C26.8 40 13.6 40 0 40 C0 26.8 0 13.6 0 0 Z " fill="#00FF20" transform="translate(720,480)"/>
<path d="M0 0 C13.2 0 26.4 0 40 0 C40 13.2 40 26.4 40 40 C26.8 40 13.6 40 0 40 C0 26.8 0 13.6 0 0 Z " fill="#00C116" transform="translate(600,480)"/>
<path d="M0 0 C13.2 0 26.4 0 40 0 C40 13.2 40 26.4 40 40 C26.8 40 13.6 40 0 40 C0 26.8 0 13.6 0 0 Z " fill="#262626" transform="translate(800,440)"/>
<path d="M0 0 C13.2 0 26.4 0 40 0 C40 13.2 40 26.4 40 40 C26.8 40 13.6 40 0 40 C0 26.8 0 13.6 0 0 Z " fill="#00C116" transform="translate(560,440)"/>
<path d="M0 0 C13.2 0 26.4 0 40 0 C40 13.2 40 26.4 40 40 C26.8 40 13.6 40 0 40 C0 26.8 0 13.6 0 0 Z " fill="#3F2618" transform="translate(480,440)"/>
<path d="M0 0 C13.2 0 26.4 0 40 0 C40 13.2 40 26.4 40 40 C26.8 40 13.6 40 0 40 C0 26.8 0 13.6 0 0 Z " fill="#3E2618" transform="translate(520,400)"/>
<path d="M0 0 C13.2 0 26.4 0 40 0 C40 13.2 40 26.4 40 40 C26.8 40 13.6 40 0 40 C0 26.8 0 13.6 0 0 Z " fill="#3F2618" transform="translate(640,360)"/>
<path d="M0 0 C13.2 0 26.4 0 40 0 C40 13.2 40 26.4 40 40 C26.8 40 13.6 40 0 40 C0 26.8 0 13.6 0 0 Z " fill="#3F2618" transform="translate(560,360)"/>
<path d="M0 0 C13.2 0 26.4 0 40 0 C40 13.2 40 26.4 40 40 C26.8 40 13.6 40 0 40 C0 26.8 0 13.6 0 0 Z " fill="#4CFF00" transform="translate(600,320)"/>
<path d="M0 0 C13.2 0 26.4 0 40 0 C40 13.2 40 26.4 40 40 C26.8 40 13.6 40 0 40 C0 26.8 0 13.6 0 0 Z " fill="#D4D9EA" transform="translate(440,280)"/>
<path d="M0 0 C13.2 0 26.4 0 40 0 C40 13.2 40 26.4 40 40 C26.8 40 13.6 40 0 40 C0 26.8 0 13.6 0 0 Z " fill="#D4D8EA" transform="translate(160,280)"/>
<path d="M0 0 C13.2 0 26.4 0 40 0 C40 13.2 40 26.4 40 40 C26.8 40 13.6 40 0 40 C0 26.8 0 13.6 0 0 Z " fill="#D4D8EA" transform="translate(800,240)"/>
<path d="M0 0 C13.2 0 26.4 0 40 0 C40 13.2 40 26.4 40 40 C26.8 40 13.6 40 0 40 C0 26.8 0 13.6 0 0 Z " fill="#D4D9EA" transform="translate(400,240)"/>
<path d="M0 0 C13.2 0 26.4 0 40 0 C40 13.2 40 26.4 40 40 C26.8 40 13.6 40 0 40 C0 26.8 0 13.6 0 0 Z " fill="#D4D9EA" transform="translate(200,240)"/>
<path d="M0 0 C13.2 0 26.4 0 40 0 C40 13.2 40 26.4 40 40 C26.8 40 13.6 40 0 40 C0 26.8 0 13.6 0 0 Z " fill="#D4D9EA" transform="translate(1000,200)"/>
<path d="M0 0 C13.2 0 26.4 0 40 0 C40 13.2 40 26.4 40 40 C26.8 40 13.6 40 0 40 C0 26.8 0 13.6 0 0 Z " fill="#1EFF38" transform="translate(880,200)"/>
<path d="M0 0 C13.2 0 26.4 0 40 0 C40 13.2 40 26.4 40 40 C26.8 40 13.6 40 0 40 C0 26.8 0 13.6 0 0 Z " fill="#D4D9EA" transform="translate(840,200)"/>
<path d="M0 0 C13.2 0 26.4 0 40 0 C40 13.2 40 26.4 40 40 C26.8 40 13.6 40 0 40 C0 26.8 0 13.6 0 0 Z " fill="#4CFF00" transform="translate(560,200)"/>
<path d="M0 0 C13.2 0 26.4 0 40 0 C40 13.2 40 26.4 40 40 C26.8 40 13.6 40 0 40 C0 26.8 0 13.6 0 0 Z " fill="#D4D8EA" transform="translate(880,160)"/>
<path d="M0 0 C13.2 0 26.4 0 40 0 C40 13.2 40 26.4 40 40 C26.8 40 13.6 40 0 40 C0 26.8 0 13.6 0 0 Z " fill="#4CFF00" transform="translate(800,160)"/>
<path d="M0 0 C13.2 0 26.4 0 40 0 C40 13.2 40 26.4 40 40 C26.8 40 13.6 40 0 40 C0 26.8 0 13.6 0 0 Z " fill="#4CFF00" transform="translate(600,160)"/>
</svg>
