<?xml version="1.0" encoding="UTF-8"?>
<svg version="1.1" xmlns="http://www.w3.org/2000/svg" width="320" height="320">
<path d="M0 0 C105.6 0 211.2 0 320 0 C320 105.6 320 211.2 320 320 C214.4 320 108.8 320 0 320 C0 214.4 0 108.8 0 0 Z " fill="#EE6850" transform="translate(0,0)"/>
<path d="M0 0 C105.6 0 211.2 0 320 0 C320 66 320 132 320 200 C310.1 200 300.2 200 290 200 C290 203.3 290 206.6 290 210 C283.4 210 276.8 210 270 210 C270 206.7 270 203.4 270 200 C260.1 200 250.2 200 240 200 C240 196.7 240 193.4 240 190 C236.7 190 233.4 190 230 190 C230 180.1 230 170.2 230 160 C226.7 160 223.4 160 220 160 C220 156.7 220 153.4 220 150 C226.6 150 233.2 150 240 150 C240 146.7 240 143.4 240 140 C243.3 140 246.6 140 250 140 C250 133.4 250 126.8 250 120 C240.1 120 230.2 120 220 120 C220 113.4 220 106.8 220 100 C216.7 100 213.4 100 210 100 C210 103.3 210 106.6 210 110 C183.6 110 157.2 110 130 110 C130 103.4 130 96.8 130 90 C126.7 90 123.4 90 120 90 C120 93.3 120 96.6 120 100 C116.7 100 113.4 100 110 100 C110 106.6 110 113.2 110 120 C100.1 120 90.2 120 80 120 C80 126.6 80 133.2 80 140 C83.3 140 86.6 140 90 140 C90 143.3 90 146.6 90 150 C93.3 150 96.6 150 100 150 C100 153.3 100 156.6 100 160 C96.7 160 93.4 160 90 160 C90 163.3 90 166.6 90 170 C86.7 170 83.4 170 80 170 C80 176.6 80 183.2 80 190 C83.3 190 86.6 190 90 190 C90 196.6 90 203.2 90 210 C86.7 210 83.4 210 80 210 C80 206.7 80 203.4 80 200 C70.1 200 60.2 200 50 200 C50 203.3 50 206.6 50 210 C43.4 210 36.8 210 30 210 C30 206.7 30 203.4 30 200 C20.1 200 10.2 200 0 200 C0 134 0 68 0 0 Z " fill="#FCD48E" transform="translate(0,0)"/>
<path d="M0 0 C3.3 0 6.6 0 10 0 C10 3.3 10 6.6 10 10 C16.6 10 23.2 10 30 10 C30 13.3 30 16.6 30 20 C36.6 20 43.2 20 50 20 C50 23.3 50 26.6 50 30 C59.9 30 69.8 30 80 30 C80 26.7 80 23.4 80 20 C86.6 20 93.2 20 100 20 C100 13.4 100 6.8 100 0 C103.3 0 106.6 0 110 0 C110 6.6 110 13.2 110 20 C113.3 20 116.6 20 120 20 C120 23.3 120 26.6 120 30 C123.3 30 126.6 30 130 30 C130 33.3 130 36.6 130 40 C149.8 40 169.6 40 190 40 C190 36.7 190 33.4 190 30 C196.6 30 203.2 30 210 30 C210 26.7 210 23.4 210 20 C213.3 20 216.6 20 220 20 C220 16.7 220 13.4 220 10 C223.3 10 226.6 10 230 10 C230 13.3 230 16.6 230 20 C233.3 20 236.6 20 240 20 C240 23.3 240 26.6 240 30 C249.9 30 259.8 30 270 30 C270 26.7 270 23.4 270 20 C276.6 20 283.2 20 290 20 C290 16.7 290 13.4 290 10 C296.6 10 303.2 10 310 10 C310 6.7 310 3.4 310 0 C313.3 0 316.6 0 320 0 C320 26.4 320 52.8 320 80 C214.4 80 108.8 80 0 80 C0 53.6 0 27.2 0 0 Z " fill="#52323E" transform="translate(0,240)"/>
<path d="M0 0 C3.3 0 6.6 0 10 0 C10 6.6 10 13.2 10 20 C36.4 20 62.8 20 90 20 C90 16.7 90 13.4 90 10 C93.3 10 96.6 10 100 10 C100 16.6 100 23.2 100 30 C109.9 30 119.8 30 130 30 C130 36.6 130 43.2 130 50 C126.7 50 123.4 50 120 50 C120 53.3 120 56.6 120 60 C113.4 60 106.8 60 100 60 C100 63.3 100 66.6 100 70 C103.3 70 106.6 70 110 70 C110 79.9 110 89.8 110 100 C93.5 100 77 100 60 100 C60 96.7 60 93.4 60 90 C56.7 90 53.4 90 50 90 C50 93.3 50 96.6 50 100 C26.9 100 3.8 100 -20 100 C-20 96.7 -20 93.4 -20 90 C-23.3 90 -26.6 90 -30 90 C-30 93.3 -30 96.6 -30 100 C-33.3 100 -36.6 100 -40 100 C-40 93.4 -40 86.8 -40 80 C-36.7 80 -33.4 80 -30 80 C-30 76.7 -30 73.4 -30 70 C-26.7 70 -23.4 70 -20 70 C-20 66.7 -20 63.4 -20 60 C-23.3 60 -26.6 60 -30 60 C-30 56.7 -30 53.4 -30 50 C-33.3 50 -36.6 50 -40 50 C-40 43.4 -40 36.8 -40 30 C-30.1 30 -20.2 30 -10 30 C-10 23.4 -10 16.8 -10 10 C-6.7 10 -3.4 10 0 10 C0 6.7 0 3.4 0 0 Z " fill="#FED800" transform="translate(120,90)"/>
<path d="M0 0 C105.6 0 211.2 0 320 0 C320 66 320 132 320 200 C310.1 200 300.2 200 290 200 C290 203.3 290 206.6 290 210 C283.4 210 276.8 210 270 210 C270 206.7 270 203.4 270 200 C260.1 200 250.2 200 240 200 C240 196.7 240 193.4 240 190 C243.3 190 246.6 190 250 190 C250 186.7 250 183.4 250 180 C256.6 180 263.2 180 270 180 C270 183.3 270 186.6 270 190 C276.6 190 283.2 190 290 190 C290 186.7 290 183.4 290 180 C293.3 180 296.6 180 300 180 C300 183.3 300 186.6 300 190 C303.3 190 306.6 190 310 190 C310 166.9 310 143.8 310 120 C303.4 120 296.8 120 290 120 C290 116.7 290 113.4 290 110 C296.6 110 303.2 110 310 110 C310 77 310 44 310 10 C237.4 10 164.8 10 90 10 C90 13.3 90 16.6 90 20 C86.7 20 83.4 20 80 20 C80 16.7 80 13.4 80 10 C56.9 10 33.8 10 10 10 C10 69.4 10 128.8 10 190 C13.3 190 16.6 190 20 190 C20 186.7 20 183.4 20 180 C23.3 180 26.6 180 30 180 C30 183.3 30 186.6 30 190 C36.6 190 43.2 190 50 190 C50 186.7 50 183.4 50 180 C56.6 180 63.2 180 70 180 C70 183.3 70 186.6 70 190 C76.6 190 83.2 190 90 190 C90 196.6 90 203.2 90 210 C86.7 210 83.4 210 80 210 C80 206.7 80 203.4 80 200 C70.1 200 60.2 200 50 200 C50 203.3 50 206.6 50 210 C43.4 210 36.8 210 30 210 C30 206.7 30 203.4 30 200 C20.1 200 10.2 200 0 200 C0 134 0 68 0 0 Z " fill="#FCE0B0" transform="translate(0,0)"/>
<path d="M0 0 C3.3 0 6.6 0 10 0 C10 26.4 10 52.8 10 80 C3.4 80 -3.2 80 -10 80 C-10 83.3 -10 86.6 -10 90 C-19.9 90 -29.8 90 -40 90 C-40 86.7 -40 83.4 -40 80 C-46.6 80 -53.2 80 -60 80 C-60 76.7 -60 73.4 -60 70 C-66.6 70 -73.2 70 -80 70 C-80 66.7 -80 63.4 -80 60 C-83.3 60 -86.6 60 -90 60 C-90 46.8 -90 33.6 -90 20 C-80.1 20 -70.2 20 -60 20 C-60 23.3 -60 26.6 -60 30 C-53.4 30 -46.8 30 -40 30 C-40 26.7 -40 23.4 -40 20 C-30.1 20 -20.2 20 -10 20 C-10 23.3 -10 26.6 -10 30 C-6.7 30 -3.4 30 0 30 C0 20.1 0 10.2 0 0 Z " fill="#8F4C56" transform="translate(90,180)"/>
<path d="M0 0 C3.3 0 6.6 0 10 0 C10 3.3 10 6.6 10 10 C19.9 10 29.8 10 40 10 C40 13.3 40 16.6 40 20 C46.6 20 53.2 20 60 20 C60 16.7 60 13.4 60 10 C69.9 10 79.8 10 90 10 C90 23.2 90 36.4 90 50 C86.7 50 83.4 50 80 50 C80 53.3 80 56.6 80 60 C73.4 60 66.8 60 60 60 C60 63.3 60 66.6 60 70 C53.4 70 46.8 70 40 70 C40 73.3 40 76.6 40 80 C30.1 80 20.2 80 10 80 C10 76.7 10 73.4 10 70 C6.7 70 3.4 70 0 70 C0 46.9 0 23.8 0 0 Z " fill="#8E4C56" transform="translate(230,190)"/>
<path d="M0 0 C3.3 0 6.6 0 10 0 C10 23.1 10 46.2 10 70 C109 70 208 70 310 70 C310 46.9 310 23.8 310 0 C313.3 0 316.6 0 320 0 C320 26.4 320 52.8 320 80 C214.4 80 108.8 80 0 80 C0 53.6 0 27.2 0 0 Z " fill="#422832" transform="translate(0,240)"/>
<path d="M0 0 C9.9 0 19.8 0 30 0 C30 23.1 30 46.2 30 70 C26.7 70 23.4 70 20 70 C20 66.7 20 63.4 20 60 C16.7 60 13.4 60 10 60 C10 63.3 10 66.6 10 70 C3.4 70 -3.2 70 -10 70 C-10 66.7 -10 63.4 -10 60 C-16.6 60 -23.2 60 -30 60 C-30 63.3 -30 66.6 -30 70 C-36.6 70 -43.2 70 -50 70 C-50 60.1 -50 50.2 -50 40 C-53.3 40 -56.6 40 -60 40 C-60 36.7 -60 33.4 -60 30 C-53.4 30 -46.8 30 -40 30 C-40 36.6 -40 43.2 -40 50 C-36.7 50 -33.4 50 -30 50 C-30 43.4 -30 36.8 -30 30 C-26.7 30 -23.4 30 -20 30 C-20 26.7 -20 23.4 -20 20 C-16.7 20 -13.4 20 -10 20 C-10 16.7 -10 13.4 -10 10 C-6.7 10 -3.4 10 0 10 C0 6.7 0 3.4 0 0 Z " fill="#FCD48E" transform="translate(280,120)"/>
<path d="M0 0 C3.3 0 6.6 0 10 0 C10 6.6 10 13.2 10 20 C36.4 20 62.8 20 90 20 C90 16.7 90 13.4 90 10 C93.3 10 96.6 10 100 10 C100 16.6 100 23.2 100 30 C109.9 30 119.8 30 130 30 C130 36.6 130 43.2 130 50 C126.7 50 123.4 50 120 50 C120 46.7 120 43.4 120 40 C70.5 40 21 40 -30 40 C-30 43.3 -30 46.6 -30 50 C-33.3 50 -36.6 50 -40 50 C-40 43.4 -40 36.8 -40 30 C-30.1 30 -20.2 30 -10 30 C-10 23.4 -10 16.8 -10 10 C-6.7 10 -3.4 10 0 10 C0 6.7 0 3.4 0 0 Z " fill="#262626" transform="translate(120,90)"/>
<path d="M0 0 C49.5 0 99 0 150 0 C150 6.6 150 13.2 150 20 C100.5 20 51 20 0 20 C0 13.4 0 6.8 0 0 Z " fill="#3E3A2A" transform="translate(90,130)"/>
<path d="M0 0 C6.6 0 13.2 0 20 0 C20 3.3 20 6.6 20 10 C16.7 10 13.4 10 10 10 C10 19.9 10 29.8 10 40 C6.7 40 3.4 40 0 40 C0 46.6 0 53.2 0 60 C-3.3 60 -6.6 60 -10 60 C-10 63.3 -10 66.6 -10 70 C-13.3 70 -16.6 70 -20 70 C-20 76.6 -20 83.2 -20 90 C-29.9 90 -39.8 90 -50 90 C-50 96.6 -50 103.2 -50 110 C-59.9 110 -69.8 110 -80 110 C-80 106.7 -80 103.4 -80 100 C-76.7 100 -73.4 100 -70 100 C-70 96.7 -70 93.4 -70 90 C-66.7 90 -63.4 90 -60 90 C-60 83.4 -60 76.8 -60 70 C-56.7 70 -53.4 70 -50 70 C-50 66.7 -50 63.4 -50 60 C-43.4 60 -36.8 60 -30 60 C-30 56.7 -30 53.4 -30 50 C-26.7 50 -23.4 50 -20 50 C-20 46.7 -20 43.4 -20 40 C-16.7 40 -13.4 40 -10 40 C-10 33.4 -10 26.8 -10 20 C-6.7 20 -3.4 20 0 20 C0 13.4 0 6.8 0 0 Z " fill="#FCD793" transform="translate(130,30)"/>
<path d="M0 0 C6.6 0 13.2 0 20 0 C20 3.3 20 6.6 20 10 C26.6 10 33.2 10 40 10 C40 6.7 40 3.4 40 0 C49.9 0 59.8 0 70 0 C70 3.3 70 6.6 70 10 C73.3 10 76.6 10 80 10 C80 16.6 80 23.2 80 30 C76.7 30 73.4 30 70 30 C70 33.3 70 36.6 70 40 C60.1 40 50.2 40 40 40 C40 36.7 40 33.4 40 30 C33.4 30 26.8 30 20 30 C20 26.7 20 23.4 20 20 C13.4 20 6.8 20 0 20 C0 13.4 0 6.8 0 0 Z " fill="#BC6A62" transform="translate(10,200)"/>
<path d="M0 0 C9.9 0 19.8 0 30 0 C30 3.3 30 6.6 30 10 C36.6 10 43.2 10 50 10 C50 6.7 50 3.4 50 0 C56.6 0 63.2 0 70 0 C70 6.6 70 13.2 70 20 C63.4 20 56.8 20 50 20 C50 23.3 50 26.6 50 30 C43.4 30 36.8 30 30 30 C30 33.3 30 36.6 30 40 C20.1 40 10.2 40 0 40 C0 26.8 0 13.6 0 0 Z " fill="#BC6A62" transform="translate(240,200)"/>
<path d="M0 0 C49.5 0 99 0 150 0 C150 3.3 150 6.6 150 10 C100.5 10 51 10 0 10 C0 6.7 0 3.4 0 0 Z " fill="#FEEFAA" transform="translate(90,130)"/>
<path d="M0 0 C23.1 0 46.2 0 70 0 C70 3.3 70 6.6 70 10 C73.3 10 76.6 10 80 10 C80 13.3 80 16.6 80 20 C53.6 20 27.2 20 0 20 C0 13.4 0 6.8 0 0 Z " fill="#FEEEAA" transform="translate(130,90)"/>
<path d="M0 0 C9.9 0 19.8 0 30 0 C30 3.3 30 6.6 30 10 C26.7 10 23.4 10 20 10 C20 16.6 20 23.2 20 30 C16.7 30 13.4 30 10 30 C10 33.3 10 36.6 10 40 C3.4 40 -3.2 40 -10 40 C-10 30.1 -10 20.2 -10 10 C-6.7 10 -3.4 10 0 10 C0 6.7 0 3.4 0 0 Z " fill="#FCD792" transform="translate(40,30)"/>
<path d="M0 0 C3.3 0 6.6 0 10 0 C10 6.6 10 13.2 10 20 C6.7 20 3.4 20 0 20 C0 26.6 0 33.2 0 40 C-9.9 40 -19.8 40 -30 40 C-30 43.3 -30 46.6 -30 50 C-33.3 50 -36.6 50 -40 50 C-40 43.4 -40 36.8 -40 30 C-30.1 30 -20.2 30 -10 30 C-10 23.4 -10 16.8 -10 10 C-6.7 10 -3.4 10 0 10 C0 6.7 0 3.4 0 0 Z " fill="#3F3A2A" transform="translate(120,90)"/>
<path d="M0 0 C6.6 0 13.2 0 20 0 C20 3.3 20 6.6 20 10 C36.5 10 53 10 70 10 C70 13.3 70 16.6 70 20 C50.2 20 30.4 20 10 20 C10 16.7 10 13.4 10 10 C6.7 10 3.4 10 0 10 C0 6.7 0 3.4 0 0 Z " fill="#CC5643" transform="translate(120,260)"/>
<path d="M0 0 C13.2 0 26.4 0 40 0 C40 9.9 40 19.8 40 30 C36.7 30 33.4 30 30 30 C30 23.4 30 16.8 30 10 C23.4 10 16.8 10 10 10 C10 16.6 10 23.2 10 30 C6.7 30 3.4 30 0 30 C0 20.1 0 10.2 0 0 Z " fill="#1E1E1E" transform="translate(150,200)"/>
<path d="M0 0 C3.3 0 6.6 0 10 0 C10 13.2 10 26.4 10 40 C6.7 40 3.4 40 0 40 C0 36.7 0 33.4 0 30 C-3.3 30 -6.6 30 -10 30 C-10 33.3 -10 36.6 -10 40 C-13.3 40 -16.6 40 -20 40 C-20 33.4 -20 26.8 -20 20 C-16.7 20 -13.4 20 -10 20 C-10 16.7 -10 13.4 -10 10 C-6.7 10 -3.4 10 0 10 C0 6.7 0 3.4 0 0 Z " fill="#D8B400" transform="translate(100,150)"/>
<path d="M0 0 C9.9 0 19.8 0 30 0 C30 6.6 30 13.2 30 20 C16.8 20 3.6 20 -10 20 C-10 16.7 -10 13.4 -10 10 C-6.7 10 -3.4 10 0 10 C0 6.7 0 3.4 0 0 Z " fill="#7F0000" transform="translate(200,160)"/>
<path d="M0 0 C9.9 0 19.8 0 30 0 C30 3.3 30 6.6 30 10 C33.3 10 36.6 10 40 10 C40 13.3 40 16.6 40 20 C26.8 20 13.6 20 0 20 C0 13.4 0 6.8 0 0 Z " fill="#7F0000" transform="translate(120,160)"/>
<path d="M0 0 C3.3 0 6.6 0 10 0 C10 6.6 10 13.2 10 20 C19.9 20 29.8 20 40 20 C40 26.6 40 33.2 40 40 C36.7 40 33.4 40 30 40 C30 36.7 30 33.4 30 30 C20.1 30 10.2 30 0 30 C0 20.1 0 10.2 0 0 Z " fill="#3F3B2A" transform="translate(210,100)"/>
<path d="M0 0 C23.1 0 46.2 0 70 0 C70 3.3 70 6.6 70 10 C46.9 10 23.8 10 0 10 C0 6.7 0 3.4 0 0 Z " fill="#3E3B2A" transform="translate(130,80)"/>
<path d="M0 0 C19.8 0 39.6 0 60 0 C60 3.3 60 6.6 60 10 C40.2 10 20.4 10 0 10 C0 6.7 0 3.4 0 0 Z " fill="#54231B" transform="translate(130,280)"/>
<path d="M0 0 C3.3 0 6.6 0 10 0 C10 19.8 10 39.6 10 60 C6.7 60 3.4 60 0 60 C0 40.2 0 20.4 0 0 Z " fill="#54231B" transform="translate(230,190)"/>
<path d="M0 0 C3.3 0 6.6 0 10 0 C10 19.8 10 39.6 10 60 C6.7 60 3.4 60 0 60 C0 40.2 0 20.4 0 0 Z " fill="#54231A" transform="translate(90,180)"/>
<path d="M0 0 C3.3 0 6.6 0 10 0 C10 16.5 10 33 10 50 C6.7 50 3.4 50 0 50 C0 33.5 0 17 0 0 Z " fill="#CD5643" transform="translate(100,190)"/>
<path d="M0 0 C6.6 0 13.2 0 20 0 C20 13.2 20 26.4 20 40 C16.7 40 13.4 40 10 40 C10 30.1 10 20.2 10 10 C6.7 10 3.4 10 0 10 C0 6.7 0 3.4 0 0 Z " fill="#FEE66D" transform="translate(220,150)"/>
<path d="M0 0 C3.3 0 6.6 0 10 0 C10 6.6 10 13.2 10 20 C6.7 20 3.4 20 0 20 C0 26.6 0 33.2 0 40 C-3.3 40 -6.6 40 -10 40 C-10 30.1 -10 20.2 -10 10 C-6.7 10 -3.4 10 0 10 C0 6.7 0 3.4 0 0 Z " fill="#F2B168" transform="translate(250,130)"/>
<path d="M0 0 C3.3 0 6.6 0 10 0 C10 6.6 10 13.2 10 20 C6.7 20 3.4 20 0 20 C0 23.3 0 26.6 0 30 C-3.3 30 -6.6 30 -10 30 C-10 23.4 -10 16.8 -10 10 C-6.7 10 -3.4 10 0 10 C0 6.7 0 3.4 0 0 Z " fill="#FCDE9F" transform="translate(260,140)"/>
<path d="M0 0 C6.6 0 13.2 0 20 0 C20 6.6 20 13.2 20 20 C13.4 20 6.8 20 0 20 C0 13.4 0 6.8 0 0 Z " fill="#191819" transform="translate(120,110)"/>
<path d="M0 0 C3.3 0 6.6 0 10 0 C10 3.3 10 6.6 10 10 C13.3 10 16.6 10 20 10 C20 13.3 20 16.6 20 20 C13.4 20 6.8 20 0 20 C0 13.4 0 6.8 0 0 Z " fill="#CD5743" transform="translate(190,250)"/>
<path d="M0 0 C6.6 0 13.2 0 20 0 C20 3.3 20 6.6 20 10 C16.7 10 13.4 10 10 10 C10 13.3 10 16.6 10 20 C6.7 20 3.4 20 0 20 C0 13.4 0 6.8 0 0 Z " fill="#CD5743" transform="translate(110,240)"/>
<path d="M0 0 C3.3 0 6.6 0 10 0 C10 9.9 10 19.8 10 30 C6.7 30 3.4 30 0 30 C0 20.1 0 10.2 0 0 Z " fill="#A05953" transform="translate(310,200)"/>
<path d="M0 0 C3.3 0 6.6 0 10 0 C10 9.9 10 19.8 10 30 C6.7 30 3.4 30 0 30 C0 20.1 0 10.2 0 0 Z " fill="#A05953" transform="translate(0,200)"/>
<path d="M0 0 C6.6 0 13.2 0 20 0 C20 3.3 20 6.6 20 10 C16.7 10 13.4 10 10 10 C10 13.3 10 16.6 10 20 C6.7 20 3.4 20 0 20 C0 13.4 0 6.8 0 0 Z " fill="#C4A300" transform="translate(80,170)"/>
<path d="M0 0 C9.9 0 19.8 0 30 0 C30 3.3 30 6.6 30 10 C20.1 10 10.2 10 0 10 C0 6.7 0 3.4 0 0 Z " fill="#EE6851" transform="translate(160,150)"/>
<path d="M0 0 C6.6 0 13.2 0 20 0 C20 6.6 20 13.2 20 20 C16.7 20 13.4 20 10 20 C10 16.7 10 13.4 10 10 C6.7 10 3.4 10 0 10 C0 6.7 0 3.4 0 0 Z " fill="#FEE66D" transform="translate(140,150)"/>
<path d="M0 0 C3.3 0 6.6 0 10 0 C10 9.9 10 19.8 10 30 C6.7 30 3.4 30 0 30 C0 20.1 0 10.2 0 0 Z " fill="#F2B168" transform="translate(140,40)"/>
<path d="M0 0 C6.6 0 13.2 0 20 0 C20 3.3 20 6.6 20 10 C13.4 10 6.8 10 0 10 C0 6.7 0 3.4 0 0 Z " fill="#54221B" transform="translate(190,270)"/>
<path d="M0 0 C6.6 0 13.2 0 20 0 C20 3.3 20 6.6 20 10 C13.4 10 6.8 10 0 10 C0 6.7 0 3.4 0 0 Z " fill="#AA5545" transform="translate(120,260)"/>
<path d="M0 0 C3.3 0 6.6 0 10 0 C10 6.6 10 13.2 10 20 C6.7 20 3.4 20 0 20 C0 13.4 0 6.8 0 0 Z " fill="#60281F" transform="translate(100,240)"/>
<path d="M0 0 C3.3 0 6.6 0 10 0 C10 6.6 10 13.2 10 20 C6.7 20 3.4 20 0 20 C0 13.4 0 6.8 0 0 Z " fill="#C10000" transform="translate(220,160)"/>
<path d="M0 0 C6.6 0 13.2 0 20 0 C20 3.3 20 6.6 20 10 C13.4 10 6.8 10 0 10 C0 6.7 0 3.4 0 0 Z " fill="#ECBA73" transform="translate(70,160)"/>
<path d="M0 0 C3.3 0 6.6 0 10 0 C10 6.6 10 13.2 10 20 C6.7 20 3.4 20 0 20 C0 13.4 0 6.8 0 0 Z " fill="#F2B068" transform="translate(240,150)"/>
<path d="M0 0 C6.6 0 13.2 0 20 0 C20 3.3 20 6.6 20 10 C13.4 10 6.8 10 0 10 C0 6.7 0 3.4 0 0 Z " fill="#FDD58F" transform="translate(220,150)"/>
<path d="M0 0 C6.6 0 13.2 0 20 0 C20 3.3 20 6.6 20 10 C13.4 10 6.8 10 0 10 C0 6.7 0 3.4 0 0 Z " fill="#F2B168" transform="translate(40,150)"/>
<path d="M0 0 C6.6 0 13.2 0 20 0 C20 3.3 20 6.6 20 10 C13.4 10 6.8 10 0 10 C0 6.7 0 3.4 0 0 Z " fill="#F2B168" transform="translate(60,140)"/>
<path d="M0 0 C6.6 0 13.2 0 20 0 C20 3.3 20 6.6 20 10 C13.4 10 6.8 10 0 10 C0 6.7 0 3.4 0 0 Z " fill="#FCDE9E" transform="translate(290,110)"/>
<path d="M0 0 C3.3 0 6.6 0 10 0 C10 6.6 10 13.2 10 20 C6.7 20 3.4 20 0 20 C0 13.4 0 6.8 0 0 Z " fill="#C4B782" transform="translate(120,90)"/>
<path d="M0 0 C6.6 0 13.2 0 20 0 C20 3.3 20 6.6 20 10 C13.4 10 6.8 10 0 10 C0 6.7 0 3.4 0 0 Z " fill="#FCDE9F" transform="translate(80,90)"/>
<path d="M0 0 C3.3 0 6.6 0 10 0 C10 6.6 10 13.2 10 20 C6.7 20 3.4 20 0 20 C0 13.4 0 6.8 0 0 Z " fill="#ECBA73" transform="translate(30,90)"/>
<path d="M0 0 C3.3 0 6.6 0 10 0 C10 6.6 10 13.2 10 20 C6.7 20 3.4 20 0 20 C0 13.4 0 6.8 0 0 Z " fill="#F2B068" transform="translate(290,80)"/>
<path d="M0 0 C3.3 0 6.6 0 10 0 C10 6.6 10 13.2 10 20 C6.7 20 3.4 20 0 20 C0 13.4 0 6.8 0 0 Z " fill="#ECBA73" transform="translate(230,80)"/>
<path d="M0 0 C3.3 0 6.6 0 10 0 C10 6.6 10 13.2 10 20 C6.7 20 3.4 20 0 20 C0 13.4 0 6.8 0 0 Z " fill="#FCDE9F" transform="translate(200,70)"/>
<path d="M0 0 C6.6 0 13.2 0 20 0 C20 3.3 20 6.6 20 10 C13.4 10 6.8 10 0 10 C0 6.7 0 3.4 0 0 Z " fill="#ECBA72" transform="translate(50,70)"/>
<path d="M0 0 C3.3 0 6.6 0 10 0 C10 6.6 10 13.2 10 20 C6.7 20 3.4 20 0 20 C0 13.4 0 6.8 0 0 Z " fill="#F2B168" transform="translate(300,60)"/>
<path d="M0 0 C6.6 0 13.2 0 20 0 C20 3.3 20 6.6 20 10 C13.4 10 6.8 10 0 10 C0 6.7 0 3.4 0 0 Z " fill="#ECBA73" transform="translate(250,60)"/>
<path d="M0 0 C6.6 0 13.2 0 20 0 C20 3.3 20 6.6 20 10 C13.4 10 6.8 10 0 10 C0 6.7 0 3.4 0 0 Z " fill="#FCDE9E" transform="translate(220,50)"/>
<path d="M0 0 C3.3 0 6.6 0 10 0 C10 6.6 10 13.2 10 20 C6.7 20 3.4 20 0 20 C0 13.4 0 6.8 0 0 Z " fill="#ECBA72" transform="translate(180,50)"/>
<path d="M0 0 C3.3 0 6.6 0 10 0 C10 6.6 10 13.2 10 20 C6.7 20 3.4 20 0 20 C0 13.4 0 6.8 0 0 Z " fill="#FCDE9F" transform="translate(120,50)"/>
<path d="M0 0 C6.6 0 13.2 0 20 0 C20 3.3 20 6.6 20 10 C13.4 10 6.8 10 0 10 C0 6.7 0 3.4 0 0 Z " fill="#ECBA73" transform="translate(80,50)"/>
<path d="M0 0 C3.3 0 6.6 0 10 0 C10 6.6 10 13.2 10 20 C6.7 20 3.4 20 0 20 C0 13.4 0 6.8 0 0 Z " fill="#FCDE9F" transform="translate(50,40)"/>
<path d="M0 0 C3.3 0 6.6 0 10 0 C10 6.6 10 13.2 10 20 C6.7 20 3.4 20 0 20 C0 13.4 0 6.8 0 0 Z " fill="#F2B168" transform="translate(20,40)"/>
<path d="M0 0 C3.3 0 6.6 0 10 0 C10 6.6 10 13.2 10 20 C6.7 20 3.4 20 0 20 C0 13.4 0 6.8 0 0 Z " fill="#ECBA73" transform="translate(100,30)"/>
<path d="M0 0 C6.6 0 13.2 0 20 0 C20 3.3 20 6.6 20 10 C13.4 10 6.8 10 0 10 C0 6.7 0 3.4 0 0 Z " fill="#F2B168" transform="translate(40,20)"/>
<path d="M0 0 C3.3 0 6.6 0 10 0 C10 3.3 10 6.6 10 10 C6.7 10 3.4 10 0 10 C0 6.7 0 3.4 0 0 Z " fill="#60281F" transform="translate(120,270)"/>
<path d="M0 0 C3.3 0 6.6 0 10 0 C10 3.3 10 6.6 10 10 C6.7 10 3.4 10 0 10 C0 6.7 0 3.4 0 0 Z " fill="#54231B" transform="translate(210,260)"/>
<path d="M0 0 C3.3 0 6.6 0 10 0 C10 3.3 10 6.6 10 10 C6.7 10 3.4 10 0 10 C0 6.7 0 3.4 0 0 Z " fill="#CD5743" transform="translate(120,260)"/>
<path d="M0 0 C3.3 0 6.6 0 10 0 C10 3.3 10 6.6 10 10 C6.7 10 3.4 10 0 10 C0 6.7 0 3.4 0 0 Z " fill="#60281F" transform="translate(110,260)"/>
<path d="M0 0 C3.3 0 6.6 0 10 0 C10 3.3 10 6.6 10 10 C6.7 10 3.4 10 0 10 C0 6.7 0 3.4 0 0 Z " fill="#8F4C57" transform="translate(100,260)"/>
<path d="M0 0 C3.3 0 6.6 0 10 0 C10 3.3 10 6.6 10 10 C6.7 10 3.4 10 0 10 C0 6.7 0 3.4 0 0 Z " fill="#54231B" transform="translate(220,250)"/>
<path d="M0 0 C3.3 0 6.6 0 10 0 C10 3.3 10 6.6 10 10 C6.7 10 3.4 10 0 10 C0 6.7 0 3.4 0 0 Z " fill="#CD5743" transform="translate(210,250)"/>
<path d="M0 0 C3.3 0 6.6 0 10 0 C10 3.3 10 6.6 10 10 C6.7 10 3.4 10 0 10 C0 6.7 0 3.4 0 0 Z " fill="#AB5545" transform="translate(190,250)"/>
<path d="M0 0 C3.3 0 6.6 0 10 0 C10 3.3 10 6.6 10 10 C6.7 10 3.4 10 0 10 C0 6.7 0 3.4 0 0 Z " fill="#CD5743" transform="translate(220,240)"/>
<path d="M0 0 C3.3 0 6.6 0 10 0 C10 3.3 10 6.6 10 10 C6.7 10 3.4 10 0 10 C0 6.7 0 3.4 0 0 Z " fill="#AB5545" transform="translate(120,240)"/>
<path d="M0 0 C3.3 0 6.6 0 10 0 C10 3.3 10 6.6 10 10 C6.7 10 3.4 10 0 10 C0 6.7 0 3.4 0 0 Z " fill="#753F48" transform="translate(310,230)"/>
<path d="M0 0 C3.3 0 6.6 0 10 0 C10 3.3 10 6.6 10 10 C6.7 10 3.4 10 0 10 C0 6.7 0 3.4 0 0 Z " fill="#753F48" transform="translate(0,230)"/>
<path d="M0 0 C3.3 0 6.6 0 10 0 C10 3.3 10 6.6 10 10 C6.7 10 3.4 10 0 10 C0 6.7 0 3.4 0 0 Z " fill="#AB5545" transform="translate(140,220)"/>
<path d="M0 0 C3.3 0 6.6 0 10 0 C10 3.3 10 6.6 10 10 C6.7 10 3.4 10 0 10 C0 6.7 0 3.4 0 0 Z " fill="#FFE14F" transform="translate(230,180)"/>
<path d="M0 0 C3.3 0 6.6 0 10 0 C10 3.3 10 6.6 10 10 C6.7 10 3.4 10 0 10 C0 6.7 0 3.4 0 0 Z " fill="#C10000" transform="translate(150,170)"/>
<path d="M0 0 C3.3 0 6.6 0 10 0 C10 3.3 10 6.6 10 10 C6.7 10 3.4 10 0 10 C0 6.7 0 3.4 0 0 Z " fill="#ECBA73" transform="translate(60,170)"/>
<path d="M0 0 C3.3 0 6.6 0 10 0 C10 3.3 10 6.6 10 10 C6.7 10 3.4 10 0 10 C0 6.7 0 3.4 0 0 Z " fill="#BF2A2A" transform="translate(220,160)"/>
<path d="M0 0 C3.3 0 6.6 0 10 0 C10 3.3 10 6.6 10 10 C6.7 10 3.4 10 0 10 C0 6.7 0 3.4 0 0 Z " fill="#C10000" transform="translate(210,160)"/>
<path d="M0 0 C3.3 0 6.6 0 10 0 C10 3.3 10 6.6 10 10 C6.7 10 3.4 10 0 10 C0 6.7 0 3.4 0 0 Z " fill="#FFE14F" transform="translate(150,160)"/>
<path d="M0 0 C3.3 0 6.6 0 10 0 C10 3.3 10 6.6 10 10 C6.7 10 3.4 10 0 10 C0 6.7 0 3.4 0 0 Z " fill="#C10000" transform="translate(140,160)"/>
<path d="M0 0 C3.3 0 6.6 0 10 0 C10 3.3 10 6.6 10 10 C6.7 10 3.4 10 0 10 C0 6.7 0 3.4 0 0 Z " fill="#F2B168" transform="translate(30,160)"/>
<path d="M0 0 C3.3 0 6.6 0 10 0 C10 3.3 10 6.6 10 10 C6.7 10 3.4 10 0 10 C0 6.7 0 3.4 0 0 Z " fill="#FDD58F" transform="translate(250,150)"/>
<path d="M0 0 C3.3 0 6.6 0 10 0 C10 3.3 10 6.6 10 10 C6.7 10 3.4 10 0 10 C0 6.7 0 3.4 0 0 Z " fill="#FFE14F" transform="translate(220,150)"/>
<path d="M0 0 C3.3 0 6.6 0 10 0 C10 3.3 10 6.6 10 10 C6.7 10 3.4 10 0 10 C0 6.7 0 3.4 0 0 Z " fill="#FFE04F" transform="translate(140,150)"/>
<path d="M0 0 C3.3 0 6.6 0 10 0 C10 3.3 10 6.6 10 10 C6.7 10 3.4 10 0 10 C0 6.7 0 3.4 0 0 Z " fill="#E4BF00" transform="translate(100,150)"/>
<path d="M0 0 C3.3 0 6.6 0 10 0 C10 3.3 10 6.6 10 10 C6.7 10 3.4 10 0 10 C0 6.7 0 3.4 0 0 Z " fill="#FDD58F" transform="translate(240,140)"/>
<path d="M0 0 C3.3 0 6.6 0 10 0 C10 3.3 10 6.6 10 10 C6.7 10 3.4 10 0 10 C0 6.7 0 3.4 0 0 Z " fill="#FCDE9F" transform="translate(270,130)"/>
<path d="M0 0 C3.3 0 6.6 0 10 0 C10 3.3 10 6.6 10 10 C6.7 10 3.4 10 0 10 C0 6.7 0 3.4 0 0 Z " fill="#C4B783" transform="translate(90,130)"/>
<path d="M0 0 C3.3 0 6.6 0 10 0 C10 3.3 10 6.6 10 10 C6.7 10 3.4 10 0 10 C0 6.7 0 3.4 0 0 Z " fill="#FCDE9F" transform="translate(50,130)"/>
<path d="M0 0 C3.3 0 6.6 0 10 0 C10 3.3 10 6.6 10 10 C6.7 10 3.4 10 0 10 C0 6.7 0 3.4 0 0 Z " fill="#FCDE9F" transform="translate(280,120)"/>
<path d="M0 0 C3.3 0 6.6 0 10 0 C10 3.3 10 6.6 10 10 C6.7 10 3.4 10 0 10 C0 6.7 0 3.4 0 0 Z " fill="#F2B168" transform="translate(260,120)"/>
<path d="M0 0 C3.3 0 6.6 0 10 0 C10 3.3 10 6.6 10 10 C6.7 10 3.4 10 0 10 C0 6.7 0 3.4 0 0 Z " fill="#FCDE9F" transform="translate(60,120)"/>
<path d="M0 0 C3.3 0 6.6 0 10 0 C10 3.3 10 6.6 10 10 C6.7 10 3.4 10 0 10 C0 6.7 0 3.4 0 0 Z " fill="#F2B168" transform="translate(270,110)"/>
<path d="M0 0 C3.3 0 6.6 0 10 0 C10 3.3 10 6.6 10 10 C6.7 10 3.4 10 0 10 C0 6.7 0 3.4 0 0 Z " fill="#F2B168" transform="translate(100,110)"/>
<path d="M0 0 C3.3 0 6.6 0 10 0 C10 3.3 10 6.6 10 10 C6.7 10 3.4 10 0 10 C0 6.7 0 3.4 0 0 Z " fill="#ECBA73" transform="translate(20,110)"/>
<path d="M0 0 C3.3 0 6.6 0 10 0 C10 3.3 10 6.6 10 10 C6.7 10 3.4 10 0 10 C0 6.7 0 3.4 0 0 Z " fill="#F2B168" transform="translate(280,100)"/>
<path d="M0 0 C3.3 0 6.6 0 10 0 C10 3.3 10 6.6 10 10 C6.7 10 3.4 10 0 10 C0 6.7 0 3.4 0 0 Z " fill="#ECBA73" transform="translate(220,100)"/>
<path d="M0 0 C3.3 0 6.6 0 10 0 C10 3.3 10 6.6 10 10 C6.7 10 3.4 10 0 10 C0 6.7 0 3.4 0 0 Z " fill="#3F3B2A" transform="translate(200,90)"/>
<path d="M0 0 C3.3 0 6.6 0 10 0 C10 3.3 10 6.6 10 10 C6.7 10 3.4 10 0 10 C0 6.7 0 3.4 0 0 Z " fill="#C4B783" transform="translate(130,90)"/>
<path d="M0 0 C3.3 0 6.6 0 10 0 C10 3.3 10 6.6 10 10 C6.7 10 3.4 10 0 10 C0 6.7 0 3.4 0 0 Z " fill="#3F3B2A" transform="translate(120,90)"/>
<path d="M0 0 C3.3 0 6.6 0 10 0 C10 3.3 10 6.6 10 10 C6.7 10 3.4 10 0 10 C0 6.7 0 3.4 0 0 Z " fill="#FCDE9F" transform="translate(100,80)"/>
<path d="M0 0 C3.3 0 6.6 0 10 0 C10 3.3 10 6.6 10 10 C6.7 10 3.4 10 0 10 C0 6.7 0 3.4 0 0 Z " fill="#ECBA73" transform="translate(40,80)"/>
<path d="M0 0 C3.3 0 6.6 0 10 0 C10 3.3 10 6.6 10 10 C6.7 10 3.4 10 0 10 C0 6.7 0 3.4 0 0 Z " fill="#ECBA73" transform="translate(240,70)"/>
<path d="M0 0 C3.3 0 6.6 0 10 0 C10 3.3 10 6.6 10 10 C6.7 10 3.4 10 0 10 C0 6.7 0 3.4 0 0 Z " fill="#ECBA73" transform="translate(170,70)"/>
<path d="M0 0 C3.3 0 6.6 0 10 0 C10 3.3 10 6.6 10 10 C6.7 10 3.4 10 0 10 C0 6.7 0 3.4 0 0 Z " fill="#F2B168" transform="translate(130,70)"/>
<path d="M0 0 C3.3 0 6.6 0 10 0 C10 3.3 10 6.6 10 10 C6.7 10 3.4 10 0 10 C0 6.7 0 3.4 0 0 Z " fill="#FCDE9F" transform="translate(110,70)"/>
<path d="M0 0 C3.3 0 6.6 0 10 0 C10 3.3 10 6.6 10 10 C6.7 10 3.4 10 0 10 C0 6.7 0 3.4 0 0 Z " fill="#FCDE9F" transform="translate(20,70)"/>
<path d="M0 0 C3.3 0 6.6 0 10 0 C10 3.3 10 6.6 10 10 C6.7 10 3.4 10 0 10 C0 6.7 0 3.4 0 0 Z " fill="#FCDE9E" transform="translate(210,60)"/>
<path d="M0 0 C3.3 0 6.6 0 10 0 C10 3.3 10 6.6 10 10 C6.7 10 3.4 10 0 10 C0 6.7 0 3.4 0 0 Z " fill="#ECBA73" transform="translate(70,60)"/>
<path d="M0 0 C3.3 0 6.6 0 10 0 C10 3.3 10 6.6 10 10 C6.7 10 3.4 10 0 10 C0 6.7 0 3.4 0 0 Z " fill="#F2B168" transform="translate(10,60)"/>
<path d="M0 0 C3.3 0 6.6 0 10 0 C10 3.3 10 6.6 10 10 C6.7 10 3.4 10 0 10 C0 6.7 0 3.4 0 0 Z " fill="#ECBA73" transform="translate(270,50)"/>
<path d="M0 0 C3.3 0 6.6 0 10 0 C10 3.3 10 6.6 10 10 C6.7 10 3.4 10 0 10 C0 6.7 0 3.4 0 0 Z " fill="#ECBA72" transform="translate(280,40)"/>
<path d="M0 0 C3.3 0 6.6 0 10 0 C10 3.3 10 6.6 10 10 C6.7 10 3.4 10 0 10 C0 6.7 0 3.4 0 0 Z " fill="#FCDE9F" transform="translate(240,40)"/>
<path d="M0 0 C3.3 0 6.6 0 10 0 C10 3.3 10 6.6 10 10 C6.7 10 3.4 10 0 10 C0 6.7 0 3.4 0 0 Z " fill="#ECBA73" transform="translate(190,40)"/>
<path d="M0 0 C3.3 0 6.6 0 10 0 C10 3.3 10 6.6 10 10 C6.7 10 3.4 10 0 10 C0 6.7 0 3.4 0 0 Z " fill="#ECBA73" transform="translate(200,30)"/>
<path d="M0 0 C3.3 0 6.6 0 10 0 C10 3.3 10 6.6 10 10 C6.7 10 3.4 10 0 10 C0 6.7 0 3.4 0 0 Z " fill="#F2B068" transform="translate(150,30)"/>
<path d="M0 0 C3.3 0 6.6 0 10 0 C10 3.3 10 6.6 10 10 C6.7 10 3.4 10 0 10 C0 6.7 0 3.4 0 0 Z " fill="#FCDE9F" transform="translate(60,30)"/>
<path d="M0 0 C3.3 0 6.6 0 10 0 C10 3.3 10 6.6 10 10 C6.7 10 3.4 10 0 10 C0 6.7 0 3.4 0 0 Z " fill="#F2B068" transform="translate(30,30)"/>
<path d="M0 0 C3.3 0 6.6 0 10 0 C10 3.3 10 6.6 10 10 C6.7 10 3.4 10 0 10 C0 6.7 0 3.4 0 0 Z " fill="#ECBA73" transform="translate(210,20)"/>
<path d="M0 0 C3.3 0 6.6 0 10 0 C10 3.3 10 6.6 10 10 C6.7 10 3.4 10 0 10 C0 6.7 0 3.4 0 0 Z " fill="#F2B168" transform="translate(160,20)"/>
<path d="M0 0 C3.3 0 6.6 0 10 0 C10 3.3 10 6.6 10 10 C6.7 10 3.4 10 0 10 C0 6.7 0 3.4 0 0 Z " fill="#ECBA73" transform="translate(110,20)"/>
<path d="M0 0 C3.3 0 6.6 0 10 0 C10 3.3 10 6.6 10 10 C6.7 10 3.4 10 0 10 C0 6.7 0 3.4 0 0 Z " fill="#FCDE9F" transform="translate(70,20)"/>
<path d="M0 0 C3.3 0 6.6 0 10 0 C10 3.3 10 6.6 10 10 C6.7 10 3.4 10 0 10 C0 6.7 0 3.4 0 0 Z " fill="#FCDE9F" transform="translate(80,10)"/>
<path d="M0 0 C3.3 0 6.6 0 10 0 C10 3.3 10 6.6 10 10 C6.7 10 3.4 10 0 10 C0 6.7 0 3.4 0 0 Z " fill="#F2B168" transform="translate(60,10)"/>
</svg>
