<?xml version="1.0" encoding="UTF-8"?>
<svg version="1.1" xmlns="http://www.w3.org/2000/svg" width="1280" height="1280">
<path d="M0 0 C422.4 0 844.8 0 1280 0 C1280 422.4 1280 844.8 1280 1280 C857.6 1280 435.2 1280 0 1280 C0 857.6 0 435.2 0 0 Z " fill="#D07240" transform="translate(0,0)"/>
<path d="M0 0 C422.4 0 844.8 0 1280 0 C1280 264 1280 528 1280 800 C1240.4 800 1200.8 800 1160 800 C1160 813.2 1160 826.4 1160 840 C1133.6 840 1107.2 840 1080 840 C1080 826.8 1080 813.6 1080 800 C1040.4 800 1000.8 800 960 800 C960 773.6 960 747.2 960 720 C946.8 720 933.6 720 920 720 C920 680.4 920 640.8 920 600 C933.2 600 946.4 600 960 600 C960 586.8 960 573.6 960 560 C973.2 560 986.4 560 1000 560 C1000 546.8 1000 533.6 1000 520 C1013.2 520 1026.4 520 1040 520 C1040 546.4 1040 572.8 1040 600 C1053.2 600 1066.4 600 1080 600 C1080 586.8 1080 573.6 1080 560 C1106.4 560 1132.8 560 1160 560 C1160 546.8 1160 533.6 1160 520 C1173.2 520 1186.4 520 1200 520 C1200 506.8 1200 493.6 1200 480 C1186.8 480 1173.6 480 1160 480 C1160 466.8 1160 453.6 1160 440 C1146.8 440 1133.6 440 1120 440 C1120 426.8 1120 413.6 1120 400 C1093.6 400 1067.2 400 1040 400 C1040 413.2 1040 426.4 1040 440 C1026.8 440 1013.6 440 1000 440 C1000 453.2 1000 466.4 1000 480 C960.4 480 920.8 480 880 480 C880 453.6 880 427.2 880 400 C866.8 400 853.6 400 840 400 C840 413.2 840 426.4 840 440 C721.2 440 602.4 440 480 440 C480 426.8 480 413.6 480 400 C466.8 400 453.6 400 440 400 C440 426.4 440 452.8 440 480 C400.4 480 360.8 480 320 480 C320 506.4 320 532.8 320 560 C333.2 560 346.4 560 360 560 C360 573.2 360 586.4 360 600 C373.2 600 386.4 600 400 600 C400 626.4 400 652.8 400 680 C386.8 680 373.6 680 360 680 C360 732.8 360 785.6 360 840 C346.8 840 333.6 840 320 840 C320 826.8 320 813.6 320 800 C280.4 800 240.8 800 200 800 C200 813.2 200 826.4 200 840 C173.6 840 147.2 840 120 840 C120 826.8 120 813.6 120 800 C80.4 800 40.8 800 0 800 C0 536 0 272 0 0 Z " fill="#9CA446" transform="translate(0,0)"/>
<path d="M0 0 C13.2 0 26.4 0 40 0 C40 26.4 40 52.8 40 80 C79.6 80 119.2 80 160 80 C160 93.2 160 106.4 160 120 C186.4 120 212.8 120 240 120 C240 106.8 240 93.6 240 80 C279.6 80 319.2 80 360 80 C360 238.4 360 396.8 360 560 C-62.4 560 -484.8 560 -920 560 C-920 454.4 -920 348.8 -920 240 C-906.8 240 -893.6 240 -880 240 C-880 253.2 -880 266.4 -880 280 C-853.6 280 -827.2 280 -800 280 C-800 293.2 -800 306.4 -800 320 C-773.6 320 -747.2 320 -720 320 C-720 333.2 -720 346.4 -720 360 C-680.4 360 -640.8 360 -600 360 C-600 346.8 -600 333.6 -600 320 C-573.6 320 -547.2 320 -520 320 C-520 293.6 -520 267.2 -520 240 C-506.8 240 -493.6 240 -480 240 C-480 266.4 -480 292.8 -480 320 C-466.8 320 -453.6 320 -440 320 C-440 333.2 -440 346.4 -440 360 C-426.8 360 -413.6 360 -400 360 C-400 373.2 -400 386.4 -400 400 C-320.8 400 -241.6 400 -160 400 C-160 386.8 -160 373.6 -160 360 C-133.6 360 -107.2 360 -80 360 C-80 346.8 -80 333.6 -80 320 C-66.8 320 -53.6 320 -40 320 C-40 306.8 -40 293.6 -40 280 C-26.8 280 -13.6 280 0 280 C0 187.6 0 95.2 0 0 Z " fill="#7A543C" transform="translate(920,720)"/>
<path d="M0 0 C79.2 0 158.4 0 240 0 C240 39.6 240 79.2 240 120 C253.2 120 266.4 120 280 120 C280 212.4 280 304.8 280 400 C266.8 400 253.6 400 240 400 C240 413.2 240 426.4 240 440 C226.8 440 213.6 440 200 440 C200 453.2 200 466.4 200 480 C173.6 480 147.2 480 120 480 C120 493.2 120 506.4 120 520 C40.8 520 -38.4 520 -120 520 C-120 506.8 -120 493.6 -120 480 C-133.2 480 -146.4 480 -160 480 C-160 466.8 -160 453.6 -160 440 C-173.2 440 -186.4 440 -200 440 C-200 413.6 -200 387.2 -200 360 C-213.2 360 -226.4 360 -240 360 C-240 333.6 -240 307.2 -240 280 C-213.6 280 -187.2 280 -160 280 C-160 266.8 -160 253.6 -160 240 C-146.8 240 -133.6 240 -120 240 C-120 226.8 -120 213.6 -120 200 C-93.6 200 -67.2 200 -40 200 C-40 186.8 -40 173.6 -40 160 C-26.8 160 -13.6 160 0 160 C0 146.8 0 133.6 0 120 C13.2 120 26.4 120 40 120 C40 93.6 40 67.2 40 40 C26.8 40 13.6 40 0 40 C0 26.8 0 13.6 0 0 Z " fill="#FEA014" transform="translate(640,600)"/>
<path d="M0 0 C422.4 0 844.8 0 1280 0 C1280 264 1280 528 1280 800 C1240.4 800 1200.8 800 1160 800 C1160 813.2 1160 826.4 1160 840 C1133.6 840 1107.2 840 1080 840 C1080 826.8 1080 813.6 1080 800 C1040.4 800 1000.8 800 960 800 C960 786.8 960 773.6 960 760 C973.2 760 986.4 760 1000 760 C1000 746.8 1000 733.6 1000 720 C1026.4 720 1052.8 720 1080 720 C1080 733.2 1080 746.4 1080 760 C1106.4 760 1132.8 760 1160 760 C1160 746.8 1160 733.6 1160 720 C1173.2 720 1186.4 720 1200 720 C1200 733.2 1200 746.4 1200 760 C1213.2 760 1226.4 760 1240 760 C1240 522.4 1240 284.8 1240 40 C844 40 448 40 40 40 C40 277.6 40 515.2 40 760 C53.2 760 66.4 760 80 760 C80 746.8 80 733.6 80 720 C93.2 720 106.4 720 120 720 C120 733.2 120 746.4 120 760 C146.4 760 172.8 760 200 760 C200 746.8 200 733.6 200 720 C226.4 720 252.8 720 280 720 C280 733.2 280 746.4 280 760 C306.4 760 332.8 760 360 760 C360 786.4 360 812.8 360 840 C346.8 840 333.6 840 320 840 C320 826.8 320 813.6 320 800 C280.4 800 240.8 800 200 800 C200 813.2 200 826.4 200 840 C173.6 840 147.2 840 120 840 C120 826.8 120 813.6 120 800 C80.4 800 40.8 800 0 800 C0 536 0 272 0 0 Z " fill="#B2BC50" transform="translate(0,0)"/>
<path d="M0 0 C13.2 0 26.4 0 40 0 C40 13.2 40 26.4 40 40 C158.8 40 277.6 40 400 40 C400 26.8 400 13.6 400 0 C413.2 0 426.4 0 440 0 C440 26.4 440 52.8 440 80 C479.6 80 519.2 80 560 80 C560 66.8 560 53.6 560 40 C573.2 40 586.4 40 600 40 C600 26.8 600 13.6 600 0 C626.4 0 652.8 0 680 0 C680 13.2 680 26.4 680 40 C693.2 40 706.4 40 720 40 C720 53.2 720 66.4 720 80 C733.2 80 746.4 80 760 80 C760 93.2 760 106.4 760 120 C746.8 120 733.6 120 720 120 C720 133.2 720 146.4 720 160 C693.6 160 667.2 160 640 160 C640 173.2 640 186.4 640 200 C626.8 200 613.6 200 600 200 C600 173.6 600 147.2 600 120 C586.8 120 573.6 120 560 120 C560 133.2 560 146.4 560 160 C546.8 160 533.6 160 520 160 C520 173.2 520 186.4 520 200 C506.8 200 493.6 200 480 200 C480 239.6 480 279.2 480 320 C466.8 320 453.6 320 440 320 C440 280.4 440 240.8 440 200 C360.8 200 281.6 200 200 200 C200 213.2 200 226.4 200 240 C186.8 240 173.6 240 160 240 C160 226.8 160 213.6 160 200 C120.4 200 80.8 200 40 200 C40 239.6 40 279.2 40 320 C26.8 320 13.6 320 0 320 C0 306.8 0 293.6 0 280 C-13.2 280 -26.4 280 -40 280 C-40 253.6 -40 227.2 -40 200 C-53.2 200 -66.4 200 -80 200 C-80 186.8 -80 173.6 -80 160 C-93.2 160 -106.4 160 -120 160 C-120 133.6 -120 107.2 -120 80 C-80.4 80 -40.8 80 0 80 C0 53.6 0 27.2 0 0 Z " fill="#262626" transform="translate(440,400)"/>
<path d="M0 0 C13.2 0 26.4 0 40 0 C40 92.4 40 184.8 40 280 C436 280 832 280 1240 280 C1240 187.6 1240 95.2 1240 0 C1253.2 0 1266.4 0 1280 0 C1280 105.6 1280 211.2 1280 320 C857.6 320 435.2 320 0 320 C0 214.4 0 108.8 0 0 Z " fill="#6E4C32" transform="translate(0,960)"/>
<path d="M0 0 C52.8 0 105.6 0 160 0 C160 13.2 160 26.4 160 40 C173.2 40 186.4 40 200 40 C200 53.2 200 66.4 200 80 C213.2 80 226.4 80 240 80 C240 106.4 240 132.8 240 160 C226.8 160 213.6 160 200 160 C200 173.2 200 186.4 200 200 C186.8 200 173.6 200 160 200 C160 239.6 160 279.2 160 320 C146.8 320 133.6 320 120 320 C120 293.6 120 267.2 120 240 C93.6 240 67.2 240 40 240 C40 266.4 40 292.8 40 320 C26.8 320 13.6 320 0 320 C0 280.4 0 240.8 0 200 C-13.2 200 -26.4 200 -40 200 C-40 186.8 -40 173.6 -40 160 C-53.2 160 -66.4 160 -80 160 C-80 133.6 -80 107.2 -80 80 C-66.8 80 -53.6 80 -40 80 C-40 66.8 -40 53.6 -40 40 C-26.8 40 -13.6 40 0 40 C0 26.8 0 13.6 0 0 Z " fill="#CE0000" transform="translate(160,120)"/>
<path d="M0 0 C13.2 0 26.4 0 40 0 C40 26.4 40 52.8 40 80 C79.6 80 119.2 80 160 80 C160 93.2 160 106.4 160 120 C186.4 120 212.8 120 240 120 C240 106.8 240 93.6 240 80 C279.6 80 319.2 80 360 80 C360 119.6 360 159.2 360 200 C346.8 200 333.6 200 320 200 C320 186.8 320 173.6 320 160 C293.6 160 267.2 160 240 160 C240 173.2 240 186.4 240 200 C213.6 200 187.2 200 160 200 C160 213.2 160 226.4 160 240 C120.4 240 80.8 240 40 240 C40 253.2 40 266.4 40 280 C26.8 280 13.6 280 0 280 C0 187.6 0 95.2 0 0 Z " fill="#667E34" transform="translate(920,720)"/>
<path d="M0 0 C26.4 0 52.8 0 80 0 C80 13.2 80 26.4 80 40 C106.4 40 132.8 40 160 40 C160 53.2 160 66.4 160 80 C199.6 80 239.2 80 280 80 C280 66.8 280 53.6 280 40 C293.2 40 306.4 40 320 40 C320 53.2 320 66.4 320 80 C333.2 80 346.4 80 360 80 C360 106.4 360 132.8 360 160 C333.6 160 307.2 160 280 160 C280 173.2 280 186.4 280 200 C240.4 200 200.8 200 160 200 C160 186.8 160 173.6 160 160 C133.6 160 107.2 160 80 160 C80 146.8 80 133.6 80 120 C53.6 120 27.2 120 0 120 C0 106.8 0 93.6 0 80 C-13.2 80 -26.4 80 -40 80 C-40 66.8 -40 53.6 -40 40 C-26.8 40 -13.6 40 0 40 C0 26.8 0 13.6 0 0 Z " fill="#846046" transform="translate(40,880)"/>
<path d="M0 0 C39.6 0 79.2 0 120 0 C120 13.2 120 26.4 120 40 C146.4 40 172.8 40 200 40 C200 26.8 200 13.6 200 0 C239.6 0 279.2 0 320 0 C320 13.2 320 26.4 320 40 C333.2 40 346.4 40 360 40 C360 66.4 360 92.8 360 120 C346.8 120 333.6 120 320 120 C320 133.2 320 146.4 320 160 C280.4 160 240.8 160 200 160 C200 146.8 200 133.6 200 120 C173.6 120 147.2 120 120 120 C120 106.8 120 93.6 120 80 C93.6 80 67.2 80 40 80 C40 93.2 40 106.4 40 120 C26.8 120 13.6 120 0 120 C0 80.4 0 40.8 0 0 Z " fill="#667E34" transform="translate(0,800)"/>
<path d="M0 0 C26.4 0 52.8 0 80 0 C80 13.2 80 26.4 80 40 C93.2 40 106.4 40 120 40 C120 53.2 120 66.4 120 80 C106.8 80 93.6 80 80 80 C80 93.2 80 106.4 80 120 C53.6 120 27.2 120 0 120 C0 133.2 0 146.4 0 160 C-26.4 160 -52.8 160 -80 160 C-80 173.2 -80 186.4 -80 200 C-106.4 200 -132.8 200 -160 200 C-160 213.2 -160 226.4 -160 240 C-173.2 240 -186.4 240 -200 240 C-200 213.6 -200 187.2 -200 160 C-213.2 160 -226.4 160 -240 160 C-240 146.8 -240 133.6 -240 120 C-226.8 120 -213.6 120 -200 120 C-200 106.8 -200 93.6 -200 80 C-160.4 80 -120.8 80 -80 80 C-80 66.8 -80 53.6 -80 40 C-53.6 40 -27.2 40 0 40 C0 26.8 0 13.6 0 0 Z " fill="#846046" transform="translate(1160,880)"/>
<path d="M0 0 C198 0 396 0 600 0 C600 13.2 600 26.4 600 40 C586.8 40 573.6 40 560 40 C560 79.6 560 119.2 560 160 C546.8 160 533.6 160 520 160 C520 120.4 520 80.8 520 40 C440.8 40 361.6 40 280 40 C280 53.2 280 66.4 280 80 C266.8 80 253.6 80 240 80 C240 66.8 240 53.6 240 40 C200.4 40 160.8 40 120 40 C120 79.6 120 119.2 120 160 C106.8 160 93.6 160 80 160 C80 146.8 80 133.6 80 120 C66.8 120 53.6 120 40 120 C40 93.6 40 67.2 40 40 C26.8 40 13.6 40 0 40 C0 26.8 0 13.6 0 0 Z " fill="#3E3A2A" transform="translate(360,560)"/>
<path d="M0 0 C198 0 396 0 600 0 C600 13.2 600 26.4 600 40 C402 40 204 40 0 40 C0 26.8 0 13.6 0 0 Z " fill="#FEEEAA" transform="translate(360,520)"/>
<path d="M0 0 C79.2 0 158.4 0 240 0 C240 13.2 240 26.4 240 40 C253.2 40 266.4 40 280 40 C280 53.2 280 66.4 280 80 C174.4 80 68.8 80 -40 80 C-40 66.8 -40 53.6 -40 40 C-26.8 40 -13.6 40 0 40 C0 26.8 0 13.6 0 0 Z " fill="#FEEEAA" transform="translate(560,360)"/>
<path d="M0 0 C26.4 0 52.8 0 80 0 C80 13.2 80 26.4 80 40 C93.2 40 106.4 40 120 40 C120 53.2 120 66.4 120 80 C133.2 80 146.4 80 160 80 C160 93.2 160 106.4 160 120 C146.8 120 133.6 120 120 120 C120 133.2 120 146.4 120 160 C93.6 160 67.2 160 40 160 C40 173.2 40 186.4 40 200 C26.8 200 13.6 200 0 200 C0 134 0 68 0 0 Z " fill="#CE0000" transform="translate(1040,400)"/>
<path d="M0 0 C39.6 0 79.2 0 120 0 C120 39.6 120 79.2 120 120 C80.4 120 40.8 120 0 120 C0 80.4 0 40.8 0 0 Z " fill="#F8BF59" transform="translate(480,600)"/>
<path d="M0 0 C13.2 0 26.4 0 40 0 C40 26.4 40 52.8 40 80 C79.6 80 119.2 80 160 80 C160 66.8 160 53.6 160 40 C173.2 40 186.4 40 200 40 C200 66.4 200 92.8 200 120 C186.8 120 173.6 120 160 120 C160 133.2 160 146.4 160 160 C146.8 160 133.6 160 120 160 C120 146.8 120 133.6 120 120 C80.4 120 40.8 120 0 120 C0 80.4 0 40.8 0 0 Z " fill="#3F3B2A" transform="translate(840,400)"/>
<path d="M0 0 C52.8 0 105.6 0 160 0 C160 39.6 160 79.2 160 120 C146.8 120 133.6 120 120 120 C120 93.6 120 67.2 120 40 C93.6 40 67.2 40 40 40 C40 66.4 40 92.8 40 120 C26.8 120 13.6 120 0 120 C0 80.4 0 40.8 0 0 Z " fill="#7F0000" transform="translate(160,320)"/>
<path d="M0 0 C13.2 0 26.4 0 40 0 C40 13.2 40 26.4 40 40 C106 40 172 40 240 40 C240 53.2 240 66.4 240 80 C160.8 80 81.6 80 0 80 C0 53.6 0 27.2 0 0 Z " fill="#FE880A" transform="translate(520,1040)"/>
<path d="M0 0 C13.2 0 26.4 0 40 0 C40 92.4 40 184.8 40 280 C26.8 280 13.6 280 0 280 C0 187.6 0 95.2 0 0 Z " fill="#6A3804" transform="translate(920,720)"/>
<path d="M0 0 C13.2 0 26.4 0 40 0 C40 39.6 40 79.2 40 120 C0.4 120 -39.2 120 -80 120 C-80 133.2 -80 146.4 -80 160 C-93.2 160 -106.4 160 -120 160 C-120 133.6 -120 107.2 -120 80 C-80.4 80 -40.8 80 0 80 C0 53.6 0 27.2 0 0 Z " fill="#3E3A2A" transform="translate(440,400)"/>
<path d="M0 0 C92.4 0 184.8 0 280 0 C280 13.2 280 26.4 280 40 C187.6 40 95.2 40 0 40 C0 26.8 0 13.6 0 0 Z " fill="#3E3B2A" transform="translate(520,320)"/>
<path d="M0 0 C79.2 0 158.4 0 240 0 C240 13.2 240 26.4 240 40 C160.8 40 81.6 40 0 40 C0 26.8 0 13.6 0 0 Z " fill="#6A3804" transform="translate(520,1120)"/>
<path d="M0 0 C39.6 0 79.2 0 120 0 C120 13.2 120 26.4 120 40 C93.6 40 67.2 40 40 40 C40 66.4 40 92.8 40 120 C26.8 120 13.6 120 0 120 C0 80.4 0 40.8 0 0 Z " fill="#542E1A" transform="translate(360,840)"/>
<path d="M0 0 C13.2 0 26.4 0 40 0 C40 26.4 40 52.8 40 80 C66.4 80 92.8 80 120 80 C120 93.2 120 106.4 120 120 C80.4 120 40.8 120 0 120 C0 80.4 0 40.8 0 0 Z " fill="#542E1A" transform="translate(360,680)"/>
<path d="M0 0 C26.4 0 52.8 0 80 0 C80 39.6 80 79.2 80 120 C66.8 120 53.6 120 40 120 C40 106.8 40 93.6 40 80 C26.8 80 13.6 80 0 80 C0 53.6 0 27.2 0 0 Z " fill="#542E1A" transform="translate(400,600)"/>
<path d="M0 0 C52.8 0 105.6 0 160 0 C160 13.2 160 26.4 160 40 C107.2 40 54.4 40 0 40 C0 26.8 0 13.6 0 0 Z " fill="#000000" transform="translate(600,840)"/>
<path d="M0 0 C26.4 0 52.8 0 80 0 C80 26.4 80 52.8 80 80 C53.6 80 27.2 80 0 80 C0 53.6 0 27.2 0 0 Z " fill="#D07340" transform="translate(600,640)"/>
<path d="M0 0 C26.4 0 52.8 0 80 0 C80 26.4 80 52.8 80 80 C53.6 80 27.2 80 0 80 C0 53.6 0 27.2 0 0 Z " fill="#4F9E9E" transform="translate(520,640)"/>
<path d="M0 0 C39.6 0 79.2 0 120 0 C120 13.2 120 26.4 120 40 C93.6 40 67.2 40 40 40 C40 53.2 40 66.4 40 80 C26.8 80 13.6 80 0 80 C0 53.6 0 27.2 0 0 Z " fill="#7F0000" transform="translate(1040,520)"/>
<path d="M0 0 C26.4 0 52.8 0 80 0 C80 26.4 80 52.8 80 80 C53.6 80 27.2 80 0 80 C0 53.6 0 27.2 0 0 Z " fill="#181818" transform="translate(480,440)"/>
<path d="M0 0 C26.4 0 52.8 0 80 0 C80 26.4 80 52.8 80 80 C53.6 80 27.2 80 0 80 C0 53.6 0 27.2 0 0 Z " fill="#FFFFFF" transform="translate(200,360)"/>
<path d="M0 0 C52.8 0 105.6 0 160 0 C160 13.2 160 26.4 160 40 C107.2 40 54.4 40 0 40 C0 26.8 0 13.6 0 0 Z " fill="#7E0000" transform="translate(160,120)"/>
<path d="M0 0 C13.2 0 26.4 0 40 0 C40 13.2 40 26.4 40 40 C53.2 40 66.4 40 80 40 C80 53.2 80 66.4 80 80 C53.6 80 27.2 80 0 80 C0 53.6 0 27.2 0 0 Z " fill="#FF880B" transform="translate(760,1000)"/>
<path d="M0 0 C26.4 0 52.8 0 80 0 C80 13.2 80 26.4 80 40 C66.8 40 53.6 40 40 40 C40 53.2 40 66.4 40 80 C26.8 80 13.6 80 0 80 C0 53.6 0 27.2 0 0 Z " fill="#FF880B" transform="translate(440,960)"/>
<path d="M0 0 C13.2 0 26.4 0 40 0 C40 39.6 40 79.2 40 120 C26.8 120 13.6 120 0 120 C0 80.4 0 40.8 0 0 Z " fill="#5E742E" transform="translate(1240,800)"/>
<path d="M0 0 C39.6 0 79.2 0 120 0 C120 13.2 120 26.4 120 40 C80.4 40 40.8 40 0 40 C0 26.8 0 13.6 0 0 Z " fill="#9E5731" transform="translate(360,800)"/>
<path d="M0 0 C13.2 0 26.4 0 40 0 C40 39.6 40 79.2 40 120 C26.8 120 13.6 120 0 120 C0 80.4 0 40.8 0 0 Z " fill="#5E742E" transform="translate(0,800)"/>
<path d="M0 0 C13.2 0 26.4 0 40 0 C40 13.2 40 26.4 40 40 C53.2 40 66.4 40 80 40 C80 53.2 80 66.4 80 80 C53.6 80 27.2 80 0 80 C0 53.6 0 27.2 0 0 Z " fill="#FF880A" transform="translate(400,680)"/>
<path d="M0 0 C13.2 0 26.4 0 40 0 C40 13.2 40 26.4 40 40 C53.2 40 66.4 40 80 40 C80 53.2 80 66.4 80 80 C53.6 80 27.2 80 0 80 C0 53.6 0 27.2 0 0 Z " fill="#000000" transform="translate(760,640)"/>
<path d="M0 0 C13.2 0 26.4 0 40 0 C40 39.6 40 79.2 40 120 C26.8 120 13.6 120 0 120 C0 80.4 0 40.8 0 0 Z " fill="#6A3804" transform="translate(880,600)"/>
<path d="M0 0 C26.4 0 52.8 0 80 0 C80 13.2 80 26.4 80 40 C53.6 40 27.2 40 0 40 C0 26.8 0 13.6 0 0 Z " fill="#7F7E7E" transform="translate(1080,1160)"/>
<path d="M0 0 C26.4 0 52.8 0 80 0 C80 13.2 80 26.4 80 40 C53.6 40 27.2 40 0 40 C0 26.8 0 13.6 0 0 Z " fill="#7F7F7E" transform="translate(400,1120)"/>
<path d="M0 0 C26.4 0 52.8 0 80 0 C80 13.2 80 26.4 80 40 C53.6 40 27.2 40 0 40 C0 26.8 0 13.6 0 0 Z " fill="#6B3804" transform="translate(760,1080)"/>
<path d="M0 0 C26.4 0 52.8 0 80 0 C80 13.2 80 26.4 80 40 C53.6 40 27.2 40 0 40 C0 26.8 0 13.6 0 0 Z " fill="#7E7E7F" transform="translate(160,1000)"/>
<path d="M0 0 C13.2 0 26.4 0 40 0 C40 26.4 40 52.8 40 80 C26.8 80 13.6 80 0 80 C0 53.6 0 27.2 0 0 Z " fill="#6B3805" transform="translate(400,960)"/>
<path d="M0 0 C13.2 0 26.4 0 40 0 C40 26.4 40 52.8 40 80 C26.8 80 13.6 80 0 80 C0 53.6 0 27.2 0 0 Z " fill="#FF880B" transform="translate(400,880)"/>
<path d="M0 0 C13.2 0 26.4 0 40 0 C40 26.4 40 52.8 40 80 C26.8 80 13.6 80 0 80 C0 53.6 0 27.2 0 0 Z " fill="#6A3805" transform="translate(360,880)"/>
<path d="M0 0 C26.4 0 52.8 0 80 0 C80 13.2 80 26.4 80 40 C53.6 40 27.2 40 0 40 C0 26.8 0 13.6 0 0 Z " fill="#542E1A" transform="translate(520,760)"/>
<path d="M0 0 C13.2 0 26.4 0 40 0 C40 26.4 40 52.8 40 80 C26.8 80 13.6 80 0 80 C0 53.6 0 27.2 0 0 Z " fill="#6B3804" transform="translate(360,680)"/>
<path d="M0 0 C13.2 0 26.4 0 40 0 C40 26.4 40 52.8 40 80 C26.8 80 13.6 80 0 80 C0 53.6 0 27.2 0 0 Z " fill="#542E1A" transform="translate(640,640)"/>
<path d="M0 0 C26.4 0 52.8 0 80 0 C80 13.2 80 26.4 80 40 C53.6 40 27.2 40 0 40 C0 26.8 0 13.6 0 0 Z " fill="#C88C40" transform="translate(320,640)"/>
<path d="M0 0 C26.4 0 52.8 0 80 0 C80 13.2 80 26.4 80 40 C53.6 40 27.2 40 0 40 C0 26.8 0 13.6 0 0 Z " fill="#8E9945" transform="translate(1080,600)"/>
<path d="M0 0 C13.2 0 26.4 0 40 0 C40 26.4 40 52.8 40 80 C26.8 80 13.6 80 0 80 C0 53.6 0 27.2 0 0 Z " fill="#6A3804" transform="translate(400,600)"/>
<path d="M0 0 C26.4 0 52.8 0 80 0 C80 13.2 80 26.4 80 40 C53.6 40 27.2 40 0 40 C0 26.8 0 13.6 0 0 Z " fill="#484C20" transform="translate(1080,560)"/>
<path d="M0 0 C13.2 0 26.4 0 40 0 C40 26.4 40 52.8 40 80 C26.8 80 13.6 80 0 80 C0 53.6 0 27.2 0 0 Z " fill="#7F0000" transform="translate(1000,440)"/>
<path d="M0 0 C26.4 0 52.8 0 80 0 C80 13.2 80 26.4 80 40 C53.6 40 27.2 40 0 40 C0 26.8 0 13.6 0 0 Z " fill="#484C20" transform="translate(200,440)"/>
<path d="M0 0 C26.4 0 52.8 0 80 0 C80 13.2 80 26.4 80 40 C53.6 40 27.2 40 0 40 C0 26.8 0 13.6 0 0 Z " fill="#C88D40" transform="translate(120,440)"/>
<path d="M0 0 C26.4 0 52.8 0 80 0 C80 13.2 80 26.4 80 40 C53.6 40 27.2 40 0 40 C0 26.8 0 13.6 0 0 Z " fill="#7E0000" transform="translate(1040,400)"/>
<path d="M0 0 C13.2 0 26.4 0 40 0 C40 26.4 40 52.8 40 80 C26.8 80 13.6 80 0 80 C0 53.6 0 27.2 0 0 Z " fill="#484C20" transform="translate(280,360)"/>
<path d="M0 0 C26.4 0 52.8 0 80 0 C80 13.2 80 26.4 80 40 C53.6 40 27.2 40 0 40 C0 26.8 0 13.6 0 0 Z " fill="#B6B6B6" transform="translate(200,360)"/>
<path d="M0 0 C13.2 0 26.4 0 40 0 C40 26.4 40 52.8 40 80 C26.8 80 13.6 80 0 80 C0 53.6 0 27.2 0 0 Z " fill="#484C20" transform="translate(160,360)"/>
<path d="M0 0 C26.4 0 52.8 0 80 0 C80 13.2 80 26.4 80 40 C53.6 40 27.2 40 0 40 C0 26.8 0 13.6 0 0 Z " fill="#C88C40" transform="translate(920,200)"/>
<path d="M0 0 C13.2 0 26.4 0 40 0 C40 26.4 40 52.8 40 80 C26.8 80 13.6 80 0 80 C0 53.6 0 27.2 0 0 Z " fill="#7E0000" transform="translate(360,200)"/>
<path d="M0 0 C13.2 0 26.4 0 40 0 C40 26.4 40 52.8 40 80 C26.8 80 13.6 80 0 80 C0 53.6 0 27.2 0 0 Z " fill="#7E0000" transform="translate(80,200)"/>
<path d="M0 0 C13.2 0 26.4 0 40 0 C40 13.2 40 26.4 40 40 C26.8 40 13.6 40 0 40 C0 26.8 0 13.6 0 0 Z " fill="#7F7F7F" transform="translate(800,1160)"/>
<path d="M0 0 C13.2 0 26.4 0 40 0 C40 13.2 40 26.4 40 40 C26.8 40 13.6 40 0 40 C0 26.8 0 13.6 0 0 Z " fill="#7F7F7F" transform="translate(120,1160)"/>
<path d="M0 0 C13.2 0 26.4 0 40 0 C40 13.2 40 26.4 40 40 C26.8 40 13.6 40 0 40 C0 26.8 0 13.6 0 0 Z " fill="#7F7E7F" transform="translate(960,1080)"/>
<path d="M0 0 C13.2 0 26.4 0 40 0 C40 13.2 40 26.4 40 40 C26.8 40 13.6 40 0 40 C0 26.8 0 13.6 0 0 Z " fill="#6B3805" transform="translate(480,1080)"/>
<path d="M0 0 C13.2 0 26.4 0 40 0 C40 13.2 40 26.4 40 40 C26.8 40 13.6 40 0 40 C0 26.8 0 13.6 0 0 Z " fill="#6A3804" transform="translate(840,1040)"/>
<path d="M0 0 C13.2 0 26.4 0 40 0 C40 13.2 40 26.4 40 40 C26.8 40 13.6 40 0 40 C0 26.8 0 13.6 0 0 Z " fill="#D4791C" transform="translate(520,1040)"/>
<path d="M0 0 C13.2 0 26.4 0 40 0 C40 13.2 40 26.4 40 40 C26.8 40 13.6 40 0 40 C0 26.8 0 13.6 0 0 Z " fill="#FF880B" transform="translate(480,1040)"/>
<path d="M0 0 C13.2 0 26.4 0 40 0 C40 13.2 40 26.4 40 40 C26.8 40 13.6 40 0 40 C0 26.8 0 13.6 0 0 Z " fill="#6B3805" transform="translate(440,1040)"/>
<path d="M0 0 C13.2 0 26.4 0 40 0 C40 13.2 40 26.4 40 40 C26.8 40 13.6 40 0 40 C0 26.8 0 13.6 0 0 Z " fill="#846146" transform="translate(400,1040)"/>
<path d="M0 0 C13.2 0 26.4 0 40 0 C40 13.2 40 26.4 40 40 C26.8 40 13.6 40 0 40 C0 26.8 0 13.6 0 0 Z " fill="#6A3805" transform="translate(880,1000)"/>
<path d="M0 0 C13.2 0 26.4 0 40 0 C40 13.2 40 26.4 40 40 C26.8 40 13.6 40 0 40 C0 26.8 0 13.6 0 0 Z " fill="#FF880B" transform="translate(840,1000)"/>
<path d="M0 0 C13.2 0 26.4 0 40 0 C40 13.2 40 26.4 40 40 C26.8 40 13.6 40 0 40 C0 26.8 0 13.6 0 0 Z " fill="#D4791D" transform="translate(760,1000)"/>
<path d="M0 0 C13.2 0 26.4 0 40 0 C40 13.2 40 26.4 40 40 C26.8 40 13.6 40 0 40 C0 26.8 0 13.6 0 0 Z " fill="#7E7F7F" transform="translate(1160,960)"/>
<path d="M0 0 C13.2 0 26.4 0 40 0 C40 13.2 40 26.4 40 40 C26.8 40 13.6 40 0 40 C0 26.8 0 13.6 0 0 Z " fill="#FF880A" transform="translate(880,960)"/>
<path d="M0 0 C13.2 0 26.4 0 40 0 C40 13.2 40 26.4 40 40 C26.8 40 13.6 40 0 40 C0 26.8 0 13.6 0 0 Z " fill="#D4791D" transform="translate(480,960)"/>
<path d="M0 0 C13.2 0 26.4 0 40 0 C40 13.2 40 26.4 40 40 C26.8 40 13.6 40 0 40 C0 26.8 0 13.6 0 0 Z " fill="#7A553C" transform="translate(1240,920)"/>
<path d="M0 0 C13.2 0 26.4 0 40 0 C40 13.2 40 26.4 40 40 C26.8 40 13.6 40 0 40 C0 26.8 0 13.6 0 0 Z " fill="#7A553C" transform="translate(0,920)"/>
<path d="M0 0 C13.2 0 26.4 0 40 0 C40 13.2 40 26.4 40 40 C26.8 40 13.6 40 0 40 C0 26.8 0 13.6 0 0 Z " fill="#D4781D" transform="translate(560,880)"/>
<path d="M0 0 C13.2 0 26.4 0 40 0 C40 13.2 40 26.4 40 40 C26.8 40 13.6 40 0 40 C0 26.8 0 13.6 0 0 Z " fill="#542E1A" transform="translate(480,800)"/>
<path d="M0 0 C13.2 0 26.4 0 40 0 C40 13.2 40 26.4 40 40 C26.8 40 13.6 40 0 40 C0 26.8 0 13.6 0 0 Z " fill="#D07340" transform="translate(440,800)"/>
<path d="M0 0 C13.2 0 26.4 0 40 0 C40 13.2 40 26.4 40 40 C26.8 40 13.6 40 0 40 C0 26.8 0 13.6 0 0 Z " fill="#7A4325" transform="translate(360,800)"/>
<path d="M0 0 C13.2 0 26.4 0 40 0 C40 13.2 40 26.4 40 40 C26.8 40 13.6 40 0 40 C0 26.8 0 13.6 0 0 Z " fill="#D07340" transform="translate(480,760)"/>
<path d="M0 0 C13.2 0 26.4 0 40 0 C40 13.2 40 26.4 40 40 C26.8 40 13.6 40 0 40 C0 26.8 0 13.6 0 0 Z " fill="#542E1A" transform="translate(600,720)"/>
<path d="M0 0 C13.2 0 26.4 0 40 0 C40 13.2 40 26.4 40 40 C26.8 40 13.6 40 0 40 C0 26.8 0 13.6 0 0 Z " fill="#542E1A" transform="translate(480,720)"/>
<path d="M0 0 C13.2 0 26.4 0 40 0 C40 13.2 40 26.4 40 40 C26.8 40 13.6 40 0 40 C0 26.8 0 13.6 0 0 Z " fill="#FFA114" transform="translate(440,720)"/>
<path d="M0 0 C13.2 0 26.4 0 40 0 C40 13.2 40 26.4 40 40 C26.8 40 13.6 40 0 40 C0 26.8 0 13.6 0 0 Z " fill="#D7822E" transform="translate(840,680)"/>
<path d="M0 0 C13.2 0 26.4 0 40 0 C40 13.2 40 26.4 40 40 C26.8 40 13.6 40 0 40 C0 26.8 0 13.6 0 0 Z " fill="#7EFFFF" transform="translate(560,680)"/>
<path d="M0 0 C13.2 0 26.4 0 40 0 C40 13.2 40 26.4 40 40 C26.8 40 13.6 40 0 40 C0 26.8 0 13.6 0 0 Z " fill="#4E9E9E" transform="translate(520,680)"/>
<path d="M0 0 C13.2 0 26.4 0 40 0 C40 13.2 40 26.4 40 40 C26.8 40 13.6 40 0 40 C0 26.8 0 13.6 0 0 Z " fill="#D07240" transform="translate(480,680)"/>
<path d="M0 0 C13.2 0 26.4 0 40 0 C40 13.2 40 26.4 40 40 C26.8 40 13.6 40 0 40 C0 26.8 0 13.6 0 0 Z " fill="#C88D40" transform="translate(1040,640)"/>
<path d="M0 0 C13.2 0 26.4 0 40 0 C40 13.2 40 26.4 40 40 C26.8 40 13.6 40 0 40 C0 26.8 0 13.6 0 0 Z " fill="#C88D40" transform="translate(960,640)"/>
<path d="M0 0 C13.2 0 26.4 0 40 0 C40 13.2 40 26.4 40 40 C26.8 40 13.6 40 0 40 C0 26.8 0 13.6 0 0 Z " fill="#FFFEFF" transform="translate(800,640)"/>
<path d="M0 0 C13.2 0 26.4 0 40 0 C40 13.2 40 26.4 40 40 C26.8 40 13.6 40 0 40 C0 26.8 0 13.6 0 0 Z " fill="#EA8E47" transform="translate(600,640)"/>
<path d="M0 0 C13.2 0 26.4 0 40 0 C40 13.2 40 26.4 40 40 C26.8 40 13.6 40 0 40 C0 26.8 0 13.6 0 0 Z " fill="#7FFFFF" transform="translate(520,640)"/>
<path d="M0 0 C13.2 0 26.4 0 40 0 C40 13.2 40 26.4 40 40 C26.8 40 13.6 40 0 40 C0 26.8 0 13.6 0 0 Z " fill="#EA8E47" transform="translate(480,640)"/>
<path d="M0 0 C13.2 0 26.4 0 40 0 C40 13.2 40 26.4 40 40 C26.8 40 13.6 40 0 40 C0 26.8 0 13.6 0 0 Z " fill="#484C20" transform="translate(1080,600)"/>
<path d="M0 0 C13.2 0 26.4 0 40 0 C40 13.2 40 26.4 40 40 C26.8 40 13.6 40 0 40 C0 26.8 0 13.6 0 0 Z " fill="#C88D40" transform="translate(1000,600)"/>
<path d="M0 0 C13.2 0 26.4 0 40 0 C40 13.2 40 26.4 40 40 C26.8 40 13.6 40 0 40 C0 26.8 0 13.6 0 0 Z " fill="#542E1A" transform="translate(600,600)"/>
<path d="M0 0 C13.2 0 26.4 0 40 0 C40 13.2 40 26.4 40 40 C26.8 40 13.6 40 0 40 C0 26.8 0 13.6 0 0 Z " fill="#EA8E47" transform="translate(560,600)"/>
<path d="M0 0 C13.2 0 26.4 0 40 0 C40 13.2 40 26.4 40 40 C26.8 40 13.6 40 0 40 C0 26.8 0 13.6 0 0 Z " fill="#FEFFFE" transform="translate(1080,560)"/>
<path d="M0 0 C13.2 0 26.4 0 40 0 C40 13.2 40 26.4 40 40 C26.8 40 13.6 40 0 40 C0 26.8 0 13.6 0 0 Z " fill="#484C20" transform="translate(1040,560)"/>
<path d="M0 0 C13.2 0 26.4 0 40 0 C40 13.2 40 26.4 40 40 C26.8 40 13.6 40 0 40 C0 26.8 0 13.6 0 0 Z " fill="#C4B683" transform="translate(360,520)"/>
<path d="M0 0 C13.2 0 26.4 0 40 0 C40 13.2 40 26.4 40 40 C26.8 40 13.6 40 0 40 C0 26.8 0 13.6 0 0 Z " fill="#7F0000" transform="translate(1160,480)"/>
<path d="M0 0 C13.2 0 26.4 0 40 0 C40 13.2 40 26.4 40 40 C26.8 40 13.6 40 0 40 C0 26.8 0 13.6 0 0 Z " fill="#FFFFFE" transform="translate(1120,480)"/>
<path d="M0 0 C13.2 0 26.4 0 40 0 C40 13.2 40 26.4 40 40 C26.8 40 13.6 40 0 40 C0 26.8 0 13.6 0 0 Z " fill="#7F0000" transform="translate(1120,440)"/>
<path d="M0 0 C13.2 0 26.4 0 40 0 C40 13.2 40 26.4 40 40 C26.8 40 13.6 40 0 40 C0 26.8 0 13.6 0 0 Z " fill="#FFFFFF" transform="translate(1040,440)"/>
<path d="M0 0 C13.2 0 26.4 0 40 0 C40 13.2 40 26.4 40 40 C26.8 40 13.6 40 0 40 C0 26.8 0 13.6 0 0 Z " fill="#C88D40" transform="translate(1160,400)"/>
<path d="M0 0 C13.2 0 26.4 0 40 0 C40 13.2 40 26.4 40 40 C26.8 40 13.6 40 0 40 C0 26.8 0 13.6 0 0 Z " fill="#C88D40" transform="translate(880,400)"/>
<path d="M0 0 C13.2 0 26.4 0 40 0 C40 13.2 40 26.4 40 40 C26.8 40 13.6 40 0 40 C0 26.8 0 13.6 0 0 Z " fill="#C4B782" transform="translate(480,400)"/>
<path d="M0 0 C13.2 0 26.4 0 40 0 C40 13.2 40 26.4 40 40 C26.8 40 13.6 40 0 40 C0 26.8 0 13.6 0 0 Z " fill="#C88D40" transform="translate(840,360)"/>
<path d="M0 0 C13.2 0 26.4 0 40 0 C40 13.2 40 26.4 40 40 C26.8 40 13.6 40 0 40 C0 26.8 0 13.6 0 0 Z " fill="#3F3A2A" transform="translate(800,360)"/>
<path d="M0 0 C13.2 0 26.4 0 40 0 C40 13.2 40 26.4 40 40 C26.8 40 13.6 40 0 40 C0 26.8 0 13.6 0 0 Z " fill="#C4B682" transform="translate(520,360)"/>
<path d="M0 0 C13.2 0 26.4 0 40 0 C40 13.2 40 26.4 40 40 C26.8 40 13.6 40 0 40 C0 26.8 0 13.6 0 0 Z " fill="#3E3B2A" transform="translate(480,360)"/>
<path d="M0 0 C13.2 0 26.4 0 40 0 C40 13.2 40 26.4 40 40 C26.8 40 13.6 40 0 40 C0 26.8 0 13.6 0 0 Z " fill="#C88C40" transform="translate(440,360)"/>
<path d="M0 0 C13.2 0 26.4 0 40 0 C40 13.2 40 26.4 40 40 C26.8 40 13.6 40 0 40 C0 26.8 0 13.6 0 0 Z " fill="#8F9945" transform="translate(960,320)"/>
<path d="M0 0 C13.2 0 26.4 0 40 0 C40 13.2 40 26.4 40 40 C26.8 40 13.6 40 0 40 C0 26.8 0 13.6 0 0 Z " fill="#C88D40" transform="translate(480,320)"/>
<path d="M0 0 C13.2 0 26.4 0 40 0 C40 13.2 40 26.4 40 40 C26.8 40 13.6 40 0 40 C0 26.8 0 13.6 0 0 Z " fill="#7F0000" transform="translate(320,280)"/>
<path d="M0 0 C13.2 0 26.4 0 40 0 C40 13.2 40 26.4 40 40 C26.8 40 13.6 40 0 40 C0 26.8 0 13.6 0 0 Z " fill="#FFFFFF" transform="translate(280,280)"/>
<path d="M0 0 C13.2 0 26.4 0 40 0 C40 13.2 40 26.4 40 40 C26.8 40 13.6 40 0 40 C0 26.8 0 13.6 0 0 Z " fill="#7F0000" transform="translate(120,280)"/>
<path d="M0 0 C13.2 0 26.4 0 40 0 C40 13.2 40 26.4 40 40 C26.8 40 13.6 40 0 40 C0 26.8 0 13.6 0 0 Z " fill="#C88D40" transform="translate(80,280)"/>
<path d="M0 0 C13.2 0 26.4 0 40 0 C40 13.2 40 26.4 40 40 C26.8 40 13.6 40 0 40 C0 26.8 0 13.6 0 0 Z " fill="#8F9945" transform="translate(640,240)"/>
<path d="M0 0 C13.2 0 26.4 0 40 0 C40 13.2 40 26.4 40 40 C26.8 40 13.6 40 0 40 C0 26.8 0 13.6 0 0 Z " fill="#FFFFFE" transform="translate(200,240)"/>
<path d="M0 0 C13.2 0 26.4 0 40 0 C40 13.2 40 26.4 40 40 C26.8 40 13.6 40 0 40 C0 26.8 0 13.6 0 0 Z " fill="#FFFEFE" transform="translate(120,240)"/>
<path d="M0 0 C13.2 0 26.4 0 40 0 C40 13.2 40 26.4 40 40 C26.8 40 13.6 40 0 40 C0 26.8 0 13.6 0 0 Z " fill="#FEFFFF" transform="translate(280,200)"/>
<path d="M0 0 C13.2 0 26.4 0 40 0 C40 13.2 40 26.4 40 40 C26.8 40 13.6 40 0 40 C0 26.8 0 13.6 0 0 Z " fill="#7E0000" transform="translate(320,160)"/>
<path d="M0 0 C13.2 0 26.4 0 40 0 C40 13.2 40 26.4 40 40 C26.8 40 13.6 40 0 40 C0 26.8 0 13.6 0 0 Z " fill="#FEFEFF" transform="translate(160,160)"/>
<path d="M0 0 C13.2 0 26.4 0 40 0 C40 13.2 40 26.4 40 40 C26.8 40 13.6 40 0 40 C0 26.8 0 13.6 0 0 Z " fill="#7F0000" transform="translate(120,160)"/>
<path d="M0 0 C13.2 0 26.4 0 40 0 C40 13.2 40 26.4 40 40 C26.8 40 13.6 40 0 40 C0 26.8 0 13.6 0 0 Z " fill="#C88D40" transform="translate(1120,120)"/>
<path d="M0 0 C13.2 0 26.4 0 40 0 C40 13.2 40 26.4 40 40 C26.8 40 13.6 40 0 40 C0 26.8 0 13.6 0 0 Z " fill="#C88C40" transform="translate(680,120)"/>
<path d="M0 0 C13.2 0 26.4 0 40 0 C40 13.2 40 26.4 40 40 C26.8 40 13.6 40 0 40 C0 26.8 0 13.6 0 0 Z " fill="#C88C40" transform="translate(600,120)"/>
<path d="M0 0 C13.2 0 26.4 0 40 0 C40 13.2 40 26.4 40 40 C26.8 40 13.6 40 0 40 C0 26.8 0 13.6 0 0 Z " fill="#8F9845" transform="translate(80,120)"/>
<path d="M0 0 C13.2 0 26.4 0 40 0 C40 13.2 40 26.4 40 40 C26.8 40 13.6 40 0 40 C0 26.8 0 13.6 0 0 Z " fill="#8F9945" transform="translate(1000,80)"/>
<path d="M0 0 C13.2 0 26.4 0 40 0 C40 13.2 40 26.4 40 40 C26.8 40 13.6 40 0 40 C0 26.8 0 13.6 0 0 Z " fill="#8E9945" transform="translate(840,80)"/>
<path d="M0 0 C13.2 0 26.4 0 40 0 C40 13.2 40 26.4 40 40 C26.8 40 13.6 40 0 40 C0 26.8 0 13.6 0 0 Z " fill="#C88D40" transform="translate(640,80)"/>
</svg>
