<?xml version="1.0" encoding="UTF-8"?>
<svg version="1.1" xmlns="http://www.w3.org/2000/svg" width="1280" height="1280">
<path d="M0 0 C422.4 0 844.8 0 1280 0 C1280 422.4 1280 844.8 1280 1280 C857.6 1280 435.2 1280 0 1280 C0 857.6 0 435.2 0 0 Z " fill="#D8A066" transform="translate(0,0)"/>
<path d="M0 0 C422.4 0 844.8 0 1280 0 C1280 264 1280 528 1280 800 C1240.4 800 1200.8 800 1160 800 C1160 813.2 1160 826.4 1160 840 C1133.6 840 1107.2 840 1080 840 C1080 826.8 1080 813.6 1080 800 C1040.4 800 1000.8 800 960 800 C960 773.6 960 747.2 960 720 C946.8 720 933.6 720 920 720 C920 693.6 920 667.2 920 640 C933.2 640 946.4 640 960 640 C960 626.8 960 613.6 960 600 C973.2 600 986.4 600 1000 600 C1000 586.8 1000 573.6 1000 560 C1013.2 560 1026.4 560 1040 560 C1040 546.8 1040 533.6 1040 520 C1053.2 520 1066.4 520 1080 520 C1080 480.4 1080 440.8 1080 400 C1000.8 400 921.6 400 840 400 C840 360.4 840 320.8 840 280 C826.8 280 813.6 280 800 280 C800 240.4 800 200.8 800 160 C786.8 160 773.6 160 760 160 C760 133.6 760 107.2 760 80 C746.8 80 733.6 80 720 80 C720 66.8 720 53.6 720 40 C680.4 40 640.8 40 600 40 C600 53.2 600 66.4 600 80 C586.8 80 573.6 80 560 80 C560 106.4 560 132.8 560 160 C546.8 160 533.6 160 520 160 C520 199.6 520 239.2 520 280 C506.8 280 493.6 280 480 280 C480 319.6 480 359.2 480 400 C400.8 400 321.6 400 240 400 C240 439.6 240 479.2 240 520 C253.2 520 266.4 520 280 520 C280 533.2 280 546.4 280 560 C293.2 560 306.4 560 320 560 C320 573.2 320 586.4 320 600 C333.2 600 346.4 600 360 600 C360 613.2 360 626.4 360 640 C373.2 640 386.4 640 400 640 C400 653.2 400 666.4 400 680 C386.8 680 373.6 680 360 680 C360 732.8 360 785.6 360 840 C346.8 840 333.6 840 320 840 C320 826.8 320 813.6 320 800 C280.4 800 240.8 800 200 800 C200 813.2 200 826.4 200 840 C173.6 840 147.2 840 120 840 C120 826.8 120 813.6 120 800 C80.4 800 40.8 800 0 800 C0 536 0 272 0 0 Z " fill="#FCD58F" transform="translate(0,0)"/>
<path d="M0 0 C39.6 0 79.2 0 120 0 C120 13.2 120 26.4 120 40 C133.2 40 146.4 40 160 40 C160 66.4 160 92.8 160 120 C173.2 120 186.4 120 200 120 C200 159.6 200 199.2 200 240 C213.2 240 226.4 240 240 240 C240 279.6 240 319.2 240 360 C319.2 360 398.4 360 480 360 C480 399.6 480 439.2 480 480 C466.8 480 453.6 480 440 480 C440 493.2 440 506.4 440 520 C426.8 520 413.6 520 400 520 C400 533.2 400 546.4 400 560 C386.8 560 373.6 560 360 560 C360 573.2 360 586.4 360 600 C346.8 600 333.6 600 320 600 C320 626.4 320 652.8 320 680 C306.8 680 293.6 680 280 680 C280 653.6 280 627.2 280 600 C266.8 600 253.6 600 240 600 C240 626.4 240 652.8 240 680 C213.6 680 187.2 680 160 680 C160 653.6 160 627.2 160 600 C107.2 600 54.4 600 0 600 C0 626.4 0 652.8 0 680 C-26.4 680 -52.8 680 -80 680 C-80 653.6 -80 627.2 -80 600 C-106.4 600 -132.8 600 -160 600 C-160 613.2 -160 626.4 -160 640 C-173.2 640 -186.4 640 -200 640 C-200 626.8 -200 613.6 -200 600 C-213.2 600 -226.4 600 -240 600 C-240 586.8 -240 573.6 -240 560 C-253.2 560 -266.4 560 -280 560 C-280 546.8 -280 533.6 -280 520 C-293.2 520 -306.4 520 -320 520 C-320 506.8 -320 493.6 -320 480 C-333.2 480 -346.4 480 -360 480 C-360 440.4 -360 400.8 -360 360 C-280.8 360 -201.6 360 -120 360 C-120 320.4 -120 280.8 -120 240 C-106.8 240 -93.6 240 -80 240 C-80 200.4 -80 160.8 -80 120 C-66.8 120 -53.6 120 -40 120 C-40 93.6 -40 67.2 -40 40 C-26.8 40 -13.6 40 0 40 C0 26.8 0 13.6 0 0 Z " fill="#AE702E" transform="translate(600,40)"/>
<path d="M0 0 C13.2 0 26.4 0 40 0 C40 13.2 40 26.4 40 40 C66.4 40 92.8 40 120 40 C120 53.2 120 66.4 120 80 C146.4 80 172.8 80 200 80 C200 93.2 200 106.4 200 120 C239.6 120 279.2 120 320 120 C320 106.8 320 93.6 320 80 C346.4 80 372.8 80 400 80 C400 53.6 400 27.2 400 0 C413.2 0 426.4 0 440 0 C440 26.4 440 52.8 440 80 C453.2 80 466.4 80 480 80 C480 93.2 480 106.4 480 120 C493.2 120 506.4 120 520 120 C520 133.2 520 146.4 520 160 C599.2 160 678.4 160 760 160 C760 146.8 760 133.6 760 120 C786.4 120 812.8 120 840 120 C840 106.8 840 93.6 840 80 C853.2 80 866.4 80 880 80 C880 66.8 880 53.6 880 40 C893.2 40 906.4 40 920 40 C920 53.2 920 66.4 920 80 C933.2 80 946.4 80 960 80 C960 93.2 960 106.4 960 120 C999.6 120 1039.2 120 1080 120 C1080 106.8 1080 93.6 1080 80 C1106.4 80 1132.8 80 1160 80 C1160 66.8 1160 53.6 1160 40 C1186.4 40 1212.8 40 1240 40 C1240 26.8 1240 13.6 1240 0 C1253.2 0 1266.4 0 1280 0 C1280 105.6 1280 211.2 1280 320 C857.6 320 435.2 320 0 320 C0 214.4 0 108.8 0 0 Z " fill="#52323E" transform="translate(0,960)"/>
<path d="M0 0 C92.4 0 184.8 0 280 0 C280 13.2 280 26.4 280 40 C293.2 40 306.4 40 320 40 C320 26.8 320 13.6 320 0 C399.2 0 478.4 0 560 0 C560 13.2 560 26.4 560 40 C546.8 40 533.6 40 520 40 C520 66.4 520 92.8 520 120 C506.8 120 493.6 120 480 120 C480 159.6 480 199.2 480 240 C466.8 240 453.6 240 440 240 C440 279.6 440 319.2 440 360 C360.8 360 281.6 360 200 360 C200 399.6 200 439.2 200 480 C213.2 480 226.4 480 240 480 C240 493.2 240 506.4 240 520 C253.2 520 266.4 520 280 520 C280 533.2 280 546.4 280 560 C293.2 560 306.4 560 320 560 C320 573.2 320 586.4 320 600 C333.2 600 346.4 600 360 600 C360 613.2 360 626.4 360 640 C346.8 640 333.6 640 320 640 C320 666.4 320 692.8 320 720 C293.6 720 267.2 720 240 720 C240 706.8 240 693.6 240 680 C213.6 680 187.2 680 160 680 C160 693.2 160 706.4 160 720 C133.6 720 107.2 720 80 720 C80 706.8 80 693.6 80 680 C66.8 680 53.6 680 40 680 C40 693.2 40 706.4 40 720 C26.8 720 13.6 720 0 720 C0 482.4 0 244.8 0 0 Z " fill="#FCD48E" transform="translate(40,40)"/>
<path d="M0 0 C422.4 0 844.8 0 1280 0 C1280 264 1280 528 1280 800 C1240.4 800 1200.8 800 1160 800 C1160 813.2 1160 826.4 1160 840 C1133.6 840 1107.2 840 1080 840 C1080 826.8 1080 813.6 1080 800 C1040.4 800 1000.8 800 960 800 C960 786.8 960 773.6 960 760 C973.2 760 986.4 760 1000 760 C1000 746.8 1000 733.6 1000 720 C1026.4 720 1052.8 720 1080 720 C1080 733.2 1080 746.4 1080 760 C1106.4 760 1132.8 760 1160 760 C1160 746.8 1160 733.6 1160 720 C1173.2 720 1186.4 720 1200 720 C1200 733.2 1200 746.4 1200 760 C1213.2 760 1226.4 760 1240 760 C1240 667.6 1240 575.2 1240 480 C1213.6 480 1187.2 480 1160 480 C1160 466.8 1160 453.6 1160 440 C1186.4 440 1212.8 440 1240 440 C1240 308 1240 176 1240 40 C949.6 40 659.2 40 360 40 C360 53.2 360 66.4 360 80 C346.8 80 333.6 80 320 80 C320 66.8 320 53.6 320 40 C227.6 40 135.2 40 40 40 C40 277.6 40 515.2 40 760 C53.2 760 66.4 760 80 760 C80 746.8 80 733.6 80 720 C93.2 720 106.4 720 120 720 C120 733.2 120 746.4 120 760 C146.4 760 172.8 760 200 760 C200 746.8 200 733.6 200 720 C226.4 720 252.8 720 280 720 C280 733.2 280 746.4 280 760 C306.4 760 332.8 760 360 760 C360 786.4 360 812.8 360 840 C346.8 840 333.6 840 320 840 C320 826.8 320 813.6 320 800 C280.4 800 240.8 800 200 800 C200 813.2 200 826.4 200 840 C173.6 840 147.2 840 120 840 C120 826.8 120 813.6 120 800 C80.4 800 40.8 800 0 800 C0 536 0 272 0 0 Z " fill="#FCE0B0" transform="translate(0,0)"/>
<path d="M0 0 C13.2 0 26.4 0 40 0 C40 118.8 40 237.6 40 360 C13.6 360 -12.8 360 -40 360 C-40 373.2 -40 386.4 -40 400 C-79.6 400 -119.2 400 -160 400 C-160 386.8 -160 373.6 -160 360 C-186.4 360 -212.8 360 -240 360 C-240 346.8 -240 333.6 -240 320 C-266.4 320 -292.8 320 -320 320 C-320 306.8 -320 293.6 -320 280 C-333.2 280 -346.4 280 -360 280 C-360 227.2 -360 174.4 -360 120 C-320.4 120 -280.8 120 -240 120 C-240 133.2 -240 146.4 -240 160 C-213.6 160 -187.2 160 -160 160 C-160 146.8 -160 133.6 -160 120 C-120.4 120 -80.8 120 -40 120 C-40 133.2 -40 146.4 -40 160 C-26.8 160 -13.6 160 0 160 C0 107.2 0 54.4 0 0 Z " fill="#8E4C56" transform="translate(360,680)"/>
<path d="M0 0 C13.2 0 26.4 0 40 0 C40 26.4 40 52.8 40 80 C79.6 80 119.2 80 160 80 C160 93.2 160 106.4 160 120 C186.4 120 212.8 120 240 120 C240 106.8 240 93.6 240 80 C279.6 80 319.2 80 360 80 C360 132.8 360 185.6 360 240 C346.8 240 333.6 240 320 240 C320 253.2 320 266.4 320 280 C293.6 280 267.2 280 240 280 C240 293.2 240 306.4 240 320 C213.6 320 187.2 320 160 320 C160 333.2 160 346.4 160 360 C120.4 360 80.8 360 40 360 C40 346.8 40 333.6 40 320 C26.8 320 13.6 320 0 320 C0 214.4 0 108.8 0 0 Z " fill="#8E4C56" transform="translate(920,720)"/>
<path d="M0 0 C39.6 0 79.2 0 120 0 C120 13.2 120 26.4 120 40 C133.2 40 146.4 40 160 40 C160 66.4 160 92.8 160 120 C173.2 120 186.4 120 200 120 C200 199.2 200 278.4 200 360 C120.8 360 41.6 360 -40 360 C-40 254.4 -40 148.8 -40 40 C-26.8 40 -13.6 40 0 40 C0 26.8 0 13.6 0 0 Z " fill="#CA8E50" transform="translate(600,40)"/>
<path d="M0 0 C13.2 0 26.4 0 40 0 C40 92.4 40 184.8 40 280 C436 280 832 280 1240 280 C1240 187.6 1240 95.2 1240 0 C1253.2 0 1266.4 0 1280 0 C1280 105.6 1280 211.2 1280 320 C857.6 320 435.2 320 0 320 C0 214.4 0 108.8 0 0 Z " fill="#422832" transform="translate(0,960)"/>
<path d="M0 0 C13.2 0 26.4 0 40 0 C40 79.2 40 158.4 40 240 C119.2 240 198.4 240 280 240 C280 200.4 280 160.8 280 120 C293.2 120 306.4 120 320 120 C320 159.6 320 199.2 320 240 C399.2 240 478.4 240 560 240 C560 279.6 560 319.2 560 360 C546.8 360 533.6 360 520 360 C520 333.6 520 307.2 520 280 C269.2 280 18.4 280 -240 280 C-240 306.4 -240 332.8 -240 360 C-253.2 360 -266.4 360 -280 360 C-280 320.4 -280 280.8 -280 240 C-200.8 240 -121.6 240 -40 240 C-40 200.4 -40 160.8 -40 120 C-26.8 120 -13.6 120 0 120 C0 80.4 0 40.8 0 0 Z " fill="#582C00" transform="translate(520,160)"/>
<path d="M0 0 C13.2 0 26.4 0 40 0 C40 13.2 40 26.4 40 40 C53.2 40 66.4 40 80 40 C80 53.2 80 66.4 80 80 C251.6 80 423.2 80 600 80 C600 93.2 600 106.4 600 120 C586.8 120 573.6 120 560 120 C560 146.4 560 172.8 560 200 C546.8 200 533.6 200 520 200 C520 173.6 520 147.2 520 120 C506.8 120 493.6 120 480 120 C480 146.4 480 172.8 480 200 C453.6 200 427.2 200 400 200 C400 173.6 400 147.2 400 120 C347.2 120 294.4 120 240 120 C240 146.4 240 172.8 240 200 C213.6 200 187.2 200 160 200 C160 173.6 160 147.2 160 120 C133.6 120 107.2 120 80 120 C80 133.2 80 146.4 80 160 C66.8 160 53.6 160 40 160 C40 146.8 40 133.6 40 120 C26.8 120 13.6 120 0 120 C0 106.8 0 93.6 0 80 C-13.2 80 -26.4 80 -40 80 C-40 66.8 -40 53.6 -40 40 C-26.8 40 -13.6 40 0 40 C0 26.8 0 13.6 0 0 Z " fill="#582C00" transform="translate(360,520)"/>
<path d="M0 0 C52.8 0 105.6 0 160 0 C160 13.2 160 26.4 160 40 C173.2 40 186.4 40 200 40 C200 53.2 200 66.4 200 80 C213.2 80 226.4 80 240 80 C240 66.8 240 53.6 240 40 C253.2 40 266.4 40 280 40 C280 66.4 280 92.8 280 120 C266.8 120 253.6 120 240 120 C240 133.2 240 146.4 240 160 C213.6 160 187.2 160 160 160 C160 146.8 160 133.6 160 120 C146.8 120 133.6 120 120 120 C120 106.8 120 93.6 120 80 C93.6 80 67.2 80 40 80 C40 93.2 40 106.4 40 120 C26.8 120 13.6 120 0 120 C0 133.2 0 146.4 0 160 C-26.4 160 -52.8 160 -80 160 C-80 146.8 -80 133.6 -80 120 C-93.2 120 -106.4 120 -120 120 C-120 93.6 -120 67.2 -120 40 C-106.8 40 -93.6 40 -80 40 C-80 53.2 -80 66.4 -80 80 C-66.8 80 -53.6 80 -40 80 C-40 66.8 -40 53.6 -40 40 C-26.8 40 -13.6 40 0 40 C0 26.8 0 13.6 0 0 Z " fill="#262626" transform="translate(600,760)"/>
<path d="M0 0 C26.4 0 52.8 0 80 0 C80 13.2 80 26.4 80 40 C106.4 40 132.8 40 160 40 C160 26.8 160 13.6 160 0 C199.6 0 239.2 0 280 0 C280 13.2 280 26.4 280 40 C293.2 40 306.4 40 320 40 C320 66.4 320 92.8 320 120 C306.8 120 293.6 120 280 120 C280 133.2 280 146.4 280 160 C240.4 160 200.8 160 160 160 C160 146.8 160 133.6 160 120 C133.6 120 107.2 120 80 120 C80 106.8 80 93.6 80 80 C53.6 80 27.2 80 0 80 C0 53.6 0 27.2 0 0 Z " fill="#BC6A62" transform="translate(40,800)"/>
<path d="M0 0 C92.4 0 184.8 0 280 0 C280 13.2 280 26.4 280 40 C266.8 40 253.6 40 240 40 C240 53.2 240 66.4 240 80 C200.4 80 160.8 80 120 80 C120 93.2 120 106.4 120 120 C106.8 120 93.6 120 80 120 C80 159.6 80 199.2 80 240 C53.6 240 27.2 240 0 240 C0 160.8 0 81.6 0 0 Z " fill="#FCD48E" transform="translate(40,40)"/>
<path d="M0 0 C39.6 0 79.2 0 120 0 C120 13.2 120 26.4 120 40 C146.4 40 172.8 40 200 40 C200 26.8 200 13.6 200 0 C226.4 0 252.8 0 280 0 C280 26.4 280 52.8 280 80 C253.6 80 227.2 80 200 80 C200 93.2 200 106.4 200 120 C173.6 120 147.2 120 120 120 C120 133.2 120 146.4 120 160 C80.4 160 40.8 160 0 160 C0 107.2 0 54.4 0 0 Z " fill="#BC6A62" transform="translate(960,800)"/>
<path d="M0 0 C224.4 0 448.8 0 680 0 C680 13.2 680 26.4 680 40 C455.6 40 231.2 40 0 40 C0 26.8 0 13.6 0 0 Z " fill="#CA8E50" transform="translate(360,440)"/>
<path d="M0 0 C171.6 0 343.2 0 520 0 C520 13.2 520 26.4 520 40 C348.4 40 176.8 40 0 40 C0 26.8 0 13.6 0 0 Z " fill="#CA8E50" transform="translate(440,560)"/>
<path d="M0 0 C52.8 0 105.6 0 160 0 C160 39.6 160 79.2 160 120 C107.2 120 54.4 120 0 120 C0 80.4 0 40.8 0 0 Z " fill="#D9A066" transform="translate(600,640)"/>
<path d="M0 0 C26.4 0 52.8 0 80 0 C80 39.6 80 79.2 80 120 C66.8 120 53.6 120 40 120 C40 133.2 40 146.4 40 160 C13.6 160 -12.8 160 -40 160 C-40 120.4 -40 80.8 -40 40 C-26.8 40 -13.6 40 0 40 C0 26.8 0 13.6 0 0 Z " fill="#FDD48E" transform="translate(160,120)"/>
<path d="M0 0 C26.4 0 52.8 0 80 0 C80 13.2 80 26.4 80 40 C146 40 212 40 280 40 C280 53.2 280 66.4 280 80 C200.8 80 121.6 80 40 80 C40 66.8 40 53.6 40 40 C26.8 40 13.6 40 0 40 C0 26.8 0 13.6 0 0 Z " fill="#BA8855" transform="translate(480,1040)"/>
<path d="M0 0 C13.2 0 26.4 0 40 0 C40 92.4 40 184.8 40 280 C26.8 280 13.6 280 0 280 C0 187.6 0 95.2 0 0 Z " fill="#564028" transform="translate(920,720)"/>
<path d="M0 0 C13.2 0 26.4 0 40 0 C40 92.4 40 184.8 40 280 C26.8 280 13.6 280 0 280 C0 187.6 0 95.2 0 0 Z " fill="#BA8854" transform="translate(400,680)"/>
<path d="M0 0 C13.2 0 26.4 0 40 0 C40 92.4 40 184.8 40 280 C26.8 280 13.6 280 0 280 C0 187.6 0 95.2 0 0 Z " fill="#564029" transform="translate(360,680)"/>
<path d="M0 0 C13.2 0 26.4 0 40 0 C40 39.6 40 79.2 40 120 C-12.8 120 -65.6 120 -120 120 C-120 106.8 -120 93.6 -120 80 C-93.6 80 -67.2 80 -40 80 C-40 66.8 -40 53.6 -40 40 C-26.8 40 -13.6 40 0 40 C0 26.8 0 13.6 0 0 Z " fill="#FCD895" transform="translate(440,280)"/>
<path d="M0 0 C39.6 0 79.2 0 120 0 C120 13.2 120 26.4 120 40 C93.6 40 67.2 40 40 40 C40 66.4 40 92.8 40 120 C13.6 120 -12.8 120 -40 120 C-40 93.6 -40 67.2 -40 40 C-26.8 40 -13.6 40 0 40 C0 26.8 0 13.6 0 0 Z " fill="#AE702E" transform="translate(600,40)"/>
<path d="M0 0 C79.2 0 158.4 0 240 0 C240 13.2 240 26.4 240 40 C160.8 40 81.6 40 0 40 C0 26.8 0 13.6 0 0 Z " fill="#564028" transform="translate(520,1120)"/>
<path d="M0 0 C52.8 0 105.6 0 160 0 C160 26.4 160 52.8 160 80 C146.8 80 133.6 80 120 80 C120 66.8 120 53.6 120 40 C93.6 40 67.2 40 40 40 C40 53.2 40 66.4 40 80 C26.8 80 13.6 80 0 80 C0 53.6 0 27.2 0 0 Z " fill="#D8D8D8" transform="translate(600,640)"/>
<path d="M0 0 C13.2 0 26.4 0 40 0 C40 26.4 40 52.8 40 80 C26.8 80 13.6 80 0 80 C0 93.2 0 106.4 0 120 C-13.2 120 -26.4 120 -40 120 C-40 133.2 -40 146.4 -40 160 C-53.2 160 -66.4 160 -80 160 C-80 133.6 -80 107.2 -80 80 C-66.8 80 -53.6 80 -40 80 C-40 66.8 -40 53.6 -40 40 C-26.8 40 -13.6 40 0 40 C0 26.8 0 13.6 0 0 Z " fill="#FCD58F" transform="translate(1000,560)"/>
<path d="M0 0 C13.2 0 26.4 0 40 0 C40 79.2 40 158.4 40 240 C26.8 240 13.6 240 0 240 C0 160.8 0 81.6 0 0 Z " fill="#AE702E" transform="translate(520,160)"/>
<path d="M0 0 C26.4 0 52.8 0 80 0 C80 26.4 80 52.8 80 80 C53.6 80 27.2 80 0 80 C0 53.6 0 27.2 0 0 Z " fill="#00127F" transform="translate(760,640)"/>
<path d="M0 0 C26.4 0 52.8 0 80 0 C80 26.4 80 52.8 80 80 C53.6 80 27.2 80 0 80 C0 53.6 0 27.2 0 0 Z " fill="#A40000" transform="translate(520,640)"/>
<path d="M0 0 C13.2 0 26.4 0 40 0 C40 13.2 40 26.4 40 40 C53.2 40 66.4 40 80 40 C80 53.2 80 66.4 80 80 C40.4 80 0.8 80 -40 80 C-40 66.8 -40 53.6 -40 40 C-26.8 40 -13.6 40 0 40 C0 26.8 0 13.6 0 0 Z " fill="#AE702F" transform="translate(360,520)"/>
<path d="M0 0 C13.2 0 26.4 0 40 0 C40 13.2 40 26.4 40 40 C53.2 40 66.4 40 80 40 C80 53.2 80 66.4 80 80 C53.6 80 27.2 80 0 80 C0 53.6 0 27.2 0 0 Z " fill="#BB8854" transform="translate(760,1000)"/>
<path d="M0 0 C26.4 0 52.8 0 80 0 C80 13.2 80 26.4 80 40 C66.8 40 53.6 40 40 40 C40 53.2 40 66.4 40 80 C26.8 80 13.6 80 0 80 C0 53.6 0 27.2 0 0 Z " fill="#BB8855" transform="translate(440,960)"/>
<path d="M0 0 C13.2 0 26.4 0 40 0 C40 39.6 40 79.2 40 120 C26.8 120 13.6 120 0 120 C0 80.4 0 40.8 0 0 Z " fill="#A05953" transform="translate(1240,800)"/>
<path d="M0 0 C13.2 0 26.4 0 40 0 C40 39.6 40 79.2 40 120 C26.8 120 13.6 120 0 120 C0 80.4 0 40.8 0 0 Z " fill="#A05953" transform="translate(0,800)"/>
<path d="M0 0 C39.6 0 79.2 0 120 0 C120 13.2 120 26.4 120 40 C80.4 40 40.8 40 0 40 C0 26.8 0 13.6 0 0 Z " fill="#ECBA72" transform="translate(280,640)"/>
<path d="M0 0 C26.4 0 52.8 0 80 0 C80 26.4 80 52.8 80 80 C66.8 80 53.6 80 40 80 C40 66.8 40 53.6 40 40 C26.8 40 13.6 40 0 40 C0 26.8 0 13.6 0 0 Z " fill="#FED800" transform="translate(920,520)"/>
<path d="M0 0 C39.6 0 79.2 0 120 0 C120 13.2 120 26.4 120 40 C80.4 40 40.8 40 0 40 C0 26.8 0 13.6 0 0 Z " fill="#FFD800" transform="translate(760,520)"/>
<path d="M0 0 C39.6 0 79.2 0 120 0 C120 13.2 120 26.4 120 40 C80.4 40 40.8 40 0 40 C0 26.8 0 13.6 0 0 Z " fill="#FFD800" transform="translate(600,520)"/>
<path d="M0 0 C39.6 0 79.2 0 120 0 C120 13.2 120 26.4 120 40 C80.4 40 40.8 40 0 40 C0 26.8 0 13.6 0 0 Z " fill="#FFD800" transform="translate(440,520)"/>
<path d="M0 0 C13.2 0 26.4 0 40 0 C40 39.6 40 79.2 40 120 C26.8 120 13.6 120 0 120 C0 80.4 0 40.8 0 0 Z " fill="#582C00" transform="translate(760,160)"/>
<path d="M0 0 C13.2 0 26.4 0 40 0 C40 39.6 40 79.2 40 120 C26.8 120 13.6 120 0 120 C0 80.4 0 40.8 0 0 Z " fill="#AE702F" transform="translate(560,160)"/>
<path d="M0 0 C13.2 0 26.4 0 40 0 C40 39.6 40 79.2 40 120 C26.8 120 13.6 120 0 120 C0 80.4 0 40.8 0 0 Z " fill="#582D00" transform="translate(520,160)"/>
<path d="M0 0 C39.6 0 79.2 0 120 0 C120 13.2 120 26.4 120 40 C80.4 40 40.8 40 0 40 C0 26.8 0 13.6 0 0 Z " fill="#582C00" transform="translate(600,40)"/>
<path d="M0 0 C26.4 0 52.8 0 80 0 C80 13.2 80 26.4 80 40 C53.6 40 27.2 40 0 40 C0 26.8 0 13.6 0 0 Z " fill="#564029" transform="translate(760,1080)"/>
<path d="M0 0 C26.4 0 52.8 0 80 0 C80 13.2 80 26.4 80 40 C53.6 40 27.2 40 0 40 C0 26.8 0 13.6 0 0 Z " fill="#9E7952" transform="translate(480,1040)"/>
<path d="M0 0 C13.2 0 26.4 0 40 0 C40 26.4 40 52.8 40 80 C26.8 80 13.6 80 0 80 C0 53.6 0 27.2 0 0 Z " fill="#564029" transform="translate(400,960)"/>
<path d="M0 0 C26.4 0 52.8 0 80 0 C80 13.2 80 26.4 80 40 C53.6 40 27.2 40 0 40 C0 26.8 0 13.6 0 0 Z " fill="#D8D8D8" transform="translate(760,720)"/>
<path d="M0 0 C26.4 0 52.8 0 80 0 C80 13.2 80 26.4 80 40 C53.6 40 27.2 40 0 40 C0 26.8 0 13.6 0 0 Z " fill="#D8D8D8" transform="translate(520,720)"/>
<path d="M0 0 C13.2 0 26.4 0 40 0 C40 26.4 40 52.8 40 80 C26.8 80 13.6 80 0 80 C0 53.6 0 27.2 0 0 Z " fill="#F2B168" transform="translate(920,640)"/>
<path d="M0 0 C13.2 0 26.4 0 40 0 C40 26.4 40 52.8 40 80 C26.8 80 13.6 80 0 80 C0 53.6 0 27.2 0 0 Z " fill="#564029" transform="translate(880,640)"/>
<path d="M0 0 C13.2 0 26.4 0 40 0 C40 26.4 40 52.8 40 80 C26.8 80 13.6 80 0 80 C0 53.6 0 27.2 0 0 Z " fill="#D8D8D8" transform="translate(840,640)"/>
<path d="M0 0 C13.2 0 26.4 0 40 0 C40 26.4 40 52.8 40 80 C26.8 80 13.6 80 0 80 C0 53.6 0 27.2 0 0 Z " fill="#CCCCCC" transform="translate(480,640)"/>
<path d="M0 0 C13.2 0 26.4 0 40 0 C40 26.4 40 52.8 40 80 C26.8 80 13.6 80 0 80 C0 53.6 0 27.2 0 0 Z " fill="#F2B068" transform="translate(960,600)"/>
<path d="M0 0 C26.4 0 52.8 0 80 0 C80 13.2 80 26.4 80 40 C53.6 40 27.2 40 0 40 C0 26.8 0 13.6 0 0 Z " fill="#F2B168" transform="translate(160,600)"/>
<path d="M0 0 C13.2 0 26.4 0 40 0 C40 26.4 40 52.8 40 80 C26.8 80 13.6 80 0 80 C0 53.6 0 27.2 0 0 Z " fill="#FCDE9F" transform="translate(1040,560)"/>
<path d="M0 0 C26.4 0 52.8 0 80 0 C80 13.2 80 26.4 80 40 C53.6 40 27.2 40 0 40 C0 26.8 0 13.6 0 0 Z " fill="#F2B068" transform="translate(240,560)"/>
<path d="M0 0 C26.4 0 52.8 0 80 0 C80 13.2 80 26.4 80 40 C53.6 40 27.2 40 0 40 C0 26.8 0 13.6 0 0 Z " fill="#FCDE9E" transform="translate(1160,440)"/>
<path d="M0 0 C13.2 0 26.4 0 40 0 C40 26.4 40 52.8 40 80 C26.8 80 13.6 80 0 80 C0 53.6 0 27.2 0 0 Z " fill="#ECBA73" transform="translate(120,360)"/>
<path d="M0 0 C13.2 0 26.4 0 40 0 C40 26.4 40 52.8 40 80 C26.8 80 13.6 80 0 80 C0 53.6 0 27.2 0 0 Z " fill="#F2B068" transform="translate(1160,320)"/>
<path d="M0 0 C13.2 0 26.4 0 40 0 C40 26.4 40 52.8 40 80 C26.8 80 13.6 80 0 80 C0 53.6 0 27.2 0 0 Z " fill="#ECBA73" transform="translate(920,320)"/>
<path d="M0 0 C26.4 0 52.8 0 80 0 C80 13.2 80 26.4 80 40 C53.6 40 27.2 40 0 40 C0 26.8 0 13.6 0 0 Z " fill="#ECBA72" transform="translate(200,280)"/>
<path d="M0 0 C13.2 0 26.4 0 40 0 C40 26.4 40 52.8 40 80 C26.8 80 13.6 80 0 80 C0 53.6 0 27.2 0 0 Z " fill="#F2B068" transform="translate(1200,240)"/>
<path d="M0 0 C26.4 0 52.8 0 80 0 C80 13.2 80 26.4 80 40 C53.6 40 27.2 40 0 40 C0 26.8 0 13.6 0 0 Z " fill="#ECBA73" transform="translate(1000,240)"/>
<path d="M0 0 C26.4 0 52.8 0 80 0 C80 13.2 80 26.4 80 40 C53.6 40 27.2 40 0 40 C0 26.8 0 13.6 0 0 Z " fill="#FCDE9E" transform="translate(120,240)"/>
<path d="M0 0 C26.4 0 52.8 0 80 0 C80 13.2 80 26.4 80 40 C53.6 40 27.2 40 0 40 C0 26.8 0 13.6 0 0 Z " fill="#FCDE9E" transform="translate(880,200)"/>
<path d="M0 0 C13.2 0 26.4 0 40 0 C40 26.4 40 52.8 40 80 C26.8 80 13.6 80 0 80 C0 53.6 0 27.2 0 0 Z " fill="#FCDE9F" transform="translate(480,200)"/>
<path d="M0 0 C26.4 0 52.8 0 80 0 C80 13.2 80 26.4 80 40 C53.6 40 27.2 40 0 40 C0 26.8 0 13.6 0 0 Z " fill="#ECBA73" transform="translate(320,200)"/>
<path d="M0 0 C13.2 0 26.4 0 40 0 C40 26.4 40 52.8 40 80 C26.8 80 13.6 80 0 80 C0 53.6 0 27.2 0 0 Z " fill="#FCDE9F" transform="translate(200,160)"/>
<path d="M0 0 C13.2 0 26.4 0 40 0 C40 26.4 40 52.8 40 80 C26.8 80 13.6 80 0 80 C0 53.6 0 27.2 0 0 Z " fill="#F2B168" transform="translate(80,160)"/>
<path d="M0 0 C13.2 0 26.4 0 40 0 C40 26.4 40 52.8 40 80 C26.8 80 13.6 80 0 80 C0 53.6 0 27.2 0 0 Z " fill="#ECBA72" transform="translate(400,120)"/>
<path d="M0 0 C13.2 0 26.4 0 40 0 C40 26.4 40 52.8 40 80 C26.8 80 13.6 80 0 80 C0 53.6 0 27.2 0 0 Z " fill="#582C00" transform="translate(720,80)"/>
<path d="M0 0 C13.2 0 26.4 0 40 0 C40 26.4 40 52.8 40 80 C26.8 80 13.6 80 0 80 C0 53.6 0 27.2 0 0 Z " fill="#582D00" transform="translate(560,80)"/>
<path d="M0 0 C26.4 0 52.8 0 80 0 C80 13.2 80 26.4 80 40 C53.6 40 27.2 40 0 40 C0 26.8 0 13.6 0 0 Z " fill="#F2B168" transform="translate(160,80)"/>
<path d="M0 0 C13.2 0 26.4 0 40 0 C40 13.2 40 26.4 40 40 C26.8 40 13.6 40 0 40 C0 26.8 0 13.6 0 0 Z " fill="#564029" transform="translate(480,1080)"/>
<path d="M0 0 C13.2 0 26.4 0 40 0 C40 13.2 40 26.4 40 40 C26.8 40 13.6 40 0 40 C0 26.8 0 13.6 0 0 Z " fill="#564029" transform="translate(840,1040)"/>
<path d="M0 0 C13.2 0 26.4 0 40 0 C40 13.2 40 26.4 40 40 C26.8 40 13.6 40 0 40 C0 26.8 0 13.6 0 0 Z " fill="#BB8855" transform="translate(480,1040)"/>
<path d="M0 0 C13.2 0 26.4 0 40 0 C40 13.2 40 26.4 40 40 C26.8 40 13.6 40 0 40 C0 26.8 0 13.6 0 0 Z " fill="#564029" transform="translate(440,1040)"/>
<path d="M0 0 C13.2 0 26.4 0 40 0 C40 13.2 40 26.4 40 40 C26.8 40 13.6 40 0 40 C0 26.8 0 13.6 0 0 Z " fill="#8F4C57" transform="translate(400,1040)"/>
<path d="M0 0 C13.2 0 26.4 0 40 0 C40 13.2 40 26.4 40 40 C26.8 40 13.6 40 0 40 C0 26.8 0 13.6 0 0 Z " fill="#564029" transform="translate(880,1000)"/>
<path d="M0 0 C13.2 0 26.4 0 40 0 C40 13.2 40 26.4 40 40 C26.8 40 13.6 40 0 40 C0 26.8 0 13.6 0 0 Z " fill="#BB8854" transform="translate(840,1000)"/>
<path d="M0 0 C13.2 0 26.4 0 40 0 C40 13.2 40 26.4 40 40 C26.8 40 13.6 40 0 40 C0 26.8 0 13.6 0 0 Z " fill="#9E7953" transform="translate(760,1000)"/>
<path d="M0 0 C13.2 0 26.4 0 40 0 C40 13.2 40 26.4 40 40 C26.8 40 13.6 40 0 40 C0 26.8 0 13.6 0 0 Z " fill="#BB8855" transform="translate(880,960)"/>
<path d="M0 0 C13.2 0 26.4 0 40 0 C40 13.2 40 26.4 40 40 C26.8 40 13.6 40 0 40 C0 26.8 0 13.6 0 0 Z " fill="#9E7952" transform="translate(480,960)"/>
<path d="M0 0 C13.2 0 26.4 0 40 0 C40 13.2 40 26.4 40 40 C26.8 40 13.6 40 0 40 C0 26.8 0 13.6 0 0 Z " fill="#753F48" transform="translate(1240,920)"/>
<path d="M0 0 C13.2 0 26.4 0 40 0 C40 13.2 40 26.4 40 40 C26.8 40 13.6 40 0 40 C0 26.8 0 13.6 0 0 Z " fill="#753F48" transform="translate(0,920)"/>
<path d="M0 0 C13.2 0 26.4 0 40 0 C40 13.2 40 26.4 40 40 C26.8 40 13.6 40 0 40 C0 26.8 0 13.6 0 0 Z " fill="#ECBA73" transform="translate(240,680)"/>
<path d="M0 0 C13.2 0 26.4 0 40 0 C40 13.2 40 26.4 40 40 C26.8 40 13.6 40 0 40 C0 26.8 0 13.6 0 0 Z " fill="#FCDE9F" transform="translate(1000,640)"/>
<path d="M0 0 C13.2 0 26.4 0 40 0 C40 13.2 40 26.4 40 40 C26.8 40 13.6 40 0 40 C0 26.8 0 13.6 0 0 Z " fill="#FDD58F" transform="translate(920,640)"/>
<path d="M0 0 C13.2 0 26.4 0 40 0 C40 13.2 40 26.4 40 40 C26.8 40 13.6 40 0 40 C0 26.8 0 13.6 0 0 Z " fill="#0020D8" transform="translate(800,640)"/>
<path d="M0 0 C13.2 0 26.4 0 40 0 C40 13.2 40 26.4 40 40 C26.8 40 13.6 40 0 40 C0 26.8 0 13.6 0 0 Z " fill="#D80000" transform="translate(560,640)"/>
<path d="M0 0 C13.2 0 26.4 0 40 0 C40 13.2 40 26.4 40 40 C26.8 40 13.6 40 0 40 C0 26.8 0 13.6 0 0 Z " fill="#564028" transform="translate(400,640)"/>
<path d="M0 0 C13.2 0 26.4 0 40 0 C40 13.2 40 26.4 40 40 C26.8 40 13.6 40 0 40 C0 26.8 0 13.6 0 0 Z " fill="#AEAFAF" transform="translate(360,640)"/>
<path d="M0 0 C13.2 0 26.4 0 40 0 C40 13.2 40 26.4 40 40 C26.8 40 13.6 40 0 40 C0 26.8 0 13.6 0 0 Z " fill="#F2B168" transform="translate(120,640)"/>
<path d="M0 0 C13.2 0 26.4 0 40 0 C40 13.2 40 26.4 40 40 C26.8 40 13.6 40 0 40 C0 26.8 0 13.6 0 0 Z " fill="#F2B168" transform="translate(1000,560)"/>
<path d="M0 0 C13.2 0 26.4 0 40 0 C40 13.2 40 26.4 40 40 C26.8 40 13.6 40 0 40 C0 26.8 0 13.6 0 0 Z " fill="#582D00" transform="translate(960,560)"/>
<path d="M0 0 C13.2 0 26.4 0 40 0 C40 13.2 40 26.4 40 40 C26.8 40 13.6 40 0 40 C0 26.8 0 13.6 0 0 Z " fill="#582C00" transform="translate(320,560)"/>
<path d="M0 0 C13.2 0 26.4 0 40 0 C40 13.2 40 26.4 40 40 C26.8 40 13.6 40 0 40 C0 26.8 0 13.6 0 0 Z " fill="#FDD58E" transform="translate(1040,520)"/>
<path d="M0 0 C13.2 0 26.4 0 40 0 C40 13.2 40 26.4 40 40 C26.8 40 13.6 40 0 40 C0 26.8 0 13.6 0 0 Z " fill="#582D00" transform="translate(1000,520)"/>
<path d="M0 0 C13.2 0 26.4 0 40 0 C40 13.2 40 26.4 40 40 C26.8 40 13.6 40 0 40 C0 26.8 0 13.6 0 0 Z " fill="#3BC600" transform="translate(920,520)"/>
<path d="M0 0 C13.2 0 26.4 0 40 0 C40 13.2 40 26.4 40 40 C26.8 40 13.6 40 0 40 C0 26.8 0 13.6 0 0 Z " fill="#FFD800" transform="translate(880,520)"/>
<path d="M0 0 C13.2 0 26.4 0 40 0 C40 13.2 40 26.4 40 40 C26.8 40 13.6 40 0 40 C0 26.8 0 13.6 0 0 Z " fill="#3BC600" transform="translate(840,520)"/>
<path d="M0 0 C13.2 0 26.4 0 40 0 C40 13.2 40 26.4 40 40 C26.8 40 13.6 40 0 40 C0 26.8 0 13.6 0 0 Z " fill="#3BC600" transform="translate(760,520)"/>
<path d="M0 0 C13.2 0 26.4 0 40 0 C40 13.2 40 26.4 40 40 C26.8 40 13.6 40 0 40 C0 26.8 0 13.6 0 0 Z " fill="#FFD800" transform="translate(720,520)"/>
<path d="M0 0 C13.2 0 26.4 0 40 0 C40 13.2 40 26.4 40 40 C26.8 40 13.6 40 0 40 C0 26.8 0 13.6 0 0 Z " fill="#3BC600" transform="translate(680,520)"/>
<path d="M0 0 C13.2 0 26.4 0 40 0 C40 13.2 40 26.4 40 40 C26.8 40 13.6 40 0 40 C0 26.8 0 13.6 0 0 Z " fill="#3AC600" transform="translate(600,520)"/>
<path d="M0 0 C13.2 0 26.4 0 40 0 C40 13.2 40 26.4 40 40 C26.8 40 13.6 40 0 40 C0 26.8 0 13.6 0 0 Z " fill="#FFD800" transform="translate(560,520)"/>
<path d="M0 0 C13.2 0 26.4 0 40 0 C40 13.2 40 26.4 40 40 C26.8 40 13.6 40 0 40 C0 26.8 0 13.6 0 0 Z " fill="#3BC600" transform="translate(520,520)"/>
<path d="M0 0 C13.2 0 26.4 0 40 0 C40 13.2 40 26.4 40 40 C26.8 40 13.6 40 0 40 C0 26.8 0 13.6 0 0 Z " fill="#3BC600" transform="translate(440,520)"/>
<path d="M0 0 C13.2 0 26.4 0 40 0 C40 13.2 40 26.4 40 40 C26.8 40 13.6 40 0 40 C0 26.8 0 13.6 0 0 Z " fill="#FFD800" transform="translate(400,520)"/>
<path d="M0 0 C13.2 0 26.4 0 40 0 C40 13.2 40 26.4 40 40 C26.8 40 13.6 40 0 40 C0 26.8 0 13.6 0 0 Z " fill="#329E00" transform="translate(360,520)"/>
<path d="M0 0 C13.2 0 26.4 0 40 0 C40 13.2 40 26.4 40 40 C26.8 40 13.6 40 0 40 C0 26.8 0 13.6 0 0 Z " fill="#C4A300" transform="translate(320,520)"/>
<path d="M0 0 C13.2 0 26.4 0 40 0 C40 13.2 40 26.4 40 40 C26.8 40 13.6 40 0 40 C0 26.8 0 13.6 0 0 Z " fill="#582D00" transform="translate(280,520)"/>
<path d="M0 0 C13.2 0 26.4 0 40 0 C40 13.2 40 26.4 40 40 C26.8 40 13.6 40 0 40 C0 26.8 0 13.6 0 0 Z " fill="#FCDE9F" transform="translate(200,520)"/>
<path d="M0 0 C13.2 0 26.4 0 40 0 C40 13.2 40 26.4 40 40 C26.8 40 13.6 40 0 40 C0 26.8 0 13.6 0 0 Z " fill="#FCDE9E" transform="translate(1120,480)"/>
<path d="M0 0 C13.2 0 26.4 0 40 0 C40 13.2 40 26.4 40 40 C26.8 40 13.6 40 0 40 C0 26.8 0 13.6 0 0 Z " fill="#FFD800" transform="translate(1000,480)"/>
<path d="M0 0 C13.2 0 26.4 0 40 0 C40 13.2 40 26.4 40 40 C26.8 40 13.6 40 0 40 C0 26.8 0 13.6 0 0 Z " fill="#FF0000" transform="translate(960,480)"/>
<path d="M0 0 C13.2 0 26.4 0 40 0 C40 13.2 40 26.4 40 40 C26.8 40 13.6 40 0 40 C0 26.8 0 13.6 0 0 Z " fill="#FFD800" transform="translate(920,480)"/>
<path d="M0 0 C13.2 0 26.4 0 40 0 C40 13.2 40 26.4 40 40 C26.8 40 13.6 40 0 40 C0 26.8 0 13.6 0 0 Z " fill="#FE0000" transform="translate(880,480)"/>
<path d="M0 0 C13.2 0 26.4 0 40 0 C40 13.2 40 26.4 40 40 C26.8 40 13.6 40 0 40 C0 26.8 0 13.6 0 0 Z " fill="#FFD800" transform="translate(840,480)"/>
<path d="M0 0 C13.2 0 26.4 0 40 0 C40 13.2 40 26.4 40 40 C26.8 40 13.6 40 0 40 C0 26.8 0 13.6 0 0 Z " fill="#FE0000" transform="translate(800,480)"/>
<path d="M0 0 C13.2 0 26.4 0 40 0 C40 13.2 40 26.4 40 40 C26.8 40 13.6 40 0 40 C0 26.8 0 13.6 0 0 Z " fill="#FFD800" transform="translate(760,480)"/>
<path d="M0 0 C13.2 0 26.4 0 40 0 C40 13.2 40 26.4 40 40 C26.8 40 13.6 40 0 40 C0 26.8 0 13.6 0 0 Z " fill="#FF0000" transform="translate(720,480)"/>
<path d="M0 0 C13.2 0 26.4 0 40 0 C40 13.2 40 26.4 40 40 C26.8 40 13.6 40 0 40 C0 26.8 0 13.6 0 0 Z " fill="#FFD800" transform="translate(680,480)"/>
<path d="M0 0 C13.2 0 26.4 0 40 0 C40 13.2 40 26.4 40 40 C26.8 40 13.6 40 0 40 C0 26.8 0 13.6 0 0 Z " fill="#FF0000" transform="translate(640,480)"/>
<path d="M0 0 C13.2 0 26.4 0 40 0 C40 13.2 40 26.4 40 40 C26.8 40 13.6 40 0 40 C0 26.8 0 13.6 0 0 Z " fill="#FFD800" transform="translate(600,480)"/>
<path d="M0 0 C13.2 0 26.4 0 40 0 C40 13.2 40 26.4 40 40 C26.8 40 13.6 40 0 40 C0 26.8 0 13.6 0 0 Z " fill="#FE0000" transform="translate(560,480)"/>
<path d="M0 0 C13.2 0 26.4 0 40 0 C40 13.2 40 26.4 40 40 C26.8 40 13.6 40 0 40 C0 26.8 0 13.6 0 0 Z " fill="#FFD800" transform="translate(520,480)"/>
<path d="M0 0 C13.2 0 26.4 0 40 0 C40 13.2 40 26.4 40 40 C26.8 40 13.6 40 0 40 C0 26.8 0 13.6 0 0 Z " fill="#FE0000" transform="translate(480,480)"/>
<path d="M0 0 C13.2 0 26.4 0 40 0 C40 13.2 40 26.4 40 40 C26.8 40 13.6 40 0 40 C0 26.8 0 13.6 0 0 Z " fill="#FFD800" transform="translate(440,480)"/>
<path d="M0 0 C13.2 0 26.4 0 40 0 C40 13.2 40 26.4 40 40 C26.8 40 13.6 40 0 40 C0 26.8 0 13.6 0 0 Z " fill="#FF0000" transform="translate(400,480)"/>
<path d="M0 0 C13.2 0 26.4 0 40 0 C40 13.2 40 26.4 40 40 C26.8 40 13.6 40 0 40 C0 26.8 0 13.6 0 0 Z " fill="#C4A300" transform="translate(360,480)"/>
<path d="M0 0 C13.2 0 26.4 0 40 0 C40 13.2 40 26.4 40 40 C26.8 40 13.6 40 0 40 C0 26.8 0 13.6 0 0 Z " fill="#B40000" transform="translate(320,480)"/>
<path d="M0 0 C13.2 0 26.4 0 40 0 C40 13.2 40 26.4 40 40 C26.8 40 13.6 40 0 40 C0 26.8 0 13.6 0 0 Z " fill="#C4A300" transform="translate(280,480)"/>
<path d="M0 0 C13.2 0 26.4 0 40 0 C40 13.2 40 26.4 40 40 C26.8 40 13.6 40 0 40 C0 26.8 0 13.6 0 0 Z " fill="#F2B168" transform="translate(1080,440)"/>
<path d="M0 0 C13.2 0 26.4 0 40 0 C40 13.2 40 26.4 40 40 C26.8 40 13.6 40 0 40 C0 26.8 0 13.6 0 0 Z " fill="#ECBA72" transform="translate(80,440)"/>
<path d="M0 0 C13.2 0 26.4 0 40 0 C40 13.2 40 26.4 40 40 C26.8 40 13.6 40 0 40 C0 26.8 0 13.6 0 0 Z " fill="#F2B168" transform="translate(1120,400)"/>
<path d="M0 0 C13.2 0 26.4 0 40 0 C40 13.2 40 26.4 40 40 C26.8 40 13.6 40 0 40 C0 26.8 0 13.6 0 0 Z " fill="#FCDE9F" transform="translate(400,320)"/>
<path d="M0 0 C13.2 0 26.4 0 40 0 C40 13.2 40 26.4 40 40 C26.8 40 13.6 40 0 40 C0 26.8 0 13.6 0 0 Z " fill="#ECBA72" transform="translate(160,320)"/>
<path d="M0 0 C13.2 0 26.4 0 40 0 C40 13.2 40 26.4 40 40 C26.8 40 13.6 40 0 40 C0 26.8 0 13.6 0 0 Z " fill="#ECBA72" transform="translate(960,280)"/>
<path d="M0 0 C13.2 0 26.4 0 40 0 C40 13.2 40 26.4 40 40 C26.8 40 13.6 40 0 40 C0 26.8 0 13.6 0 0 Z " fill="#FCDE9F" transform="translate(440,280)"/>
<path d="M0 0 C13.2 0 26.4 0 40 0 C40 13.2 40 26.4 40 40 C26.8 40 13.6 40 0 40 C0 26.8 0 13.6 0 0 Z " fill="#FCDE9F" transform="translate(80,280)"/>
<path d="M0 0 C13.2 0 26.4 0 40 0 C40 13.2 40 26.4 40 40 C26.8 40 13.6 40 0 40 C0 26.8 0 13.6 0 0 Z " fill="#FCDE9E" transform="translate(840,240)"/>
<path d="M0 0 C13.2 0 26.4 0 40 0 C40 13.2 40 26.4 40 40 C26.8 40 13.6 40 0 40 C0 26.8 0 13.6 0 0 Z " fill="#ECBA72" transform="translate(280,240)"/>
<path d="M0 0 C13.2 0 26.4 0 40 0 C40 13.2 40 26.4 40 40 C26.8 40 13.6 40 0 40 C0 26.8 0 13.6 0 0 Z " fill="#F2B168" transform="translate(40,240)"/>
<path d="M0 0 C13.2 0 26.4 0 40 0 C40 13.2 40 26.4 40 40 C26.8 40 13.6 40 0 40 C0 26.8 0 13.6 0 0 Z " fill="#ECBA73" transform="translate(1080,200)"/>
<path d="M0 0 C13.2 0 26.4 0 40 0 C40 13.2 40 26.4 40 40 C26.8 40 13.6 40 0 40 C0 26.8 0 13.6 0 0 Z " fill="#ECBA72" transform="translate(1120,160)"/>
<path d="M0 0 C13.2 0 26.4 0 40 0 C40 13.2 40 26.4 40 40 C26.8 40 13.6 40 0 40 C0 26.8 0 13.6 0 0 Z " fill="#FCDE9F" transform="translate(960,160)"/>
<path d="M0 0 C13.2 0 26.4 0 40 0 C40 13.2 40 26.4 40 40 C26.8 40 13.6 40 0 40 C0 26.8 0 13.6 0 0 Z " fill="#ECBA73" transform="translate(800,120)"/>
<path d="M0 0 C13.2 0 26.4 0 40 0 C40 13.2 40 26.4 40 40 C26.8 40 13.6 40 0 40 C0 26.8 0 13.6 0 0 Z " fill="#FCDE9F" transform="translate(520,120)"/>
<path d="M0 0 C13.2 0 26.4 0 40 0 C40 13.2 40 26.4 40 40 C26.8 40 13.6 40 0 40 C0 26.8 0 13.6 0 0 Z " fill="#FCDE9F" transform="translate(240,120)"/>
<path d="M0 0 C13.2 0 26.4 0 40 0 C40 13.2 40 26.4 40 40 C26.8 40 13.6 40 0 40 C0 26.8 0 13.6 0 0 Z " fill="#F2B068" transform="translate(120,120)"/>
<path d="M0 0 C13.2 0 26.4 0 40 0 C40 13.2 40 26.4 40 40 C26.8 40 13.6 40 0 40 C0 26.8 0 13.6 0 0 Z " fill="#ECBA73" transform="translate(840,80)"/>
<path d="M0 0 C13.2 0 26.4 0 40 0 C40 13.2 40 26.4 40 40 C26.8 40 13.6 40 0 40 C0 26.8 0 13.6 0 0 Z " fill="#ECBA73" transform="translate(440,80)"/>
<path d="M0 0 C13.2 0 26.4 0 40 0 C40 13.2 40 26.4 40 40 C26.8 40 13.6 40 0 40 C0 26.8 0 13.6 0 0 Z " fill="#FCDE9E" transform="translate(280,80)"/>
<path d="M0 0 C13.2 0 26.4 0 40 0 C40 13.2 40 26.4 40 40 C26.8 40 13.6 40 0 40 C0 26.8 0 13.6 0 0 Z " fill="#FCDE9F" transform="translate(320,40)"/>
<path d="M0 0 C13.2 0 26.4 0 40 0 C40 13.2 40 26.4 40 40 C26.8 40 13.6 40 0 40 C0 26.8 0 13.6 0 0 Z " fill="#F2B168" transform="translate(240,40)"/>
</svg>
