<?xml version="1.0" encoding="UTF-8"?>
<svg version="1.1" xmlns="http://www.w3.org/2000/svg" width="1280" height="1280">
<path d="M0 0 C422.4 0 844.8 0 1280 0 C1280 422.4 1280 844.8 1280 1280 C857.6 1280 435.2 1280 0 1280 C0 857.6 0 435.2 0 0 Z " fill="#707070" transform="translate(0,0)"/>
<path d="M0 0 C13.2 0 26.4 0 40 0 C40 92.4 40 184.8 40 280 C53.2 280 66.4 280 80 280 C80 306.4 80 332.8 80 360 C93.2 360 106.4 360 120 360 C120 373.2 120 386.4 120 400 C133.2 400 146.4 400 160 400 C160 413.2 160 426.4 160 440 C239.2 440 318.4 440 400 440 C400 426.8 400 413.6 400 400 C426.4 400 452.8 400 480 400 C480 386.8 480 373.6 480 360 C493.2 360 506.4 360 520 360 C520 346.8 520 333.6 520 320 C533.2 320 546.4 320 560 320 C560 227.6 560 135.2 560 40 C573.2 40 586.4 40 600 40 C600 66.4 600 92.8 600 120 C639.6 120 679.2 120 720 120 C720 133.2 720 146.4 720 160 C746.4 160 772.8 160 800 160 C800 146.8 800 133.6 800 120 C839.6 120 879.2 120 920 120 C920 278.4 920 436.8 920 600 C497.6 600 75.2 600 -360 600 C-360 441.6 -360 283.2 -360 120 C-320.4 120 -280.8 120 -240 120 C-240 133.2 -240 146.4 -240 160 C-213.6 160 -187.2 160 -160 160 C-160 146.8 -160 133.6 -160 120 C-120.4 120 -80.8 120 -40 120 C-40 133.2 -40 146.4 -40 160 C-26.8 160 -13.6 160 0 160 C0 107.2 0 54.4 0 0 Z " fill="#565656" transform="translate(360,680)"/>
<path d="M0 0 C13.2 0 26.4 0 40 0 C40 13.2 40 26.4 40 40 C53.2 40 66.4 40 80 40 C80 53.2 80 66.4 80 80 C119.6 80 159.2 80 200 80 C200 66.8 200 53.6 200 40 C213.2 40 226.4 40 240 40 C240 26.8 240 13.6 240 0 C266.4 0 292.8 0 320 0 C320 13.2 320 26.4 320 40 C333.2 40 346.4 40 360 40 C360 53.2 360 66.4 360 80 C399.6 80 439.2 80 480 80 C480 66.8 480 53.6 480 40 C493.2 40 506.4 40 520 40 C520 132.4 520 224.8 520 320 C506.8 320 493.6 320 480 320 C480 333.2 480 346.4 480 360 C466.8 360 453.6 360 440 360 C440 373.2 440 386.4 440 400 C413.6 400 387.2 400 360 400 C360 413.2 360 426.4 360 440 C280.8 440 201.6 440 120 440 C120 426.8 120 413.6 120 400 C106.8 400 93.6 400 80 400 C80 386.8 80 373.6 80 360 C66.8 360 53.6 360 40 360 C40 333.6 40 307.2 40 280 C26.8 280 13.6 280 0 280 C0 187.6 0 95.2 0 0 Z " fill="#FEA014" transform="translate(400,680)"/>
<path d="M0 0 C422.4 0 844.8 0 1280 0 C1280 264 1280 528 1280 800 C1240.4 800 1200.8 800 1160 800 C1160 813.2 1160 826.4 1160 840 C1133.6 840 1107.2 840 1080 840 C1080 826.8 1080 813.6 1080 800 C1040.4 800 1000.8 800 960 800 C960 786.8 960 773.6 960 760 C973.2 760 986.4 760 1000 760 C1000 746.8 1000 733.6 1000 720 C1026.4 720 1052.8 720 1080 720 C1080 733.2 1080 746.4 1080 760 C1106.4 760 1132.8 760 1160 760 C1160 746.8 1160 733.6 1160 720 C1173.2 720 1186.4 720 1200 720 C1200 733.2 1200 746.4 1200 760 C1213.2 760 1226.4 760 1240 760 C1240 522.4 1240 284.8 1240 40 C844 40 448 40 40 40 C40 277.6 40 515.2 40 760 C53.2 760 66.4 760 80 760 C80 746.8 80 733.6 80 720 C93.2 720 106.4 720 120 720 C120 733.2 120 746.4 120 760 C146.4 760 172.8 760 200 760 C200 746.8 200 733.6 200 720 C226.4 720 252.8 720 280 720 C280 733.2 280 746.4 280 760 C306.4 760 332.8 760 360 760 C360 786.4 360 812.8 360 840 C346.8 840 333.6 840 320 840 C320 826.8 320 813.6 320 800 C280.4 800 240.8 800 200 800 C200 813.2 200 826.4 200 840 C173.6 840 147.2 840 120 840 C120 826.8 120 813.6 120 800 C80.4 800 40.8 800 0 800 C0 536 0 272 0 0 Z " fill="#7C7C7C" transform="translate(0,0)"/>
<path d="M0 0 C92.4 0 184.8 0 280 0 C280 13.2 280 26.4 280 40 C253.6 40 227.2 40 200 40 C200 53.2 200 66.4 200 80 C186.8 80 173.6 80 160 80 C160 93.2 160 106.4 160 120 C146.8 120 133.6 120 120 120 C120 159.6 120 199.2 120 240 C199.2 240 278.4 240 360 240 C360 200.4 360 160.8 360 120 C373.2 120 386.4 120 400 120 C400 133.2 400 146.4 400 160 C439.6 160 479.2 160 520 160 C520 173.2 520 186.4 520 200 C533.2 200 546.4 200 560 200 C560 213.2 560 226.4 560 240 C546.8 240 533.6 240 520 240 C520 253.2 520 266.4 520 280 C308.8 280 97.6 280 -120 280 C-120 227.2 -120 174.4 -120 120 C-106.8 120 -93.6 120 -80 120 C-80 106.8 -80 93.6 -80 80 C-66.8 80 -53.6 80 -40 80 C-40 66.8 -40 53.6 -40 40 C-26.8 40 -13.6 40 0 40 C0 26.8 0 13.6 0 0 Z " fill="#000942" transform="translate(480,320)"/>
<path d="M0 0 C13.2 0 26.4 0 40 0 C40 92.4 40 184.8 40 280 C436 280 832 280 1240 280 C1240 187.6 1240 95.2 1240 0 C1253.2 0 1266.4 0 1280 0 C1280 105.6 1280 211.2 1280 320 C857.6 320 435.2 320 0 320 C0 214.4 0 108.8 0 0 Z " fill="#4C4C4C" transform="translate(0,960)"/>
<path d="M0 0 C198 0 396 0 600 0 C600 26.4 600 52.8 600 80 C586.8 80 573.6 80 560 80 C560 93.2 560 106.4 560 120 C546.8 120 533.6 120 520 120 C520 133.2 520 146.4 520 160 C480.4 160 440.8 160 400 160 C400 146.8 400 133.6 400 120 C386.8 120 373.6 120 360 120 C360 106.8 360 93.6 360 80 C333.6 80 307.2 80 280 80 C280 93.2 280 106.4 280 120 C266.8 120 253.6 120 240 120 C240 133.2 240 146.4 240 160 C200.4 160 160.8 160 120 160 C120 146.8 120 133.6 120 120 C106.8 120 93.6 120 80 120 C80 106.8 80 93.6 80 80 C66.8 80 53.6 80 40 80 C40 66.8 40 53.6 40 40 C26.8 40 13.6 40 0 40 C0 26.8 0 13.6 0 0 Z " fill="#481A00" transform="translate(360,600)"/>
<path d="M0 0 C13.2 0 26.4 0 40 0 C40 92.4 40 184.8 40 280 C26.8 280 13.6 280 0 280 C0 266.8 0 253.6 0 240 C-13.2 240 -26.4 240 -40 240 C-40 253.2 -40 266.4 -40 280 C-79.6 280 -119.2 280 -160 280 C-160 266.8 -160 253.6 -160 240 C-186.4 240 -212.8 240 -240 240 C-240 226.8 -240 213.6 -240 200 C-266.4 200 -292.8 200 -320 200 C-320 213.2 -320 226.4 -320 240 C-333.2 240 -346.4 240 -360 240 C-360 200.4 -360 160.8 -360 120 C-320.4 120 -280.8 120 -240 120 C-240 133.2 -240 146.4 -240 160 C-213.6 160 -187.2 160 -160 160 C-160 146.8 -160 133.6 -160 120 C-120.4 120 -80.8 120 -40 120 C-40 133.2 -40 146.4 -40 160 C-26.8 160 -13.6 160 0 160 C0 107.2 0 54.4 0 0 Z " fill="#545454" transform="translate(360,680)"/>
<path d="M0 0 C13.2 0 26.4 0 40 0 C40 26.4 40 52.8 40 80 C79.6 80 119.2 80 160 80 C160 93.2 160 106.4 160 120 C186.4 120 212.8 120 240 120 C240 106.8 240 93.6 240 80 C279.6 80 319.2 80 360 80 C360 119.6 360 159.2 360 200 C346.8 200 333.6 200 320 200 C320 186.8 320 173.6 320 160 C293.6 160 267.2 160 240 160 C240 173.2 240 186.4 240 200 C213.6 200 187.2 200 160 200 C160 213.2 160 226.4 160 240 C120.4 240 80.8 240 40 240 C40 253.2 40 266.4 40 280 C26.8 280 13.6 280 0 280 C0 187.6 0 95.2 0 0 Z " fill="#545454" transform="translate(920,720)"/>
<path d="M0 0 C26.4 0 52.8 0 80 0 C80 13.2 80 26.4 80 40 C106.4 40 132.8 40 160 40 C160 53.2 160 66.4 160 80 C199.6 80 239.2 80 280 80 C280 66.8 280 53.6 280 40 C293.2 40 306.4 40 320 40 C320 53.2 320 66.4 320 80 C333.2 80 346.4 80 360 80 C360 106.4 360 132.8 360 160 C333.6 160 307.2 160 280 160 C280 173.2 280 186.4 280 200 C240.4 200 200.8 200 160 200 C160 186.8 160 173.6 160 160 C133.6 160 107.2 160 80 160 C80 146.8 80 133.6 80 120 C53.6 120 27.2 120 0 120 C0 106.8 0 93.6 0 80 C-13.2 80 -26.4 80 -40 80 C-40 66.8 -40 53.6 -40 40 C-26.8 40 -13.6 40 0 40 C0 26.8 0 13.6 0 0 Z " fill="#606060" transform="translate(40,880)"/>
<path d="M0 0 C26.4 0 52.8 0 80 0 C80 13.2 80 26.4 80 40 C93.2 40 106.4 40 120 40 C120 53.2 120 66.4 120 80 C106.8 80 93.6 80 80 80 C80 93.2 80 106.4 80 120 C53.6 120 27.2 120 0 120 C0 133.2 0 146.4 0 160 C-26.4 160 -52.8 160 -80 160 C-80 173.2 -80 186.4 -80 200 C-106.4 200 -132.8 200 -160 200 C-160 213.2 -160 226.4 -160 240 C-173.2 240 -186.4 240 -200 240 C-200 213.6 -200 187.2 -200 160 C-213.2 160 -226.4 160 -240 160 C-240 146.8 -240 133.6 -240 120 C-226.8 120 -213.6 120 -200 120 C-200 106.8 -200 93.6 -200 80 C-160.4 80 -120.8 80 -80 80 C-80 66.8 -80 53.6 -80 40 C-53.6 40 -27.2 40 0 40 C0 26.8 0 13.6 0 0 Z " fill="#606060" transform="translate(1160,880)"/>
<path d="M0 0 C26.4 0 52.8 0 80 0 C80 26.4 80 52.8 80 80 C93.2 80 106.4 80 120 80 C120 93.2 120 106.4 120 120 C133.2 120 146.4 120 160 120 C160 146.4 160 172.8 160 200 C80.8 200 1.6 200 -80 200 C-80 160.4 -80 120.8 -80 80 C-66.8 80 -53.6 80 -40 80 C-40 66.8 -40 53.6 -40 40 C-26.8 40 -13.6 40 0 40 C0 26.8 0 13.6 0 0 Z " fill="#FEFEFE" transform="translate(680,360)"/>
<path d="M0 0 C52.8 0 105.6 0 160 0 C160 13.2 160 26.4 160 40 C146.8 40 133.6 40 120 40 C120 53.2 120 66.4 120 80 C106.8 80 93.6 80 80 80 C80 119.6 80 159.2 80 200 C27.2 200 -25.6 200 -80 200 C-80 160.4 -80 120.8 -80 80 C-66.8 80 -53.6 80 -40 80 C-40 66.8 -40 53.6 -40 40 C-26.8 40 -13.6 40 0 40 C0 26.8 0 13.6 0 0 Z " fill="#0020E0" transform="translate(520,360)"/>
<path d="M0 0 C66 0 132 0 200 0 C200 26.4 200 52.8 200 80 C186.8 80 173.6 80 160 80 C160 93.2 160 106.4 160 120 C120.4 120 80.8 120 40 120 C40 106.8 40 93.6 40 80 C26.8 80 13.6 80 0 80 C0 53.6 0 27.2 0 0 Z " fill="#C04600" transform="translate(720,640)"/>
<path d="M0 0 C66 0 132 0 200 0 C200 26.4 200 52.8 200 80 C186.8 80 173.6 80 160 80 C160 93.2 160 106.4 160 120 C120.4 120 80.8 120 40 120 C40 106.8 40 93.6 40 80 C26.8 80 13.6 80 0 80 C0 53.6 0 27.2 0 0 Z " fill="#C04600" transform="translate(440,640)"/>
<path d="M0 0 C13.2 0 26.4 0 40 0 C40 13.2 40 26.4 40 40 C79.6 40 119.2 40 160 40 C160 53.2 160 66.4 160 80 C173.2 80 186.4 80 200 80 C200 93.2 200 106.4 200 120 C134 120 68 120 0 120 C0 80.4 0 40.8 0 0 Z " fill="#0026FF" transform="translate(840,440)"/>
<path d="M0 0 C13.2 0 26.4 0 40 0 C40 13.2 40 26.4 40 40 C53.2 40 66.4 40 80 40 C80 53.2 80 66.4 80 80 C132.8 80 185.6 80 240 80 C240 93.2 240 106.4 240 120 C160.8 120 81.6 120 0 120 C0 80.4 0 40.8 0 0 Z " fill="#FEFEFF" transform="translate(600,440)"/>
<path d="M0 0 C13.2 0 26.4 0 40 0 C40 13.2 40 26.4 40 40 C106 40 172 40 240 40 C240 53.2 240 66.4 240 80 C160.8 80 81.6 80 0 80 C0 53.6 0 27.2 0 0 Z " fill="#FE880A" transform="translate(520,1040)"/>
<path d="M0 0 C13.2 0 26.4 0 40 0 C40 92.4 40 184.8 40 280 C26.8 280 13.6 280 0 280 C0 187.6 0 95.2 0 0 Z " fill="#6A3804" transform="translate(920,720)"/>
<path d="M0 0 C13.2 0 26.4 0 40 0 C40 92.4 40 184.8 40 280 C26.8 280 13.6 280 0 280 C0 187.6 0 95.2 0 0 Z " fill="#FF880A" transform="translate(400,680)"/>
<path d="M0 0 C13.2 0 26.4 0 40 0 C40 92.4 40 184.8 40 280 C26.8 280 13.6 280 0 280 C0 187.6 0 95.2 0 0 Z " fill="#6A3804" transform="translate(360,680)"/>
<path d="M0 0 C92.4 0 184.8 0 280 0 C280 13.2 280 26.4 280 40 C187.6 40 95.2 40 0 40 C0 26.8 0 13.6 0 0 Z " fill="#000838" transform="translate(480,320)"/>
<path d="M0 0 C79.2 0 158.4 0 240 0 C240 13.2 240 26.4 240 40 C160.8 40 81.6 40 0 40 C0 26.8 0 13.6 0 0 Z " fill="#6A3805" transform="translate(520,1120)"/>
<path d="M0 0 C13.2 0 26.4 0 40 0 C40 13.2 40 26.4 40 40 C79.6 40 119.2 40 160 40 C160 53.2 160 66.4 160 80 C107.2 80 54.4 80 0 80 C0 53.6 0 27.2 0 0 Z " fill="#000838" transform="translate(840,440)"/>
<path d="M0 0 C52.8 0 105.6 0 160 0 C160 13.2 160 26.4 160 40 C107.2 40 54.4 40 0 40 C0 26.8 0 13.6 0 0 Z " fill="#1E1E1E" transform="translate(600,840)"/>
<path d="M0 0 C52.8 0 105.6 0 160 0 C160 13.2 160 26.4 160 40 C107.2 40 54.4 40 0 40 C0 26.8 0 13.6 0 0 Z " fill="#EFC700" transform="translate(680,480)"/>
<path d="M0 0 C13.2 0 26.4 0 40 0 C40 13.2 40 26.4 40 40 C53.2 40 66.4 40 80 40 C80 53.2 80 66.4 80 80 C53.6 80 27.2 80 0 80 C0 53.6 0 27.2 0 0 Z " fill="#FF880B" transform="translate(760,1000)"/>
<path d="M0 0 C26.4 0 52.8 0 80 0 C80 13.2 80 26.4 80 40 C66.8 40 53.6 40 40 40 C40 53.2 40 66.4 40 80 C26.8 80 13.6 80 0 80 C0 53.6 0 27.2 0 0 Z " fill="#FF880B" transform="translate(440,960)"/>
<path d="M0 0 C13.2 0 26.4 0 40 0 C40 39.6 40 79.2 40 120 C26.8 120 13.6 120 0 120 C0 80.4 0 40.8 0 0 Z " fill="#4D4D4D" transform="translate(1240,800)"/>
<path d="M0 0 C13.2 0 26.4 0 40 0 C40 39.6 40 79.2 40 120 C26.8 120 13.6 120 0 120 C0 80.4 0 40.8 0 0 Z " fill="#4C4C4C" transform="translate(0,800)"/>
<path d="M0 0 C39.6 0 79.2 0 120 0 C120 13.2 120 26.4 120 40 C80.4 40 40.8 40 0 40 C0 26.8 0 13.6 0 0 Z " fill="#491B00" transform="translate(760,720)"/>
<path d="M0 0 C39.6 0 79.2 0 120 0 C120 13.2 120 26.4 120 40 C80.4 40 40.8 40 0 40 C0 26.8 0 13.6 0 0 Z " fill="#491B00" transform="translate(480,720)"/>
<path d="M0 0 C26.4 0 52.8 0 80 0 C80 13.2 80 26.4 80 40 C66.8 40 53.6 40 40 40 C40 53.2 40 66.4 40 80 C26.8 80 13.6 80 0 80 C0 53.6 0 27.2 0 0 Z " fill="#7D7C7C" transform="translate(960,600)"/>
<path d="M0 0 C26.4 0 52.8 0 80 0 C80 13.2 80 26.4 80 40 C66.8 40 53.6 40 40 40 C40 53.2 40 66.4 40 80 C26.8 80 13.6 80 0 80 C0 53.6 0 27.2 0 0 Z " fill="#EFC700" transform="translate(640,400)"/>
<path d="M0 0 C13.2 0 26.4 0 40 0 C40 39.6 40 79.2 40 120 C26.8 120 13.6 120 0 120 C0 80.4 0 40.8 0 0 Z " fill="#5468DC" transform="translate(560,440)"/>
<path d="M0 0 C13.2 0 26.4 0 40 0 C40 13.2 40 26.4 40 40 C53.2 40 66.4 40 80 40 C80 53.2 80 66.4 80 80 C53.6 80 27.2 80 0 80 C0 53.6 0 27.2 0 0 Z " fill="#707070" transform="translate(840,360)"/>
<path d="M0 0 C26.4 0 52.8 0 80 0 C80 13.2 80 26.4 80 40 C53.6 40 27.2 40 0 40 C0 26.8 0 13.6 0 0 Z " fill="#7A7A7A" transform="translate(1080,1160)"/>
<path d="M0 0 C26.4 0 52.8 0 80 0 C80 13.2 80 26.4 80 40 C53.6 40 27.2 40 0 40 C0 26.8 0 13.6 0 0 Z " fill="#7A7A7A" transform="translate(400,1120)"/>
<path d="M0 0 C26.4 0 52.8 0 80 0 C80 13.2 80 26.4 80 40 C53.6 40 27.2 40 0 40 C0 26.8 0 13.6 0 0 Z " fill="#6B3805" transform="translate(760,1080)"/>
<path d="M0 0 C26.4 0 52.8 0 80 0 C80 13.2 80 26.4 80 40 C53.6 40 27.2 40 0 40 C0 26.8 0 13.6 0 0 Z " fill="#7A7A7A" transform="translate(160,1000)"/>
<path d="M0 0 C13.2 0 26.4 0 40 0 C40 26.4 40 52.8 40 80 C26.8 80 13.6 80 0 80 C0 53.6 0 27.2 0 0 Z " fill="#6B3805" transform="translate(400,960)"/>
<path d="M0 0 C26.4 0 52.8 0 80 0 C80 13.2 80 26.4 80 40 C53.6 40 27.2 40 0 40 C0 26.8 0 13.6 0 0 Z " fill="#7D7D7D" transform="translate(120,440)"/>
<path d="M0 0 C26.4 0 52.8 0 80 0 C80 13.2 80 26.4 80 40 C53.6 40 27.2 40 0 40 C0 26.8 0 13.6 0 0 Z " fill="#9E9E9E" transform="translate(680,360)"/>
<path d="M0 0 C26.4 0 52.8 0 80 0 C80 13.2 80 26.4 80 40 C53.6 40 27.2 40 0 40 C0 26.8 0 13.6 0 0 Z " fill="#001487" transform="translate(440,360)"/>
<path d="M0 0 C26.4 0 52.8 0 80 0 C80 13.2 80 26.4 80 40 C53.6 40 27.2 40 0 40 C0 26.8 0 13.6 0 0 Z " fill="#7C7C7D" transform="translate(920,200)"/>
<path d="M0 0 C13.2 0 26.4 0 40 0 C40 13.2 40 26.4 40 40 C26.8 40 13.6 40 0 40 C0 26.8 0 13.6 0 0 Z " fill="#7A7A7A" transform="translate(800,1160)"/>
<path d="M0 0 C13.2 0 26.4 0 40 0 C40 13.2 40 26.4 40 40 C26.8 40 13.6 40 0 40 C0 26.8 0 13.6 0 0 Z " fill="#7A7A7A" transform="translate(120,1160)"/>
<path d="M0 0 C13.2 0 26.4 0 40 0 C40 13.2 40 26.4 40 40 C26.8 40 13.6 40 0 40 C0 26.8 0 13.6 0 0 Z " fill="#7A7A7A" transform="translate(960,1080)"/>
<path d="M0 0 C13.2 0 26.4 0 40 0 C40 13.2 40 26.4 40 40 C26.8 40 13.6 40 0 40 C0 26.8 0 13.6 0 0 Z " fill="#6B3805" transform="translate(480,1080)"/>
<path d="M0 0 C13.2 0 26.4 0 40 0 C40 13.2 40 26.4 40 40 C26.8 40 13.6 40 0 40 C0 26.8 0 13.6 0 0 Z " fill="#6B3804" transform="translate(840,1040)"/>
<path d="M0 0 C13.2 0 26.4 0 40 0 C40 13.2 40 26.4 40 40 C26.8 40 13.6 40 0 40 C0 26.8 0 13.6 0 0 Z " fill="#D4791D" transform="translate(520,1040)"/>
<path d="M0 0 C13.2 0 26.4 0 40 0 C40 13.2 40 26.4 40 40 C26.8 40 13.6 40 0 40 C0 26.8 0 13.6 0 0 Z " fill="#FF880B" transform="translate(480,1040)"/>
<path d="M0 0 C13.2 0 26.4 0 40 0 C40 13.2 40 26.4 40 40 C26.8 40 13.6 40 0 40 C0 26.8 0 13.6 0 0 Z " fill="#6B3805" transform="translate(440,1040)"/>
<path d="M0 0 C13.2 0 26.4 0 40 0 C40 13.2 40 26.4 40 40 C26.8 40 13.6 40 0 40 C0 26.8 0 13.6 0 0 Z " fill="#606060" transform="translate(400,1040)"/>
<path d="M0 0 C13.2 0 26.4 0 40 0 C40 13.2 40 26.4 40 40 C26.8 40 13.6 40 0 40 C0 26.8 0 13.6 0 0 Z " fill="#6A3805" transform="translate(880,1000)"/>
<path d="M0 0 C13.2 0 26.4 0 40 0 C40 13.2 40 26.4 40 40 C26.8 40 13.6 40 0 40 C0 26.8 0 13.6 0 0 Z " fill="#FF880B" transform="translate(840,1000)"/>
<path d="M0 0 C13.2 0 26.4 0 40 0 C40 13.2 40 26.4 40 40 C26.8 40 13.6 40 0 40 C0 26.8 0 13.6 0 0 Z " fill="#D4791D" transform="translate(760,1000)"/>
<path d="M0 0 C13.2 0 26.4 0 40 0 C40 13.2 40 26.4 40 40 C26.8 40 13.6 40 0 40 C0 26.8 0 13.6 0 0 Z " fill="#7A7A7A" transform="translate(1160,960)"/>
<path d="M0 0 C13.2 0 26.4 0 40 0 C40 13.2 40 26.4 40 40 C26.8 40 13.6 40 0 40 C0 26.8 0 13.6 0 0 Z " fill="#FF880A" transform="translate(880,960)"/>
<path d="M0 0 C13.2 0 26.4 0 40 0 C40 13.2 40 26.4 40 40 C26.8 40 13.6 40 0 40 C0 26.8 0 13.6 0 0 Z " fill="#D4791D" transform="translate(480,960)"/>
<path d="M0 0 C13.2 0 26.4 0 40 0 C40 13.2 40 26.4 40 40 C26.8 40 13.6 40 0 40 C0 26.8 0 13.6 0 0 Z " fill="#575757" transform="translate(1240,920)"/>
<path d="M0 0 C13.2 0 26.4 0 40 0 C40 13.2 40 26.4 40 40 C26.8 40 13.6 40 0 40 C0 26.8 0 13.6 0 0 Z " fill="#575757" transform="translate(0,920)"/>
<path d="M0 0 C13.2 0 26.4 0 40 0 C40 13.2 40 26.4 40 40 C26.8 40 13.6 40 0 40 C0 26.8 0 13.6 0 0 Z " fill="#D4781D" transform="translate(560,880)"/>
<path d="M0 0 C13.2 0 26.4 0 40 0 C40 13.2 40 26.4 40 40 C26.8 40 13.6 40 0 40 C0 26.8 0 13.6 0 0 Z " fill="#1E1E1E" transform="translate(760,800)"/>
<path d="M0 0 C13.2 0 26.4 0 40 0 C40 13.2 40 26.4 40 40 C26.8 40 13.6 40 0 40 C0 26.8 0 13.6 0 0 Z " fill="#1E1E1E" transform="translate(560,800)"/>
<path d="M0 0 C13.2 0 26.4 0 40 0 C40 13.2 40 26.4 40 40 C26.8 40 13.6 40 0 40 C0 26.8 0 13.6 0 0 Z " fill="#491B00" transform="translate(880,680)"/>
<path d="M0 0 C13.2 0 26.4 0 40 0 C40 13.2 40 26.4 40 40 C26.8 40 13.6 40 0 40 C0 26.8 0 13.6 0 0 Z " fill="#FF5E00" transform="translate(840,680)"/>
<path d="M0 0 C13.2 0 26.4 0 40 0 C40 13.2 40 26.4 40 40 C26.8 40 13.6 40 0 40 C0 26.8 0 13.6 0 0 Z " fill="#481B00" transform="translate(720,680)"/>
<path d="M0 0 C13.2 0 26.4 0 40 0 C40 13.2 40 26.4 40 40 C26.8 40 13.6 40 0 40 C0 26.8 0 13.6 0 0 Z " fill="#481A00" transform="translate(600,680)"/>
<path d="M0 0 C13.2 0 26.4 0 40 0 C40 13.2 40 26.4 40 40 C26.8 40 13.6 40 0 40 C0 26.8 0 13.6 0 0 Z " fill="#FF5E00" transform="translate(560,680)"/>
<path d="M0 0 C13.2 0 26.4 0 40 0 C40 13.2 40 26.4 40 40 C26.8 40 13.6 40 0 40 C0 26.8 0 13.6 0 0 Z " fill="#491B00" transform="translate(440,680)"/>
<path d="M0 0 C13.2 0 26.4 0 40 0 C40 13.2 40 26.4 40 40 C26.8 40 13.6 40 0 40 C0 26.8 0 13.6 0 0 Z " fill="#7D7D7D" transform="translate(1040,640)"/>
<path d="M0 0 C13.2 0 26.4 0 40 0 C40 13.2 40 26.4 40 40 C26.8 40 13.6 40 0 40 C0 26.8 0 13.6 0 0 Z " fill="#7C7D7D" transform="translate(960,640)"/>
<path d="M0 0 C13.2 0 26.4 0 40 0 C40 13.2 40 26.4 40 40 C26.8 40 13.6 40 0 40 C0 26.8 0 13.6 0 0 Z " fill="#FF5E00" transform="translate(880,640)"/>
<path d="M0 0 C13.2 0 26.4 0 40 0 C40 13.2 40 26.4 40 40 C26.8 40 13.6 40 0 40 C0 26.8 0 13.6 0 0 Z " fill="#FF5E00" transform="translate(600,640)"/>
<path d="M0 0 C13.2 0 26.4 0 40 0 C40 13.2 40 26.4 40 40 C26.8 40 13.6 40 0 40 C0 26.8 0 13.6 0 0 Z " fill="#7D7C7D" transform="translate(360,640)"/>
<path d="M0 0 C13.2 0 26.4 0 40 0 C40 13.2 40 26.4 40 40 C26.8 40 13.6 40 0 40 C0 26.8 0 13.6 0 0 Z " fill="#491B00" transform="translate(320,640)"/>
<path d="M0 0 C13.2 0 26.4 0 40 0 C40 13.2 40 26.4 40 40 C26.8 40 13.6 40 0 40 C0 26.8 0 13.6 0 0 Z " fill="#696969" transform="translate(1120,600)"/>
<path d="M0 0 C13.2 0 26.4 0 40 0 C40 13.2 40 26.4 40 40 C26.8 40 13.6 40 0 40 C0 26.8 0 13.6 0 0 Z " fill="#707070" transform="translate(960,600)"/>
<path d="M0 0 C13.2 0 26.4 0 40 0 C40 13.2 40 26.4 40 40 C26.8 40 13.6 40 0 40 C0 26.8 0 13.6 0 0 Z " fill="#000838" transform="translate(1000,520)"/>
<path d="M0 0 C13.2 0 26.4 0 40 0 C40 13.2 40 26.4 40 40 C26.8 40 13.6 40 0 40 C0 26.8 0 13.6 0 0 Z " fill="#9E9E9E" transform="translate(800,440)"/>
<path d="M0 0 C13.2 0 26.4 0 40 0 C40 13.2 40 26.4 40 40 C26.8 40 13.6 40 0 40 C0 26.8 0 13.6 0 0 Z " fill="#7D7D7D" transform="translate(1160,400)"/>
<path d="M0 0 C13.2 0 26.4 0 40 0 C40 13.2 40 26.4 40 40 C26.8 40 13.6 40 0 40 C0 26.8 0 13.6 0 0 Z " fill="#7D7D7D" transform="translate(880,400)"/>
<path d="M0 0 C13.2 0 26.4 0 40 0 C40 13.2 40 26.4 40 40 C26.8 40 13.6 40 0 40 C0 26.8 0 13.6 0 0 Z " fill="#000838" transform="translate(800,400)"/>
<path d="M0 0 C13.2 0 26.4 0 40 0 C40 13.2 40 26.4 40 40 C26.8 40 13.6 40 0 40 C0 26.8 0 13.6 0 0 Z " fill="#9E9E9E" transform="translate(760,400)"/>
<path d="M0 0 C13.2 0 26.4 0 40 0 C40 13.2 40 26.4 40 40 C26.8 40 13.6 40 0 40 C0 26.8 0 13.6 0 0 Z " fill="#EFC600" transform="translate(680,400)"/>
<path d="M0 0 C13.2 0 26.4 0 40 0 C40 13.2 40 26.4 40 40 C26.8 40 13.6 40 0 40 C0 26.8 0 13.6 0 0 Z " fill="#FFFFFF" transform="translate(640,400)"/>
<path d="M0 0 C13.2 0 26.4 0 40 0 C40 13.2 40 26.4 40 40 C26.8 40 13.6 40 0 40 C0 26.8 0 13.6 0 0 Z " fill="#5468DC" transform="translate(600,400)"/>
<path d="M0 0 C13.2 0 26.4 0 40 0 C40 13.2 40 26.4 40 40 C26.8 40 13.6 40 0 40 C0 26.8 0 13.6 0 0 Z " fill="#001487" transform="translate(440,400)"/>
<path d="M0 0 C13.2 0 26.4 0 40 0 C40 13.2 40 26.4 40 40 C26.8 40 13.6 40 0 40 C0 26.8 0 13.6 0 0 Z " fill="#000838" transform="translate(400,400)"/>
<path d="M0 0 C13.2 0 26.4 0 40 0 C40 13.2 40 26.4 40 40 C26.8 40 13.6 40 0 40 C0 26.8 0 13.6 0 0 Z " fill="#7C7D7D" transform="translate(840,360)"/>
<path d="M0 0 C13.2 0 26.4 0 40 0 C40 13.2 40 26.4 40 40 C26.8 40 13.6 40 0 40 C0 26.8 0 13.6 0 0 Z " fill="#000838" transform="translate(760,360)"/>
<path d="M0 0 C13.2 0 26.4 0 40 0 C40 13.2 40 26.4 40 40 C26.8 40 13.6 40 0 40 C0 26.8 0 13.6 0 0 Z " fill="#FFFFFF" transform="translate(680,360)"/>
<path d="M0 0 C13.2 0 26.4 0 40 0 C40 13.2 40 26.4 40 40 C26.8 40 13.6 40 0 40 C0 26.8 0 13.6 0 0 Z " fill="#5468DD" transform="translate(640,360)"/>
<path d="M0 0 C13.2 0 26.4 0 40 0 C40 13.2 40 26.4 40 40 C26.8 40 13.6 40 0 40 C0 26.8 0 13.6 0 0 Z " fill="#000838" transform="translate(440,360)"/>
<path d="M0 0 C13.2 0 26.4 0 40 0 C40 13.2 40 26.4 40 40 C26.8 40 13.6 40 0 40 C0 26.8 0 13.6 0 0 Z " fill="#696969" transform="translate(960,320)"/>
<path d="M0 0 C13.2 0 26.4 0 40 0 C40 13.2 40 26.4 40 40 C26.8 40 13.6 40 0 40 C0 26.8 0 13.6 0 0 Z " fill="#696969" transform="translate(280,320)"/>
<path d="M0 0 C13.2 0 26.4 0 40 0 C40 13.2 40 26.4 40 40 C26.8 40 13.6 40 0 40 C0 26.8 0 13.6 0 0 Z " fill="#7D7D7D" transform="translate(80,280)"/>
<path d="M0 0 C13.2 0 26.4 0 40 0 C40 13.2 40 26.4 40 40 C26.8 40 13.6 40 0 40 C0 26.8 0 13.6 0 0 Z " fill="#696969" transform="translate(640,240)"/>
<path d="M0 0 C13.2 0 26.4 0 40 0 C40 13.2 40 26.4 40 40 C26.8 40 13.6 40 0 40 C0 26.8 0 13.6 0 0 Z " fill="#7D7D7C" transform="translate(280,160)"/>
<path d="M0 0 C13.2 0 26.4 0 40 0 C40 13.2 40 26.4 40 40 C26.8 40 13.6 40 0 40 C0 26.8 0 13.6 0 0 Z " fill="#7D7D7D" transform="translate(1120,120)"/>
<path d="M0 0 C13.2 0 26.4 0 40 0 C40 13.2 40 26.4 40 40 C26.8 40 13.6 40 0 40 C0 26.8 0 13.6 0 0 Z " fill="#7D7D7D" transform="translate(680,120)"/>
<path d="M0 0 C13.2 0 26.4 0 40 0 C40 13.2 40 26.4 40 40 C26.8 40 13.6 40 0 40 C0 26.8 0 13.6 0 0 Z " fill="#7D7D7D" transform="translate(600,120)"/>
<path d="M0 0 C13.2 0 26.4 0 40 0 C40 13.2 40 26.4 40 40 C26.8 40 13.6 40 0 40 C0 26.8 0 13.6 0 0 Z " fill="#7D7D7D" transform="translate(240,120)"/>
<path d="M0 0 C13.2 0 26.4 0 40 0 C40 13.2 40 26.4 40 40 C26.8 40 13.6 40 0 40 C0 26.8 0 13.6 0 0 Z " fill="#686869" transform="translate(80,120)"/>
<path d="M0 0 C13.2 0 26.4 0 40 0 C40 13.2 40 26.4 40 40 C26.8 40 13.6 40 0 40 C0 26.8 0 13.6 0 0 Z " fill="#696868" transform="translate(1000,80)"/>
<path d="M0 0 C13.2 0 26.4 0 40 0 C40 13.2 40 26.4 40 40 C26.8 40 13.6 40 0 40 C0 26.8 0 13.6 0 0 Z " fill="#696969" transform="translate(840,80)"/>
<path d="M0 0 C13.2 0 26.4 0 40 0 C40 13.2 40 26.4 40 40 C26.8 40 13.6 40 0 40 C0 26.8 0 13.6 0 0 Z " fill="#7D7D7D" transform="translate(640,80)"/>
</svg>
