<?xml version="1.0" encoding="UTF-8"?>
<svg version="1.1" xmlns="http://www.w3.org/2000/svg" width="1280" height="1280">
<path d="M0 0 C422.4 0 844.8 0 1280 0 C1280 422.4 1280 844.8 1280 1280 C857.6 1280 435.2 1280 0 1280 C0 857.6 0 435.2 0 0 Z " fill="#4EA446" transform="translate(0,0)"/>
<path d="M0 0 C13.2 0 26.4 0 40 0 C40 26.4 40 52.8 40 80 C66.4 80 92.8 80 120 80 C120 93.2 120 106.4 120 120 C146.4 120 172.8 120 200 120 C200 106.8 200 93.6 200 80 C186.8 80 173.6 80 160 80 C160 53.6 160 27.2 160 0 C199.6 0 239.2 0 280 0 C280 13.2 280 26.4 280 40 C293.2 40 306.4 40 320 40 C320 66.4 320 92.8 320 120 C333.2 120 346.4 120 360 120 C360 172.8 360 225.6 360 280 C386.4 280 412.8 280 440 280 C440 306.4 440 332.8 440 360 C479.6 360 519.2 360 560 360 C560 373.2 560 386.4 560 400 C586.4 400 612.8 400 640 400 C640 386.8 640 373.6 640 360 C679.6 360 719.2 360 760 360 C760 518.4 760 676.8 760 840 C337.6 840 -84.8 840 -520 840 C-520 681.6 -520 523.2 -520 360 C-480.4 360 -440.8 360 -400 360 C-400 373.2 -400 386.4 -400 400 C-373.6 400 -347.2 400 -320 400 C-320 386.8 -320 373.6 -320 360 C-280.4 360 -240.8 360 -200 360 C-200 373.2 -200 386.4 -200 400 C-186.8 400 -173.6 400 -160 400 C-160 347.2 -160 294.4 -160 240 C-146.8 240 -133.6 240 -120 240 C-120 200.4 -120 160.8 -120 120 C-106.8 120 -93.6 120 -80 120 C-80 106.8 -80 93.6 -80 80 C-93.2 80 -106.4 80 -120 80 C-120 66.8 -120 53.6 -120 40 C-80.4 40 -40.8 40 0 40 C0 26.8 0 13.6 0 0 Z " fill="#8E5228" transform="translate(520,440)"/>
<path d="M0 0 C13.2 0 26.4 0 40 0 C40 26.4 40 52.8 40 80 C66.4 80 92.8 80 120 80 C120 93.2 120 106.4 120 120 C146.4 120 172.8 120 200 120 C200 106.8 200 93.6 200 80 C186.8 80 173.6 80 160 80 C160 53.6 160 27.2 160 0 C199.6 0 239.2 0 280 0 C280 13.2 280 26.4 280 40 C293.2 40 306.4 40 320 40 C320 66.4 320 92.8 320 120 C333.2 120 346.4 120 360 120 C360 172.8 360 225.6 360 280 C373.2 280 386.4 280 400 280 C400 372.4 400 464.8 400 560 C386.8 560 373.6 560 360 560 C360 573.2 360 586.4 360 600 C346.8 600 333.6 600 320 600 C320 613.2 320 626.4 320 640 C293.6 640 267.2 640 240 640 C240 653.2 240 666.4 240 680 C160.8 680 81.6 680 0 680 C0 666.8 0 653.6 0 640 C-13.2 640 -26.4 640 -40 640 C-40 626.8 -40 613.6 -40 600 C-53.2 600 -66.4 600 -80 600 C-80 573.6 -80 547.2 -80 520 C-93.2 520 -106.4 520 -120 520 C-120 493.6 -120 467.2 -120 440 C-93.6 440 -67.2 440 -40 440 C-40 426.8 -40 413.6 -40 400 C-26.8 400 -13.6 400 0 400 C0 413.2 0 426.4 0 440 C39.6 440 79.2 440 120 440 C120 426.8 120 413.6 120 400 C146.4 400 172.8 400 200 400 C200 413.2 200 426.4 200 440 C239.6 440 279.2 440 320 440 C320 426.8 320 413.6 320 400 C306.8 400 293.6 400 280 400 C280 386.8 280 373.6 280 360 C266.8 360 253.6 360 240 360 C240 346.8 240 333.6 240 320 C200.4 320 160.8 320 120 320 C120 306.8 120 293.6 120 280 C67.2 280 14.4 280 -40 280 C-40 240.4 -40 200.8 -40 160 C-0.4 160 39.2 160 80 160 C80 146.8 80 133.6 80 120 C40.4 120 0.8 120 -40 120 C-40 93.6 -40 67.2 -40 40 C-26.8 40 -13.6 40 0 40 C0 26.8 0 13.6 0 0 Z " fill="#EE6850" transform="translate(520,440)"/>
<path d="M0 0 C422.4 0 844.8 0 1280 0 C1280 264 1280 528 1280 800 C1240.4 800 1200.8 800 1160 800 C1160 813.2 1160 826.4 1160 840 C1133.6 840 1107.2 840 1080 840 C1080 826.8 1080 813.6 1080 800 C1040.4 800 1000.8 800 960 800 C960 786.8 960 773.6 960 760 C973.2 760 986.4 760 1000 760 C1000 746.8 1000 733.6 1000 720 C1026.4 720 1052.8 720 1080 720 C1080 733.2 1080 746.4 1080 760 C1106.4 760 1132.8 760 1160 760 C1160 746.8 1160 733.6 1160 720 C1173.2 720 1186.4 720 1200 720 C1200 733.2 1200 746.4 1200 760 C1213.2 760 1226.4 760 1240 760 C1240 522.4 1240 284.8 1240 40 C844 40 448 40 40 40 C40 224.8 40 409.6 40 600 C53.2 600 66.4 600 80 600 C80 586.8 80 573.6 80 560 C93.2 560 106.4 560 120 560 C120 573.2 120 586.4 120 600 C133.2 600 146.4 600 160 600 C160 613.2 160 626.4 160 640 C146.8 640 133.6 640 120 640 C120 653.2 120 666.4 120 680 C106.8 680 93.6 680 80 680 C80 666.8 80 653.6 80 640 C66.8 640 53.6 640 40 640 C40 679.6 40 719.2 40 760 C53.2 760 66.4 760 80 760 C80 746.8 80 733.6 80 720 C93.2 720 106.4 720 120 720 C120 733.2 120 746.4 120 760 C146.4 760 172.8 760 200 760 C200 746.8 200 733.6 200 720 C226.4 720 252.8 720 280 720 C280 733.2 280 746.4 280 760 C306.4 760 332.8 760 360 760 C360 786.4 360 812.8 360 840 C346.8 840 333.6 840 320 840 C320 826.8 320 813.6 320 800 C280.4 800 240.8 800 200 800 C200 813.2 200 826.4 200 840 C173.6 840 147.2 840 120 840 C120 826.8 120 813.6 120 800 C80.4 800 40.8 800 0 800 C0 536 0 272 0 0 Z " fill="#94C83E" transform="translate(0,0)"/>
<path d="M0 0 C26.4 0 52.8 0 80 0 C80 26.4 80 52.8 80 80 C119.6 80 159.2 80 200 80 C200 93.2 200 106.4 200 120 C160.4 120 120.8 120 80 120 C80 159.6 80 199.2 80 240 C132.8 240 185.6 240 240 240 C240 253.2 240 266.4 240 280 C279.6 280 319.2 280 360 280 C360 293.2 360 306.4 360 320 C373.2 320 386.4 320 400 320 C400 333.2 400 346.4 400 360 C413.2 360 426.4 360 440 360 C440 373.2 440 386.4 440 400 C400.4 400 360.8 400 320 400 C320 386.8 320 373.6 320 360 C293.6 360 267.2 360 240 360 C240 373.2 240 386.4 240 400 C200.4 400 160.8 400 120 400 C120 386.8 120 373.6 120 360 C106.8 360 93.6 360 80 360 C80 373.2 80 386.4 80 400 C53.6 400 27.2 400 0 400 C0 426.4 0 452.8 0 480 C-13.2 480 -26.4 480 -40 480 C-40 387.6 -40 295.2 -40 200 C-26.8 200 -13.6 200 0 200 C0 160.4 0 120.8 0 80 C13.2 80 26.4 80 40 80 C40 66.8 40 53.6 40 40 C26.8 40 13.6 40 0 40 C0 26.8 0 13.6 0 0 Z " fill="#9E5731" transform="translate(400,480)"/>
<path d="M0 0 C39.6 0 79.2 0 120 0 C120 13.2 120 26.4 120 40 C146.4 40 172.8 40 200 40 C200 26.8 200 13.6 200 0 C239.6 0 279.2 0 320 0 C320 13.2 320 26.4 320 40 C333.2 40 346.4 40 360 40 C360 79.6 360 119.2 360 160 C373.2 160 386.4 160 400 160 C400 186.4 400 212.8 400 240 C373.6 240 347.2 240 320 240 C320 253.2 320 266.4 320 280 C280.4 280 240.8 280 200 280 C200 266.8 200 253.6 200 240 C173.6 240 147.2 240 120 240 C120 226.8 120 213.6 120 200 C93.6 200 67.2 200 40 200 C40 173.6 40 147.2 40 120 C26.8 120 13.6 120 0 120 C0 80.4 0 40.8 0 0 Z " fill="#985E32" transform="translate(0,800)"/>
<path d="M0 0 C13.2 0 26.4 0 40 0 C40 105.6 40 211.2 40 320 C436 320 832 320 1240 320 C1240 214.4 1240 108.8 1240 0 C1253.2 0 1266.4 0 1280 0 C1280 118.8 1280 237.6 1280 360 C857.6 360 435.2 360 0 360 C0 241.2 0 122.4 0 0 Z " fill="#844C1E" transform="translate(0,920)"/>
<path d="M0 0 C52.8 0 105.6 0 160 0 C160 13.2 160 26.4 160 40 C186.4 40 212.8 40 240 40 C240 53.2 240 66.4 240 80 C226.8 80 213.6 80 200 80 C200 106.4 200 132.8 200 160 C226.4 160 252.8 160 280 160 C280 186.4 280 212.8 280 240 C266.8 240 253.6 240 240 240 C240 226.8 240 213.6 240 200 C226.8 200 213.6 200 200 200 C200 213.2 200 226.4 200 240 C186.8 240 173.6 240 160 240 C160 253.2 160 266.4 160 280 C133.6 280 107.2 280 80 280 C80 266.8 80 253.6 80 240 C93.2 240 106.4 240 120 240 C120 226.8 120 213.6 120 200 C93.6 200 67.2 200 40 200 C40 213.2 40 226.4 40 240 C26.8 240 13.6 240 0 240 C0 213.6 0 187.2 0 160 C-13.2 160 -26.4 160 -40 160 C-40 120.4 -40 80.8 -40 40 C-26.8 40 -13.6 40 0 40 C0 26.8 0 13.6 0 0 Z " fill="#4EA446" transform="translate(640,160)"/>
<path d="M0 0 C13.2 0 26.4 0 40 0 C40 26.4 40 52.8 40 80 C79.6 80 119.2 80 160 80 C160 93.2 160 106.4 160 120 C186.4 120 212.8 120 240 120 C240 106.8 240 93.6 240 80 C279.6 80 319.2 80 360 80 C360 119.6 360 159.2 360 200 C346.8 200 333.6 200 320 200 C320 186.8 320 173.6 320 160 C293.6 160 267.2 160 240 160 C240 173.2 240 186.4 240 200 C213.6 200 187.2 200 160 200 C160 213.2 160 226.4 160 240 C120.4 240 80.8 240 40 240 C40 253.2 40 266.4 40 280 C26.8 280 13.6 280 0 280 C0 187.6 0 95.2 0 0 Z " fill="#347E40" transform="translate(920,720)"/>
<path d="M0 0 C39.6 0 79.2 0 120 0 C120 13.2 120 26.4 120 40 C146.4 40 172.8 40 200 40 C200 26.8 200 13.6 200 0 C239.6 0 279.2 0 320 0 C320 13.2 320 26.4 320 40 C333.2 40 346.4 40 360 40 C360 66.4 360 92.8 360 120 C346.8 120 333.6 120 320 120 C320 133.2 320 146.4 320 160 C280.4 160 240.8 160 200 160 C200 146.8 200 133.6 200 120 C173.6 120 147.2 120 120 120 C120 106.8 120 93.6 120 80 C93.6 80 67.2 80 40 80 C40 93.2 40 106.4 40 120 C26.8 120 13.6 120 0 120 C0 80.4 0 40.8 0 0 Z " fill="#347E40" transform="translate(0,800)"/>
<path d="M0 0 C13.2 0 26.4 0 40 0 C40 13.2 40 26.4 40 40 C53.2 40 66.4 40 80 40 C80 53.2 80 66.4 80 80 C66.8 80 53.6 80 40 80 C40 93.2 40 106.4 40 120 C53.2 120 66.4 120 80 120 C80 146.4 80 172.8 80 200 C53.6 200 27.2 200 0 200 C0 226.4 0 252.8 0 280 C-26.4 280 -52.8 280 -80 280 C-80 253.6 -80 227.2 -80 200 C-106.4 200 -132.8 200 -160 200 C-160 173.6 -160 147.2 -160 120 C-133.6 120 -107.2 120 -80 120 C-80 93.6 -80 67.2 -80 40 C-53.6 40 -27.2 40 0 40 C0 26.8 0 13.6 0 0 Z " fill="#FFD800" transform="translate(1000,120)"/>
<path d="M0 0 C26.4 0 52.8 0 80 0 C80 39.6 80 79.2 80 120 C53.6 120 27.2 120 0 120 C0 133.2 0 146.4 0 160 C-26.4 160 -52.8 160 -80 160 C-80 173.2 -80 186.4 -80 200 C-106.4 200 -132.8 200 -160 200 C-160 213.2 -160 226.4 -160 240 C-173.2 240 -186.4 240 -200 240 C-200 213.6 -200 187.2 -200 160 C-213.2 160 -226.4 160 -240 160 C-240 146.8 -240 133.6 -240 120 C-226.8 120 -213.6 120 -200 120 C-200 106.8 -200 93.6 -200 80 C-160.4 80 -120.8 80 -80 80 C-80 66.8 -80 53.6 -80 40 C-53.6 40 -27.2 40 0 40 C0 26.8 0 13.6 0 0 Z " fill="#985E32" transform="translate(1160,880)"/>
<path d="M0 0 C13.2 0 26.4 0 40 0 C40 13.2 40 26.4 40 40 C79.6 40 119.2 40 160 40 C160 53.2 160 66.4 160 80 C173.2 80 186.4 80 200 80 C200 93.2 200 106.4 200 120 C213.2 120 226.4 120 240 120 C240 133.2 240 146.4 240 160 C200.4 160 160.8 160 120 160 C120 146.8 120 133.6 120 120 C93.6 120 67.2 120 40 120 C40 133.2 40 146.4 40 160 C0.4 160 -39.2 160 -80 160 C-80 146.8 -80 133.6 -80 120 C-66.8 120 -53.6 120 -40 120 C-40 106.8 -40 93.6 -40 80 C-53.2 80 -66.4 80 -80 80 C-80 66.8 -80 53.6 -80 40 C-53.6 40 -27.2 40 0 40 C0 26.8 0 13.6 0 0 Z " fill="#262626" transform="translate(600,720)"/>
<path d="M0 0 C26.4 0 52.8 0 80 0 C80 26.4 80 52.8 80 80 C119.6 80 159.2 80 200 80 C200 93.2 200 106.4 200 120 C160.4 120 120.8 120 80 120 C80 159.6 80 199.2 80 240 C66.8 240 53.6 240 40 240 C40 226.8 40 213.6 40 200 C26.8 200 13.6 200 0 200 C0 160.4 0 120.8 0 80 C13.2 80 26.4 80 40 80 C40 66.8 40 53.6 40 40 C26.8 40 13.6 40 0 40 C0 26.8 0 13.6 0 0 Z " fill="#542E1A" transform="translate(400,480)"/>
<path d="M0 0 C13.2 0 26.4 0 40 0 C40 13.2 40 26.4 40 40 C53.2 40 66.4 40 80 40 C80 53.2 80 66.4 80 80 C66.8 80 53.6 80 40 80 C40 93.2 40 106.4 40 120 C53.2 120 66.4 120 80 120 C80 146.4 80 172.8 80 200 C53.6 200 27.2 200 0 200 C0 173.6 0 147.2 0 120 C-26.4 120 -52.8 120 -80 120 C-80 93.6 -80 67.2 -80 40 C-53.6 40 -27.2 40 0 40 C0 26.8 0 13.6 0 0 Z " fill="#FEFEFE" transform="translate(1000,120)"/>
<path d="M0 0 C26.4 0 52.8 0 80 0 C80 13.2 80 26.4 80 40 C66.8 40 53.6 40 40 40 C40 53.2 40 66.4 40 80 C26.8 80 13.6 80 0 80 C0 106.4 0 132.8 0 160 C13.2 160 26.4 160 40 160 C40 173.2 40 186.4 40 200 C13.6 200 -12.8 200 -40 200 C-40 186.8 -40 173.6 -40 160 C-66.4 160 -92.8 160 -120 160 C-120 133.6 -120 107.2 -120 80 C-106.8 80 -93.6 80 -80 80 C-80 93.2 -80 106.4 -80 120 C-66.8 120 -53.6 120 -40 120 C-40 93.6 -40 67.2 -40 40 C-26.8 40 -13.6 40 0 40 C0 26.8 0 13.6 0 0 Z " fill="#4CFE00" transform="translate(680,360)"/>
<path d="M0 0 C39.6 0 79.2 0 120 0 C120 39.6 120 79.2 120 120 C80.4 120 40.8 120 0 120 C0 80.4 0 40.8 0 0 Z " fill="#F9BF59" transform="translate(480,600)"/>
<path d="M0 0 C26.4 0 52.8 0 80 0 C80 13.2 80 26.4 80 40 C146 40 212 40 280 40 C280 53.2 280 66.4 280 80 C200.8 80 121.6 80 40 80 C40 66.8 40 53.6 40 40 C26.8 40 13.6 40 0 40 C0 26.8 0 13.6 0 0 Z " fill="#CC5643" transform="translate(480,1040)"/>
<path d="M0 0 C13.2 0 26.4 0 40 0 C40 92.4 40 184.8 40 280 C26.8 280 13.6 280 0 280 C0 187.6 0 95.2 0 0 Z " fill="#54231A" transform="translate(920,720)"/>
<path d="M0 0 C13.2 0 26.4 0 40 0 C40 13.2 40 26.4 40 40 C92.8 40 145.6 40 200 40 C200 53.2 200 66.4 200 80 C173.6 80 147.2 80 120 80 C120 93.2 120 106.4 120 120 C106.8 120 93.6 120 80 120 C80 106.8 80 93.6 80 80 C53.6 80 27.2 80 0 80 C0 53.6 0 27.2 0 0 Z " fill="#CC5742" transform="translate(400,680)"/>
<path d="M0 0 C79.2 0 158.4 0 240 0 C240 13.2 240 26.4 240 40 C160.8 40 81.6 40 0 40 C0 26.8 0 13.6 0 0 Z " fill="#54231A" transform="translate(520,1120)"/>
<path d="M0 0 C13.2 0 26.4 0 40 0 C40 13.2 40 26.4 40 40 C53.2 40 66.4 40 80 40 C80 79.6 80 119.2 80 160 C66.8 160 53.6 160 40 160 C40 146.8 40 133.6 40 120 C26.8 120 13.6 120 0 120 C0 80.4 0 40.8 0 0 Z " fill="#542A1A" transform="translate(400,560)"/>
<path d="M0 0 C39.6 0 79.2 0 120 0 C120 13.2 120 26.4 120 40 C93.6 40 67.2 40 40 40 C40 66.4 40 92.8 40 120 C26.8 120 13.6 120 0 120 C0 80.4 0 40.8 0 0 Z " fill="#54291A" transform="translate(360,840)"/>
<path d="M0 0 C13.2 0 26.4 0 40 0 C40 26.4 40 52.8 40 80 C66.4 80 92.8 80 120 80 C120 93.2 120 106.4 120 120 C80.4 120 40.8 120 0 120 C0 80.4 0 40.8 0 0 Z " fill="#54291A" transform="translate(360,680)"/>
<path d="M0 0 C13.2 0 26.4 0 40 0 C40 13.2 40 26.4 40 40 C53.2 40 66.4 40 80 40 C80 53.2 80 66.4 80 80 C66.8 80 53.6 80 40 80 C40 93.2 40 106.4 40 120 C26.8 120 13.6 120 0 120 C0 106.8 0 93.6 0 80 C-13.2 80 -26.4 80 -40 80 C-40 66.8 -40 53.6 -40 40 C-26.8 40 -13.6 40 0 40 C0 26.8 0 13.6 0 0 Z " fill="#FFD800" transform="translate(80,560)"/>
<path d="M0 0 C13.2 0 26.4 0 40 0 C40 13.2 40 26.4 40 40 C53.2 40 66.4 40 80 40 C80 53.2 80 66.4 80 80 C66.8 80 53.6 80 40 80 C40 93.2 40 106.4 40 120 C26.8 120 13.6 120 0 120 C0 106.8 0 93.6 0 80 C-13.2 80 -26.4 80 -40 80 C-40 66.8 -40 53.6 -40 40 C-26.8 40 -13.6 40 0 40 C0 26.8 0 13.6 0 0 Z " fill="#FFD800" transform="translate(1120,480)"/>
<path d="M0 0 C13.2 0 26.4 0 40 0 C40 13.2 40 26.4 40 40 C53.2 40 66.4 40 80 40 C80 53.2 80 66.4 80 80 C66.8 80 53.6 80 40 80 C40 93.2 40 106.4 40 120 C26.8 120 13.6 120 0 120 C0 106.8 0 93.6 0 80 C-13.2 80 -26.4 80 -40 80 C-40 66.8 -40 53.6 -40 40 C-26.8 40 -13.6 40 0 40 C0 26.8 0 13.6 0 0 Z " fill="#FFD800" transform="translate(160,120)"/>
<path d="M0 0 C26.4 0 52.8 0 80 0 C80 26.4 80 52.8 80 80 C53.6 80 27.2 80 0 80 C0 53.6 0 27.2 0 0 Z " fill="#4F9E9E" transform="translate(520,640)"/>
<path d="M0 0 C13.2 0 26.4 0 40 0 C40 52.8 40 105.6 40 160 C26.8 160 13.6 160 0 160 C0 107.2 0 54.4 0 0 Z " fill="#54231A" transform="translate(880,560)"/>
<path d="M0 0 C26.4 0 52.8 0 80 0 C80 26.4 80 52.8 80 80 C53.6 80 27.2 80 0 80 C0 53.6 0 27.2 0 0 Z " fill="#FFFFFF" transform="translate(920,320)"/>
<path d="M0 0 C26.4 0 52.8 0 80 0 C80 26.4 80 52.8 80 80 C53.6 80 27.2 80 0 80 C0 53.6 0 27.2 0 0 Z " fill="#FFFFFF" transform="translate(840,240)"/>
<path d="M0 0 C52.8 0 105.6 0 160 0 C160 13.2 160 26.4 160 40 C107.2 40 54.4 40 0 40 C0 26.8 0 13.6 0 0 Z " fill="#4CFE00" transform="translate(640,120)"/>
<path d="M0 0 C13.2 0 26.4 0 40 0 C40 13.2 40 26.4 40 40 C53.2 40 66.4 40 80 40 C80 53.2 80 66.4 80 80 C53.6 80 27.2 80 0 80 C0 53.6 0 27.2 0 0 Z " fill="#CD5743" transform="translate(760,1000)"/>
<path d="M0 0 C26.4 0 52.8 0 80 0 C80 13.2 80 26.4 80 40 C66.8 40 53.6 40 40 40 C40 53.2 40 66.4 40 80 C26.8 80 13.6 80 0 80 C0 53.6 0 27.2 0 0 Z " fill="#CD5642" transform="translate(440,960)"/>
<path d="M0 0 C13.2 0 26.4 0 40 0 C40 39.6 40 79.2 40 120 C26.8 120 13.6 120 0 120 C0 80.4 0 40.8 0 0 Z " fill="#2F7438" transform="translate(1240,800)"/>
<path d="M0 0 C13.2 0 26.4 0 40 0 C40 39.6 40 79.2 40 120 C26.8 120 13.6 120 0 120 C0 80.4 0 40.8 0 0 Z " fill="#2F7438" transform="translate(0,800)"/>
<path d="M0 0 C13.2 0 26.4 0 40 0 C40 13.2 40 26.4 40 40 C53.2 40 66.4 40 80 40 C80 53.2 80 66.4 80 80 C53.6 80 27.2 80 0 80 C0 53.6 0 27.2 0 0 Z " fill="#000000" transform="translate(760,640)"/>
<path d="M0 0 C26.4 0 52.8 0 80 0 C80 26.4 80 52.8 80 80 C66.8 80 53.6 80 40 80 C40 66.8 40 53.6 40 40 C26.8 40 13.6 40 0 40 C0 26.8 0 13.6 0 0 Z " fill="#542A1A" transform="translate(400,480)"/>
<path d="M0 0 C26.4 0 52.8 0 80 0 C80 26.4 80 52.8 80 80 C66.8 80 53.6 80 40 80 C40 66.8 40 53.6 40 40 C26.8 40 13.6 40 0 40 C0 26.8 0 13.6 0 0 Z " fill="#EE6950" transform="translate(560,400)"/>
<path d="M0 0 C26.4 0 52.8 0 80 0 C80 13.2 80 26.4 80 40 C66.8 40 53.6 40 40 40 C40 53.2 40 66.4 40 80 C26.8 80 13.6 80 0 80 C0 53.6 0 27.2 0 0 Z " fill="#00FF20" transform="translate(680,360)"/>
<path d="M0 0 C13.2 0 26.4 0 40 0 C40 39.6 40 79.2 40 120 C26.8 120 13.6 120 0 120 C0 80.4 0 40.8 0 0 Z " fill="#00DA19" transform="translate(560,200)"/>
<path d="M0 0 C13.2 0 26.4 0 40 0 C40 13.2 40 26.4 40 40 C53.2 40 66.4 40 80 40 C80 53.2 80 66.4 80 80 C53.6 80 27.2 80 0 80 C0 53.6 0 27.2 0 0 Z " fill="#FFD800" transform="translate(1000,120)"/>
<path d="M0 0 C26.4 0 52.8 0 80 0 C80 13.2 80 26.4 80 40 C53.6 40 27.2 40 0 40 C0 26.8 0 13.6 0 0 Z " fill="#808080" transform="translate(1080,1160)"/>
<path d="M0 0 C26.4 0 52.8 0 80 0 C80 13.2 80 26.4 80 40 C53.6 40 27.2 40 0 40 C0 26.8 0 13.6 0 0 Z " fill="#808080" transform="translate(400,1120)"/>
<path d="M0 0 C26.4 0 52.8 0 80 0 C80 13.2 80 26.4 80 40 C53.6 40 27.2 40 0 40 C0 26.8 0 13.6 0 0 Z " fill="#54221B" transform="translate(760,1080)"/>
<path d="M0 0 C26.4 0 52.8 0 80 0 C80 13.2 80 26.4 80 40 C53.6 40 27.2 40 0 40 C0 26.8 0 13.6 0 0 Z " fill="#AA5545" transform="translate(480,1040)"/>
<path d="M0 0 C26.4 0 52.8 0 80 0 C80 13.2 80 26.4 80 40 C53.6 40 27.2 40 0 40 C0 26.8 0 13.6 0 0 Z " fill="#808080" transform="translate(160,1000)"/>
<path d="M0 0 C13.2 0 26.4 0 40 0 C40 26.4 40 52.8 40 80 C26.8 80 13.6 80 0 80 C0 53.6 0 27.2 0 0 Z " fill="#60281F" transform="translate(400,960)"/>
<path d="M0 0 C13.2 0 26.4 0 40 0 C40 26.4 40 52.8 40 80 C26.8 80 13.6 80 0 80 C0 53.6 0 27.2 0 0 Z " fill="#CC5743" transform="translate(400,880)"/>
<path d="M0 0 C26.4 0 52.8 0 80 0 C80 13.2 80 26.4 80 40 C53.6 40 27.2 40 0 40 C0 26.8 0 13.6 0 0 Z " fill="#542E1A" transform="translate(520,760)"/>
<path d="M0 0 C26.4 0 52.8 0 80 0 C80 13.2 80 26.4 80 40 C53.6 40 27.2 40 0 40 C0 26.8 0 13.6 0 0 Z " fill="#D07240" transform="translate(520,720)"/>
<path d="M0 0 C13.2 0 26.4 0 40 0 C40 26.4 40 52.8 40 80 C26.8 80 13.6 80 0 80 C0 53.6 0 27.2 0 0 Z " fill="#542E1A" transform="translate(640,640)"/>
<path d="M0 0 C26.4 0 52.8 0 80 0 C80 13.2 80 26.4 80 40 C53.6 40 27.2 40 0 40 C0 26.8 0 13.6 0 0 Z " fill="#94C840" transform="translate(320,640)"/>
<path d="M0 0 C26.4 0 52.8 0 80 0 C80 13.2 80 26.4 80 40 C53.6 40 27.2 40 0 40 C0 26.8 0 13.6 0 0 Z " fill="#00FF20" transform="translate(640,520)"/>
<path d="M0 0 C13.2 0 26.4 0 40 0 C40 26.4 40 52.8 40 80 C26.8 80 13.6 80 0 80 C0 53.6 0 27.2 0 0 Z " fill="#54221B" transform="translate(840,480)"/>
<path d="M0 0 C13.2 0 26.4 0 40 0 C40 26.4 40 52.8 40 80 C26.8 80 13.6 80 0 80 C0 53.6 0 27.2 0 0 Z " fill="#AA5544" transform="translate(560,440)"/>
<path d="M0 0 C26.4 0 52.8 0 80 0 C80 13.2 80 26.4 80 40 C53.6 40 27.2 40 0 40 C0 26.8 0 13.6 0 0 Z " fill="#FA7C65" transform="translate(720,440)"/>
<path d="M0 0 C26.4 0 52.8 0 80 0 C80 13.2 80 26.4 80 40 C53.6 40 27.2 40 0 40 C0 26.8 0 13.6 0 0 Z " fill="#94C840" transform="translate(120,440)"/>
<path d="M0 0 C26.4 0 52.8 0 80 0 C80 13.2 80 26.4 80 40 C53.6 40 27.2 40 0 40 C0 26.8 0 13.6 0 0 Z " fill="#54231B" transform="translate(720,400)"/>
<path d="M0 0 C13.2 0 26.4 0 40 0 C40 26.4 40 52.8 40 80 C26.8 80 13.6 80 0 80 C0 53.6 0 27.2 0 0 Z " fill="#00C016" transform="translate(600,320)"/>
<path d="M0 0 C26.4 0 52.8 0 80 0 C80 13.2 80 26.4 80 40 C53.6 40 27.2 40 0 40 C0 26.8 0 13.6 0 0 Z " fill="#1EFF38" transform="translate(800,160)"/>
<path d="M0 0 C13.2 0 26.4 0 40 0 C40 13.2 40 26.4 40 40 C26.8 40 13.6 40 0 40 C0 26.8 0 13.6 0 0 Z " fill="#808080" transform="translate(800,1160)"/>
<path d="M0 0 C13.2 0 26.4 0 40 0 C40 13.2 40 26.4 40 40 C26.8 40 13.6 40 0 40 C0 26.8 0 13.6 0 0 Z " fill="#808080" transform="translate(120,1160)"/>
<path d="M0 0 C13.2 0 26.4 0 40 0 C40 13.2 40 26.4 40 40 C26.8 40 13.6 40 0 40 C0 26.8 0 13.6 0 0 Z " fill="#808080" transform="translate(960,1080)"/>
<path d="M0 0 C13.2 0 26.4 0 40 0 C40 13.2 40 26.4 40 40 C26.8 40 13.6 40 0 40 C0 26.8 0 13.6 0 0 Z " fill="#60281F" transform="translate(480,1080)"/>
<path d="M0 0 C13.2 0 26.4 0 40 0 C40 13.2 40 26.4 40 40 C26.8 40 13.6 40 0 40 C0 26.8 0 13.6 0 0 Z " fill="#54231B" transform="translate(840,1040)"/>
<path d="M0 0 C13.2 0 26.4 0 40 0 C40 13.2 40 26.4 40 40 C26.8 40 13.6 40 0 40 C0 26.8 0 13.6 0 0 Z " fill="#CD5743" transform="translate(480,1040)"/>
<path d="M0 0 C13.2 0 26.4 0 40 0 C40 13.2 40 26.4 40 40 C26.8 40 13.6 40 0 40 C0 26.8 0 13.6 0 0 Z " fill="#60281F" transform="translate(440,1040)"/>
<path d="M0 0 C13.2 0 26.4 0 40 0 C40 13.2 40 26.4 40 40 C26.8 40 13.6 40 0 40 C0 26.8 0 13.6 0 0 Z " fill="#995F33" transform="translate(400,1040)"/>
<path d="M0 0 C13.2 0 26.4 0 40 0 C40 13.2 40 26.4 40 40 C26.8 40 13.6 40 0 40 C0 26.8 0 13.6 0 0 Z " fill="#54231B" transform="translate(880,1000)"/>
<path d="M0 0 C13.2 0 26.4 0 40 0 C40 13.2 40 26.4 40 40 C26.8 40 13.6 40 0 40 C0 26.8 0 13.6 0 0 Z " fill="#CD5743" transform="translate(840,1000)"/>
<path d="M0 0 C13.2 0 26.4 0 40 0 C40 13.2 40 26.4 40 40 C26.8 40 13.6 40 0 40 C0 26.8 0 13.6 0 0 Z " fill="#AB5545" transform="translate(760,1000)"/>
<path d="M0 0 C13.2 0 26.4 0 40 0 C40 13.2 40 26.4 40 40 C26.8 40 13.6 40 0 40 C0 26.8 0 13.6 0 0 Z " fill="#808080" transform="translate(1160,960)"/>
<path d="M0 0 C13.2 0 26.4 0 40 0 C40 13.2 40 26.4 40 40 C26.8 40 13.6 40 0 40 C0 26.8 0 13.6 0 0 Z " fill="#CD5743" transform="translate(880,960)"/>
<path d="M0 0 C13.2 0 26.4 0 40 0 C40 13.2 40 26.4 40 40 C26.8 40 13.6 40 0 40 C0 26.8 0 13.6 0 0 Z " fill="#AB5545" transform="translate(480,960)"/>
<path d="M0 0 C13.2 0 26.4 0 40 0 C40 13.2 40 26.4 40 40 C26.8 40 13.6 40 0 40 C0 26.8 0 13.6 0 0 Z " fill="#8F5229" transform="translate(1240,920)"/>
<path d="M0 0 C13.2 0 26.4 0 40 0 C40 13.2 40 26.4 40 40 C26.8 40 13.6 40 0 40 C0 26.8 0 13.6 0 0 Z " fill="#8F5229" transform="translate(0,920)"/>
<path d="M0 0 C13.2 0 26.4 0 40 0 C40 13.2 40 26.4 40 40 C26.8 40 13.6 40 0 40 C0 26.8 0 13.6 0 0 Z " fill="#AB5545" transform="translate(560,880)"/>
<path d="M0 0 C13.2 0 26.4 0 40 0 C40 13.2 40 26.4 40 40 C26.8 40 13.6 40 0 40 C0 26.8 0 13.6 0 0 Z " fill="#EE6851" transform="translate(520,800)"/>
<path d="M0 0 C13.2 0 26.4 0 40 0 C40 13.2 40 26.4 40 40 C26.8 40 13.6 40 0 40 C0 26.8 0 13.6 0 0 Z " fill="#542E1A" transform="translate(480,800)"/>
<path d="M0 0 C13.2 0 26.4 0 40 0 C40 13.2 40 26.4 40 40 C26.8 40 13.6 40 0 40 C0 26.8 0 13.6 0 0 Z " fill="#D07340" transform="translate(440,800)"/>
<path d="M0 0 C13.2 0 26.4 0 40 0 C40 13.2 40 26.4 40 40 C26.8 40 13.6 40 0 40 C0 26.8 0 13.6 0 0 Z " fill="#7A4325" transform="translate(360,800)"/>
<path d="M0 0 C13.2 0 26.4 0 40 0 C40 13.2 40 26.4 40 40 C26.8 40 13.6 40 0 40 C0 26.8 0 13.6 0 0 Z " fill="#D07340" transform="translate(480,760)"/>
<path d="M0 0 C13.2 0 26.4 0 40 0 C40 13.2 40 26.4 40 40 C26.8 40 13.6 40 0 40 C0 26.8 0 13.6 0 0 Z " fill="#542E1A" transform="translate(600,720)"/>
<path d="M0 0 C13.2 0 26.4 0 40 0 C40 13.2 40 26.4 40 40 C26.8 40 13.6 40 0 40 C0 26.8 0 13.6 0 0 Z " fill="#542E1A" transform="translate(480,720)"/>
<path d="M0 0 C13.2 0 26.4 0 40 0 C40 13.2 40 26.4 40 40 C26.8 40 13.6 40 0 40 C0 26.8 0 13.6 0 0 Z " fill="#EE6951" transform="translate(440,720)"/>
<path d="M0 0 C13.2 0 26.4 0 40 0 C40 13.2 40 26.4 40 40 C26.8 40 13.6 40 0 40 C0 26.8 0 13.6 0 0 Z " fill="#B16254" transform="translate(840,680)"/>
<path d="M0 0 C13.2 0 26.4 0 40 0 C40 13.2 40 26.4 40 40 C26.8 40 13.6 40 0 40 C0 26.8 0 13.6 0 0 Z " fill="#D07340" transform="translate(600,680)"/>
<path d="M0 0 C13.2 0 26.4 0 40 0 C40 13.2 40 26.4 40 40 C26.8 40 13.6 40 0 40 C0 26.8 0 13.6 0 0 Z " fill="#7FFFFF" transform="translate(560,680)"/>
<path d="M0 0 C13.2 0 26.4 0 40 0 C40 13.2 40 26.4 40 40 C26.8 40 13.6 40 0 40 C0 26.8 0 13.6 0 0 Z " fill="#4F9E9E" transform="translate(520,680)"/>
<path d="M0 0 C13.2 0 26.4 0 40 0 C40 13.2 40 26.4 40 40 C26.8 40 13.6 40 0 40 C0 26.8 0 13.6 0 0 Z " fill="#D07240" transform="translate(480,680)"/>
<path d="M0 0 C13.2 0 26.4 0 40 0 C40 13.2 40 26.4 40 40 C26.8 40 13.6 40 0 40 C0 26.8 0 13.6 0 0 Z " fill="#94C840" transform="translate(1040,640)"/>
<path d="M0 0 C13.2 0 26.4 0 40 0 C40 13.2 40 26.4 40 40 C26.8 40 13.6 40 0 40 C0 26.8 0 13.6 0 0 Z " fill="#94C840" transform="translate(960,640)"/>
<path d="M0 0 C13.2 0 26.4 0 40 0 C40 13.2 40 26.4 40 40 C26.8 40 13.6 40 0 40 C0 26.8 0 13.6 0 0 Z " fill="#FFFFFF" transform="translate(800,640)"/>
<path d="M0 0 C13.2 0 26.4 0 40 0 C40 13.2 40 26.4 40 40 C26.8 40 13.6 40 0 40 C0 26.8 0 13.6 0 0 Z " fill="#EA8E47" transform="translate(600,640)"/>
<path d="M0 0 C13.2 0 26.4 0 40 0 C40 13.2 40 26.4 40 40 C26.8 40 13.6 40 0 40 C0 26.8 0 13.6 0 0 Z " fill="#7FFFFF" transform="translate(520,640)"/>
<path d="M0 0 C13.2 0 26.4 0 40 0 C40 13.2 40 26.4 40 40 C26.8 40 13.6 40 0 40 C0 26.8 0 13.6 0 0 Z " fill="#EA8E47" transform="translate(480,640)"/>
<path d="M0 0 C13.2 0 26.4 0 40 0 C40 13.2 40 26.4 40 40 C26.8 40 13.6 40 0 40 C0 26.8 0 13.6 0 0 Z " fill="#FFFFFF" transform="translate(80,640)"/>
<path d="M0 0 C13.2 0 26.4 0 40 0 C40 13.2 40 26.4 40 40 C26.8 40 13.6 40 0 40 C0 26.8 0 13.6 0 0 Z " fill="#4A9945" transform="translate(1120,600)"/>
<path d="M0 0 C13.2 0 26.4 0 40 0 C40 13.2 40 26.4 40 40 C26.8 40 13.6 40 0 40 C0 26.8 0 13.6 0 0 Z " fill="#94C840" transform="translate(1000,600)"/>
<path d="M0 0 C13.2 0 26.4 0 40 0 C40 13.2 40 26.4 40 40 C26.8 40 13.6 40 0 40 C0 26.8 0 13.6 0 0 Z " fill="#542E1A" transform="translate(600,600)"/>
<path d="M0 0 C13.2 0 26.4 0 40 0 C40 13.2 40 26.4 40 40 C26.8 40 13.6 40 0 40 C0 26.8 0 13.6 0 0 Z " fill="#EA8E47" transform="translate(560,600)"/>
<path d="M0 0 C13.2 0 26.4 0 40 0 C40 13.2 40 26.4 40 40 C26.8 40 13.6 40 0 40 C0 26.8 0 13.6 0 0 Z " fill="#FEFFFF" transform="translate(120,600)"/>
<path d="M0 0 C13.2 0 26.4 0 40 0 C40 13.2 40 26.4 40 40 C26.8 40 13.6 40 0 40 C0 26.8 0 13.6 0 0 Z " fill="#FFFFFF" transform="translate(40,600)"/>
<path d="M0 0 C13.2 0 26.4 0 40 0 C40 13.2 40 26.4 40 40 C26.8 40 13.6 40 0 40 C0 26.8 0 13.6 0 0 Z " fill="#FFFFFF" transform="translate(1120,560)"/>
<path d="M0 0 C13.2 0 26.4 0 40 0 C40 13.2 40 26.4 40 40 C26.8 40 13.6 40 0 40 C0 26.8 0 13.6 0 0 Z " fill="#D07240" transform="translate(440,560)"/>
<path d="M0 0 C13.2 0 26.4 0 40 0 C40 13.2 40 26.4 40 40 C26.8 40 13.6 40 0 40 C0 26.8 0 13.6 0 0 Z " fill="#FFFEFF" transform="translate(80,560)"/>
<path d="M0 0 C13.2 0 26.4 0 40 0 C40 13.2 40 26.4 40 40 C26.8 40 13.6 40 0 40 C0 26.8 0 13.6 0 0 Z " fill="#FFFFFF" transform="translate(1160,520)"/>
<path d="M0 0 C13.2 0 26.4 0 40 0 C40 13.2 40 26.4 40 40 C26.8 40 13.6 40 0 40 C0 26.8 0 13.6 0 0 Z " fill="#FFFFFF" transform="translate(1080,520)"/>
<path d="M0 0 C13.2 0 26.4 0 40 0 C40 13.2 40 26.4 40 40 C26.8 40 13.6 40 0 40 C0 26.8 0 13.6 0 0 Z " fill="#00C016" transform="translate(640,520)"/>
<path d="M0 0 C13.2 0 26.4 0 40 0 C40 13.2 40 26.4 40 40 C26.8 40 13.6 40 0 40 C0 26.8 0 13.6 0 0 Z " fill="#D07340" transform="translate(400,520)"/>
<path d="M0 0 C13.2 0 26.4 0 40 0 C40 13.2 40 26.4 40 40 C26.8 40 13.6 40 0 40 C0 26.8 0 13.6 0 0 Z " fill="#542E1A" transform="translate(360,520)"/>
<path d="M0 0 C13.2 0 26.4 0 40 0 C40 13.2 40 26.4 40 40 C26.8 40 13.6 40 0 40 C0 26.8 0 13.6 0 0 Z " fill="#FFFFFF" transform="translate(1120,480)"/>
<path d="M0 0 C13.2 0 26.4 0 40 0 C40 13.2 40 26.4 40 40 C26.8 40 13.6 40 0 40 C0 26.8 0 13.6 0 0 Z " fill="#FA7C65" transform="translate(800,480)"/>
<path d="M0 0 C13.2 0 26.4 0 40 0 C40 13.2 40 26.4 40 40 C26.8 40 13.6 40 0 40 C0 26.8 0 13.6 0 0 Z " fill="#00FF21" transform="translate(720,480)"/>
<path d="M0 0 C13.2 0 26.4 0 40 0 C40 13.2 40 26.4 40 40 C26.8 40 13.6 40 0 40 C0 26.8 0 13.6 0 0 Z " fill="#00C116" transform="translate(600,480)"/>
<path d="M0 0 C13.2 0 26.4 0 40 0 C40 13.2 40 26.4 40 40 C26.8 40 13.6 40 0 40 C0 26.8 0 13.6 0 0 Z " fill="#94C840" transform="translate(360,480)"/>
<path d="M0 0 C13.2 0 26.4 0 40 0 C40 13.2 40 26.4 40 40 C26.8 40 13.6 40 0 40 C0 26.8 0 13.6 0 0 Z " fill="#54221A" transform="translate(800,440)"/>
<path d="M0 0 C13.2 0 26.4 0 40 0 C40 13.2 40 26.4 40 40 C26.8 40 13.6 40 0 40 C0 26.8 0 13.6 0 0 Z " fill="#00C116" transform="translate(560,440)"/>
<path d="M0 0 C13.2 0 26.4 0 40 0 C40 13.2 40 26.4 40 40 C26.8 40 13.6 40 0 40 C0 26.8 0 13.6 0 0 Z " fill="#54231B" transform="translate(480,440)"/>
<path d="M0 0 C13.2 0 26.4 0 40 0 C40 13.2 40 26.4 40 40 C26.8 40 13.6 40 0 40 C0 26.8 0 13.6 0 0 Z " fill="#94C840" transform="translate(1160,400)"/>
<path d="M0 0 C13.2 0 26.4 0 40 0 C40 13.2 40 26.4 40 40 C26.8 40 13.6 40 0 40 C0 26.8 0 13.6 0 0 Z " fill="#94C840" transform="translate(880,400)"/>
<path d="M0 0 C13.2 0 26.4 0 40 0 C40 13.2 40 26.4 40 40 C26.8 40 13.6 40 0 40 C0 26.8 0 13.6 0 0 Z " fill="#94C840" transform="translate(800,400)"/>
<path d="M0 0 C13.2 0 26.4 0 40 0 C40 13.2 40 26.4 40 40 C26.8 40 13.6 40 0 40 C0 26.8 0 13.6 0 0 Z " fill="#54221B" transform="translate(520,400)"/>
<path d="M0 0 C13.2 0 26.4 0 40 0 C40 13.2 40 26.4 40 40 C26.8 40 13.6 40 0 40 C0 26.8 0 13.6 0 0 Z " fill="#94C840" transform="translate(840,360)"/>
<path d="M0 0 C13.2 0 26.4 0 40 0 C40 13.2 40 26.4 40 40 C26.8 40 13.6 40 0 40 C0 26.8 0 13.6 0 0 Z " fill="#54231A" transform="translate(640,360)"/>
<path d="M0 0 C13.2 0 26.4 0 40 0 C40 13.2 40 26.4 40 40 C26.8 40 13.6 40 0 40 C0 26.8 0 13.6 0 0 Z " fill="#54231A" transform="translate(560,360)"/>
<path d="M0 0 C13.2 0 26.4 0 40 0 C40 13.2 40 26.4 40 40 C26.8 40 13.6 40 0 40 C0 26.8 0 13.6 0 0 Z " fill="#94C840" transform="translate(520,360)"/>
<path d="M0 0 C13.2 0 26.4 0 40 0 C40 13.2 40 26.4 40 40 C26.8 40 13.6 40 0 40 C0 26.8 0 13.6 0 0 Z " fill="#94C840" transform="translate(440,360)"/>
<path d="M0 0 C13.2 0 26.4 0 40 0 C40 13.2 40 26.4 40 40 C26.8 40 13.6 40 0 40 C0 26.8 0 13.6 0 0 Z " fill="#4CFF00" transform="translate(600,320)"/>
<path d="M0 0 C13.2 0 26.4 0 40 0 C40 13.2 40 26.4 40 40 C26.8 40 13.6 40 0 40 C0 26.8 0 13.6 0 0 Z " fill="#94C840" transform="translate(480,320)"/>
<path d="M0 0 C13.2 0 26.4 0 40 0 C40 13.2 40 26.4 40 40 C26.8 40 13.6 40 0 40 C0 26.8 0 13.6 0 0 Z " fill="#4A9945" transform="translate(280,320)"/>
<path d="M0 0 C13.2 0 26.4 0 40 0 C40 13.2 40 26.4 40 40 C26.8 40 13.6 40 0 40 C0 26.8 0 13.6 0 0 Z " fill="#94C840" transform="translate(80,280)"/>
<path d="M0 0 C13.2 0 26.4 0 40 0 C40 13.2 40 26.4 40 40 C26.8 40 13.6 40 0 40 C0 26.8 0 13.6 0 0 Z " fill="#4A9845" transform="translate(640,240)"/>
<path d="M0 0 C13.2 0 26.4 0 40 0 C40 13.2 40 26.4 40 40 C26.8 40 13.6 40 0 40 C0 26.8 0 13.6 0 0 Z " fill="#1EFF38" transform="translate(880,200)"/>
<path d="M0 0 C13.2 0 26.4 0 40 0 C40 13.2 40 26.4 40 40 C26.8 40 13.6 40 0 40 C0 26.8 0 13.6 0 0 Z " fill="#4CFF00" transform="translate(560,200)"/>
<path d="M0 0 C13.2 0 26.4 0 40 0 C40 13.2 40 26.4 40 40 C26.8 40 13.6 40 0 40 C0 26.8 0 13.6 0 0 Z " fill="#FFFFFF" transform="translate(160,200)"/>
<path d="M0 0 C13.2 0 26.4 0 40 0 C40 13.2 40 26.4 40 40 C26.8 40 13.6 40 0 40 C0 26.8 0 13.6 0 0 Z " fill="#FFFEFF" transform="translate(1040,160)"/>
<path d="M0 0 C13.2 0 26.4 0 40 0 C40 13.2 40 26.4 40 40 C26.8 40 13.6 40 0 40 C0 26.8 0 13.6 0 0 Z " fill="#4CFF00" transform="translate(800,160)"/>
<path d="M0 0 C13.2 0 26.4 0 40 0 C40 13.2 40 26.4 40 40 C26.8 40 13.6 40 0 40 C0 26.8 0 13.6 0 0 Z " fill="#4CFF00" transform="translate(600,160)"/>
<path d="M0 0 C13.2 0 26.4 0 40 0 C40 13.2 40 26.4 40 40 C26.8 40 13.6 40 0 40 C0 26.8 0 13.6 0 0 Z " fill="#94C840" transform="translate(280,160)"/>
<path d="M0 0 C13.2 0 26.4 0 40 0 C40 13.2 40 26.4 40 40 C26.8 40 13.6 40 0 40 C0 26.8 0 13.6 0 0 Z " fill="#FEFEFF" transform="translate(200,160)"/>
<path d="M0 0 C13.2 0 26.4 0 40 0 C40 13.2 40 26.4 40 40 C26.8 40 13.6 40 0 40 C0 26.8 0 13.6 0 0 Z " fill="#FEFFFF" transform="translate(120,160)"/>
<path d="M0 0 C13.2 0 26.4 0 40 0 C40 13.2 40 26.4 40 40 C26.8 40 13.6 40 0 40 C0 26.8 0 13.6 0 0 Z " fill="#94C840" transform="translate(1120,120)"/>
<path d="M0 0 C13.2 0 26.4 0 40 0 C40 13.2 40 26.4 40 40 C26.8 40 13.6 40 0 40 C0 26.8 0 13.6 0 0 Z " fill="#FFFFFF" transform="translate(1000,120)"/>
<path d="M0 0 C13.2 0 26.4 0 40 0 C40 13.2 40 26.4 40 40 C26.8 40 13.6 40 0 40 C0 26.8 0 13.6 0 0 Z " fill="#94C840" transform="translate(600,120)"/>
<path d="M0 0 C13.2 0 26.4 0 40 0 C40 13.2 40 26.4 40 40 C26.8 40 13.6 40 0 40 C0 26.8 0 13.6 0 0 Z " fill="#94C840" transform="translate(240,120)"/>
<path d="M0 0 C13.2 0 26.4 0 40 0 C40 13.2 40 26.4 40 40 C26.8 40 13.6 40 0 40 C0 26.8 0 13.6 0 0 Z " fill="#FFFFFE" transform="translate(160,120)"/>
<path d="M0 0 C13.2 0 26.4 0 40 0 C40 13.2 40 26.4 40 40 C26.8 40 13.6 40 0 40 C0 26.8 0 13.6 0 0 Z " fill="#4A9945" transform="translate(80,120)"/>
<path d="M0 0 C13.2 0 26.4 0 40 0 C40 13.2 40 26.4 40 40 C26.8 40 13.6 40 0 40 C0 26.8 0 13.6 0 0 Z " fill="#4A9945" transform="translate(1000,80)"/>
<path d="M0 0 C13.2 0 26.4 0 40 0 C40 13.2 40 26.4 40 40 C26.8 40 13.6 40 0 40 C0 26.8 0 13.6 0 0 Z " fill="#4A9844" transform="translate(840,80)"/>
<path d="M0 0 C13.2 0 26.4 0 40 0 C40 13.2 40 26.4 40 40 C26.8 40 13.6 40 0 40 C0 26.8 0 13.6 0 0 Z " fill="#94C840" transform="translate(640,80)"/>
</svg>
