<?xml version="1.0" encoding="UTF-8"?>
<svg version="1.1" xmlns="http://www.w3.org/2000/svg" width="1280" height="1280">
<path d="M0 0 C422.4 0 844.8 0 1280 0 C1280 422.4 1280 844.8 1280 1280 C857.6 1280 435.2 1280 0 1280 C0 857.6 0 435.2 0 0 Z " fill="#587CCE" transform="translate(0,0)"/>
<path d="M0 0 C92.4 0 184.8 0 280 0 C280 13.2 280 26.4 280 40 C293.2 40 306.4 40 320 40 C320 53.2 320 66.4 320 80 C333.2 80 346.4 80 360 80 C360 93.2 360 106.4 360 120 C373.2 120 386.4 120 400 120 C400 146.4 400 172.8 400 200 C413.2 200 426.4 200 440 200 C440 252.8 440 305.6 440 360 C453.2 360 466.4 360 480 360 C480 478.8 480 597.6 480 720 C453.6 720 427.2 720 400 720 C400 733.2 400 746.4 400 760 C386.8 760 373.6 760 360 760 C360 773.2 360 786.4 360 800 C333.6 800 307.2 800 280 800 C280 813.2 280 826.4 280 840 C200.8 840 121.6 840 40 840 C40 826.8 40 813.6 40 800 C13.6 800 -12.8 800 -40 800 C-40 786.8 -40 773.6 -40 760 C-53.2 760 -66.4 760 -80 760 C-80 746.8 -80 733.6 -80 720 C-106.4 720 -132.8 720 -160 720 C-160 706.8 -160 693.6 -160 680 C-146.8 680 -133.6 680 -120 680 C-120 600.8 -120 521.6 -120 440 C-133.2 440 -146.4 440 -160 440 C-160 413.6 -160 387.2 -160 360 C-173.2 360 -186.4 360 -200 360 C-200 346.8 -200 333.6 -200 320 C-213.2 320 -226.4 320 -240 320 C-240 306.8 -240 293.6 -240 280 C-213.6 280 -187.2 280 -160 280 C-160 253.6 -160 227.2 -160 200 C-146.8 200 -133.6 200 -120 200 C-120 173.6 -120 147.2 -120 120 C-106.8 120 -93.6 120 -80 120 C-80 106.8 -80 93.6 -80 80 C-66.8 80 -53.6 80 -40 80 C-40 66.8 -40 53.6 -40 40 C-26.8 40 -13.6 40 0 40 C0 26.8 0 13.6 0 0 Z " fill="#C40000" transform="translate(480,280)"/>
<path d="M0 0 C39.6 0 79.2 0 120 0 C120 13.2 120 26.4 120 40 C133.2 40 146.4 40 160 40 C160 53.2 160 66.4 160 80 C173.2 80 186.4 80 200 80 C200 93.2 200 106.4 200 120 C213.2 120 226.4 120 240 120 C240 133.2 240 146.4 240 160 C253.2 160 266.4 160 280 160 C280 133.6 280 107.2 280 80 C266.8 80 253.6 80 240 80 C240 66.8 240 53.6 240 40 C226.8 40 213.6 40 200 40 C200 26.8 200 13.6 200 0 C239.6 0 279.2 0 320 0 C320 13.2 320 26.4 320 40 C333.2 40 346.4 40 360 40 C360 79.6 360 119.2 360 160 C346.8 160 333.6 160 320 160 C320 173.2 320 186.4 320 200 C346.4 200 372.8 200 400 200 C400 213.2 400 226.4 400 240 C413.2 240 426.4 240 440 240 C440 253.2 440 266.4 440 280 C466.4 280 492.8 280 520 280 C520 293.2 520 306.4 520 320 C599.2 320 678.4 320 760 320 C760 306.8 760 293.6 760 280 C786.4 280 812.8 280 840 280 C840 266.8 840 253.6 840 240 C853.2 240 866.4 240 880 240 C880 226.8 880 213.6 880 200 C906.4 200 932.8 200 960 200 C960 134 960 68 960 0 C999.6 0 1039.2 0 1080 0 C1080 13.2 1080 26.4 1080 40 C1106.4 40 1132.8 40 1160 40 C1160 26.8 1160 13.6 1160 0 C1199.6 0 1239.2 0 1280 0 C1280 158.4 1280 316.8 1280 480 C857.6 480 435.2 480 0 480 C0 321.6 0 163.2 0 0 Z " fill="#344A7A" transform="translate(0,800)"/>
<path d="M0 0 C422.4 0 844.8 0 1280 0 C1280 264 1280 528 1280 800 C1240.4 800 1200.8 800 1160 800 C1160 813.2 1160 826.4 1160 840 C1133.6 840 1107.2 840 1080 840 C1080 826.8 1080 813.6 1080 800 C1040.4 800 1000.8 800 960 800 C960 786.8 960 773.6 960 760 C973.2 760 986.4 760 1000 760 C1000 746.8 1000 733.6 1000 720 C1026.4 720 1052.8 720 1080 720 C1080 733.2 1080 746.4 1080 760 C1106.4 760 1132.8 760 1160 760 C1160 746.8 1160 733.6 1160 720 C1173.2 720 1186.4 720 1200 720 C1200 733.2 1200 746.4 1200 760 C1213.2 760 1226.4 760 1240 760 C1240 522.4 1240 284.8 1240 40 C844 40 448 40 40 40 C40 66.4 40 92.8 40 120 C53.2 120 66.4 120 80 120 C80 106.8 80 93.6 80 80 C119.6 80 159.2 80 200 80 C200 93.2 200 106.4 200 120 C213.2 120 226.4 120 240 120 C240 133.2 240 146.4 240 160 C266.4 160 292.8 160 320 160 C320 146.8 320 133.6 320 120 C346.4 120 372.8 120 400 120 C400 133.2 400 146.4 400 160 C386.8 160 373.6 160 360 160 C360 186.4 360 212.8 360 240 C320.4 240 280.8 240 240 240 C240 226.8 240 213.6 240 200 C226.8 200 213.6 200 200 200 C200 186.8 200 173.6 200 160 C160.4 160 120.8 160 80 160 C80 173.2 80 186.4 80 200 C66.8 200 53.6 200 40 200 C40 239.6 40 279.2 40 320 C66.4 320 92.8 320 120 320 C120 333.2 120 346.4 120 360 C133.2 360 146.4 360 160 360 C160 373.2 160 386.4 160 400 C186.4 400 212.8 400 240 400 C240 386.8 240 373.6 240 360 C266.4 360 292.8 360 320 360 C320 373.2 320 386.4 320 400 C306.8 400 293.6 400 280 400 C280 426.4 280 452.8 280 480 C240.4 480 200.8 480 160 480 C160 466.8 160 453.6 160 440 C146.8 440 133.6 440 120 440 C120 426.8 120 413.6 120 400 C93.6 400 67.2 400 40 400 C40 466 40 532 40 600 C53.2 600 66.4 600 80 600 C80 586.8 80 573.6 80 560 C119.6 560 159.2 560 200 560 C200 573.2 200 586.4 200 600 C226.4 600 252.8 600 280 600 C280 613.2 280 626.4 280 640 C293.2 640 306.4 640 320 640 C320 666.4 320 692.8 320 720 C333.2 720 346.4 720 360 720 C360 759.6 360 799.2 360 840 C346.8 840 333.6 840 320 840 C320 826.8 320 813.6 320 800 C280.4 800 240.8 800 200 800 C200 813.2 200 826.4 200 840 C213.2 840 226.4 840 240 840 C240 853.2 240 866.4 240 880 C253.2 880 266.4 880 280 880 C280 906.4 280 932.8 280 960 C266.8 960 253.6 960 240 960 C240 946.8 240 933.6 240 920 C226.8 920 213.6 920 200 920 C200 906.8 200 893.6 200 880 C186.8 880 173.6 880 160 880 C160 866.8 160 853.6 160 840 C146.8 840 133.6 840 120 840 C120 826.8 120 813.6 120 800 C80.4 800 40.8 800 0 800 C0 536 0 272 0 0 Z " fill="#709CFE" transform="translate(0,0)"/>
<path d="M0 0 C92.4 0 184.8 0 280 0 C280 13.2 280 26.4 280 40 C293.2 40 306.4 40 320 40 C320 53.2 320 66.4 320 80 C333.2 80 346.4 80 360 80 C360 106.4 360 132.8 360 160 C346.8 160 333.6 160 320 160 C320 173.2 320 186.4 320 200 C333.2 200 346.4 200 360 200 C360 226.4 360 252.8 360 280 C373.2 280 386.4 280 400 280 C400 293.2 400 306.4 400 320 C268 320 136 320 0 320 C0 359.6 0 399.2 0 440 C-52.8 440 -105.6 440 -160 440 C-160 413.6 -160 387.2 -160 360 C-173.2 360 -186.4 360 -200 360 C-200 346.8 -200 333.6 -200 320 C-213.2 320 -226.4 320 -240 320 C-240 306.8 -240 293.6 -240 280 C-213.6 280 -187.2 280 -160 280 C-160 253.6 -160 227.2 -160 200 C-146.8 200 -133.6 200 -120 200 C-120 173.6 -120 147.2 -120 120 C-106.8 120 -93.6 120 -80 120 C-80 106.8 -80 93.6 -80 80 C-66.8 80 -53.6 80 -40 80 C-40 66.8 -40 53.6 -40 40 C-26.8 40 -13.6 40 0 40 C0 26.8 0 13.6 0 0 Z " fill="#D89800" transform="translate(480,280)"/>
<path d="M0 0 C39.6 0 79.2 0 120 0 C120 13.2 120 26.4 120 40 C133.2 40 146.4 40 160 40 C160 53.2 160 66.4 160 80 C173.2 80 186.4 80 200 80 C200 93.2 200 106.4 200 120 C213.2 120 226.4 120 240 120 C240 133.2 240 146.4 240 160 C253.2 160 266.4 160 280 160 C280 133.6 280 107.2 280 80 C266.8 80 253.6 80 240 80 C240 66.8 240 53.6 240 40 C226.8 40 213.6 40 200 40 C200 26.8 200 13.6 200 0 C239.6 0 279.2 0 320 0 C320 13.2 320 26.4 320 40 C333.2 40 346.4 40 360 40 C360 79.6 360 119.2 360 160 C346.8 160 333.6 160 320 160 C320 173.2 320 186.4 320 200 C346.4 200 372.8 200 400 200 C400 213.2 400 226.4 400 240 C413.2 240 426.4 240 440 240 C440 253.2 440 266.4 440 280 C466.4 280 492.8 280 520 280 C520 306.4 520 332.8 520 360 C572.8 360 625.6 360 680 360 C680 373.2 680 386.4 680 400 C666.8 400 653.6 400 640 400 C640 413.2 640 426.4 640 440 C494.8 440 349.6 440 200 440 C200 426.8 200 413.6 200 400 C226.4 400 252.8 400 280 400 C280 360.4 280 320.8 280 280 C266.8 280 253.6 280 240 280 C240 306.4 240 332.8 240 360 C213.6 360 187.2 360 160 360 C160 346.8 160 333.6 160 320 C146.8 320 133.6 320 120 320 C120 306.8 120 293.6 120 280 C146.4 280 172.8 280 200 280 C200 266.8 200 253.6 200 240 C160.4 240 120.8 240 80 240 C80 292.8 80 345.6 80 400 C66.8 400 53.6 400 40 400 C40 320.8 40 241.6 40 160 C26.8 160 13.6 160 0 160 C0 107.2 0 54.4 0 0 Z " fill="#445F9C" transform="translate(0,800)"/>
<path d="M0 0 C396 0 792 0 1200 0 C1200 52.8 1200 105.6 1200 160 C1186.8 160 1173.6 160 1160 160 C1160 146.8 1160 133.6 1160 120 C1146.8 120 1133.6 120 1120 120 C1120 106.8 1120 93.6 1120 80 C1080.4 80 1040.8 80 1000 80 C1000 93.2 1000 106.4 1000 120 C986.8 120 973.6 120 960 120 C960 146.4 960 172.8 960 200 C920.4 200 880.8 200 840 200 C840 186.8 840 173.6 840 160 C826.8 160 813.6 160 800 160 C800 146.8 800 133.6 800 120 C760.4 120 720.8 120 680 120 C680 133.2 680 146.4 680 160 C627.2 160 574.4 160 520 160 C520 146.8 520 133.6 520 120 C506.8 120 493.6 120 480 120 C480 106.8 480 93.6 480 80 C414 80 348 80 280 80 C280 93.2 280 106.4 280 120 C253.6 120 227.2 120 200 120 C200 106.8 200 93.6 200 80 C186.8 80 173.6 80 160 80 C160 66.8 160 53.6 160 40 C120.4 40 80.8 40 40 40 C40 53.2 40 66.4 40 80 C26.8 80 13.6 80 0 80 C0 53.6 0 27.2 0 0 Z " fill="#587CCE" transform="translate(40,40)"/>
<path d="M0 0 C39.6 0 79.2 0 120 0 C120 26.4 120 52.8 120 80 C133.2 80 146.4 80 160 80 C160 66.8 160 53.6 160 40 C186.4 40 212.8 40 240 40 C240 26.8 240 13.6 240 0 C253.2 0 266.4 0 280 0 C280 145.2 280 290.4 280 440 C266.8 440 253.6 440 240 440 C240 426.8 240 413.6 240 400 C226.8 400 213.6 400 200 400 C200 413.2 200 426.4 200 440 C173.6 440 147.2 440 120 440 C120 426.8 120 413.6 120 400 C93.6 400 67.2 400 40 400 C40 413.2 40 426.4 40 440 C26.8 440 13.6 440 0 440 C0 400.4 0 360.8 0 320 C-13.2 320 -26.4 320 -40 320 C-40 267.2 -40 214.4 -40 160 C-53.2 160 -66.4 160 -80 160 C-80 120.4 -80 80.8 -80 40 C-53.6 40 -27.2 40 0 40 C0 26.8 0 13.6 0 0 Z " fill="#587CCE" transform="translate(960,320)"/>
<path d="M0 0 C66 0 132 0 200 0 C200 13.2 200 26.4 200 40 C186.8 40 173.6 40 160 40 C160 53.2 160 66.4 160 80 C146.8 80 133.6 80 120 80 C120 66.8 120 53.6 120 40 C106.8 40 93.6 40 80 40 C80 66.4 80 92.8 80 120 C93.2 120 106.4 120 120 120 C120 133.2 120 146.4 120 160 C146.4 160 172.8 160 200 160 C200 146.8 200 133.6 200 120 C213.2 120 226.4 120 240 120 C240 106.8 240 93.6 240 80 C266.4 80 292.8 80 320 80 C320 93.2 320 106.4 320 120 C333.2 120 346.4 120 360 120 C360 133.2 360 146.4 360 160 C386.4 160 412.8 160 440 160 C440 146.8 440 133.6 440 120 C453.2 120 466.4 120 480 120 C480 93.6 480 67.2 480 40 C466.8 40 453.6 40 440 40 C440 53.2 440 66.4 440 80 C426.8 80 413.6 80 400 80 C400 66.8 400 53.6 400 40 C386.8 40 373.6 40 360 40 C360 26.8 360 13.6 360 0 C412.8 0 465.6 0 520 0 C520 79.2 520 158.4 520 240 C506.8 240 493.6 240 480 240 C480 253.2 480 266.4 480 280 C466.8 280 453.6 280 440 280 C440 293.2 440 306.4 440 320 C413.6 320 387.2 320 360 320 C360 333.2 360 346.4 360 360 C280.8 360 201.6 360 120 360 C120 346.8 120 333.6 120 320 C106.8 320 93.6 320 80 320 C80 293.6 80 267.2 80 240 C93.2 240 106.4 240 120 240 C120 226.8 120 213.6 120 200 C80.4 200 40.8 200 0 200 C0 134 0 68 0 0 Z " fill="#FEA014" transform="translate(400,760)"/>
<path d="M0 0 C39.6 0 79.2 0 120 0 C120 13.2 120 26.4 120 40 C146.4 40 172.8 40 200 40 C200 26.8 200 13.6 200 0 C239.6 0 279.2 0 320 0 C320 52.8 320 105.6 320 160 C306.8 160 293.6 160 280 160 C280 239.2 280 318.4 280 400 C266.8 400 253.6 400 240 400 C240 413.2 240 426.4 240 440 C200.4 440 160.8 440 120 440 C120 426.8 120 413.6 120 400 C93.6 400 67.2 400 40 400 C40 386.8 40 373.6 40 360 C26.8 360 13.6 360 0 360 C0 241.2 0 122.4 0 0 Z " fill="#4662A0" transform="translate(960,800)"/>
<path d="M0 0 C26.4 0 52.8 0 80 0 C80 52.8 80 105.6 80 160 C93.2 160 106.4 160 120 160 C120 173.2 120 186.4 120 200 C146.4 200 172.8 200 200 200 C200 213.2 200 226.4 200 240 C54.8 240 -90.4 240 -240 240 C-240 226.8 -240 213.6 -240 200 C-226.8 200 -213.6 200 -200 200 C-200 186.8 -200 173.6 -200 160 C-252.8 160 -305.6 160 -360 160 C-360 146.8 -360 133.6 -360 120 C-280.8 120 -201.6 120 -120 120 C-120 106.8 -120 93.6 -120 80 C-93.6 80 -67.2 80 -40 80 C-40 66.8 -40 53.6 -40 40 C-26.8 40 -13.6 40 0 40 C0 26.8 0 13.6 0 0 Z " fill="#425E98" transform="translate(880,1000)"/>
<path d="M0 0 C52.8 0 105.6 0 160 0 C160 13.2 160 26.4 160 40 C186.4 40 212.8 40 240 40 C240 53.2 240 66.4 240 80 C253.2 80 266.4 80 280 80 C280 106.4 280 132.8 280 160 C293.2 160 306.4 160 320 160 C320 173.2 320 186.4 320 200 C188 200 56 200 -80 200 C-80 160.4 -80 120.8 -80 80 C-66.8 80 -53.6 80 -40 80 C-40 66.8 -40 53.6 -40 40 C-26.8 40 -13.6 40 0 40 C0 26.8 0 13.6 0 0 Z " fill="#FEA014" transform="translate(560,400)"/>
<path d="M0 0 C13.2 0 26.4 0 40 0 C40 39.6 40 79.2 40 120 C53.2 120 66.4 120 80 120 C80 146.4 80 172.8 80 200 C106.4 200 132.8 200 160 200 C160 186.8 160 173.6 160 160 C146.8 160 133.6 160 120 160 C120 133.6 120 107.2 120 80 C133.2 80 146.4 80 160 80 C160 93.2 160 106.4 160 120 C173.2 120 186.4 120 200 120 C200 146.4 200 172.8 200 200 C213.2 200 226.4 200 240 200 C240 147.2 240 94.4 240 40 C253.2 40 266.4 40 280 40 C280 106 280 172 280 240 C266.8 240 253.6 240 240 240 C240 253.2 240 266.4 240 280 C200.4 280 160.8 280 120 280 C120 266.8 120 253.6 120 240 C93.6 240 67.2 240 40 240 C40 226.8 40 213.6 40 200 C26.8 200 13.6 200 0 200 C0 134 0 68 0 0 Z " fill="#9A22B8" transform="translate(960,960)"/>
<path d="M0 0 C52.8 0 105.6 0 160 0 C160 13.2 160 26.4 160 40 C173.2 40 186.4 40 200 40 C200 53.2 200 66.4 200 80 C213.2 80 226.4 80 240 80 C240 66.8 240 53.6 240 40 C253.2 40 266.4 40 280 40 C280 66.4 280 92.8 280 120 C266.8 120 253.6 120 240 120 C240 133.2 240 146.4 240 160 C213.6 160 187.2 160 160 160 C160 146.8 160 133.6 160 120 C146.8 120 133.6 120 120 120 C120 106.8 120 93.6 120 80 C93.6 80 67.2 80 40 80 C40 93.2 40 106.4 40 120 C26.8 120 13.6 120 0 120 C0 133.2 0 146.4 0 160 C-26.4 160 -52.8 160 -80 160 C-80 146.8 -80 133.6 -80 120 C-93.2 120 -106.4 120 -120 120 C-120 93.6 -120 67.2 -120 40 C-106.8 40 -93.6 40 -80 40 C-80 53.2 -80 66.4 -80 80 C-66.8 80 -53.6 80 -40 80 C-40 66.8 -40 53.6 -40 40 C-26.8 40 -13.6 40 0 40 C0 26.8 0 13.6 0 0 Z " fill="#626262" transform="translate(600,760)"/>
<path d="M0 0 C39.6 0 79.2 0 120 0 C120 13.2 120 26.4 120 40 C133.2 40 146.4 40 160 40 C160 53.2 160 66.4 160 80 C186.4 80 212.8 80 240 80 C240 66.8 240 53.6 240 40 C266.4 40 292.8 40 320 40 C320 53.2 320 66.4 320 80 C306.8 80 293.6 80 280 80 C280 106.4 280 132.8 280 160 C240.4 160 200.8 160 160 160 C160 146.8 160 133.6 160 120 C146.8 120 133.6 120 120 120 C120 106.8 120 93.6 120 80 C80.4 80 40.8 80 0 80 C0 93.2 0 106.4 0 120 C-52.8 120 -105.6 120 -160 120 C-160 106.8 -160 93.6 -160 80 C-133.6 80 -107.2 80 -80 80 C-80 66.8 -80 53.6 -80 40 C-53.6 40 -27.2 40 0 40 C0 26.8 0 13.6 0 0 Z " fill="#6CC2CA" transform="translate(720,80)"/>
<path d="M0 0 C39.6 0 79.2 0 120 0 C120 13.2 120 26.4 120 40 C146.4 40 172.8 40 200 40 C200 26.8 200 13.6 200 0 C226.4 0 252.8 0 280 0 C280 26.4 280 52.8 280 80 C253.6 80 227.2 80 200 80 C200 93.2 200 106.4 200 120 C173.6 120 147.2 120 120 120 C120 133.2 120 146.4 120 160 C80.4 160 40.8 160 0 160 C0 107.2 0 54.4 0 0 Z " fill="#4C6AAC" transform="translate(960,800)"/>
<path d="M0 0 C39.6 0 79.2 0 120 0 C120 13.2 120 26.4 120 40 C133.2 40 146.4 40 160 40 C160 53.2 160 66.4 160 80 C186.4 80 212.8 80 240 80 C240 66.8 240 53.6 240 40 C266.4 40 292.8 40 320 40 C320 53.2 320 66.4 320 80 C306.8 80 293.6 80 280 80 C280 106.4 280 132.8 280 160 C240.4 160 200.8 160 160 160 C160 146.8 160 133.6 160 120 C146.8 120 133.6 120 120 120 C120 106.8 120 93.6 120 80 C80.4 80 40.8 80 0 80 C0 93.2 0 106.4 0 120 C-13.2 120 -26.4 120 -40 120 C-40 93.6 -40 67.2 -40 40 C-26.8 40 -13.6 40 0 40 C0 26.8 0 13.6 0 0 Z " fill="#6DC2CA" transform="translate(80,80)"/>
<path d="M0 0 C39.6 0 79.2 0 120 0 C120 13.2 120 26.4 120 40 C93.6 40 67.2 40 40 40 C40 53.2 40 66.4 40 80 C53.2 80 66.4 80 80 80 C80 93.2 80 106.4 80 120 C106.4 120 132.8 120 160 120 C160 93.6 160 67.2 160 40 C173.2 40 186.4 40 200 40 C200 79.6 200 119.2 200 160 C173.6 160 147.2 160 120 160 C120 173.2 120 186.4 120 200 C67.2 200 14.4 200 -40 200 C-40 186.8 -40 173.6 -40 160 C-26.8 160 -13.6 160 0 160 C0 107.2 0 54.4 0 0 Z " fill="#00401E" transform="translate(80,1040)"/>
<path d="M0 0 C39.6 0 79.2 0 120 0 C120 13.2 120 26.4 120 40 C133.2 40 146.4 40 160 40 C160 53.2 160 66.4 160 80 C173.2 80 186.4 80 200 80 C200 106.4 200 132.8 200 160 C186.8 160 173.6 160 160 160 C160 146.8 160 133.6 160 120 C146.8 120 133.6 120 120 120 C120 133.2 120 146.4 120 160 C93.6 160 67.2 160 40 160 C40 146.8 40 133.6 40 120 C13.6 120 -12.8 120 -40 120 C-40 93.6 -40 67.2 -40 40 C-26.8 40 -13.6 40 0 40 C0 26.8 0 13.6 0 0 Z " fill="#587CCE" transform="translate(1040,600)"/>
<path d="M0 0 C39.6 0 79.2 0 120 0 C120 13.2 120 26.4 120 40 C146.4 40 172.8 40 200 40 C200 53.2 200 66.4 200 80 C213.2 80 226.4 80 240 80 C240 106.4 240 132.8 240 160 C213.6 160 187.2 160 160 160 C160 146.8 160 133.6 160 120 C146.8 120 133.6 120 120 120 C120 106.8 120 93.6 120 80 C80.4 80 40.8 80 0 80 C0 93.2 0 106.4 0 120 C-13.2 120 -26.4 120 -40 120 C-40 93.6 -40 67.2 -40 40 C-26.8 40 -13.6 40 0 40 C0 26.8 0 13.6 0 0 Z " fill="#6CC2CA" transform="translate(80,560)"/>
<path d="M0 0 C79.2 0 158.4 0 240 0 C240 13.2 240 26.4 240 40 C253.2 40 266.4 40 280 40 C280 53.2 280 66.4 280 80 C253.6 80 227.2 80 200 80 C200 66.8 200 53.6 200 40 C147.2 40 94.4 40 40 40 C40 53.2 40 66.4 40 80 C26.8 80 13.6 80 0 80 C0 93.2 0 106.4 0 120 C-13.2 120 -26.4 120 -40 120 C-40 159.6 -40 199.2 -40 240 C-53.2 240 -66.4 240 -80 240 C-80 187.2 -80 134.4 -80 80 C-66.8 80 -53.6 80 -40 80 C-40 66.8 -40 53.6 -40 40 C-26.8 40 -13.6 40 0 40 C0 26.8 0 13.6 0 0 Z " fill="#644200" transform="translate(520,360)"/>
<path d="M0 0 C13.2 0 26.4 0 40 0 C40 66 40 132 40 200 C26.8 200 13.6 200 0 200 C0 239.6 0 279.2 0 320 C-13.2 320 -26.4 320 -40 320 C-40 293.6 -40 267.2 -40 240 C-53.2 240 -66.4 240 -80 240 C-80 226.8 -80 213.6 -80 200 C-93.2 200 -106.4 200 -120 200 C-120 186.8 -120 173.6 -120 160 C-93.6 160 -67.2 160 -40 160 C-40 133.6 -40 107.2 -40 80 C-26.8 80 -13.6 80 0 80 C0 53.6 0 27.2 0 0 Z " fill="#624400" transform="translate(360,400)"/>
<path d="M0 0 C26.4 0 52.8 0 80 0 C80 13.2 80 26.4 80 40 C93.2 40 106.4 40 120 40 C120 53.2 120 66.4 120 80 C146.4 80 172.8 80 200 80 C200 66.8 200 53.6 200 40 C226.4 40 252.8 40 280 40 C280 53.2 280 66.4 280 80 C266.8 80 253.6 80 240 80 C240 106.4 240 132.8 240 160 C200.4 160 160.8 160 120 160 C120 146.8 120 133.6 120 120 C106.8 120 93.6 120 80 120 C80 106.8 80 93.6 80 80 C53.6 80 27.2 80 0 80 C0 53.6 0 27.2 0 0 Z " fill="#6DC2CA" transform="translate(40,320)"/>
<path d="M0 0 C26.4 0 52.8 0 80 0 C80 13.2 80 26.4 80 40 C93.2 40 106.4 40 120 40 C120 53.2 120 66.4 120 80 C133.2 80 146.4 80 160 80 C160 93.2 160 106.4 160 120 C173.2 120 186.4 120 200 120 C200 146.4 200 172.8 200 200 C173.6 200 147.2 200 120 200 C120 186.8 120 173.6 120 160 C106.8 160 93.6 160 80 160 C80 146.8 80 133.6 80 120 C66.8 120 53.6 120 40 120 C40 106.8 40 93.6 40 80 C26.8 80 13.6 80 0 80 C0 53.6 0 27.2 0 0 Z " fill="#4B6AAB" transform="translate(40,800)"/>
<path d="M0 0 C39.6 0 79.2 0 120 0 C120 13.2 120 26.4 120 40 C133.2 40 146.4 40 160 40 C160 53.2 160 66.4 160 80 C146.8 80 133.6 80 120 80 C120 93.2 120 106.4 120 120 C93.6 120 67.2 120 40 120 C40 106.8 40 93.6 40 80 C26.8 80 13.6 80 0 80 C0 93.2 0 106.4 0 120 C-13.2 120 -26.4 120 -40 120 C-40 93.6 -40 67.2 -40 40 C-26.8 40 -13.6 40 0 40 C0 26.8 0 13.6 0 0 Z " fill="#587CCE" transform="translate(80,640)"/>
<path d="M0 0 C39.6 0 79.2 0 120 0 C120 13.2 120 26.4 120 40 C133.2 40 146.4 40 160 40 C160 79.6 160 119.2 160 160 C133.6 160 107.2 160 80 160 C80 133.6 80 107.2 80 80 C66.8 80 53.6 80 40 80 C40 66.8 40 53.6 40 40 C26.8 40 13.6 40 0 40 C0 26.8 0 13.6 0 0 Z " fill="#4C6AAC" transform="translate(200,800)"/>
<path d="M0 0 C66 0 132 0 200 0 C200 13.2 200 26.4 200 40 C186.8 40 173.6 40 160 40 C160 66.4 160 92.8 160 120 C146.8 120 133.6 120 120 120 C120 106.8 120 93.6 120 80 C106.8 80 93.6 80 80 80 C80 66.8 80 53.6 80 40 C53.6 40 27.2 40 0 40 C0 26.8 0 13.6 0 0 Z " fill="#FF880B" transform="translate(320,960)"/>
<path d="M0 0 C39.6 0 79.2 0 120 0 C120 13.2 120 26.4 120 40 C93.6 40 67.2 40 40 40 C40 106 40 172 40 240 C26.8 240 13.6 240 0 240 C0 160.8 0 81.6 0 0 Z " fill="#6A3804" transform="translate(360,720)"/>
<path d="M0 0 C13.2 0 26.4 0 40 0 C40 26.4 40 52.8 40 80 C53.2 80 66.4 80 80 80 C80 119.6 80 159.2 80 200 C66.8 200 53.6 200 40 200 C40 186.8 40 173.6 40 160 C26.8 160 13.6 160 0 160 C0 133.6 0 107.2 0 80 C-13.2 80 -26.4 80 -40 80 C-40 66.8 -40 53.6 -40 40 C-26.8 40 -13.6 40 0 40 C0 26.8 0 13.6 0 0 Z " fill="#654001" transform="translate(840,400)"/>
<path d="M0 0 C13.2 0 26.4 0 40 0 C40 13.2 40 26.4 40 40 C106 40 172 40 240 40 C240 53.2 240 66.4 240 80 C160.8 80 81.6 80 0 80 C0 53.6 0 27.2 0 0 Z " fill="#FE880A" transform="translate(520,1040)"/>
<path d="M0 0 C13.2 0 26.4 0 40 0 C40 39.6 40 79.2 40 120 C0.4 120 -39.2 120 -80 120 C-80 93.6 -80 67.2 -80 40 C-53.6 40 -27.2 40 0 40 C0 26.8 0 13.6 0 0 Z " fill="#6CC2CA" transform="translate(1200,320)"/>
<path d="M0 0 C92.4 0 184.8 0 280 0 C280 13.2 280 26.4 280 40 C187.6 40 95.2 40 0 40 C0 26.8 0 13.6 0 0 Z " fill="#624400" transform="translate(480,280)"/>
<path d="M0 0 C52.8 0 105.6 0 160 0 C160 13.2 160 26.4 160 40 C146.8 40 133.6 40 120 40 C120 53.2 120 66.4 120 80 C93.6 80 67.2 80 40 80 C40 66.8 40 53.6 40 40 C26.8 40 13.6 40 0 40 C0 26.8 0 13.6 0 0 Z " fill="#425E99" transform="translate(520,1160)"/>
<path d="M0 0 C79.2 0 158.4 0 240 0 C240 13.2 240 26.4 240 40 C160.8 40 81.6 40 0 40 C0 26.8 0 13.6 0 0 Z " fill="#6A3804" transform="translate(520,1120)"/>
<path d="M0 0 C13.2 0 26.4 0 40 0 C40 79.2 40 158.4 40 240 C26.8 240 13.6 240 0 240 C0 160.8 0 81.6 0 0 Z " fill="#6A3804" transform="translate(920,760)"/>
<path d="M0 0 C26.4 0 52.8 0 80 0 C80 13.2 80 26.4 80 40 C93.2 40 106.4 40 120 40 C120 79.6 120 119.2 120 160 C106.8 160 93.6 160 80 160 C80 133.6 80 107.2 80 80 C66.8 80 53.6 80 40 80 C40 66.8 40 53.6 40 40 C26.8 40 13.6 40 0 40 C0 26.8 0 13.6 0 0 Z " fill="#624400" transform="translate(240,560)"/>
<path d="M0 0 C26.4 0 52.8 0 80 0 C80 13.2 80 26.4 80 40 C66.8 40 53.6 40 40 40 C40 66.4 40 92.8 40 120 C0.4 120 -39.2 120 -80 120 C-80 106.8 -80 93.6 -80 80 C-53.6 80 -27.2 80 0 80 C0 53.6 0 27.2 0 0 Z " fill="#6CC2CA" transform="translate(240,360)"/>
<path d="M0 0 C26.4 0 52.8 0 80 0 C80 13.2 80 26.4 80 40 C66.8 40 53.6 40 40 40 C40 66.4 40 92.8 40 120 C0.4 120 -39.2 120 -80 120 C-80 106.8 -80 93.6 -80 80 C-53.6 80 -27.2 80 0 80 C0 53.6 0 27.2 0 0 Z " fill="#6CC2CA" transform="translate(960,120)"/>
<path d="M0 0 C26.4 0 52.8 0 80 0 C80 13.2 80 26.4 80 40 C66.8 40 53.6 40 40 40 C40 66.4 40 92.8 40 120 C0.4 120 -39.2 120 -80 120 C-80 106.8 -80 93.6 -80 80 C-53.6 80 -27.2 80 0 80 C0 53.6 0 27.2 0 0 Z " fill="#6CC2CA" transform="translate(320,120)"/>
<path d="M0 0 C26.4 0 52.8 0 80 0 C80 26.4 80 52.8 80 80 C27.2 80 -25.6 80 -80 80 C-80 66.8 -80 53.6 -80 40 C-53.6 40 -27.2 40 0 40 C0 26.8 0 13.6 0 0 Z " fill="#6CC2CA" transform="translate(640,120)"/>
<path d="M0 0 C13.2 0 26.4 0 40 0 C40 66 40 132 40 200 C26.8 200 13.6 200 0 200 C0 134 0 68 0 0 Z " fill="#FE880A" transform="translate(400,760)"/>
<path d="M0 0 C26.4 0 52.8 0 80 0 C80 13.2 80 26.4 80 40 C66.8 40 53.6 40 40 40 C40 79.6 40 119.2 40 160 C26.8 160 13.6 160 0 160 C0 107.2 0 54.4 0 0 Z " fill="#6DC2CA" transform="translate(960,600)"/>
<path d="M0 0 C39.6 0 79.2 0 120 0 C120 26.4 120 52.8 120 80 C106.8 80 93.6 80 80 80 C80 66.8 80 53.6 80 40 C53.6 40 27.2 40 0 40 C0 26.8 0 13.6 0 0 Z " fill="#6B3805" transform="translate(320,960)"/>
<path d="M0 0 C13.2 0 26.4 0 40 0 C40 52.8 40 105.6 40 160 C26.8 160 13.6 160 0 160 C0 107.2 0 54.4 0 0 Z " fill="#415C92" transform="translate(1240,800)"/>
<path d="M0 0 C13.2 0 26.4 0 40 0 C40 52.8 40 105.6 40 160 C26.8 160 13.6 160 0 160 C0 107.2 0 54.4 0 0 Z " fill="#415C92" transform="translate(0,800)"/>
<path d="M0 0 C26.4 0 52.8 0 80 0 C80 13.2 80 26.4 80 40 C66.8 40 53.6 40 40 40 C40 66.4 40 92.8 40 120 C26.8 120 13.6 120 0 120 C0 80.4 0 40.8 0 0 Z " fill="#6CC2CA" transform="translate(880,360)"/>
<path d="M0 0 C13.2 0 26.4 0 40 0 C40 13.2 40 26.4 40 40 C53.2 40 66.4 40 80 40 C80 53.2 80 66.4 80 80 C53.6 80 27.2 80 0 80 C0 53.6 0 27.2 0 0 Z " fill="#425E98" transform="translate(1040,1080)"/>
<path d="M0 0 C13.2 0 26.4 0 40 0 C40 13.2 40 26.4 40 40 C53.2 40 66.4 40 80 40 C80 53.2 80 66.4 80 80 C53.6 80 27.2 80 0 80 C0 53.6 0 27.2 0 0 Z " fill="#FE880A" transform="translate(760,1000)"/>
<path d="M0 0 C26.4 0 52.8 0 80 0 C80 26.4 80 52.8 80 80 C66.8 80 53.6 80 40 80 C40 66.8 40 53.6 40 40 C26.8 40 13.6 40 0 40 C0 26.8 0 13.6 0 0 Z " fill="#5F87D8" transform="translate(200,880)"/>
<path d="M0 0 C39.6 0 79.2 0 120 0 C120 13.2 120 26.4 120 40 C80.4 40 40.8 40 0 40 C0 26.8 0 13.6 0 0 Z " fill="#624500" transform="translate(360,720)"/>
<path d="M0 0 C13.2 0 26.4 0 40 0 C40 39.6 40 79.2 40 120 C26.8 120 13.6 120 0 120 C0 80.4 0 40.8 0 0 Z " fill="#C64849" transform="translate(920,640)"/>
<path d="M0 0 C13.2 0 26.4 0 40 0 C40 13.2 40 26.4 40 40 C53.2 40 66.4 40 80 40 C80 53.2 80 66.4 80 80 C53.6 80 27.2 80 0 80 C0 53.6 0 27.2 0 0 Z " fill="#000000" transform="translate(760,640)"/>
<path d="M0 0 C13.2 0 26.4 0 40 0 C40 13.2 40 26.4 40 40 C53.2 40 66.4 40 80 40 C80 53.2 80 66.4 80 80 C53.6 80 27.2 80 0 80 C0 53.6 0 27.2 0 0 Z " fill="#000000" transform="translate(520,640)"/>
<path d="M0 0 C13.2 0 26.4 0 40 0 C40 39.6 40 79.2 40 120 C26.8 120 13.6 120 0 120 C0 80.4 0 40.8 0 0 Z " fill="#634500" transform="translate(480,600)"/>
<path d="M0 0 C39.6 0 79.2 0 120 0 C120 13.2 120 26.4 120 40 C80.4 40 40.8 40 0 40 C0 26.8 0 13.6 0 0 Z " fill="#6CC2CA" transform="translate(1040,560)"/>
<path d="M0 0 C26.4 0 52.8 0 80 0 C80 26.4 80 52.8 80 80 C66.8 80 53.6 80 40 80 C40 66.8 40 53.6 40 40 C26.8 40 13.6 40 0 40 C0 26.8 0 13.6 0 0 Z " fill="#A00000" transform="translate(240,560)"/>
<path d="M0 0 C39.6 0 79.2 0 120 0 C120 13.2 120 26.4 120 40 C80.4 40 40.8 40 0 40 C0 26.8 0 13.6 0 0 Z " fill="#DEEED6" transform="translate(80,560)"/>
<path d="M0 0 C39.6 0 79.2 0 120 0 C120 13.2 120 26.4 120 40 C80.4 40 40.8 40 0 40 C0 26.8 0 13.6 0 0 Z " fill="#6DC2CA" transform="translate(960,320)"/>
<path d="M0 0 C39.6 0 79.2 0 120 0 C120 13.2 120 26.4 120 40 C80.4 40 40.8 40 0 40 C0 26.8 0 13.6 0 0 Z " fill="#6CC2CA" transform="translate(320,320)"/>
<path d="M0 0 C39.6 0 79.2 0 120 0 C120 13.2 120 26.4 120 40 C80.4 40 40.8 40 0 40 C0 26.8 0 13.6 0 0 Z " fill="#6DC2CA" transform="translate(1040,80)"/>
<path d="M0 0 C39.6 0 79.2 0 120 0 C120 13.2 120 26.4 120 40 C80.4 40 40.8 40 0 40 C0 26.8 0 13.6 0 0 Z " fill="#DEEED6" transform="translate(720,80)"/>
<path d="M0 0 C39.6 0 79.2 0 120 0 C120 13.2 120 26.4 120 40 C80.4 40 40.8 40 0 40 C0 26.8 0 13.6 0 0 Z " fill="#6CC2CA" transform="translate(400,80)"/>
<path d="M0 0 C39.6 0 79.2 0 120 0 C120 13.2 120 26.4 120 40 C80.4 40 40.8 40 0 40 C0 26.8 0 13.6 0 0 Z " fill="#DEEED6" transform="translate(80,80)"/>
<path d="M0 0 C26.4 0 52.8 0 80 0 C80 13.2 80 26.4 80 40 C53.6 40 27.2 40 0 40 C0 26.8 0 13.6 0 0 Z " fill="#5F87D8" transform="translate(560,1200)"/>
<path d="M0 0 C13.2 0 26.4 0 40 0 C40 26.4 40 52.8 40 80 C26.8 80 13.6 80 0 80 C0 53.6 0 27.2 0 0 Z " fill="#B25DCC" transform="translate(1080,1040)"/>
<path d="M0 0 C26.4 0 52.8 0 80 0 C80 13.2 80 26.4 80 40 C53.6 40 27.2 40 0 40 C0 26.8 0 13.6 0 0 Z " fill="#6B3805" transform="translate(760,1080)"/>
<path d="M0 0 C13.2 0 26.4 0 40 0 C40 26.4 40 52.8 40 80 C26.8 80 13.6 80 0 80 C0 53.6 0 27.2 0 0 Z " fill="#00BC58" transform="translate(240,1080)"/>
<path d="M0 0 C13.2 0 26.4 0 40 0 C40 26.4 40 52.8 40 80 C26.8 80 13.6 80 0 80 C0 53.6 0 27.2 0 0 Z " fill="#B25DCC" transform="translate(1200,1000)"/>
<path d="M0 0 C26.4 0 52.8 0 80 0 C80 13.2 80 26.4 80 40 C53.6 40 27.2 40 0 40 C0 26.8 0 13.6 0 0 Z " fill="#BC8412" transform="translate(320,960)"/>
<path d="M0 0 C26.4 0 52.8 0 80 0 C80 13.2 80 26.4 80 40 C53.6 40 27.2 40 0 40 C0 26.8 0 13.6 0 0 Z " fill="#5E87D8" transform="translate(160,960)"/>
<path d="M0 0 C13.2 0 26.4 0 40 0 C40 26.4 40 52.8 40 80 C26.8 80 13.6 80 0 80 C0 53.6 0 27.2 0 0 Z " fill="#5F86D8" transform="translate(120,880)"/>
<path d="M0 0 C26.4 0 52.8 0 80 0 C80 13.2 80 26.4 80 40 C53.6 40 27.2 40 0 40 C0 26.8 0 13.6 0 0 Z " fill="#5E86D8" transform="translate(160,840)"/>
<path d="M0 0 C26.4 0 52.8 0 80 0 C80 13.2 80 26.4 80 40 C53.6 40 27.2 40 0 40 C0 26.8 0 13.6 0 0 Z " fill="#FFA014" transform="translate(640,720)"/>
<path d="M0 0 C26.4 0 52.8 0 80 0 C80 13.2 80 26.4 80 40 C53.6 40 27.2 40 0 40 C0 26.8 0 13.6 0 0 Z " fill="#597CCE" transform="translate(280,720)"/>
<path d="M0 0 C26.4 0 52.8 0 80 0 C80 13.2 80 26.4 80 40 C53.6 40 27.2 40 0 40 C0 26.8 0 13.6 0 0 Z " fill="#6CC2CA" transform="translate(240,680)"/>
<path d="M0 0 C26.4 0 52.8 0 80 0 C80 13.2 80 26.4 80 40 C53.6 40 27.2 40 0 40 C0 26.8 0 13.6 0 0 Z " fill="#DEEED6" transform="translate(240,640)"/>
<path d="M0 0 C13.2 0 26.4 0 40 0 C40 26.4 40 52.8 40 80 C26.8 80 13.6 80 0 80 C0 53.6 0 27.2 0 0 Z " fill="#6DC2CA" transform="translate(40,600)"/>
<path d="M0 0 C26.4 0 52.8 0 80 0 C80 13.2 80 26.4 80 40 C53.6 40 27.2 40 0 40 C0 26.8 0 13.6 0 0 Z " fill="#6DC2CA" transform="translate(960,600)"/>
<path d="M0 0 C13.2 0 26.4 0 40 0 C40 26.4 40 52.8 40 80 C26.8 80 13.6 80 0 80 C0 53.6 0 27.2 0 0 Z " fill="#A00000" transform="translate(320,480)"/>
<path d="M0 0 C26.4 0 52.8 0 80 0 C80 13.2 80 26.4 80 40 C53.6 40 27.2 40 0 40 C0 26.8 0 13.6 0 0 Z " fill="#FEB32E" transform="translate(720,440)"/>
<path d="M0 0 C26.4 0 52.8 0 80 0 C80 13.2 80 26.4 80 40 C53.6 40 27.2 40 0 40 C0 26.8 0 13.6 0 0 Z " fill="#6B3805" transform="translate(720,400)"/>
<path d="M0 0 C26.4 0 52.8 0 80 0 C80 13.2 80 26.4 80 40 C53.6 40 27.2 40 0 40 C0 26.8 0 13.6 0 0 Z " fill="#DEEED6" transform="translate(160,400)"/>
<path d="M0 0 C26.4 0 52.8 0 80 0 C80 13.2 80 26.4 80 40 C53.6 40 27.2 40 0 40 C0 26.8 0 13.6 0 0 Z " fill="#DEEED6" transform="translate(1120,360)"/>
<path d="M0 0 C26.4 0 52.8 0 80 0 C80 13.2 80 26.4 80 40 C53.6 40 27.2 40 0 40 C0 26.8 0 13.6 0 0 Z " fill="#6DC2CA" transform="translate(880,360)"/>
<path d="M0 0 C26.4 0 52.8 0 80 0 C80 13.2 80 26.4 80 40 C53.6 40 27.2 40 0 40 C0 26.8 0 13.6 0 0 Z " fill="#6DC2CA" transform="translate(240,360)"/>
<path d="M0 0 C26.4 0 52.8 0 80 0 C80 13.2 80 26.4 80 40 C53.6 40 27.2 40 0 40 C0 26.8 0 13.6 0 0 Z " fill="#DEEED6" transform="translate(40,320)"/>
<path d="M0 0 C26.4 0 52.8 0 80 0 C80 13.2 80 26.4 80 40 C53.6 40 27.2 40 0 40 C0 26.8 0 13.6 0 0 Z " fill="#DEEED6" transform="translate(880,160)"/>
<path d="M0 0 C13.2 0 26.4 0 40 0 C40 26.4 40 52.8 40 80 C26.8 80 13.6 80 0 80 C0 53.6 0 27.2 0 0 Z " fill="#6DC2CA" transform="translate(840,120)"/>
<path d="M0 0 C26.4 0 52.8 0 80 0 C80 13.2 80 26.4 80 40 C53.6 40 27.2 40 0 40 C0 26.8 0 13.6 0 0 Z " fill="#DEEED6" transform="translate(240,160)"/>
<path d="M0 0 C26.4 0 52.8 0 80 0 C80 13.2 80 26.4 80 40 C53.6 40 27.2 40 0 40 C0 26.8 0 13.6 0 0 Z " fill="#6DC2CA" transform="translate(960,120)"/>
<path d="M0 0 C26.4 0 52.8 0 80 0 C80 13.2 80 26.4 80 40 C53.6 40 27.2 40 0 40 C0 26.8 0 13.6 0 0 Z " fill="#6DC2CA" transform="translate(320,120)"/>
<path d="M0 0 C13.2 0 26.4 0 40 0 C40 13.2 40 26.4 40 40 C26.8 40 13.6 40 0 40 C0 26.8 0 13.6 0 0 Z " fill="#435E98" transform="translate(1200,1200)"/>
<path d="M0 0 C13.2 0 26.4 0 40 0 C40 13.2 40 26.4 40 40 C26.8 40 13.6 40 0 40 C0 26.8 0 13.6 0 0 Z " fill="#B25DCC" transform="translate(1160,1200)"/>
<path d="M0 0 C13.2 0 26.4 0 40 0 C40 13.2 40 26.4 40 40 C26.8 40 13.6 40 0 40 C0 26.8 0 13.6 0 0 Z " fill="#5E87D8" transform="translate(640,1160)"/>
<path d="M0 0 C13.2 0 26.4 0 40 0 C40 13.2 40 26.4 40 40 C26.8 40 13.6 40 0 40 C0 26.8 0 13.6 0 0 Z " fill="#5F87D8" transform="translate(520,1160)"/>
<path d="M0 0 C13.2 0 26.4 0 40 0 C40 13.2 40 26.4 40 40 C26.8 40 13.6 40 0 40 C0 26.8 0 13.6 0 0 Z " fill="#00BC58" transform="translate(120,1120)"/>
<path d="M0 0 C13.2 0 26.4 0 40 0 C40 13.2 40 26.4 40 40 C26.8 40 13.6 40 0 40 C0 26.8 0 13.6 0 0 Z " fill="#B25DCC" transform="translate(1000,1080)"/>
<path d="M0 0 C13.2 0 26.4 0 40 0 C40 13.2 40 26.4 40 40 C26.8 40 13.6 40 0 40 C0 26.8 0 13.6 0 0 Z " fill="#6B3804" transform="translate(480,1080)"/>
<path d="M0 0 C13.2 0 26.4 0 40 0 C40 13.2 40 26.4 40 40 C26.8 40 13.6 40 0 40 C0 26.8 0 13.6 0 0 Z " fill="#9A23B8" transform="translate(1080,1040)"/>
<path d="M0 0 C13.2 0 26.4 0 40 0 C40 13.2 40 26.4 40 40 C26.8 40 13.6 40 0 40 C0 26.8 0 13.6 0 0 Z " fill="#6B3804" transform="translate(840,1040)"/>
<path d="M0 0 C13.2 0 26.4 0 40 0 C40 13.2 40 26.4 40 40 C26.8 40 13.6 40 0 40 C0 26.8 0 13.6 0 0 Z " fill="#D4781D" transform="translate(520,1040)"/>
<path d="M0 0 C13.2 0 26.4 0 40 0 C40 13.2 40 26.4 40 40 C26.8 40 13.6 40 0 40 C0 26.8 0 13.6 0 0 Z " fill="#FF880B" transform="translate(480,1040)"/>
<path d="M0 0 C13.2 0 26.4 0 40 0 C40 13.2 40 26.4 40 40 C26.8 40 13.6 40 0 40 C0 26.8 0 13.6 0 0 Z " fill="#6B3805" transform="translate(440,1040)"/>
<path d="M0 0 C13.2 0 26.4 0 40 0 C40 13.2 40 26.4 40 40 C26.8 40 13.6 40 0 40 C0 26.8 0 13.6 0 0 Z " fill="#4764A3" transform="translate(400,1040)"/>
<path d="M0 0 C13.2 0 26.4 0 40 0 C40 13.2 40 26.4 40 40 C26.8 40 13.6 40 0 40 C0 26.8 0 13.6 0 0 Z " fill="#00BC58" transform="translate(160,1040)"/>
<path d="M0 0 C13.2 0 26.4 0 40 0 C40 13.2 40 26.4 40 40 C26.8 40 13.6 40 0 40 C0 26.8 0 13.6 0 0 Z " fill="#9A23B8" transform="translate(1200,1000)"/>
<path d="M0 0 C13.2 0 26.4 0 40 0 C40 13.2 40 26.4 40 40 C26.8 40 13.6 40 0 40 C0 26.8 0 13.6 0 0 Z " fill="#4764A3" transform="translate(920,1000)"/>
<path d="M0 0 C13.2 0 26.4 0 40 0 C40 13.2 40 26.4 40 40 C26.8 40 13.6 40 0 40 C0 26.8 0 13.6 0 0 Z " fill="#6A3805" transform="translate(880,1000)"/>
<path d="M0 0 C13.2 0 26.4 0 40 0 C40 13.2 40 26.4 40 40 C26.8 40 13.6 40 0 40 C0 26.8 0 13.6 0 0 Z " fill="#FF880B" transform="translate(840,1000)"/>
<path d="M0 0 C13.2 0 26.4 0 40 0 C40 13.2 40 26.4 40 40 C26.8 40 13.6 40 0 40 C0 26.8 0 13.6 0 0 Z " fill="#D4791D" transform="translate(760,1000)"/>
<path d="M0 0 C13.2 0 26.4 0 40 0 C40 13.2 40 26.4 40 40 C26.8 40 13.6 40 0 40 C0 26.8 0 13.6 0 0 Z " fill="#FE880A" transform="translate(880,960)"/>
<path d="M0 0 C13.2 0 26.4 0 40 0 C40 13.2 40 26.4 40 40 C26.8 40 13.6 40 0 40 C0 26.8 0 13.6 0 0 Z " fill="#D4791D" transform="translate(480,960)"/>
<path d="M0 0 C13.2 0 26.4 0 40 0 C40 13.2 40 26.4 40 40 C26.8 40 13.6 40 0 40 C0 26.8 0 13.6 0 0 Z " fill="#3B5386" transform="translate(1240,920)"/>
<path d="M0 0 C13.2 0 26.4 0 40 0 C40 13.2 40 26.4 40 40 C26.8 40 13.6 40 0 40 C0 26.8 0 13.6 0 0 Z " fill="#4664A3" transform="translate(320,920)"/>
<path d="M0 0 C13.2 0 26.4 0 40 0 C40 13.2 40 26.4 40 40 C26.8 40 13.6 40 0 40 C0 26.8 0 13.6 0 0 Z " fill="#3B5387" transform="translate(0,920)"/>
<path d="M0 0 C13.2 0 26.4 0 40 0 C40 13.2 40 26.4 40 40 C26.8 40 13.6 40 0 40 C0 26.8 0 13.6 0 0 Z " fill="#FFFFFE" transform="translate(200,880)"/>
<path d="M0 0 C13.2 0 26.4 0 40 0 C40 13.2 40 26.4 40 40 C26.8 40 13.6 40 0 40 C0 26.8 0 13.6 0 0 Z " fill="#4C6BAD" transform="translate(160,880)"/>
<path d="M0 0 C13.2 0 26.4 0 40 0 C40 13.2 40 26.4 40 40 C26.8 40 13.6 40 0 40 C0 26.8 0 13.6 0 0 Z " fill="#597DCE" transform="translate(960,720)"/>
<path d="M0 0 C13.2 0 26.4 0 40 0 C40 13.2 40 26.4 40 40 C26.8 40 13.6 40 0 40 C0 26.8 0 13.6 0 0 Z " fill="#6DC2CA" transform="translate(1200,640)"/>
<path d="M0 0 C13.2 0 26.4 0 40 0 C40 13.2 40 26.4 40 40 C26.8 40 13.6 40 0 40 C0 26.8 0 13.6 0 0 Z " fill="#FFFFFF" transform="translate(800,640)"/>
<path d="M0 0 C13.2 0 26.4 0 40 0 C40 13.2 40 26.4 40 40 C26.8 40 13.6 40 0 40 C0 26.8 0 13.6 0 0 Z " fill="#FFFFFF" transform="translate(560,640)"/>
<path d="M0 0 C13.2 0 26.4 0 40 0 C40 13.2 40 26.4 40 40 C26.8 40 13.6 40 0 40 C0 26.8 0 13.6 0 0 Z " fill="#FFFFFF" transform="translate(400,640)"/>
<path d="M0 0 C13.2 0 26.4 0 40 0 C40 13.2 40 26.4 40 40 C26.8 40 13.6 40 0 40 C0 26.8 0 13.6 0 0 Z " fill="#6CC2CA" transform="translate(200,640)"/>
<path d="M0 0 C13.2 0 26.4 0 40 0 C40 13.2 40 26.4 40 40 C26.8 40 13.6 40 0 40 C0 26.8 0 13.6 0 0 Z " fill="#6DC2CA" transform="translate(1160,600)"/>
<path d="M0 0 C13.2 0 26.4 0 40 0 C40 13.2 40 26.4 40 40 C26.8 40 13.6 40 0 40 C0 26.8 0 13.6 0 0 Z " fill="#DEEED6" transform="translate(960,600)"/>
<path d="M0 0 C13.2 0 26.4 0 40 0 C40 13.2 40 26.4 40 40 C26.8 40 13.6 40 0 40 C0 26.8 0 13.6 0 0 Z " fill="#C64545" transform="translate(880,600)"/>
<path d="M0 0 C13.2 0 26.4 0 40 0 C40 13.2 40 26.4 40 40 C26.8 40 13.6 40 0 40 C0 26.8 0 13.6 0 0 Z " fill="#597DCE" transform="translate(240,600)"/>
<path d="M0 0 C13.2 0 26.4 0 40 0 C40 13.2 40 26.4 40 40 C26.8 40 13.6 40 0 40 C0 26.8 0 13.6 0 0 Z " fill="#DEEED6" transform="translate(200,600)"/>
<path d="M0 0 C13.2 0 26.4 0 40 0 C40 13.2 40 26.4 40 40 C26.8 40 13.6 40 0 40 C0 26.8 0 13.6 0 0 Z " fill="#DEEED6" transform="translate(40,600)"/>
<path d="M0 0 C13.2 0 26.4 0 40 0 C40 13.2 40 26.4 40 40 C26.8 40 13.6 40 0 40 C0 26.8 0 13.6 0 0 Z " fill="#6B3805" transform="translate(880,560)"/>
<path d="M0 0 C13.2 0 26.4 0 40 0 C40 13.2 40 26.4 40 40 C26.8 40 13.6 40 0 40 C0 26.8 0 13.6 0 0 Z " fill="#597CCE" transform="translate(320,560)"/>
<path d="M0 0 C13.2 0 26.4 0 40 0 C40 13.2 40 26.4 40 40 C26.8 40 13.6 40 0 40 C0 26.8 0 13.6 0 0 Z " fill="#FFB32E" transform="translate(800,480)"/>
<path d="M0 0 C13.2 0 26.4 0 40 0 C40 13.2 40 26.4 40 40 C26.8 40 13.6 40 0 40 C0 26.8 0 13.6 0 0 Z " fill="#D4791C" transform="translate(560,480)"/>
<path d="M0 0 C13.2 0 26.4 0 40 0 C40 13.2 40 26.4 40 40 C26.8 40 13.6 40 0 40 C0 26.8 0 13.6 0 0 Z " fill="#6B3805" transform="translate(800,440)"/>
<path d="M0 0 C13.2 0 26.4 0 40 0 C40 13.2 40 26.4 40 40 C26.8 40 13.6 40 0 40 C0 26.8 0 13.6 0 0 Z " fill="#D89800" transform="translate(800,400)"/>
<path d="M0 0 C13.2 0 26.4 0 40 0 C40 13.2 40 26.4 40 40 C26.8 40 13.6 40 0 40 C0 26.8 0 13.6 0 0 Z " fill="#FFB32E" transform="translate(680,400)"/>
<path d="M0 0 C13.2 0 26.4 0 40 0 C40 13.2 40 26.4 40 40 C26.8 40 13.6 40 0 40 C0 26.8 0 13.6 0 0 Z " fill="#634400" transform="translate(480,400)"/>
<path d="M0 0 C13.2 0 26.4 0 40 0 C40 13.2 40 26.4 40 40 C26.8 40 13.6 40 0 40 C0 26.8 0 13.6 0 0 Z " fill="#6DC2CA" transform="translate(120,400)"/>
<path d="M0 0 C13.2 0 26.4 0 40 0 C40 13.2 40 26.4 40 40 C26.8 40 13.6 40 0 40 C0 26.8 0 13.6 0 0 Z " fill="#6DC2CA" transform="translate(1080,360)"/>
<path d="M0 0 C13.2 0 26.4 0 40 0 C40 13.2 40 26.4 40 40 C26.8 40 13.6 40 0 40 C0 26.8 0 13.6 0 0 Z " fill="#DEEED6" transform="translate(880,360)"/>
<path d="M0 0 C13.2 0 26.4 0 40 0 C40 13.2 40 26.4 40 40 C26.8 40 13.6 40 0 40 C0 26.8 0 13.6 0 0 Z " fill="#634500" transform="translate(800,360)"/>
<path d="M0 0 C13.2 0 26.4 0 40 0 C40 13.2 40 26.4 40 40 C26.8 40 13.6 40 0 40 C0 26.8 0 13.6 0 0 Z " fill="#D89800" transform="translate(760,360)"/>
<path d="M0 0 C13.2 0 26.4 0 40 0 C40 13.2 40 26.4 40 40 C26.8 40 13.6 40 0 40 C0 26.8 0 13.6 0 0 Z " fill="#634500" transform="translate(400,360)"/>
<path d="M0 0 C13.2 0 26.4 0 40 0 C40 13.2 40 26.4 40 40 C26.8 40 13.6 40 0 40 C0 26.8 0 13.6 0 0 Z " fill="#DEEED6" transform="translate(240,360)"/>
<path d="M0 0 C13.2 0 26.4 0 40 0 C40 13.2 40 26.4 40 40 C26.8 40 13.6 40 0 40 C0 26.8 0 13.6 0 0 Z " fill="#DEEED6" transform="translate(120,360)"/>
<path d="M0 0 C13.2 0 26.4 0 40 0 C40 13.2 40 26.4 40 40 C26.8 40 13.6 40 0 40 C0 26.8 0 13.6 0 0 Z " fill="#DEEED6" transform="translate(1200,320)"/>
<path d="M0 0 C13.2 0 26.4 0 40 0 C40 13.2 40 26.4 40 40 C26.8 40 13.6 40 0 40 C0 26.8 0 13.6 0 0 Z " fill="#634500" transform="translate(760,320)"/>
<path d="M0 0 C13.2 0 26.4 0 40 0 C40 13.2 40 26.4 40 40 C26.8 40 13.6 40 0 40 C0 26.8 0 13.6 0 0 Z " fill="#624500" transform="translate(440,320)"/>
<path d="M0 0 C13.2 0 26.4 0 40 0 C40 13.2 40 26.4 40 40 C26.8 40 13.6 40 0 40 C0 26.8 0 13.6 0 0 Z " fill="#6CC2CA" transform="translate(1200,160)"/>
<path d="M0 0 C13.2 0 26.4 0 40 0 C40 13.2 40 26.4 40 40 C26.8 40 13.6 40 0 40 C0 26.8 0 13.6 0 0 Z " fill="#6DC2CA" transform="translate(200,160)"/>
<path d="M0 0 C13.2 0 26.4 0 40 0 C40 13.2 40 26.4 40 40 C26.8 40 13.6 40 0 40 C0 26.8 0 13.6 0 0 Z " fill="#6DC2CA" transform="translate(40,160)"/>
<path d="M0 0 C13.2 0 26.4 0 40 0 C40 13.2 40 26.4 40 40 C26.8 40 13.6 40 0 40 C0 26.8 0 13.6 0 0 Z " fill="#6CC2CA" transform="translate(1160,120)"/>
<path d="M0 0 C13.2 0 26.4 0 40 0 C40 13.2 40 26.4 40 40 C26.8 40 13.6 40 0 40 C0 26.8 0 13.6 0 0 Z " fill="#DEEED6" transform="translate(960,120)"/>
<path d="M0 0 C13.2 0 26.4 0 40 0 C40 13.2 40 26.4 40 40 C26.8 40 13.6 40 0 40 C0 26.8 0 13.6 0 0 Z " fill="#DEEED6" transform="translate(840,120)"/>
<path d="M0 0 C13.2 0 26.4 0 40 0 C40 13.2 40 26.4 40 40 C26.8 40 13.6 40 0 40 C0 26.8 0 13.6 0 0 Z " fill="#DEEED6" transform="translate(680,120)"/>
<path d="M0 0 C13.2 0 26.4 0 40 0 C40 13.2 40 26.4 40 40 C26.8 40 13.6 40 0 40 C0 26.8 0 13.6 0 0 Z " fill="#6DC2CA" transform="translate(520,120)"/>
<path d="M0 0 C13.2 0 26.4 0 40 0 C40 13.2 40 26.4 40 40 C26.8 40 13.6 40 0 40 C0 26.8 0 13.6 0 0 Z " fill="#DEEED6" transform="translate(320,120)"/>
<path d="M0 0 C13.2 0 26.4 0 40 0 C40 13.2 40 26.4 40 40 C26.8 40 13.6 40 0 40 C0 26.8 0 13.6 0 0 Z " fill="#DEEED6" transform="translate(200,120)"/>
<path d="M0 0 C13.2 0 26.4 0 40 0 C40 13.2 40 26.4 40 40 C26.8 40 13.6 40 0 40 C0 26.8 0 13.6 0 0 Z " fill="#DEEED6" transform="translate(40,120)"/>
</svg>
