<?xml version="1.0" encoding="UTF-8"?>
<svg version="1.1" xmlns="http://www.w3.org/2000/svg" width="320" height="320">
<path d="M0 0 C105.6 0 211.2 0 320 0 C320 105.6 320 211.2 320 320 C214.4 320 108.8 320 0 320 C0 214.4 0 108.8 0 0 Z " fill="#9CA446" transform="translate(0,0)"/>
<path d="M0 0 C3.3 0 6.6 0 10 0 C10 23.1 10 46.2 10 70 C13.3 70 16.6 70 20 70 C20 76.6 20 83.2 20 90 C23.3 90 26.6 90 30 90 C30 93.3 30 96.6 30 100 C33.3 100 36.6 100 40 100 C40 103.3 40 106.6 40 110 C59.8 110 79.6 110 100 110 C100 106.7 100 103.4 100 100 C106.6 100 113.2 100 120 100 C120 96.7 120 93.4 120 90 C123.3 90 126.6 90 130 90 C130 86.7 130 83.4 130 80 C133.3 80 136.6 80 140 80 C140 56.9 140 33.8 140 10 C143.3 10 146.6 10 150 10 C150 16.6 150 23.2 150 30 C159.9 30 169.8 30 180 30 C180 33.3 180 36.6 180 40 C186.6 40 193.2 40 200 40 C200 36.7 200 33.4 200 30 C209.9 30 219.8 30 230 30 C230 69.6 230 109.2 230 150 C124.4 150 18.8 150 -90 150 C-90 110.4 -90 70.8 -90 30 C-80.1 30 -70.2 30 -60 30 C-60 33.3 -60 36.6 -60 40 C-53.4 40 -46.8 40 -40 40 C-40 36.7 -40 33.4 -40 30 C-30.1 30 -20.2 30 -10 30 C-10 33.3 -10 36.6 -10 40 C-6.7 40 -3.4 40 0 40 C0 26.8 0 13.6 0 0 Z " fill="#7A543C" transform="translate(90,170)"/>
<path d="M0 0 C105.6 0 211.2 0 320 0 C320 66 320 132 320 200 C310.1 200 300.2 200 290 200 C290 203.3 290 206.6 290 210 C283.4 210 276.8 210 270 210 C270 206.7 270 203.4 270 200 C260.1 200 250.2 200 240 200 C240 193.4 240 186.8 240 180 C236.7 180 233.4 180 230 180 C230 173.4 230 166.8 230 160 C246.5 160 263 160 280 160 C280 156.7 280 153.4 280 150 C283.3 150 286.6 150 290 150 C290 143.4 290 136.8 290 130 C280.1 130 270.2 130 260 130 C260 123.4 260 116.8 260 110 C256.7 110 253.4 110 250 110 C250 113.3 250 116.6 250 120 C246.7 120 243.4 120 240 120 C240 113.4 240 106.8 240 100 C236.7 100 233.4 100 230 100 C230 93.4 230 86.8 230 80 C226.7 80 223.4 80 220 80 C220 76.7 220 73.4 220 70 C216.7 70 213.4 70 210 70 C210 66.7 210 63.4 210 60 C206.7 60 203.4 60 200 60 C200 56.7 200 53.4 200 50 C196.7 50 193.4 50 190 50 C190 46.7 190 43.4 190 40 C183.4 40 176.8 40 170 40 C170 36.7 170 33.4 170 30 C163.4 30 156.8 30 150 30 C150 26.7 150 23.4 150 20 C146.7 20 143.4 20 140 20 C140 16.7 140 13.4 140 10 C97.1 10 54.2 10 10 10 C10 69.4 10 128.8 10 190 C13.3 190 16.6 190 20 190 C20 186.7 20 183.4 20 180 C23.3 180 26.6 180 30 180 C30 183.3 30 186.6 30 190 C36.6 190 43.2 190 50 190 C50 186.7 50 183.4 50 180 C56.6 180 63.2 180 70 180 C70 183.3 70 186.6 70 190 C76.6 190 83.2 190 90 190 C90 196.6 90 203.2 90 210 C86.7 210 83.4 210 80 210 C80 206.7 80 203.4 80 200 C70.1 200 60.2 200 50 200 C50 203.3 50 206.6 50 210 C43.4 210 36.8 210 30 210 C30 206.7 30 203.4 30 200 C20.1 200 10.2 200 0 200 C0 134 0 68 0 0 Z " fill="#9CA446" transform="translate(0,0)"/>
<path d="M0 0 C6.6 0 13.2 0 20 0 C20 6.6 20 13.2 20 20 C26.6 20 33.2 20 40 20 C40 13.4 40 6.8 40 0 C53.2 0 66.4 0 80 0 C80 6.6 80 13.2 80 20 C86.6 20 93.2 20 100 20 C100 13.4 100 6.8 100 0 C103.3 0 106.6 0 110 0 C110 6.6 110 13.2 110 20 C113.3 20 116.6 20 120 20 C120 43.1 120 66.2 120 90 C116.7 90 113.4 90 110 90 C110 93.3 110 96.6 110 100 C106.7 100 103.4 100 100 100 C100 103.3 100 106.6 100 110 C93.4 110 86.8 110 80 110 C80 113.3 80 116.6 80 120 C60.2 120 40.4 120 20 120 C20 116.7 20 113.4 20 110 C16.7 110 13.4 110 10 110 C10 106.7 10 103.4 10 100 C6.7 100 3.4 100 0 100 C0 93.4 0 86.8 0 80 C-3.3 80 -6.6 80 -10 80 C-10 56.9 -10 33.8 -10 10 C-6.7 10 -3.4 10 0 10 C0 6.7 0 3.4 0 0 Z " fill="#D8D266" transform="translate(110,160)"/>
<path d="M0 0 C13.2 0 26.4 0 40 0 C40 3.3 40 6.6 40 10 C43.3 10 46.6 10 50 10 C50 13.3 50 16.6 50 20 C56.6 20 63.2 20 70 20 C70 23.3 70 26.6 70 30 C76.6 30 83.2 30 90 30 C90 33.3 90 36.6 90 40 C93.3 40 96.6 40 100 40 C100 43.3 100 46.6 100 50 C103.3 50 106.6 50 110 50 C110 53.3 110 56.6 110 60 C113.3 60 116.6 60 120 60 C120 63.3 120 66.6 120 70 C123.3 70 126.6 70 130 70 C130 76.6 130 83.2 130 90 C133.3 90 136.6 90 140 90 C140 96.6 140 103.2 140 110 C90.5 110 41 110 -10 110 C-10 103.4 -10 96.8 -10 90 C-6.7 90 -3.4 90 0 90 C0 86.7 0 83.4 0 80 C3.3 80 6.6 80 10 80 C10 76.7 10 73.4 10 70 C13.3 70 16.6 70 20 70 C20 63.4 20 56.8 20 50 C16.7 50 13.4 50 10 50 C10 46.7 10 43.4 10 40 C6.7 40 3.4 40 0 40 C0 46.6 0 53.2 0 60 C-3.3 60 -6.6 60 -10 60 C-10 56.7 -10 53.4 -10 50 C-13.3 50 -16.6 50 -20 50 C-20 43.4 -20 36.8 -20 30 C-33.2 30 -46.4 30 -60 30 C-60 26.7 -60 23.4 -60 20 C-43.5 20 -27 20 -10 20 C-10 16.7 -10 13.4 -10 10 C-6.7 10 -3.4 10 0 10 C0 6.7 0 3.4 0 0 Z " fill="#6A00A0" transform="translate(100,10)"/>
<path d="M0 0 C3.3 0 6.6 0 10 0 C10 23.1 10 46.2 10 70 C6.7 70 3.4 70 0 70 C0 66.7 0 63.4 0 60 C-3.3 60 -6.6 60 -10 60 C-10 63.3 -10 66.6 -10 70 C-19.9 70 -29.8 70 -40 70 C-40 66.7 -40 63.4 -40 60 C-46.6 60 -53.2 60 -60 60 C-60 56.7 -60 53.4 -60 50 C-66.6 50 -73.2 50 -80 50 C-80 79.7 -80 109.4 -80 140 C19 140 118 140 220 140 C220 110.3 220 80.6 220 50 C213.4 50 206.8 50 200 50 C200 53.3 200 56.6 200 60 C193.4 60 186.8 60 180 60 C180 63.3 180 66.6 180 70 C170.1 70 160.2 70 150 70 C150 73.3 150 76.6 150 80 C146.7 80 143.4 80 140 80 C140 56.9 140 33.8 140 10 C143.3 10 146.6 10 150 10 C150 16.6 150 23.2 150 30 C159.9 30 169.8 30 180 30 C180 33.3 180 36.6 180 40 C186.6 40 193.2 40 200 40 C200 36.7 200 33.4 200 30 C209.9 30 219.8 30 230 30 C230 69.6 230 109.2 230 150 C124.4 150 18.8 150 -90 150 C-90 110.4 -90 70.8 -90 30 C-80.1 30 -70.2 30 -60 30 C-60 33.3 -60 36.6 -60 40 C-53.4 40 -46.8 40 -40 40 C-40 36.7 -40 33.4 -40 30 C-30.1 30 -20.2 30 -10 30 C-10 33.3 -10 36.6 -10 40 C-6.7 40 -3.4 40 0 40 C0 26.8 0 13.6 0 0 Z " fill="#6E4C32" transform="translate(90,170)"/>
<path d="M0 0 C105.6 0 211.2 0 320 0 C320 66 320 132 320 200 C310.1 200 300.2 200 290 200 C290 203.3 290 206.6 290 210 C283.4 210 276.8 210 270 210 C270 206.7 270 203.4 270 200 C260.1 200 250.2 200 240 200 C240 196.7 240 193.4 240 190 C243.3 190 246.6 190 250 190 C250 186.7 250 183.4 250 180 C256.6 180 263.2 180 270 180 C270 183.3 270 186.6 270 190 C276.6 190 283.2 190 290 190 C290 186.7 290 183.4 290 180 C293.3 180 296.6 180 300 180 C300 183.3 300 186.6 300 190 C303.3 190 306.6 190 310 190 C310 130.6 310 71.2 310 10 C211 10 112 10 10 10 C10 69.4 10 128.8 10 190 C13.3 190 16.6 190 20 190 C20 186.7 20 183.4 20 180 C23.3 180 26.6 180 30 180 C30 183.3 30 186.6 30 190 C36.6 190 43.2 190 50 190 C50 186.7 50 183.4 50 180 C56.6 180 63.2 180 70 180 C70 183.3 70 186.6 70 190 C76.6 190 83.2 190 90 190 C90 196.6 90 203.2 90 210 C86.7 210 83.4 210 80 210 C80 206.7 80 203.4 80 200 C70.1 200 60.2 200 50 200 C50 203.3 50 206.6 50 210 C43.4 210 36.8 210 30 210 C30 206.7 30 203.4 30 200 C20.1 200 10.2 200 0 200 C0 134 0 68 0 0 Z " fill="#B2BC50" transform="translate(0,0)"/>
<path d="M0 0 C72.6 0 145.2 0 220 0 C220 6.6 220 13.2 220 20 C206.8 20 193.6 20 180 20 C180 26.6 180 33.2 180 40 C176.7 40 173.4 40 170 40 C170 33.4 170 26.8 170 20 C166.7 20 163.4 20 160 20 C160 26.6 160 33.2 160 40 C153.4 40 146.8 40 140 40 C140 33.4 140 26.8 140 20 C126.8 20 113.6 20 100 20 C100 26.6 100 33.2 100 40 C93.4 40 86.8 40 80 40 C80 33.4 80 26.8 80 20 C73.4 20 66.8 20 60 20 C60 23.3 60 26.6 60 30 C56.7 30 53.4 30 50 30 C50 26.7 50 23.4 50 20 C36.8 20 23.6 20 10 20 C10 16.7 10 13.4 10 10 C6.7 10 3.4 10 0 10 C0 6.7 0 3.4 0 0 Z " fill="#2F0046" transform="translate(50,140)"/>
<path d="M0 0 C3.3 0 6.6 0 10 0 C10 6.6 10 13.2 10 20 C19.9 20 29.8 20 40 20 C40 26.6 40 33.2 40 40 C36.7 40 33.4 40 30 40 C30 43.3 30 46.6 30 50 C26.7 50 23.4 50 20 50 C20 43.4 20 36.8 20 30 C-49.3 30 -118.6 30 -190 30 C-190 26.7 -190 23.4 -190 20 C-183.4 20 -176.8 20 -170 20 C-170 16.7 -170 13.4 -170 10 C-113.9 10 -57.8 10 0 10 C0 6.7 0 3.4 0 0 Z " fill="#2F0046" transform="translate(250,110)"/>
<path d="M0 0 C3.3 0 6.6 0 10 0 C10 3.3 10 6.6 10 10 C16.6 10 23.2 10 30 10 C30 13.3 30 16.6 30 20 C33.3 20 36.6 20 40 20 C40 23.3 40 26.6 40 30 C43.3 30 46.6 30 50 30 C50 33.3 50 36.6 50 40 C53.3 40 56.6 40 60 40 C60 43.3 60 46.6 60 50 C63.3 50 66.6 50 70 50 C70 53.3 70 56.6 70 60 C73.3 60 76.6 60 80 60 C80 63.3 80 66.6 80 70 C83.3 70 86.6 70 90 70 C90 73.3 90 76.6 90 80 C60.3 80 30.6 80 0 80 C0 73.4 0 66.8 0 60 C3.3 60 6.6 60 10 60 C10 56.7 10 53.4 10 50 C13.3 50 16.6 50 20 50 C20 46.7 20 43.4 20 40 C23.3 40 26.6 40 30 40 C30 36.7 30 33.4 30 30 C23.4 30 16.8 30 10 30 C10 26.7 10 23.4 10 20 C6.7 20 3.4 20 0 20 C0 13.4 0 6.8 0 0 Z " fill="#9400DA" transform="translate(140,40)"/>
<path d="M0 0 C3.3 0 6.6 0 10 0 C10 23.1 10 46.2 10 70 C6.7 70 3.4 70 0 70 C0 66.7 0 63.4 0 60 C-3.3 60 -6.6 60 -10 60 C-10 63.3 -10 66.6 -10 70 C-19.9 70 -29.8 70 -40 70 C-40 66.7 -40 63.4 -40 60 C-46.6 60 -53.2 60 -60 60 C-60 56.7 -60 53.4 -60 50 C-66.6 50 -73.2 50 -80 50 C-80 53.3 -80 56.6 -80 60 C-83.3 60 -86.6 60 -90 60 C-90 50.1 -90 40.2 -90 30 C-80.1 30 -70.2 30 -60 30 C-60 33.3 -60 36.6 -60 40 C-53.4 40 -46.8 40 -40 40 C-40 36.7 -40 33.4 -40 30 C-30.1 30 -20.2 30 -10 30 C-10 33.3 -10 36.6 -10 40 C-6.7 40 -3.4 40 0 40 C0 26.8 0 13.6 0 0 Z " fill="#667F34" transform="translate(90,170)"/>
<path d="M0 0 C16.5 0 33 0 50 0 C50 6.6 50 13.2 50 20 C53.3 20 56.6 20 60 20 C60 26.6 60 33.2 60 40 C56.7 40 53.4 40 50 40 C50 49.9 50 59.8 50 70 C46.7 70 43.4 70 40 70 C40 63.4 40 56.8 40 50 C33.4 50 26.8 50 20 50 C20 56.6 20 63.2 20 70 C16.7 70 13.4 70 10 70 C10 60.1 10 50.2 10 40 C6.7 40 3.4 40 0 40 C0 36.7 0 33.4 0 30 C-3.3 30 -6.6 30 -10 30 C-10 23.4 -10 16.8 -10 10 C-6.7 10 -3.4 10 0 10 C0 6.7 0 3.4 0 0 Z " fill="#CE0000" transform="translate(30,40)"/>
<path d="M0 0 C3.3 0 6.6 0 10 0 C10 6.6 10 13.2 10 20 C19.9 20 29.8 20 40 20 C40 23.3 40 26.6 40 30 C46.6 30 53.2 30 60 30 C60 26.7 60 23.4 60 20 C69.9 20 79.8 20 90 20 C90 29.9 90 39.8 90 50 C86.7 50 83.4 50 80 50 C80 46.7 80 43.4 80 40 C73.4 40 66.8 40 60 40 C60 43.3 60 46.6 60 50 C53.4 50 46.8 50 40 50 C40 53.3 40 56.6 40 60 C30.1 60 20.2 60 10 60 C10 63.3 10 66.6 10 70 C6.7 70 3.4 70 0 70 C0 46.9 0 23.8 0 0 Z " fill="#667E34" transform="translate(230,180)"/>
<path d="M0 0 C6.6 0 13.2 0 20 0 C20 3.3 20 6.6 20 10 C26.6 10 33.2 10 40 10 C40 13.3 40 16.6 40 20 C49.9 20 59.8 20 70 20 C70 16.7 70 13.4 70 10 C73.3 10 76.6 10 80 10 C80 13.3 80 16.6 80 20 C83.3 20 86.6 20 90 20 C90 26.6 90 33.2 90 40 C83.4 40 76.8 40 70 40 C70 43.3 70 46.6 70 50 C60.1 50 50.2 50 40 50 C40 46.7 40 43.4 40 40 C33.4 40 26.8 40 20 40 C20 36.7 20 33.4 20 30 C13.4 30 6.8 30 0 30 C0 20.1 0 10.2 0 0 Z " fill="#846146" transform="translate(10,220)"/>
<path d="M0 0 C6.6 0 13.2 0 20 0 C20 9.9 20 19.8 20 30 C13.4 30 6.8 30 0 30 C0 33.3 0 36.6 0 40 C-6.6 40 -13.2 40 -20 40 C-20 43.3 -20 46.6 -20 50 C-26.6 50 -33.2 50 -40 50 C-40 53.3 -40 56.6 -40 60 C-43.3 60 -46.6 60 -50 60 C-50 53.4 -50 46.8 -50 40 C-53.3 40 -56.6 40 -60 40 C-60 36.7 -60 33.4 -60 30 C-56.7 30 -53.4 30 -50 30 C-50 26.7 -50 23.4 -50 20 C-40.1 20 -30.2 20 -20 20 C-20 16.7 -20 13.4 -20 10 C-13.4 10 -6.8 10 0 10 C0 6.7 0 3.4 0 0 Z " fill="#846046" transform="translate(290,220)"/>
<path d="M0 0 C72.6 0 145.2 0 220 0 C220 3.3 220 6.6 220 10 C147.4 10 74.8 10 0 10 C0 6.7 0 3.4 0 0 Z " fill="#9500DA" transform="translate(50,140)"/>
<path d="M0 0 C49.5 0 99 0 150 0 C150 3.3 150 6.6 150 10 C100.5 10 51 10 0 10 C0 6.7 0 3.4 0 0 Z " fill="#FED800" transform="translate(90,120)"/>
<path d="M0 0 C6.6 0 13.2 0 20 0 C20 3.3 20 6.6 20 10 C23.3 10 26.6 10 30 10 C30 13.3 30 16.6 30 20 C33.3 20 36.6 20 40 20 C40 23.3 40 26.6 40 30 C26.8 30 13.6 30 0 30 C0 20.1 0 10.2 0 0 Z " fill="#CE0000" transform="translate(260,100)"/>
<path d="M0 0 C16.5 0 33 0 50 0 C50 6.6 50 13.2 50 20 C53.3 20 56.6 20 60 20 C60 26.6 60 33.2 60 40 C56.7 40 53.4 40 50 40 C50 36.7 50 33.4 50 30 C46.7 30 43.4 30 40 30 C40 23.4 40 16.8 40 10 C26.8 10 13.6 10 0 10 C0 6.7 0 3.4 0 0 Z " fill="#2E0047" transform="translate(40,30)"/>
<path d="M0 0 C6.6 0 13.2 0 20 0 C20 3.3 20 6.6 20 10 C36.5 10 53 10 70 10 C70 13.3 70 16.6 70 20 C50.2 20 30.4 20 10 20 C10 16.7 10 13.4 10 10 C6.7 10 3.4 10 0 10 C0 6.7 0 3.4 0 0 Z " fill="#BBB455" transform="translate(120,260)"/>
<path d="M0 0 C13.2 0 26.4 0 40 0 C40 9.9 40 19.8 40 30 C36.7 30 33.4 30 30 30 C30 23.4 30 16.8 30 10 C23.4 10 16.8 10 10 10 C10 16.6 10 23.2 10 30 C6.7 30 3.4 30 0 30 C0 20.1 0 10.2 0 0 Z " fill="#7F0000" transform="translate(40,80)"/>
<path d="M0 0 C3.3 0 6.6 0 10 0 C10 23.1 10 46.2 10 70 C6.7 70 3.4 70 0 70 C0 46.9 0 23.8 0 0 Z " fill="#565226" transform="translate(230,180)"/>
<path d="M0 0 C3.3 0 6.6 0 10 0 C10 23.1 10 46.2 10 70 C6.7 70 3.4 70 0 70 C0 46.9 0 23.8 0 0 Z " fill="#BBB454" transform="translate(100,170)"/>
<path d="M0 0 C3.3 0 6.6 0 10 0 C10 23.1 10 46.2 10 70 C6.7 70 3.4 70 0 70 C0 46.9 0 23.8 0 0 Z " fill="#565227" transform="translate(90,170)"/>
<path d="M0 0 C23.1 0 46.2 0 70 0 C70 3.3 70 6.6 70 10 C46.9 10 23.8 10 0 10 C0 6.7 0 3.4 0 0 Z " fill="#6B00A0" transform="translate(50,140)"/>
<path d="M0 0 C19.8 0 39.6 0 60 0 C60 3.3 60 6.6 60 10 C40.2 10 20.4 10 0 10 C0 6.7 0 3.4 0 0 Z " fill="#565227" transform="translate(130,280)"/>
<path d="M0 0 C13.2 0 26.4 0 40 0 C40 6.6 40 13.2 40 20 C36.7 20 33.4 20 30 20 C30 16.7 30 13.4 30 10 C23.4 10 16.8 10 10 10 C10 13.3 10 16.6 10 20 C6.7 20 3.4 20 0 20 C0 13.4 0 6.8 0 0 Z " fill="#D8D8D8" transform="translate(150,160)"/>
<path d="M0 0 C3.3 0 6.6 0 10 0 C10 6.6 10 13.2 10 20 C13.3 20 16.6 20 20 20 C20 26.6 20 33.2 20 40 C16.7 40 13.4 40 10 40 C10 36.7 10 33.4 10 30 C6.7 30 3.4 30 0 30 C0 20.1 0 10.2 0 0 Z " fill="#2F0047" transform="translate(220,80)"/>
<path d="M0 0 C3.3 0 6.6 0 10 0 C10 3.3 10 6.6 10 10 C13.3 10 16.6 10 20 10 C20 13.3 20 16.6 20 20 C16.7 20 13.4 20 10 20 C10 23.3 10 26.6 10 30 C3.4 30 -3.2 30 -10 30 C-10 26.7 -10 23.4 -10 20 C-6.7 20 -3.4 20 0 20 C0 13.4 0 6.8 0 0 Z " fill="#2E0047" transform="translate(120,60)"/>
<path d="M0 0 C13.2 0 26.4 0 40 0 C40 3.3 40 6.6 40 10 C26.8 10 13.6 10 0 10 C0 6.7 0 3.4 0 0 Z " fill="#1E1E1E" transform="translate(150,210)"/>
<path d="M0 0 C6.6 0 13.2 0 20 0 C20 6.6 20 13.2 20 20 C13.4 20 6.8 20 0 20 C0 13.4 0 6.8 0 0 Z " fill="#00127F" transform="translate(190,160)"/>
<path d="M0 0 C6.6 0 13.2 0 20 0 C20 6.6 20 13.2 20 20 C13.4 20 6.8 20 0 20 C0 13.4 0 6.8 0 0 Z " fill="#A50000" transform="translate(130,160)"/>
<path d="M0 0 C6.6 0 13.2 0 20 0 C20 6.6 20 13.2 20 20 C13.4 20 6.8 20 0 20 C0 13.4 0 6.8 0 0 Z " fill="#FEFEFE" transform="translate(50,90)"/>
<path d="M0 0 C13.2 0 26.4 0 40 0 C40 3.3 40 6.6 40 10 C26.8 10 13.6 10 0 10 C0 6.7 0 3.4 0 0 Z " fill="#7F0000" transform="translate(40,30)"/>
<path d="M0 0 C13.2 0 26.4 0 40 0 C40 3.3 40 6.6 40 10 C26.8 10 13.6 10 0 10 C0 6.7 0 3.4 0 0 Z " fill="#2F0046" transform="translate(100,10)"/>
<path d="M0 0 C3.3 0 6.6 0 10 0 C10 3.3 10 6.6 10 10 C13.3 10 16.6 10 20 10 C20 13.3 20 16.6 20 20 C13.4 20 6.8 20 0 20 C0 13.4 0 6.8 0 0 Z " fill="#BBB455" transform="translate(190,250)"/>
<path d="M0 0 C6.6 0 13.2 0 20 0 C20 3.3 20 6.6 20 10 C16.7 10 13.4 10 10 10 C10 13.3 10 16.6 10 20 C6.7 20 3.4 20 0 20 C0 13.4 0 6.8 0 0 Z " fill="#BBB455" transform="translate(110,240)"/>
<path d="M0 0 C3.3 0 6.6 0 10 0 C10 9.9 10 19.8 10 30 C6.7 30 3.4 30 0 30 C0 20.1 0 10.2 0 0 Z " fill="#5E742E" transform="translate(310,200)"/>
<path d="M0 0 C3.3 0 6.6 0 10 0 C10 9.9 10 19.8 10 30 C6.7 30 3.4 30 0 30 C0 20.1 0 10.2 0 0 Z " fill="#5E742F" transform="translate(0,200)"/>
<path d="M0 0 C6.6 0 13.2 0 20 0 C20 3.3 20 6.6 20 10 C16.7 10 13.4 10 10 10 C10 13.3 10 16.6 10 20 C6.7 20 3.4 20 0 20 C0 13.4 0 6.8 0 0 Z " fill="#464723" transform="translate(270,140)"/>
<path d="M0 0 C6.6 0 13.2 0 20 0 C20 3.3 20 6.6 20 10 C13.4 10 6.8 10 0 10 C0 6.7 0 3.4 0 0 Z " fill="#7F7E7E" transform="translate(270,290)"/>
<path d="M0 0 C6.6 0 13.2 0 20 0 C20 3.3 20 6.6 20 10 C13.4 10 6.8 10 0 10 C0 6.7 0 3.4 0 0 Z " fill="#7F7F7E" transform="translate(100,280)"/>
<path d="M0 0 C6.6 0 13.2 0 20 0 C20 3.3 20 6.6 20 10 C13.4 10 6.8 10 0 10 C0 6.7 0 3.4 0 0 Z " fill="#565227" transform="translate(190,270)"/>
<path d="M0 0 C6.6 0 13.2 0 20 0 C20 3.3 20 6.6 20 10 C13.4 10 6.8 10 0 10 C0 6.7 0 3.4 0 0 Z " fill="#9E9953" transform="translate(120,260)"/>
<path d="M0 0 C6.6 0 13.2 0 20 0 C20 3.3 20 6.6 20 10 C13.4 10 6.8 10 0 10 C0 6.7 0 3.4 0 0 Z " fill="#7F7F7F" transform="translate(40,250)"/>
<path d="M0 0 C3.3 0 6.6 0 10 0 C10 6.6 10 13.2 10 20 C6.7 20 3.4 20 0 20 C0 13.4 0 6.8 0 0 Z " fill="#565226" transform="translate(100,240)"/>
<path d="M0 0 C6.6 0 13.2 0 20 0 C20 3.3 20 6.6 20 10 C13.4 10 6.8 10 0 10 C0 6.7 0 3.4 0 0 Z " fill="#D8D8D8" transform="translate(190,180)"/>
<path d="M0 0 C6.6 0 13.2 0 20 0 C20 3.3 20 6.6 20 10 C13.4 10 6.8 10 0 10 C0 6.7 0 3.4 0 0 Z " fill="#D8D8D8" transform="translate(130,180)"/>
<path d="M0 0 C3.3 0 6.6 0 10 0 C10 6.6 10 13.2 10 20 C6.7 20 3.4 20 0 20 C0 13.4 0 6.8 0 0 Z " fill="#565227" transform="translate(220,160)"/>
<path d="M0 0 C3.3 0 6.6 0 10 0 C10 6.6 10 13.2 10 20 C6.7 20 3.4 20 0 20 C0 13.4 0 6.8 0 0 Z " fill="#D8D8D8" transform="translate(210,160)"/>
<path d="M0 0 C3.3 0 6.6 0 10 0 C10 6.6 10 13.2 10 20 C6.7 20 3.4 20 0 20 C0 13.4 0 6.8 0 0 Z " fill="#CCCCCC" transform="translate(120,160)"/>
<path d="M0 0 C6.6 0 13.2 0 20 0 C20 3.3 20 6.6 20 10 C13.4 10 6.8 10 0 10 C0 6.7 0 3.4 0 0 Z " fill="#69009C" transform="translate(250,140)"/>
<path d="M0 0 C6.6 0 13.2 0 20 0 C20 3.3 20 6.6 20 10 C13.4 10 6.8 10 0 10 C0 6.7 0 3.4 0 0 Z " fill="#7C0002" transform="translate(270,130)"/>
<path d="M0 0 C3.3 0 6.6 0 10 0 C10 6.6 10 13.2 10 20 C6.7 20 3.4 20 0 20 C0 13.4 0 6.8 0 0 Z " fill="#7A0003" transform="translate(250,110)"/>
<path d="M0 0 C6.6 0 13.2 0 20 0 C20 3.3 20 6.6 20 10 C13.4 10 6.8 10 0 10 C0 6.7 0 3.4 0 0 Z " fill="#484C20" transform="translate(50,110)"/>
<path d="M0 0 C6.6 0 13.2 0 20 0 C20 3.3 20 6.6 20 10 C13.4 10 6.8 10 0 10 C0 6.7 0 3.4 0 0 Z " fill="#C88D40" transform="translate(30,110)"/>
<path d="M0 0 C6.6 0 13.2 0 20 0 C20 3.3 20 6.6 20 10 C13.4 10 6.8 10 0 10 C0 6.7 0 3.4 0 0 Z " fill="#7F0000" transform="translate(260,100)"/>
<path d="M0 0 C3.3 0 6.6 0 10 0 C10 6.6 10 13.2 10 20 C6.7 20 3.4 20 0 20 C0 13.4 0 6.8 0 0 Z " fill="#2F0047" transform="translate(230,100)"/>
<path d="M0 0 C3.3 0 6.6 0 10 0 C10 6.6 10 13.2 10 20 C6.7 20 3.4 20 0 20 C0 13.4 0 6.8 0 0 Z " fill="#2E0046" transform="translate(90,100)"/>
<path d="M0 0 C3.3 0 6.6 0 10 0 C10 6.6 10 13.2 10 20 C6.7 20 3.4 20 0 20 C0 13.4 0 6.8 0 0 Z " fill="#484C20" transform="translate(70,90)"/>
<path d="M0 0 C6.6 0 13.2 0 20 0 C20 3.3 20 6.6 20 10 C13.4 10 6.8 10 0 10 C0 6.7 0 3.4 0 0 Z " fill="#B7B7B7" transform="translate(50,90)"/>
<path d="M0 0 C3.3 0 6.6 0 10 0 C10 6.6 10 13.2 10 20 C6.7 20 3.4 20 0 20 C0 13.4 0 6.8 0 0 Z " fill="#484C20" transform="translate(40,90)"/>
<path d="M0 0 C6.6 0 13.2 0 20 0 C20 3.3 20 6.6 20 10 C13.4 10 6.8 10 0 10 C0 6.7 0 3.4 0 0 Z " fill="#C88C40" transform="translate(230,50)"/>
<path d="M0 0 C3.3 0 6.6 0 10 0 C10 6.6 10 13.2 10 20 C6.7 20 3.4 20 0 20 C0 13.4 0 6.8 0 0 Z " fill="#7F0000" transform="translate(20,50)"/>
<path d="M0 0 C6.6 0 13.2 0 20 0 C20 3.3 20 6.6 20 10 C13.4 10 6.8 10 0 10 C0 6.7 0 3.4 0 0 Z " fill="#2F0047" transform="translate(170,40)"/>
<path d="M0 0 C6.6 0 13.2 0 20 0 C20 3.3 20 6.6 20 10 C13.4 10 6.8 10 0 10 C0 6.7 0 3.4 0 0 Z " fill="#6B00A0" transform="translate(150,40)"/>
<path d="M0 0 C6.6 0 13.2 0 20 0 C20 3.3 20 6.6 20 10 C13.4 10 6.8 10 0 10 C0 6.7 0 3.4 0 0 Z " fill="#2F0047" transform="translate(150,30)"/>
<path d="M0 0 C3.3 0 6.6 0 10 0 C10 3.3 10 6.6 10 10 C6.7 10 3.4 10 0 10 C0 6.7 0 3.4 0 0 Z " fill="#7F7F7F" transform="translate(200,290)"/>
<path d="M0 0 C3.3 0 6.6 0 10 0 C10 3.3 10 6.6 10 10 C6.7 10 3.4 10 0 10 C0 6.7 0 3.4 0 0 Z " fill="#7F7F7F" transform="translate(30,290)"/>
<path d="M0 0 C3.3 0 6.6 0 10 0 C10 3.3 10 6.6 10 10 C6.7 10 3.4 10 0 10 C0 6.7 0 3.4 0 0 Z " fill="#7F7F7F" transform="translate(240,270)"/>
<path d="M0 0 C3.3 0 6.6 0 10 0 C10 3.3 10 6.6 10 10 C6.7 10 3.4 10 0 10 C0 6.7 0 3.4 0 0 Z " fill="#565227" transform="translate(120,270)"/>
<path d="M0 0 C3.3 0 6.6 0 10 0 C10 3.3 10 6.6 10 10 C6.7 10 3.4 10 0 10 C0 6.7 0 3.4 0 0 Z " fill="#565227" transform="translate(210,260)"/>
<path d="M0 0 C3.3 0 6.6 0 10 0 C10 3.3 10 6.6 10 10 C6.7 10 3.4 10 0 10 C0 6.7 0 3.4 0 0 Z " fill="#BBB455" transform="translate(120,260)"/>
<path d="M0 0 C3.3 0 6.6 0 10 0 C10 3.3 10 6.6 10 10 C6.7 10 3.4 10 0 10 C0 6.7 0 3.4 0 0 Z " fill="#565227" transform="translate(110,260)"/>
<path d="M0 0 C3.3 0 6.6 0 10 0 C10 3.3 10 6.6 10 10 C6.7 10 3.4 10 0 10 C0 6.7 0 3.4 0 0 Z " fill="#846146" transform="translate(100,260)"/>
<path d="M0 0 C3.3 0 6.6 0 10 0 C10 3.3 10 6.6 10 10 C6.7 10 3.4 10 0 10 C0 6.7 0 3.4 0 0 Z " fill="#565227" transform="translate(220,250)"/>
<path d="M0 0 C3.3 0 6.6 0 10 0 C10 3.3 10 6.6 10 10 C6.7 10 3.4 10 0 10 C0 6.7 0 3.4 0 0 Z " fill="#BBB455" transform="translate(210,250)"/>
<path d="M0 0 C3.3 0 6.6 0 10 0 C10 3.3 10 6.6 10 10 C6.7 10 3.4 10 0 10 C0 6.7 0 3.4 0 0 Z " fill="#9E9953" transform="translate(190,250)"/>
<path d="M0 0 C3.3 0 6.6 0 10 0 C10 3.3 10 6.6 10 10 C6.7 10 3.4 10 0 10 C0 6.7 0 3.4 0 0 Z " fill="#7E7F7F" transform="translate(290,240)"/>
<path d="M0 0 C3.3 0 6.6 0 10 0 C10 3.3 10 6.6 10 10 C6.7 10 3.4 10 0 10 C0 6.7 0 3.4 0 0 Z " fill="#BAB455" transform="translate(220,240)"/>
<path d="M0 0 C3.3 0 6.6 0 10 0 C10 3.3 10 6.6 10 10 C6.7 10 3.4 10 0 10 C0 6.7 0 3.4 0 0 Z " fill="#9E9853" transform="translate(120,240)"/>
<path d="M0 0 C3.3 0 6.6 0 10 0 C10 3.3 10 6.6 10 10 C6.7 10 3.4 10 0 10 C0 6.7 0 3.4 0 0 Z " fill="#7A553C" transform="translate(310,230)"/>
<path d="M0 0 C3.3 0 6.6 0 10 0 C10 3.3 10 6.6 10 10 C6.7 10 3.4 10 0 10 C0 6.7 0 3.4 0 0 Z " fill="#7A553C" transform="translate(0,230)"/>
<path d="M0 0 C3.3 0 6.6 0 10 0 C10 3.3 10 6.6 10 10 C6.7 10 3.4 10 0 10 C0 6.7 0 3.4 0 0 Z " fill="#9E9953" transform="translate(140,220)"/>
<path d="M0 0 C3.3 0 6.6 0 10 0 C10 3.3 10 6.6 10 10 C6.7 10 3.4 10 0 10 C0 6.7 0 3.4 0 0 Z " fill="#1E1E1E" transform="translate(190,200)"/>
<path d="M0 0 C3.3 0 6.6 0 10 0 C10 3.3 10 6.6 10 10 C6.7 10 3.4 10 0 10 C0 6.7 0 3.4 0 0 Z " fill="#1E1E1E" transform="translate(140,200)"/>
<path d="M0 0 C3.3 0 6.6 0 10 0 C10 3.3 10 6.6 10 10 C6.7 10 3.4 10 0 10 C0 6.7 0 3.4 0 0 Z " fill="#C88D40" transform="translate(260,160)"/>
<path d="M0 0 C3.3 0 6.6 0 10 0 C10 3.3 10 6.6 10 10 C6.7 10 3.4 10 0 10 C0 6.7 0 3.4 0 0 Z " fill="#C88D40" transform="translate(240,160)"/>
<path d="M0 0 C3.3 0 6.6 0 10 0 C10 3.3 10 6.6 10 10 C6.7 10 3.4 10 0 10 C0 6.7 0 3.4 0 0 Z " fill="#0020D8" transform="translate(200,160)"/>
<path d="M0 0 C3.3 0 6.6 0 10 0 C10 3.3 10 6.6 10 10 C6.7 10 3.4 10 0 10 C0 6.7 0 3.4 0 0 Z " fill="#D80000" transform="translate(140,160)"/>
<path d="M0 0 C3.3 0 6.6 0 10 0 C10 3.3 10 6.6 10 10 C6.7 10 3.4 10 0 10 C0 6.7 0 3.4 0 0 Z " fill="#565227" transform="translate(100,160)"/>
<path d="M0 0 C3.3 0 6.6 0 10 0 C10 3.3 10 6.6 10 10 C6.7 10 3.4 10 0 10 C0 6.7 0 3.4 0 0 Z " fill="#AFAFAF" transform="translate(90,160)"/>
<path d="M0 0 C3.3 0 6.6 0 10 0 C10 3.3 10 6.6 10 10 C6.7 10 3.4 10 0 10 C0 6.7 0 3.4 0 0 Z " fill="#C88C40" transform="translate(80,160)"/>
<path d="M0 0 C3.3 0 6.6 0 10 0 C10 3.3 10 6.6 10 10 C6.7 10 3.4 10 0 10 C0 6.7 0 3.4 0 0 Z " fill="#8F9945" transform="translate(280,150)"/>
<path d="M0 0 C3.3 0 6.6 0 10 0 C10 3.3 10 6.6 10 10 C6.7 10 3.4 10 0 10 C0 6.7 0 3.4 0 0 Z " fill="#484C20" transform="translate(280,140)"/>
<path d="M0 0 C3.3 0 6.6 0 10 0 C10 3.3 10 6.6 10 10 C6.7 10 3.4 10 0 10 C0 6.7 0 3.4 0 0 Z " fill="#32004C" transform="translate(270,140)"/>
<path d="M0 0 C3.3 0 6.6 0 10 0 C10 3.3 10 6.6 10 10 C6.7 10 3.4 10 0 10 C0 6.7 0 3.4 0 0 Z " fill="#43065E" transform="translate(50,140)"/>
<path d="M0 0 C3.3 0 6.6 0 10 0 C10 3.3 10 6.6 10 10 C6.7 10 3.4 10 0 10 C0 6.7 0 3.4 0 0 Z " fill="#8F9740" transform="translate(40,140)"/>
<path d="M0 0 C3.3 0 6.6 0 10 0 C10 3.3 10 6.6 10 10 C6.7 10 3.4 10 0 10 C0 6.7 0 3.4 0 0 Z " fill="#7F0000" transform="translate(290,120)"/>
<path d="M0 0 C3.3 0 6.6 0 10 0 C10 3.3 10 6.6 10 10 C6.7 10 3.4 10 0 10 C0 6.7 0 3.4 0 0 Z " fill="#FFFFFF" transform="translate(280,120)"/>
<path d="M0 0 C3.3 0 6.6 0 10 0 C10 3.3 10 6.6 10 10 C6.7 10 3.4 10 0 10 C0 6.7 0 3.4 0 0 Z " fill="#7F0000" transform="translate(280,110)"/>
<path d="M0 0 C3.3 0 6.6 0 10 0 C10 3.3 10 6.6 10 10 C6.7 10 3.4 10 0 10 C0 6.7 0 3.4 0 0 Z " fill="#FFFFFF" transform="translate(260,110)"/>
<path d="M0 0 C3.3 0 6.6 0 10 0 C10 3.3 10 6.6 10 10 C6.7 10 3.4 10 0 10 C0 6.7 0 3.4 0 0 Z " fill="#6B00A0" transform="translate(220,110)"/>
<path d="M0 0 C3.3 0 6.6 0 10 0 C10 3.3 10 6.6 10 10 C6.7 10 3.4 10 0 10 C0 6.7 0 3.4 0 0 Z " fill="#C88D40" transform="translate(290,100)"/>
<path d="M0 0 C3.3 0 6.6 0 10 0 C10 3.3 10 6.6 10 10 C6.7 10 3.4 10 0 10 C0 6.7 0 3.4 0 0 Z " fill="#FFD800" transform="translate(220,100)"/>
<path d="M0 0 C3.3 0 6.6 0 10 0 C10 3.3 10 6.6 10 10 C6.7 10 3.4 10 0 10 C0 6.7 0 3.4 0 0 Z " fill="#FFD800" transform="translate(120,100)"/>
<path d="M0 0 C3.3 0 6.6 0 10 0 C10 3.3 10 6.6 10 10 C6.7 10 3.4 10 0 10 C0 6.7 0 3.4 0 0 Z " fill="#FFD800" transform="translate(190,90)"/>
<path d="M0 0 C3.3 0 6.6 0 10 0 C10 3.3 10 6.6 10 10 C6.7 10 3.4 10 0 10 C0 6.7 0 3.4 0 0 Z " fill="#2F0047" transform="translate(100,90)"/>
<path d="M0 0 C3.3 0 6.6 0 10 0 C10 3.3 10 6.6 10 10 C6.7 10 3.4 10 0 10 C0 6.7 0 3.4 0 0 Z " fill="#8F9945" transform="translate(240,80)"/>
<path d="M0 0 C3.3 0 6.6 0 10 0 C10 3.3 10 6.6 10 10 C6.7 10 3.4 10 0 10 C0 6.7 0 3.4 0 0 Z " fill="#2F0047" transform="translate(210,70)"/>
<path d="M0 0 C3.3 0 6.6 0 10 0 C10 3.3 10 6.6 10 10 C6.7 10 3.4 10 0 10 C0 6.7 0 3.4 0 0 Z " fill="#FFD800" transform="translate(160,70)"/>
<path d="M0 0 C3.3 0 6.6 0 10 0 C10 3.3 10 6.6 10 10 C6.7 10 3.4 10 0 10 C0 6.7 0 3.4 0 0 Z " fill="#7F0000" transform="translate(80,70)"/>
<path d="M0 0 C3.3 0 6.6 0 10 0 C10 3.3 10 6.6 10 10 C6.7 10 3.4 10 0 10 C0 6.7 0 3.4 0 0 Z " fill="#FFFFFF" transform="translate(70,70)"/>
<path d="M0 0 C3.3 0 6.6 0 10 0 C10 3.3 10 6.6 10 10 C6.7 10 3.4 10 0 10 C0 6.7 0 3.4 0 0 Z " fill="#7F0000" transform="translate(30,70)"/>
<path d="M0 0 C3.3 0 6.6 0 10 0 C10 3.3 10 6.6 10 10 C6.7 10 3.4 10 0 10 C0 6.7 0 3.4 0 0 Z " fill="#C88D40" transform="translate(20,70)"/>
<path d="M0 0 C3.3 0 6.6 0 10 0 C10 3.3 10 6.6 10 10 C6.7 10 3.4 10 0 10 C0 6.7 0 3.4 0 0 Z " fill="#2F0047" transform="translate(200,60)"/>
<path d="M0 0 C3.3 0 6.6 0 10 0 C10 3.3 10 6.6 10 10 C6.7 10 3.4 10 0 10 C0 6.7 0 3.4 0 0 Z " fill="#7F0000" transform="translate(90,60)"/>
<path d="M0 0 C3.3 0 6.6 0 10 0 C10 3.3 10 6.6 10 10 C6.7 10 3.4 10 0 10 C0 6.7 0 3.4 0 0 Z " fill="#FFFFFE" transform="translate(50,60)"/>
<path d="M0 0 C3.3 0 6.6 0 10 0 C10 3.3 10 6.6 10 10 C6.7 10 3.4 10 0 10 C0 6.7 0 3.4 0 0 Z " fill="#FFFEFF" transform="translate(30,60)"/>
<path d="M0 0 C3.3 0 6.6 0 10 0 C10 3.3 10 6.6 10 10 C6.7 10 3.4 10 0 10 C0 6.7 0 3.4 0 0 Z " fill="#2F0047" transform="translate(190,50)"/>
<path d="M0 0 C3.3 0 6.6 0 10 0 C10 3.3 10 6.6 10 10 C6.7 10 3.4 10 0 10 C0 6.7 0 3.4 0 0 Z " fill="#2F0047" transform="translate(110,50)"/>
<path d="M0 0 C3.3 0 6.6 0 10 0 C10 3.3 10 6.6 10 10 C6.7 10 3.4 10 0 10 C0 6.7 0 3.4 0 0 Z " fill="#FFFFFF" transform="translate(70,50)"/>
<path d="M0 0 C3.3 0 6.6 0 10 0 C10 3.3 10 6.6 10 10 C6.7 10 3.4 10 0 10 C0 6.7 0 3.4 0 0 Z " fill="#FFD800" transform="translate(130,40)"/>
<path d="M0 0 C3.3 0 6.6 0 10 0 C10 3.3 10 6.6 10 10 C6.7 10 3.4 10 0 10 C0 6.7 0 3.4 0 0 Z " fill="#2F0047" transform="translate(100,40)"/>
<path d="M0 0 C3.3 0 6.6 0 10 0 C10 3.3 10 6.6 10 10 C6.7 10 3.4 10 0 10 C0 6.7 0 3.4 0 0 Z " fill="#FEFFFF" transform="translate(40,40)"/>
<path d="M0 0 C3.3 0 6.6 0 10 0 C10 3.3 10 6.6 10 10 C6.7 10 3.4 10 0 10 C0 6.7 0 3.4 0 0 Z " fill="#7F0000" transform="translate(30,40)"/>
<path d="M0 0 C3.3 0 6.6 0 10 0 C10 3.3 10 6.6 10 10 C6.7 10 3.4 10 0 10 C0 6.7 0 3.4 0 0 Z " fill="#C88D40" transform="translate(280,30)"/>
<path d="M0 0 C3.3 0 6.6 0 10 0 C10 3.3 10 6.6 10 10 C6.7 10 3.4 10 0 10 C0 6.7 0 3.4 0 0 Z " fill="#C88D40" transform="translate(170,30)"/>
<path d="M0 0 C3.3 0 6.6 0 10 0 C10 3.3 10 6.6 10 10 C6.7 10 3.4 10 0 10 C0 6.7 0 3.4 0 0 Z " fill="#9500DB" transform="translate(120,30)"/>
<path d="M0 0 C3.3 0 6.6 0 10 0 C10 3.3 10 6.6 10 10 C6.7 10 3.4 10 0 10 C0 6.7 0 3.4 0 0 Z " fill="#8F9845" transform="translate(20,30)"/>
<path d="M0 0 C3.3 0 6.6 0 10 0 C10 3.3 10 6.6 10 10 C6.7 10 3.4 10 0 10 C0 6.7 0 3.4 0 0 Z " fill="#8F9945" transform="translate(250,20)"/>
<path d="M0 0 C3.3 0 6.6 0 10 0 C10 3.3 10 6.6 10 10 C6.7 10 3.4 10 0 10 C0 6.7 0 3.4 0 0 Z " fill="#8F9945" transform="translate(210,20)"/>
<path d="M0 0 C3.3 0 6.6 0 10 0 C10 3.3 10 6.6 10 10 C6.7 10 3.4 10 0 10 C0 6.7 0 3.4 0 0 Z " fill="#C88D40" transform="translate(160,20)"/>
<path d="M0 0 C3.3 0 6.6 0 10 0 C10 3.3 10 6.6 10 10 C6.7 10 3.4 10 0 10 C0 6.7 0 3.4 0 0 Z " fill="#2F0047" transform="translate(140,20)"/>
<path d="M0 0 C3.3 0 6.6 0 10 0 C10 3.3 10 6.6 10 10 C6.7 10 3.4 10 0 10 C0 6.7 0 3.4 0 0 Z " fill="#2E0047" transform="translate(90,20)"/>
</svg>
